<svg width="270" height="270" viewBox="0 0 270 270" fill="none" xmlns="http://www.w3.org/2000/svg">
<g clip-path="url(#clip0_828_8397)">
<path d="M8.63965 81.0959L16.6477 220.904L133.937 235.98L250.992 227.05L261.36 94.0344L120.787 34.0195L8.63965 81.0959Z" fill="#F7F9FD"/>
<path d="M23.0523 90.0063C24.5946 90.0063 25.8449 88.7579 25.8449 87.218C25.8449 85.6781 24.5946 84.4297 23.0523 84.4297C21.51 84.4297 20.2598 85.6781 20.2598 87.218C20.2598 88.7579 21.51 90.0063 23.0523 90.0063Z" fill="#6699FF"/>
<path d="M23.0527 90.4003C21.2947 90.4003 19.8652 88.973 19.8652 87.2177C19.8652 85.4624 21.2947 84.0352 23.0527 84.0352C24.8106 84.0352 26.2401 85.4624 26.2401 87.2177C26.2401 88.973 24.8106 90.4003 23.0527 90.4003ZM23.0527 84.8237C21.7306 84.8237 20.655 85.8977 20.655 87.2177C20.655 88.5378 21.7306 89.6118 23.0527 89.6118C24.3747 89.6118 25.4503 88.5378 25.4503 87.2177C25.4503 85.8977 24.3747 84.8237 23.0527 84.8237Z" fill="#6699FF"/>
<path d="M233.573 104.453C234.889 104.453 235.956 103.388 235.956 102.073C235.956 100.759 234.889 99.6934 233.573 99.6934C232.257 99.6934 231.189 100.759 231.189 102.073C231.189 103.388 232.257 104.453 233.573 104.453Z" fill="#6699FF"/>
<path d="M233.573 104.847C232.041 104.847 230.795 103.603 230.795 102.073C230.795 100.543 232.041 99.2988 233.573 99.2988C235.105 99.2988 236.352 100.543 236.352 102.073C236.352 103.603 235.105 104.847 233.573 104.847ZM233.573 100.087C232.477 100.087 231.585 100.978 231.585 102.073C231.585 103.167 232.477 104.059 233.573 104.059C234.669 104.059 235.562 103.167 235.562 102.073C235.562 100.978 234.669 100.087 233.573 100.087Z" fill="#6699FF"/>
<path d="M83.1524 40.9065C84.0187 40.9065 84.7209 40.2054 84.7209 39.3405C84.7209 38.4756 84.0187 37.7744 83.1524 37.7744C82.2862 37.7744 81.584 38.4756 81.584 39.3405C81.584 40.2054 82.2862 40.9065 83.1524 40.9065Z" fill="#6699FF"/>
<path d="M83.1528 41.3005C82.0708 41.3005 81.1895 40.4205 81.1895 39.3402C81.1895 38.2599 82.0708 37.3799 83.1528 37.3799C84.2347 37.3799 85.1161 38.2599 85.1161 39.3402C85.1161 40.4205 84.2347 41.3005 83.1528 41.3005ZM83.1528 38.1684C82.5052 38.1684 81.9792 38.6936 81.9792 39.3402C81.9792 39.9868 82.5052 40.512 83.1528 40.512C83.8004 40.512 84.3263 39.9868 84.3263 39.3402C84.3263 38.6936 83.8004 38.1684 83.1528 38.1684Z" fill="#6699FF"/>
<path d="M238.462 68.2253C241.163 68.2253 243.353 66.0393 243.353 63.3427C243.353 60.646 241.163 58.46 238.462 58.46C235.762 58.46 233.572 60.646 233.572 63.3427C233.572 66.0393 235.762 68.2253 238.462 68.2253Z" fill="#6699FF"/>
<path d="M238.463 68.6194C235.549 68.6194 233.178 66.2521 233.178 63.3424C233.178 60.4327 235.549 58.0654 238.463 58.0654C241.377 58.0654 243.748 60.4327 243.748 63.3424C243.748 66.2521 241.377 68.6194 238.463 68.6194ZM238.463 58.854C235.985 58.854 233.967 60.8679 233.967 63.3424C233.967 65.8169 235.985 67.8308 238.463 67.8308C240.941 67.8308 242.958 65.8169 242.958 63.3424C242.958 60.8679 240.941 58.854 238.463 58.854Z" fill="#6699FF"/>
<path d="M246.637 136.282C245.512 136.282 244.637 135.933 244.037 135.244C243.503 134.632 243.22 133.765 243.22 132.736C243.22 130.428 244.67 127.414 247.005 125.507C245.98 124.674 244.689 124.137 243.144 124.137C240.559 124.137 238.919 125.876 237.998 127.337C237.63 127.92 237.33 128.526 237.09 129.13C238.518 130.04 239.344 131.82 239.344 133.508C239.344 134.262 239.174 134.918 238.85 135.405C238.469 135.977 237.905 136.282 237.22 136.282C236.122 136.282 235.466 135.127 235.466 133.195C235.466 132.025 235.7 130.738 236.114 129.511C235.771 129.382 235.392 129.308 234.975 129.308C231.09 129.308 230.572 135.851 230.567 135.917C230.553 136.124 230.38 136.283 230.174 136.283H206.915C206.697 136.283 206.521 136.107 206.521 135.889C206.521 135.671 206.697 135.495 206.915 135.495H229.815C229.989 133.995 230.903 128.519 234.975 128.519C235.484 128.519 235.956 128.611 236.387 128.776C236.654 128.119 236.972 127.489 237.332 126.919C238.358 125.291 240.2 123.35 243.146 123.35C244.82 123.35 246.379 123.935 247.657 125.021C248.884 124.187 250.314 123.66 251.877 123.66C255.011 123.66 257.521 125.793 259.137 129.825C260.329 132.801 260.617 135.728 260.629 135.851C260.65 136.067 260.49 136.26 260.274 136.28C260.059 136.302 259.865 136.141 259.843 135.925C259.84 135.895 259.551 132.976 258.398 130.104C256.891 126.352 254.697 124.45 251.877 124.45C250.615 124.45 249.374 124.838 248.237 125.572C248.404 125.747 248.565 125.933 248.72 126.128C249.941 127.668 250.671 129.724 250.671 131.626C250.671 132.929 250.336 134.05 249.704 134.87C248.99 135.794 247.93 136.283 246.638 136.283L246.637 136.282ZM247.584 126.039C247.115 126.411 246.67 126.844 246.251 127.337C244.868 128.97 244.008 131.04 244.008 132.738C244.008 133.572 244.223 134.26 244.631 134.727C245.075 135.236 245.749 135.493 246.637 135.493C247.69 135.493 248.512 135.121 249.077 134.388C249.603 133.708 249.879 132.752 249.879 131.625C249.879 129.808 249.096 127.587 247.583 126.039H247.584ZM236.815 129.89C236.416 131.128 236.255 132.308 236.255 133.195C236.255 134.255 236.507 135.493 237.218 135.493C238.202 135.493 238.553 134.468 238.553 133.509C238.553 132.32 237.994 130.732 236.815 129.89Z" fill="#6699FF"/>
<path d="M26.7548 59.7402C26.7437 59.7402 26.7311 59.7402 26.7185 59.7402C26.5005 59.7213 26.341 59.5289 26.3599 59.3128C26.371 59.1898 26.6442 56.2485 27.8415 53.2567C29.4636 49.2052 32.0098 47.0635 35.2051 47.0635C38.0925 47.0635 39.8978 48.9655 40.9055 50.5615C41.2578 51.1198 41.5673 51.7333 41.828 52.3736C42.2497 52.2127 42.7093 52.1244 43.2053 52.1244C45.107 52.1244 46.5933 53.3924 47.5063 55.7927C47.9943 57.078 48.1934 58.346 48.2644 58.9532H70.8323C71.0503 58.9532 71.2272 59.1299 71.2272 59.3475C71.2272 59.5651 71.0503 59.7418 70.8323 59.7418H47.9106C47.7037 59.7418 47.5315 59.5825 47.5173 59.3759C47.5173 59.3585 47.3894 57.6931 46.7655 56.0577C45.9678 53.9712 44.7722 52.9114 43.2085 52.9114C42.8041 52.9114 42.4361 52.9823 42.1028 53.1069C42.5072 54.3087 42.7346 55.5656 42.7346 56.7106C42.7346 58.6078 42.0902 59.7418 41.0098 59.7418C39.7414 59.7418 38.9217 58.6725 38.9217 57.0181C38.9217 55.3637 39.7241 53.6337 41.1125 52.7379C40.1189 50.235 38.2062 47.852 35.2083 47.852C28.2601 47.852 27.1592 59.2671 27.1481 59.3838C27.1291 59.5888 26.957 59.7433 26.7548 59.7433V59.7402ZM41.3841 53.4965C40.25 54.3244 39.7099 55.8637 39.7099 57.0165C39.7099 57.9518 40.051 58.9516 41.0082 58.9516C41.6984 58.9516 41.9433 57.7436 41.9433 56.709C41.9433 55.8164 41.7616 54.6682 41.3825 53.4949L41.3841 53.4965Z" fill="#6699FF"/>
<path d="M88.9779 108.354H40.8174V141.29H88.9779V108.354Z" fill="#0043AE"/>
<path d="M88.9781 108.354H56.5146V141.29H88.9781V108.354Z" fill="#6699FF"/>
<path d="M76.9433 112.354H68.5498C67.9592 112.354 67.4805 112.833 67.4805 113.422C67.4805 114.012 67.9592 114.49 68.5498 114.49H76.9433C77.5338 114.49 78.0126 114.012 78.0126 113.422C78.0126 112.833 77.5338 112.354 76.9433 112.354Z" fill="black"/>
<path d="M50.978 112.354H46.6123C46.0217 112.354 45.543 112.833 45.543 113.422C45.543 114.012 46.0217 114.49 46.6123 114.49H50.978C51.5686 114.49 52.0474 114.012 52.0474 113.422C52.0474 112.833 51.5686 112.354 50.978 112.354Z" fill="black"/>
<path d="M124.112 127.96L130.762 156.531C131.312 158.89 131.206 161.355 130.457 163.661L116.395 206.952L106.376 211.398L98.957 206.009L109.991 161.924C110.378 160.376 110.263 158.745 109.66 157.267L102.633 140.033L124.111 127.962L124.112 127.96Z" fill="#FD8571"/>
<path d="M93.8926 105.732C94.0189 111.711 101.073 142.793 103.129 152.11C103.129 152.11 103.867 147.609 113.559 144.751C119.555 142.983 127.283 141.29 127.283 141.29L121.543 117.165L93.8942 105.732H93.8926Z" fill="#228279"/>
<path d="M79.5941 129.243L50.6562 136.598L60.4259 174.923L89.3637 167.569L79.5941 129.243Z" fill="white"/>
<path d="M53.2271 140.05C53.1118 140.05 53.0012 139.999 52.9254 139.909L51.1879 137.851C51.0474 137.684 51.0679 137.436 51.2353 137.296C51.4012 137.156 51.6507 137.176 51.7913 137.343L53.3708 139.212L78.4485 132.841L78.9571 130.365C79.0014 130.152 79.2098 130.013 79.4231 130.057C79.6363 130.101 79.7737 130.309 79.7311 130.522L79.1719 133.24C79.1419 133.388 79.0298 133.505 78.8829 133.542L53.3266 140.035C53.295 140.043 53.2618 140.048 53.2286 140.048L53.2271 140.05Z" fill="#231F20"/>
<path d="M118.437 198.028C119.74 198.309 121.517 201.695 124.665 203.168C127.258 204.383 131.546 205.998 133.496 207.9C135.445 209.802 136.607 213.689 136.576 215.501L97.1465 208.955C97.1465 208.955 98.1274 201.829 98.6281 199.642C99.1272 197.456 100.13 194.442 101.248 194.371C102.367 194.3 102.983 197.718 103.981 198.776C105.731 200.632 109.419 201.2 111.479 200.632C115.094 199.636 117.486 197.825 118.437 198.028Z" fill="white"/>
<path d="M98.6288 199.64C98.4898 200.247 98.3145 201.233 98.1328 202.343C99.4991 202.957 101.083 203.08 102.522 202.66C103.898 202.258 105.177 201.277 105.673 199.962C105.021 199.651 104.435 199.257 103.982 198.776C102.983 197.718 102.367 194.3 101.249 194.371C100.131 194.442 99.1279 197.454 98.6288 199.642V199.64Z" fill="#228279"/>
<path d="M96.4168 208.75L137.056 215.601C137.056 215.601 136.74 217.883 134.721 218.055C132.894 218.211 97.7262 212.019 96.8322 211.428C95.9382 210.836 96.4152 208.75 96.4152 208.75H96.4168Z" fill="#46C1B5"/>
<path d="M118.19 202.378C118.088 202.378 117.985 202.339 117.907 202.259C117.756 202.103 117.759 201.853 117.915 201.7C119.042 200.606 120.413 199.726 121.88 199.16C122.084 199.081 122.313 199.182 122.39 199.385C122.469 199.589 122.368 199.817 122.164 199.895C120.796 200.423 119.517 201.243 118.467 202.265C118.389 202.339 118.29 202.377 118.192 202.377L118.19 202.378Z" fill="#231F20"/>
<path d="M120.582 203.814C120.483 203.814 120.383 203.776 120.306 203.702C120.149 203.549 120.146 203.3 120.299 203.144C121.175 202.249 122.269 201.582 123.465 201.213C123.673 201.148 123.894 201.265 123.959 201.473C124.024 201.682 123.907 201.902 123.699 201.967C122.628 202.298 121.648 202.896 120.863 203.695C120.786 203.774 120.683 203.814 120.581 203.814H120.582Z" fill="#231F20"/>
<path d="M122.815 205.046C122.73 205.046 122.644 205.019 122.572 204.962C122.4 204.828 122.37 204.58 122.504 204.408C123.284 203.413 124.38 202.664 125.592 202.298C125.8 202.235 126.021 202.353 126.085 202.562C126.148 202.77 126.029 202.991 125.821 203.054C124.764 203.374 123.807 204.027 123.126 204.896C123.049 204.995 122.932 205.047 122.815 205.047V205.046Z" fill="#231F20"/>
<path d="M118.703 201.011C117.75 201.011 116.798 200.806 115.931 200.401C115.133 200.029 114.348 199.3 114.536 198.374C114.667 197.731 115.264 197.236 116.136 197.05C117.716 196.712 119.399 197.327 120.454 198.512C120.514 197.696 120.687 196.887 120.966 196.122C121.075 195.823 121.211 195.512 121.457 195.263C121.775 194.941 122.225 194.81 122.607 194.927C123.342 195.151 123.49 196.031 123.312 196.805C122.994 198.177 122.329 199.456 121.389 200.505C121.274 200.634 121.092 200.669 120.941 200.604C120.912 200.623 120.881 200.639 120.848 200.652C120.157 200.893 119.429 201.011 118.703 201.011ZM116.998 197.748C116.765 197.748 116.531 197.772 116.302 197.821C115.874 197.912 115.387 198.147 115.31 198.53C115.22 198.977 115.725 199.433 116.266 199.686C117.569 200.295 119.088 200.39 120.456 199.95C119.876 198.636 118.433 197.748 116.998 197.748ZM122.318 195.673C122.225 195.673 122.108 195.728 122.02 195.816C121.887 195.95 121.799 196.144 121.708 196.393C121.353 197.368 121.187 198.422 121.225 199.459C121.854 198.619 122.306 197.65 122.542 196.627C122.636 196.225 122.598 195.748 122.377 195.681C122.359 195.676 122.339 195.673 122.318 195.673Z" fill="#231F20"/>
<path d="M103.13 152.11C103.553 153.798 110.25 153.299 110.25 153.299L105.523 146.351L103.13 147.609V152.11Z" fill="#228279"/>
<path d="M156.852 197.746C156.511 197.746 156.209 197.5 156.152 197.153C155.758 194.792 155.559 192.372 155.559 189.959C155.559 178.354 160.084 167.444 168.304 159.238C176.522 151.033 187.449 146.513 199.071 146.513C207.254 146.513 215.229 148.793 222.131 153.11C228.846 157.308 234.29 163.247 237.877 170.287C238.056 170.636 237.917 171.063 237.566 171.242C237.216 171.42 236.788 171.279 236.611 170.931C233.142 164.121 227.874 158.374 221.378 154.313C214.701 150.138 206.989 147.932 199.072 147.932C187.829 147.932 177.259 152.304 169.31 160.241C161.36 168.179 156.982 178.733 156.982 189.959C156.982 192.293 157.174 194.635 157.557 196.92C157.621 197.306 157.359 197.672 156.972 197.737C156.933 197.743 156.893 197.746 156.854 197.746H156.852Z" fill="black"/>
<path d="M199.07 229.292C177.314 229.292 159.676 211.682 159.676 189.957C159.676 168.233 177.312 150.623 199.07 150.623C220.828 150.623 238.464 168.233 238.464 189.957C238.464 211.682 220.828 229.292 199.07 229.292ZM232.59 189.957C232.59 171.474 217.583 156.488 199.07 156.488C180.557 156.488 165.55 171.472 165.55 189.957C165.55 208.443 180.557 223.427 199.07 223.427C217.583 223.427 232.59 208.443 232.59 189.957Z" fill="black"/>
<path d="M199.07 195.478C202.123 195.478 204.598 193.007 204.598 189.958C204.598 186.91 202.123 184.438 199.07 184.438C196.017 184.438 193.542 186.91 193.542 189.958C193.542 193.007 196.017 195.478 199.07 195.478Z" fill="black"/>
<path d="M199.307 156.489H198.833V223.426H199.307V156.489Z" fill="#231F20"/>
<path d="M215.618 160.839L182.099 218.808L182.509 219.044L216.028 161.075L215.618 160.839Z" fill="#231F20"/>
<path d="M227.976 173.037L169.919 206.506L170.156 206.916L228.213 173.447L227.976 173.037Z" fill="#231F20"/>
<path d="M182.515 160.855L182.104 161.092L215.624 219.061L216.034 218.824L182.515 160.855Z" fill="#231F20"/>
<path d="M170.159 173.019L169.922 173.429L227.979 206.897L228.216 206.487L170.159 173.019Z" fill="#231F20"/>
<path d="M232.589 189.722H165.55V190.195H232.589V189.722Z" fill="#231F20"/>
<path d="M232.589 189.722H165.55V190.195H232.589V189.722Z" fill="#231F20"/>
<path d="M32.1188 197.746C31.7776 197.746 31.4759 197.5 31.4191 197.153C31.0258 194.792 30.8252 192.372 30.8252 189.959C30.8252 178.354 35.3505 167.444 43.5702 159.238C51.7883 151.033 62.7153 146.513 74.3373 146.513C82.5206 146.513 90.4955 148.793 97.398 153.11C104.112 157.308 109.557 163.247 113.144 170.287C113.322 170.636 113.182 171.063 112.833 171.242C112.484 171.42 112.056 171.281 111.877 170.931C108.407 164.121 103.141 158.374 96.6445 154.313C89.968 150.138 82.2553 147.932 74.3388 147.932C63.096 147.932 52.5259 152.304 44.5763 160.241C36.6267 168.179 32.2483 178.733 32.2483 189.959C32.2483 192.293 32.441 194.635 32.8233 196.92C32.888 197.306 32.6258 197.672 32.2388 197.737C32.1994 197.743 32.1599 197.746 32.1204 197.746H32.1188Z" fill="black"/>
<path d="M74.3357 229.292C52.5797 229.292 34.9414 211.682 34.9414 189.957C34.9414 168.233 52.5781 150.623 74.3357 150.623C96.0933 150.623 113.73 168.233 113.73 189.957C113.73 211.682 96.0933 229.292 74.3357 229.292ZM107.856 189.957C107.856 171.474 92.849 156.488 74.3357 156.488C55.8224 156.488 40.8156 171.472 40.8156 189.957C40.8156 208.443 55.8224 223.427 74.3357 223.427C92.849 223.427 107.856 208.443 107.856 189.957Z" fill="black"/>
<path d="M74.3359 195.478C77.389 195.478 79.8641 193.007 79.8641 189.958C79.8641 186.91 77.389 184.438 74.3359 184.438C71.2827 184.438 68.8076 186.91 68.8076 189.958C68.8076 193.007 71.2827 195.478 74.3359 195.478Z" fill="black"/>
<path d="M107.856 189.88H40.8174V190.038H107.856V189.88Z" fill="#231F20"/>
<path d="M74.5725 156.489H74.0986V223.426H74.5725V156.489Z" fill="#231F20"/>
<path d="M90.8934 160.844L57.374 218.812L57.7844 219.049L91.3038 161.08L90.8934 160.844Z" fill="#231F20"/>
<path d="M103.241 173.03L45.1836 206.498L45.4205 206.908L103.478 173.439L103.241 173.03Z" fill="#231F20"/>
<path d="M57.7815 160.856L57.3711 161.093L90.8904 219.062L91.3008 218.825L57.7815 160.856Z" fill="#231F20"/>
<path d="M45.4264 173.019L45.1895 173.429L103.247 206.897L103.484 206.487L45.4264 173.019Z" fill="#231F20"/>
<path d="M107.856 189.722H40.8174V190.195H107.856V189.722Z" fill="#231F20"/>
<path d="M199.068 192.324C198.072 192.324 197.145 191.692 196.818 190.695L175.387 125.402C174.98 124.16 175.657 122.823 176.9 122.416C178.143 122.009 179.481 122.686 179.889 123.927L201.319 189.22C201.727 190.462 201.049 191.799 199.806 192.206C199.561 192.286 199.312 192.324 199.068 192.324Z" fill="#6699FF"/>
<path d="M119.41 197.844C119.201 197.844 118.991 197.817 118.784 197.76C117.95 197.533 117.307 196.869 117.107 196.032L104.074 141.843C103.916 141.183 104.047 140.489 104.436 139.934C104.824 139.379 105.433 139.018 106.107 138.941L180.043 130.459C181.037 130.344 181.997 130.868 182.439 131.765C182.882 132.662 182.711 133.739 182.015 134.457L121.112 197.128C120.661 197.593 120.045 197.845 119.411 197.845L119.41 197.844ZM109.305 143.335L120.708 190.745L173.992 135.914L109.304 143.335H109.305Z" fill="#6699FF"/>
<path d="M121.226 200.955C127.292 200.955 132.209 196.045 132.209 189.989C132.209 183.933 127.292 179.023 121.226 179.023C115.161 179.023 110.244 183.933 110.244 189.989C110.244 196.045 115.161 200.955 121.226 200.955Z" fill="black"/>
<path d="M103.13 131.628C102.62 131.628 102.149 131.296 101.996 130.784L98.9788 120.703C98.7909 120.077 99.1478 119.418 99.7749 119.232C100.402 119.044 101.062 119.4 101.249 120.027L104.265 130.107C104.453 130.733 104.096 131.393 103.469 131.579C103.356 131.612 103.242 131.629 103.13 131.629V131.628Z" fill="#6699FF"/>
<path d="M74.3343 192.009C73.8857 192.009 73.4308 191.881 73.0296 191.616C71.9382 190.896 71.6396 189.427 72.3615 188.338L103.79 140.906L100.862 131.122C100.488 129.87 101.2 128.553 102.454 128.178C103.708 127.804 105.027 128.515 105.403 129.767L108.649 140.612C108.849 141.283 108.742 142.009 108.355 142.594L76.315 190.948C75.8585 191.635 75.1051 192.008 74.3374 192.008L74.3343 192.009Z" fill="#6699FF"/>
<path d="M98.9565 114.49C95.8576 114.752 91.1822 114.596 89.3974 116.326C87.611 118.056 88.7498 123.125 93.1266 124.718C97.5034 126.311 100.953 123.109 103.002 122.97C105.05 122.832 114.557 122.726 114.557 122.726L98.9565 114.492V114.49Z" fill="black"/>
<path d="M106.376 143.655H87.5069C86.1991 143.655 85.1377 142.595 85.1377 141.289C85.1377 139.984 86.1991 138.924 87.5069 138.924H106.376C107.683 138.924 108.745 139.984 108.745 141.289C108.745 142.595 107.683 143.655 106.376 143.655Z" fill="#6699FF"/>
<path d="M187.143 125.375C186.617 125.375 186.137 125.023 185.998 124.49C185.832 123.857 186.211 123.212 186.843 123.047C186.917 123.028 194.271 121.05 195.625 116.805C196.055 115.461 195.924 114.22 195.238 113.116C194.125 111.323 191.578 109.924 188.593 109.466C185.726 109.028 177.423 109.317 173.975 109.463L178.244 123.104C178.44 123.726 178.091 124.39 177.467 124.586C176.842 124.782 176.178 124.433 175.982 123.81L171.255 108.705C171.146 108.356 171.204 107.976 171.414 107.675C171.625 107.375 171.961 107.189 172.326 107.17C172.844 107.143 185.079 106.536 188.953 107.129C192.659 107.697 195.761 109.468 197.253 111.87C198.305 113.564 198.523 115.518 197.884 117.522C196.134 123.009 187.797 125.242 187.443 125.335C187.342 125.362 187.243 125.375 187.143 125.375Z" fill="#6699FF"/>
<path d="M90.843 79.1123H60.9668V99.5436H90.843V79.1123Z" fill="#228279"/>
<path d="M81.1054 79.1123H60.9668V99.5436H81.1054V79.1123Z" fill="#46C1B5"/>
<path d="M73.6396 81.5947H68.4319C68.0656 81.5947 67.7686 81.8913 67.7686 82.2571C67.7686 82.6229 68.0656 82.9195 68.4319 82.9195H73.6396C74.0059 82.9195 74.3029 82.6229 74.3029 82.2571C74.3029 81.8913 74.0059 81.5947 73.6396 81.5947Z" fill="black"/>
<path d="M87.2482 81.5947H84.5394C84.173 81.5947 83.876 81.8913 83.876 82.2571C83.876 82.6229 84.173 82.9195 84.5394 82.9195H87.2482C87.6146 82.9195 87.9116 82.6229 87.9116 82.2571C87.9116 81.8913 87.6146 81.5947 87.2482 81.5947Z" fill="black"/>
<path d="M94.4407 141.289H43.4561L62.7844 157.163L91.4286 144.924L94.4407 141.289Z" fill="black"/>
<path d="M82.8853 99.5605H35.4023V108.351H82.8853V99.5605Z" fill="white"/>
<path d="M94.4407 141.289L92.1994 180.658L45.3072 181.008L43.4561 141.291C43.4561 141.291 58.5134 144.577 69.6457 144.642C83.3732 144.722 94.4392 141.291 94.4392 141.291L94.4407 141.289Z" fill="#46C1B5"/>
<path d="M133.055 126.104C133.055 126.104 131.427 130.591 128.792 129.646C126.157 128.702 127.776 122.969 127.776 122.969L134.044 124.227L133.053 126.104H133.055Z" fill="#228279"/>
<path d="M140.823 106.863C145.481 108.447 157.934 111.55 159.755 116.865C161.576 122.18 158.915 127.383 154.993 133.046C151.071 138.71 134.683 162.765 134.683 162.765H123.889L121.307 155.982L137.31 127.894L127.917 124.647L140.825 106.863H140.823Z" fill="#FEB0A3"/>
<path d="M126.007 96.0302L123.644 100.803L142.938 107.609C142.938 107.609 125.535 127.758 128.792 129.648C128.792 129.648 111.879 123.669 106.995 121.1C102.109 118.531 90.2917 112.656 94.967 100.017C99.6423 87.3783 105.392 80.3555 105.392 80.3555L125.59 94.5446L126.01 96.0318L126.007 96.0302Z" fill="#46C1B5"/>
<path d="M117.367 98.6509L123.644 100.802L124.871 98.3213L117.367 98.6509Z" fill="#228279"/>
<path d="M137.282 127.96L133.06 135.368L140.024 128.849L137.282 127.96Z" fill="#FD8571"/>
<path d="M136.505 161.682C137.657 162.352 138.292 166.123 140.825 168.499C142.913 170.458 146.486 173.324 147.746 175.737C149.007 178.15 148.903 182.204 148.307 183.919L112.871 165.459C112.871 165.459 116.022 158.991 117.178 157.067C118.335 155.144 120.225 152.591 121.31 152.872C122.395 153.151 121.917 156.591 122.536 157.906C123.621 160.213 126.951 161.898 129.085 161.997C132.831 162.172 135.668 161.193 136.508 161.682H136.505Z" fill="white"/>
<path d="M112.237 165.037L148.731 184.163C148.731 184.163 147.721 186.233 145.749 185.771C143.963 185.352 112.466 168.552 111.801 167.713C111.136 166.874 112.239 165.039 112.239 165.039L112.237 165.037Z" fill="#46C1B5"/>
<path d="M135.039 165.758C134.893 165.758 134.753 165.678 134.683 165.538C134.587 165.342 134.667 165.106 134.863 165.009C136.275 164.319 137.852 163.908 139.422 163.825C139.637 163.812 139.826 163.979 139.837 164.197C139.848 164.415 139.682 164.601 139.464 164.612C138 164.689 136.53 165.072 135.212 165.717C135.157 165.744 135.097 165.758 135.039 165.758Z" fill="#231F20"/>
<path d="M136.865 167.866C136.723 167.866 136.586 167.788 136.515 167.654C136.413 167.462 136.489 167.224 136.682 167.123C137.792 166.546 139.035 166.249 140.293 166.27C140.511 166.273 140.684 166.452 140.681 166.67C140.678 166.888 140.5 167.068 140.28 167.058C139.159 167.042 138.042 167.304 137.048 167.821C136.99 167.851 136.928 167.866 136.867 167.866H136.865Z" fill="#231F20"/>
<path d="M138.604 169.729C138.476 169.729 138.352 169.668 138.276 169.554C138.154 169.373 138.203 169.128 138.385 169.007C139.437 168.303 140.711 167.931 141.977 167.96C142.195 167.964 142.367 168.144 142.362 168.363C142.357 168.581 142.179 168.758 141.959 168.748C140.855 168.724 139.742 169.048 138.824 169.661C138.756 169.707 138.68 169.727 138.604 169.727V169.729Z" fill="#231F20"/>
<path d="M138.342 165.003C138.247 165.003 138.154 164.968 138.081 164.905C138.048 164.915 138.013 164.921 137.977 164.921C136.287 164.956 134.613 164.31 133.382 163.158C132.741 162.555 132.22 161.62 132.687 160.798C133.011 160.227 133.735 159.943 134.621 160.037C136.227 160.205 137.634 161.314 138.271 162.766C138.582 162.009 138.997 161.295 139.501 160.655C139.699 160.404 139.923 160.15 140.236 159.989C140.637 159.783 141.106 159.797 141.433 160.027C142.062 160.469 141.929 161.352 141.518 162.03C140.79 163.235 139.759 164.244 138.539 164.949C138.478 164.985 138.408 165.003 138.342 165.003ZM134.305 160.808C133.927 160.808 133.536 160.906 133.376 161.188C133.15 161.585 133.49 162.174 133.926 162.582C134.974 163.565 136.39 164.126 137.825 164.134C137.661 162.472 136.205 160.995 134.54 160.82C134.464 160.812 134.385 160.808 134.305 160.808ZM140.828 160.631C140.755 160.631 140.673 160.65 140.598 160.689C140.43 160.776 140.286 160.932 140.122 161.141C139.481 161.957 138.996 162.905 138.708 163.905C139.568 163.301 140.297 162.522 140.842 161.622C141.056 161.268 141.169 160.805 140.978 160.671C140.94 160.644 140.887 160.631 140.827 160.631H140.828Z" fill="#231F20"/>
<path d="M117.175 157.065C116.854 157.598 116.38 158.481 115.862 159.479C116.97 160.486 118.438 161.096 119.936 161.143C121.368 161.189 122.889 160.653 123.771 159.557C123.246 159.058 122.814 158.503 122.533 157.904C121.913 156.587 122.392 153.149 121.307 152.87C120.222 152.591 118.331 155.142 117.175 157.065Z" fill="#228279"/>
<path d="M134.897 93.1819C134.897 93.1819 132.769 96.1705 131.712 95.5097C130.325 94.6439 130.013 88.3828 130.013 88.3828L135.081 91.2405L134.898 93.1803L134.897 93.1819Z" fill="#032F63"/>
<path d="M176.94 77.5861C174.138 82.341 159.786 97.2951 156.649 99.8799C153.512 102.466 151.168 102.99 146.405 101.208C141.641 99.4241 126.697 91.3478 126.697 91.3478L129.245 79.3903L154.561 84.7398C154.561 84.7398 163.07 78.474 165.171 76.572C167.271 74.67 172.629 69.0067 172.629 69.0067L181.874 65.5449L176.938 77.5861H176.94Z" fill="#FD8571"/>
<path d="M133.467 87.45C132.709 87.0794 131.913 86.7986 131.065 86.7119C129.569 86.5589 127.783 86.8854 126.445 87.5761C124.906 88.371 124.125 90.1878 124.298 91.8785C124.404 92.9099 124.87 93.5833 125.486 94.1432L126.402 92.1624C126.402 92.1624 129.383 94.1511 131.712 95.509C131.712 95.509 129.724 93.4682 132.455 89.0365C132.756 88.5461 133.099 88.0098 133.467 87.4484V87.45Z" fill="#023989"/>
<path d="M146.204 53.639C147.492 53.4608 150.959 51.827 151.204 50.141C151.589 47.4821 147.492 46.643 146.686 45.629C145.881 44.6149 146.056 41.0491 143.36 40.7337C140.664 40.4182 140.313 43.0063 139.124 43.1813C137.933 43.3564 135.279 41.2289 133.147 42.2272C130.509 43.462 130.86 45.9554 130.368 47.1729C129.879 48.3905 127.111 49.0197 126.726 51.1535C126.341 53.2858 130.087 54.5096 130.122 55.5946C130.157 56.6797 128.511 58.7757 129.877 59.8244C131.243 60.8732 136.467 54.4402 136.467 54.4402L146.204 53.639Z" fill="black"/>
<path d="M136.53 61.0132C138.352 63.5302 141.097 63.8882 142.412 62.7606C144.076 61.3365 146.404 53.0409 146.404 53.0409C146.404 53.0409 144.093 52.6214 142.902 51.1531C141.711 49.6849 140.906 47.6914 140.906 47.6914L137.789 50.1391C137.789 50.1391 136.774 47.3413 134.603 48.0068C132.433 48.6724 132.327 52.6924 132.853 53.6355C133.379 54.5786 134.603 54.4051 134.603 54.4051L124.273 68.1101L131.591 71.6412L136.529 61.0132H136.53Z" fill="#FEB0A3"/>
<path d="M133.848 50.4566C133.836 50.4566 133.821 50.4566 133.807 50.4535C133.633 50.4314 133.512 50.2737 133.534 50.1002C133.632 49.3353 134.313 48.7045 135.083 48.6651C135.856 48.6256 136.596 49.1823 136.773 49.933C136.813 50.1034 136.707 50.2721 136.538 50.3115C136.369 50.351 136.198 50.2453 136.159 50.0766C136.052 49.6208 135.586 49.2675 135.117 49.2943C134.649 49.318 134.219 49.7154 134.161 50.1791C134.14 50.3384 134.005 50.4551 133.848 50.4551V50.4566Z" fill="black"/>
<path d="M146.495 53.7183C146.199 53.7183 145.889 53.7073 145.564 53.6868C145.39 53.6757 145.257 53.5259 145.268 53.3509C145.279 53.1774 145.429 53.0465 145.605 53.056C147.072 53.1522 148.205 53.0244 149.17 52.6522C150.348 52.1996 151.258 51.329 151.602 50.326C151.984 49.2126 151.608 47.9351 150.73 47.3532C150.585 47.257 150.545 47.0614 150.642 46.9163C150.738 46.7712 150.934 46.7318 151.079 46.828C152.19 47.5645 152.671 49.1558 152.199 50.531C151.795 51.7091 150.748 52.7232 149.397 53.242C148.563 53.5622 147.625 53.7183 146.494 53.7183H146.495Z" fill="black"/>
<path d="M145.215 54.8604C144.899 55.3855 142.938 58.7069 142.938 58.7069L145.88 59.9418L145.215 54.8619V54.8604Z" fill="#6699FF"/>
<path d="M145.879 60.0977C145.859 60.0977 145.838 60.093 145.818 60.0851L142.877 58.8503C142.834 58.8329 142.802 58.7982 142.788 58.7541C142.774 58.7115 142.779 58.6642 142.802 58.6247C142.821 58.5916 144.767 55.2971 145.079 54.7782C145.113 54.7214 145.18 54.6915 145.246 54.7056C145.312 54.7198 145.361 54.7735 145.371 54.8397L146.036 59.9195C146.044 59.9763 146.02 60.0315 145.976 60.0662C145.947 60.0867 145.914 60.0977 145.879 60.0977ZM143.166 58.6295L145.687 59.6877L145.116 55.3318C144.597 56.207 143.491 58.0791 143.166 58.6295Z" fill="#6699FF"/>
<path d="M143.983 55.467C144.705 54.3666 144.474 52.9413 143.467 52.2834C142.461 51.6255 141.06 51.9843 140.339 53.0847C139.617 54.1851 139.848 55.6105 140.855 56.2683C141.861 56.9262 143.262 56.5674 143.983 55.467Z" fill="black"/>
<path d="M145.74 55.5598C145.642 55.5598 145.545 55.5157 145.484 55.4305C145.245 55.104 144.846 54.9006 144.441 54.8974C144.268 54.8974 144.125 54.7539 144.127 54.5804C144.127 54.407 144.269 54.2666 144.443 54.2666H144.444C145.046 54.2698 145.639 54.5741 145.994 55.0583C146.097 55.1987 146.067 55.3958 145.924 55.4983C145.868 55.5393 145.803 55.5582 145.738 55.5582L145.74 55.5598Z" fill="black"/>
<path d="M140.892 52.7815C140.815 52.7815 140.737 52.7531 140.677 52.6963C140.061 52.1238 139.513 51.5907 138.932 51.0261C138.531 50.6366 138.127 50.2439 137.694 49.8323C137.567 49.7124 137.563 49.5121 137.683 49.386C137.803 49.2598 138.003 49.2551 138.13 49.3749C138.564 49.7865 138.97 50.1824 139.373 50.5735C139.951 51.135 140.497 51.6664 141.109 52.2326C141.237 52.3509 141.243 52.5512 141.124 52.6789C141.063 52.7452 140.978 52.7799 140.894 52.7799L140.892 52.7815Z" fill="black"/>
<path d="M141.055 61.4707C140.991 61.4707 140.926 61.4518 140.869 61.4107C139.855 60.6727 139.37 59.3101 139.689 58.0973C139.733 57.9285 139.905 57.8276 140.074 57.8733C140.243 57.9175 140.345 58.091 140.299 58.2581C140.048 59.2091 140.444 60.321 141.24 60.9013C141.381 61.0039 141.412 61.201 141.31 61.3414C141.248 61.4265 141.152 61.4707 141.054 61.4707H141.055Z" fill="black"/>
<path d="M136.53 61.0137C135.514 59.7378 135.156 59.1338 135.156 59.1338L133.177 62.8053C133.177 62.8053 133.802 63.966 134.685 64.9848L136.53 61.0137Z" fill="#FD8571"/>
<path d="M136.828 92.0179C136.828 92.0179 134.701 95.0065 133.644 94.3457C132.257 93.4798 131.944 87.2188 131.944 87.2188L137.013 90.0765L136.83 92.0163L136.828 92.0179Z" fill="#0043AE"/>
<path d="M142.168 76.5713C146.124 78.9842 171.336 93.738 173.647 95.1369C175.958 96.5358 185.974 101.57 187.619 103.319C189.265 105.068 189.807 107.424 190.036 108.809C190.246 110.085 189.997 110.955 189.035 111.319C188.294 111.6 187.394 110.837 187.394 110.837C187.394 110.837 187.022 112.013 186.147 112.171C185.302 112.323 184.312 111.572 184.312 111.572C184.312 111.572 183.83 112.392 182.963 112.504C181.93 112.638 180.704 111.291 180.704 111.291C180.704 111.291 180.46 112.026 179.742 112.114C179.003 112.206 177.588 111.002 176.748 109.717C175.907 108.432 175.618 107.41 175.618 107.41L132.68 90.3646L134.855 80.7143L142.168 76.5713Z" fill="#FEB0A3"/>
<path d="M187.145 110.765C187.055 110.765 186.967 110.727 186.904 110.653C186.185 109.806 185.765 108.73 185.719 107.62C185.713 107.447 185.847 107.3 186.022 107.292C186.027 107.292 186.032 107.292 186.035 107.292C186.204 107.292 186.343 107.424 186.351 107.595C186.39 108.563 186.758 109.505 187.385 110.244C187.497 110.377 187.482 110.576 187.349 110.689C187.289 110.74 187.216 110.763 187.145 110.763V110.765Z" fill="black"/>
<path d="M184.072 111.364C183.994 111.364 183.915 111.335 183.855 111.277C183.048 110.517 182.521 109.493 182.372 108.394C182.348 108.222 182.47 108.063 182.642 108.039C182.816 108.015 182.974 108.137 182.998 108.309C183.127 109.264 183.587 110.156 184.288 110.818C184.414 110.938 184.421 111.136 184.301 111.264C184.239 111.33 184.155 111.364 184.072 111.364Z" fill="black"/>
<path d="M193.795 42.5772L165.475 64.5352L182.055 85.8544L210.375 63.8965L193.795 42.5772Z" fill="#46C1B5"/>
<path d="M192.194 45.8181L206.836 64.6455L210.378 63.8964L193.798 42.5771L192.194 45.8181Z" fill="#228279"/>
<path d="M180.538 111.243C180.446 111.243 180.355 111.203 180.293 111.126C179.642 110.326 179.201 109.369 179.021 108.355C178.991 108.183 179.105 108.019 179.277 107.989C179.449 107.959 179.614 108.073 179.644 108.245C179.806 109.153 180.2 110.013 180.784 110.729C180.895 110.864 180.874 111.063 180.738 111.172C180.68 111.219 180.609 111.243 180.539 111.243H180.538Z" fill="black"/>
<path d="M170.294 73.8373C171.546 72.7696 172.8 71.7035 174.053 70.6358C174.317 70.4118 174.585 70.1832 174.901 70.0412C175.217 69.8993 175.593 69.8504 175.909 69.9923C176.427 70.2242 176.618 70.8881 176.522 71.4464C176.402 72.134 175.956 72.7191 175.47 73.2207C174.983 73.7222 174.437 74.1732 174.036 74.7441C173.641 75.3072 173.402 75.9632 173.145 76.6004C172.887 77.2375 172.597 77.8794 172.12 78.3778C171.644 78.8745 170.946 79.2089 170.269 79.0875" fill="#FD8571"/>
<path d="M170.546 79.4262C170.434 79.4262 170.324 79.4167 170.215 79.3978C170.043 79.3663 169.929 79.2038 169.959 79.0319C169.99 78.86 170.155 78.7465 170.325 78.778C170.84 78.8695 171.44 78.6329 171.892 78.1614C172.344 77.6898 172.624 77.0479 172.853 76.4849L172.946 76.2531C173.003 76.1127 173.058 75.9708 173.116 75.832C173.183 75.6711 173.367 75.5954 173.529 75.6617C173.69 75.7279 173.766 75.9124 173.699 76.0733C173.642 76.2105 173.587 76.3493 173.532 76.4865L173.439 76.7215C173.189 77.3397 172.878 78.0462 172.35 78.5982C171.843 79.1281 171.177 79.4293 170.546 79.4293V79.4262Z" fill="black"/>
<path d="M170.294 74.1527C170.204 74.1527 170.115 74.1149 170.054 74.0423C169.94 73.9098 169.956 73.7111 170.088 73.5976L171.156 72.6892C171.289 72.5756 171.488 72.5914 171.601 72.7239C171.715 72.8563 171.699 73.055 171.567 73.1686L170.499 74.077C170.439 74.1275 170.366 74.1527 170.294 74.1527Z" fill="black"/>
<path d="M142.167 76.5714C138.981 74.5259 129.909 69.1764 126.698 67.9699C123.486 66.7634 116.132 68.0219 112.351 71.9032C108.57 75.7844 103.002 83.5989 103.002 83.5989L126.007 96.028L128.332 90.9971C128.332 90.9971 131.313 92.9858 133.643 94.3437C133.643 94.3437 131.654 92.3029 134.385 87.8713C136.901 83.7882 142.167 76.5698 142.167 76.5698V76.5714Z" fill="#6699FF"/>
<path d="M128.332 90.9985C126.927 90.0759 120.544 83.0752 120.544 83.0752L126.824 94.2616L128.332 90.9985Z" fill="#0043AE"/>
<path d="M113.329 216.389C113.254 216.389 113.18 216.378 113.106 216.353C112.733 216.23 112.531 215.828 112.654 215.456L125.489 176.7C125.612 176.328 126.014 176.126 126.388 176.249C126.761 176.372 126.963 176.774 126.84 177.146L114.005 215.902C113.907 216.2 113.629 216.389 113.33 216.389H113.329Z" fill="black"/>
<path d="M141.401 186.195C141.211 186.195 141.02 186.15 140.842 186.055L115.255 172.329C114.679 172.02 114.462 171.303 114.772 170.727C115.082 170.151 115.8 169.935 116.377 170.245L141.963 183.97C142.54 184.279 142.756 184.997 142.446 185.572C142.233 185.97 141.824 186.195 141.402 186.195H141.401Z" fill="black"/>
<path d="M128.073 219.136C128.012 219.136 127.949 219.132 127.885 219.122L99.2 214.572C98.554 214.47 98.1134 213.864 98.216 213.219C98.3187 212.574 98.9252 212.134 99.5712 212.237L128.257 216.786C128.903 216.889 129.343 217.495 129.241 218.14C129.147 218.722 128.645 219.136 128.072 219.136H128.073Z" fill="black"/>
</g>
<defs>
<clipPath id="clip0_828_8397">
<rect width="252.72" height="201.96" fill="white" transform="translate(8.63965 34.0195)"/>
</clipPath>
</defs>
</svg>
