<svg width="148" height="124" viewBox="0 0 148 124" fill="none" xmlns="http://www.w3.org/2000/svg">
<g clip-path="url(#clip0_1017_5411)">
<path d="M37.7859 0.423828L0.0400391 45.1486L22.8678 109.397L142.885 92.9555L147.179 28.9497L37.7859 0.423828Z" fill="#F7F9FD"/>
<path d="M28.4431 17.9395H9.59116C8.89037 17.9395 8.32227 18.5067 8.32227 19.2064C8.32227 19.9061 8.89037 20.4733 9.59116 20.4733H28.4431C29.1439 20.4733 29.712 19.9061 29.712 19.2064C29.712 18.5067 29.1439 17.9395 28.4431 17.9395Z" fill="#6699FF"/>
<path d="M34.5359 13.0695H17.4347C17.3109 13.0695 17.2079 12.9742 17.1994 12.8506C17.1966 12.8138 16.9075 9.1682 14.7495 9.1682C14.5171 9.1682 14.3121 9.20878 14.1316 9.27579C14.3612 9.95998 14.4897 10.6763 14.4897 11.3284C14.4897 12.4193 14.1174 13.0705 13.4938 13.0705C12.7625 13.0705 12.2901 12.4552 12.2901 11.5039C12.2901 10.8584 12.5178 10.1667 12.8995 9.65422C13.0828 9.40696 13.2983 9.20501 13.5373 9.05118C12.9704 7.629 11.882 6.27853 10.1794 6.27853C9.32718 6.27853 8.6129 6.57297 8.04506 7.02973C9.34608 8.09991 10.153 9.78351 10.153 11.0736C10.153 11.6521 9.99422 12.1409 9.69283 12.4863C9.35836 12.8695 8.85194 13.0724 8.22741 13.0724C7.4999 13.0724 6.90277 12.7968 6.50028 12.2759C6.14408 11.8144 5.95606 11.184 5.95606 10.4517C5.95606 9.35695 6.41997 8.02441 7.3166 7.06748C6.72231 6.68811 6.03921 6.45218 5.29658 6.45218C1.51258 6.45218 0.864429 12.794 0.857815 12.8581C0.845533 12.9874 0.72932 13.0827 0.59988 13.0705C0.470439 13.0582 0.375012 12.9431 0.387295 12.8138C0.393909 12.7449 0.555473 11.1057 1.22252 9.43905C2.1286 7.17695 3.53732 5.98126 5.29563 5.98126C6.17054 5.98126 6.96986 6.27476 7.65674 6.74096C8.31433 6.17661 9.15806 5.80762 10.1785 5.80762C11.8328 5.80762 12.8665 6.89667 13.4428 7.81113C13.6422 8.12728 13.8179 8.47457 13.9662 8.8379C14.2119 8.7473 14.4746 8.70012 14.7476 8.70012C17.0256 8.70012 17.5452 11.7408 17.6473 12.6015H34.535C34.6654 12.6015 34.7712 12.7071 34.7712 12.8374C34.7712 12.9676 34.6654 13.0733 34.535 13.0733L34.5359 13.0695ZM13.7017 9.50794C13.5231 9.64006 13.3842 9.79294 13.2784 9.9345C12.9553 10.3696 12.7616 10.9556 12.7616 11.503C12.7616 12.0503 12.9534 12.5977 13.4929 12.5977C13.8113 12.5977 14.0163 12.0994 14.0163 11.3274C14.0163 10.8216 13.9143 10.1714 13.7017 9.50794ZM7.70115 7.34116C6.86215 8.20466 6.42753 9.43905 6.42753 10.4498C6.42753 11.0764 6.58154 11.6077 6.87348 11.9861C7.18716 12.3929 7.64257 12.5986 8.22647 12.5986C8.71777 12.5986 9.09098 12.4561 9.33663 12.1749C9.5615 11.9173 9.68054 11.536 9.68054 11.0726C9.68054 9.87693 8.91996 8.30942 7.70209 7.3421L7.70115 7.34116Z" fill="#6699FF"/>
<path d="M52.7756 111.864C52.7756 111.864 52.4146 116.786 52.3372 118.255C52.2597 119.724 52.3372 120.987 52.3372 120.987H62.8644L69.7275 123.1L82.3447 122.868C82.3447 122.868 82.1642 120.651 80.0743 119.053C77.9843 117.456 73.1081 117.893 71.0181 116.296C68.9282 114.698 66.2704 109.389 66.2704 109.389L52.7765 111.863L52.7756 111.864Z" fill="black"/>
<path d="M69.7783 123.92C68.6181 123.92 67.3161 123.383 65.9367 122.815C64.6432 122.282 63.3054 121.73 62.2434 121.73H52.542C52.1886 121.73 51.9023 121.444 51.9023 121.091C51.9023 120.738 52.1886 120.452 52.542 120.452H62.2434C63.5586 120.452 65.0155 121.053 66.4252 121.634C67.6279 122.129 68.8713 122.643 69.7774 122.643C70.3679 122.643 73.1674 122.585 75.8743 122.529C78.7163 122.471 81.6557 122.41 82.317 122.41C82.6704 122.41 82.9567 122.696 82.9567 123.049C82.9567 123.402 82.6704 123.688 82.317 123.688C81.6689 123.688 78.7362 123.749 75.9008 123.807C73.0625 123.866 70.3811 123.92 69.7774 123.92H69.7783Z" fill="black"/>
<path d="M62.5023 121.247L62.2189 123.907H52.9039L52.543 121.142L62.5023 121.247Z" fill="black"/>
<path d="M60.5408 119.99C60.4539 119.99 60.3745 119.929 60.3556 119.84C59.8577 117.488 57.0223 115.756 53.3016 115.528C53.1976 115.522 53.1183 115.432 53.1249 115.328C53.1315 115.224 53.2203 115.145 53.3252 115.152C55.2309 115.268 56.9363 115.759 58.2581 116.57C59.6054 117.398 60.4595 118.502 60.726 119.762C60.7477 119.864 60.6825 119.964 60.5805 119.985C60.5672 119.988 60.554 119.989 60.5408 119.989V119.99Z" fill="white"/>
<path d="M70.0749 122.09C70.0522 122.09 70.0286 122.086 70.0059 122.077C69.9086 122.039 69.8604 121.93 69.8991 121.832C70.8317 119.451 73.6189 117.869 75.5388 117.937C75.6427 117.94 75.7249 118.028 75.7211 118.132C75.7173 118.234 75.6333 118.314 75.5322 118.314C75.5303 118.314 75.5274 118.314 75.5255 118.314C73.7323 118.25 71.101 119.801 70.2516 121.97C70.2223 122.045 70.1514 122.09 70.0758 122.09H70.0749Z" fill="white"/>
<path d="M63.4176 120.202C63.3222 120.202 63.24 120.13 63.2296 120.033C63.1625 119.405 63.3099 118.91 63.6661 118.561C64.1338 118.103 64.9435 117.932 66.0083 118.068C67.4019 118.245 68.9326 118.927 69.4069 119.15C70.4773 117.709 72.0325 117.256 72.0996 117.237C72.2007 117.208 72.3046 117.267 72.333 117.367C72.3613 117.467 72.3037 117.572 72.2026 117.6C72.1865 117.605 70.6143 118.067 69.6232 119.498C69.5694 119.575 69.4673 119.602 69.3832 119.559C69.3653 119.55 67.5342 118.643 65.9611 118.444C65.0153 118.324 64.3133 118.458 63.9307 118.832C63.6605 119.096 63.5509 119.487 63.6047 119.994C63.6161 120.098 63.5405 120.19 63.4365 120.202C63.4299 120.202 63.4233 120.203 63.4167 120.203L63.4176 120.202Z" fill="white"/>
<path d="M73.3637 44.8057C73.3637 44.8057 77.0173 45.1077 78.2833 45.2888C79.5494 45.47 84.6533 46.7592 84.6174 48.0285C84.5806 49.2978 83.5158 49.0562 83.5158 49.0562C83.5158 49.0562 84.5702 49.3912 85.2693 49.5394C86.0063 49.696 87.2062 49.68 87.1694 50.5973C87.1694 50.5973 87.9309 50.8492 87.8024 51.4938C87.6739 52.1384 86.3889 52.2186 86.3889 52.2186C86.3889 52.2186 86.7565 53.1151 85.4989 53.0943C85.4989 53.0943 85.8476 53.9701 83.358 53.787C82.0286 53.6889 78.1378 53.0037 75.9893 52.4196C73.8417 51.8354 70.9043 50.4859 70.9043 50.4859L72.0976 45.5908L73.3646 44.8057H73.3637Z" fill="#FEB0A3"/>
<path d="M85.4252 53.131C85.344 53.131 85.2684 53.0781 85.2438 52.9951C85.2192 52.913 85.138 52.8592 85.069 52.8356C84.9764 52.8044 84.8659 52.8035 84.7497 52.8016H84.7213C83.7245 52.7893 82.7457 52.5874 81.8132 52.2005C81.7168 52.1608 81.6714 52.0504 81.7111 51.9541C81.7508 51.8579 81.8623 51.8126 81.9577 51.8522C82.8459 52.2203 83.7765 52.4128 84.7251 52.4241H84.7525C84.8867 52.426 85.0388 52.427 85.189 52.4779C85.394 52.5468 85.5499 52.7006 85.6057 52.8884C85.635 52.9885 85.5783 53.0932 85.4781 53.1225C85.4602 53.1281 85.4422 53.13 85.4243 53.13L85.4252 53.131Z" fill="black"/>
<path d="M86.1242 52.2154C86.0429 52.2154 85.9673 52.1625 85.9428 52.0795C85.9182 51.9974 85.837 51.9436 85.768 51.92C85.6744 51.8889 85.5648 51.8879 85.4486 51.886H85.4203C84.4604 51.8747 83.2595 51.6171 82.2863 51.2132C82.1899 51.1735 82.1446 51.0631 82.1843 50.9668C82.2249 50.8706 82.3345 50.8253 82.4309 50.8649C83.3483 51.2452 84.5237 51.4982 85.425 51.5085H85.4524C85.5866 51.5104 85.7387 51.5114 85.8889 51.5623C86.0939 51.6312 86.2498 51.785 86.3056 51.9728C86.3349 52.0729 86.2782 52.1776 86.178 52.2069C86.1601 52.2126 86.1421 52.2144 86.1242 52.2144V52.2154Z" fill="black"/>
<path d="M86.8787 50.6304C86.6245 50.7398 86.3354 50.7719 86.0624 50.7833C85.7203 50.7974 85.3764 50.7748 85.0372 50.7285C84.3759 50.6389 83.6965 50.4747 83.0966 50.1764C82.9341 50.0953 82.7905 50.3397 82.9539 50.4209C83.4471 50.6662 83.9857 50.8219 84.5251 50.9286C85.0864 51.039 85.6703 51.1051 86.2419 51.055C86.5112 51.0315 86.7738 50.9814 87.0223 50.8748C87.1895 50.8031 87.045 50.5586 86.8796 50.6304H86.8787Z" fill="black"/>
<path d="M78.283 49.6139C78.1867 49.6139 78.1045 49.5403 78.095 49.4421C78.0856 49.3383 78.1621 49.2468 78.266 49.2373C78.2745 49.2373 79.1173 49.1552 79.7589 48.8032C80.3749 48.4654 80.5837 48.0567 80.5856 48.053C80.6281 47.9671 80.7301 47.9256 80.8208 47.9586L83.0884 48.791C83.1867 48.8268 83.2367 48.9353 83.2008 49.0335C83.1649 49.1316 83.0563 49.1817 82.958 49.1458L80.835 48.3663C80.7084 48.5475 80.4363 48.8627 79.9412 49.1345C79.2298 49.5252 78.3388 49.6101 78.301 49.6139C78.2953 49.6139 78.2897 49.6139 78.284 49.6139H78.283Z" fill="black"/>
<path d="M76.5264 27.1253C77.6253 27.1253 78.5162 26.2355 78.5162 25.1379C78.5162 24.0402 77.6253 23.1504 76.5264 23.1504C75.4275 23.1504 74.5366 24.0402 74.5366 25.1379C74.5366 26.2355 75.4275 27.1253 76.5264 27.1253Z" fill="#6699FF"/>
<path d="M76.5268 27.3609C75.2995 27.3609 74.3008 26.3634 74.3008 25.1375C74.3008 23.9116 75.2995 22.9141 76.5268 22.9141C77.7541 22.9141 78.7528 23.9116 78.7528 25.1375C78.7528 26.3634 77.7541 27.3609 76.5268 27.3609ZM76.5268 23.385C75.5593 23.385 74.7732 24.1711 74.7732 25.1365C74.7732 26.1019 75.5602 26.8881 76.5268 26.8881C77.4933 26.8881 78.2804 26.1019 78.2804 25.1365C78.2804 24.1711 77.4933 23.385 76.5268 23.385Z" fill="#6699FF"/>
<path d="M10.7447 53.4059C11.7794 53.4059 12.6182 52.568 12.6182 51.5345C12.6182 50.5009 11.7794 49.6631 10.7447 49.6631C9.70992 49.6631 8.87109 50.5009 8.87109 51.5345C8.87109 52.568 9.70992 53.4059 10.7447 53.4059Z" fill="#6699FF"/>
<path d="M10.7445 53.6424C9.58148 53.6424 8.63477 52.6968 8.63477 51.5351C8.63477 50.3733 9.58148 49.4277 10.7445 49.4277C11.9076 49.4277 12.8543 50.3733 12.8543 51.5351C12.8543 52.6968 11.9076 53.6424 10.7445 53.6424ZM10.7445 49.8996C9.8413 49.8996 9.10718 50.6329 9.10718 51.5351C9.10718 52.4373 9.84225 53.1705 10.7445 53.1705C11.6469 53.1705 12.3819 52.4373 12.3819 51.5351C12.3819 50.6329 11.6478 49.8996 10.7445 49.8996Z" fill="#6699FF"/>
<path d="M3.15808 82.9869C3.4169 82.9869 3.62671 82.7774 3.62671 82.5189C3.62671 82.2603 3.4169 82.0508 3.15808 82.0508C2.89927 82.0508 2.68945 82.2603 2.68945 82.5189C2.68945 82.7774 2.89927 82.9869 3.15808 82.9869Z" fill="#6699FF"/>
<path d="M3.15796 83.2225C2.76964 83.2225 2.45312 82.9063 2.45312 82.5185C2.45312 82.1306 2.76964 81.8145 3.15796 81.8145C3.54628 81.8145 3.8628 82.1306 3.8628 82.5185C3.8628 82.9063 3.54628 83.2225 3.15796 83.2225ZM3.15796 82.2863C3.02947 82.2863 2.92553 82.3901 2.92553 82.5185C2.92553 82.6468 3.02947 82.7506 3.15796 82.7506C3.28646 82.7506 3.39039 82.6468 3.39039 82.5185C3.39039 82.3901 3.28646 82.2863 3.15796 82.2863Z" fill="#6699FF"/>
<path d="M63.4046 62.4973C63.9222 62.4973 64.3418 62.0782 64.3418 61.5612C64.3418 61.0441 63.9222 60.625 63.4046 60.625C62.8869 60.625 62.4673 61.0441 62.4673 61.5612C62.4673 62.0782 62.8869 62.4973 63.4046 62.4973Z" fill="#6699FF"/>
<path d="M63.4044 62.7329C62.7572 62.7329 62.231 62.2072 62.231 61.5608C62.231 60.9143 62.7572 60.3887 63.4044 60.3887C64.0516 60.3887 64.5779 60.9143 64.5779 61.5608C64.5779 62.2072 64.0516 62.7329 63.4044 62.7329ZM63.4044 60.8615C63.018 60.8615 62.7034 61.1757 62.7034 61.5617C62.7034 61.9477 63.018 62.262 63.4044 62.262C63.7909 62.262 64.1055 61.9477 64.1055 61.5617C64.1055 61.1757 63.7909 60.8615 63.4044 60.8615Z" fill="#6699FF"/>
<path d="M13.6823 101.632C13.6823 101.632 10.4122 103.294 9.19248 103.99C7.97367 104.686 6.87012 105.478 6.87012 105.478L8.63126 110.891L11.1662 115.453L11.8238 119.976L14.6734 122.83L18.9071 123.185L27.7629 123C27.7629 123 28.0341 122.198 26.8795 120.169C25.604 117.927 21.1964 115.371 20.4935 114.68C19.1584 113.365 19.8746 109.345 19.8746 109.345L13.6823 101.633V101.632Z" fill="black"/>
<path d="M28.0991 123.81H16.9918C16.3663 123.81 14.9586 123.627 13.6481 122.941C11.9427 122.048 10.9648 120.601 10.8193 118.755C10.5415 115.223 9.53435 113.588 8.2579 111.518C8.1587 111.357 8.0576 111.194 7.95651 111.027C6.52605 108.686 6.04891 105.779 6.02907 105.656C5.98372 105.373 6.17646 105.107 6.45991 105.061C6.74336 105.016 7.0098 105.209 7.05515 105.492C7.05987 105.52 7.52189 108.324 8.84369 110.487C8.94479 110.652 9.04399 110.814 9.1432 110.974C10.4395 113.075 11.5582 114.891 11.8558 118.673C11.9729 120.166 12.7382 121.291 14.13 122.02C15.2637 122.614 16.4977 122.77 16.9918 122.77H28.0991C28.3863 122.77 28.6188 123.002 28.6188 123.289C28.6188 123.576 28.3863 123.808 28.0991 123.808V123.81Z" fill="black"/>
<path d="M6.11566 105.769L3.83203 107.277C3.83203 107.277 4.47073 110.052 5.14817 111.761C5.8445 113.52 7.8957 116.014 7.8957 116.014L10.2955 115.047" fill="black"/>
<path d="M10.5801 111.782C10.5328 111.782 10.4847 111.764 10.4478 111.728C10.3732 111.656 10.3722 111.536 10.445 111.461C11.9463 109.926 12.773 108.096 12.773 106.31C12.773 105.356 12.516 104.426 12.0105 103.544C11.9586 103.454 11.9898 103.339 12.0805 103.287C12.1712 103.235 12.2864 103.266 12.3384 103.357C12.8779 104.296 13.1509 105.289 13.1509 106.31C13.1509 108.196 12.2855 110.119 10.7152 111.726C10.6783 111.763 10.6292 111.782 10.5801 111.782Z" fill="white"/>
<path d="M16.2892 121.702C16.2703 121.702 16.2514 121.699 16.2325 121.693C16.1333 121.662 16.0776 121.555 16.1097 121.456C16.6822 119.649 18.0551 118.587 19.1057 118.016C20.3056 117.362 21.7361 117.006 22.8377 117.088C22.9417 117.095 23.0201 117.186 23.0125 117.29C23.005 117.394 22.9133 117.472 22.8103 117.464C20.8007 117.316 17.3824 118.693 16.4706 121.571C16.4451 121.652 16.3705 121.704 16.2901 121.704L16.2892 121.702Z" fill="white"/>
<path d="M15.0097 119.896C15.0097 119.896 15.0021 119.896 14.9993 119.896C14.9218 119.892 14.851 119.85 14.8094 119.784C14.5533 119.373 14.3436 118.564 14.1215 117.707C13.8721 116.744 13.5887 115.651 13.2589 115.281C12.7166 114.671 12.1412 114.861 12.1176 114.869C11.9957 114.912 11.8606 114.849 11.8162 114.727C11.7727 114.605 11.8341 114.471 11.9551 114.427C11.991 114.414 12.8479 114.111 13.6113 114.968C14.0167 115.424 14.302 116.526 14.5779 117.59C14.7328 118.189 14.8925 118.804 15.056 119.216C15.4141 118.766 16.1038 117.936 16.5932 117.576C17.3056 117.052 18.2117 116.659 18.6945 116.47C18.2674 115.986 17.4124 114.9 17.127 113.697C16.4269 110.741 16.7699 108.999 17.1809 108.059C17.2328 107.94 17.3727 107.886 17.4917 107.938C17.6108 107.99 17.6656 108.129 17.6136 108.248C16.9211 109.833 17.2158 112.027 17.5862 113.589C17.932 115.05 19.2604 116.388 19.2737 116.401C19.3313 116.459 19.3549 116.542 19.337 116.621C19.3181 116.7 19.2604 116.764 19.1839 116.791C19.1707 116.795 17.812 117.264 16.8738 117.956C16.255 118.412 15.2081 119.789 15.1977 119.803C15.1533 119.863 15.0834 119.897 15.0097 119.897V119.896Z" fill="white"/>
<path d="M147.96 6.46484H94.8799V114.975H147.96V6.46484Z" fill="#46C1B5"/>
<path d="M144.537 115.201H94.6104V6.22852H144.537V115.201ZM95.0508 114.729H144.097V6.70034H95.0508V114.729Z" fill="black"/>
<path d="M53.4318 31.8174L56.0697 39.3945L73.4969 44.8067C73.4969 44.8067 72.1808 47.2038 71.9483 49.5225C71.7159 51.8422 71.8709 54.4534 71.8709 54.4534L51.322 49.0591L49.4238 37.6165L53.4308 31.8183L53.4318 31.8174Z" fill="#46C1B5"/>
<path d="M72.3641 85.1112C72.3575 85.1112 72.3499 85.1112 72.3423 85.1102C72.212 85.0989 72.1165 84.9837 72.1279 84.8545C72.1335 84.7865 72.2847 83.1643 72.9451 81.5137C73.8408 79.2742 75.2486 78.0908 77.0164 78.0908C78.615 78.0908 79.6137 79.1431 80.1702 80.0254C80.361 80.3284 80.5302 80.6615 80.6728 81.0097C80.9015 80.9248 81.1518 80.8776 81.4211 80.8776C82.4765 80.8776 83.3013 81.5807 83.8058 82.9104C84.0713 83.6078 84.1809 84.2977 84.2225 84.6383H97.3498C97.4802 84.6383 97.5861 84.744 97.5861 84.8743C97.5861 85.0045 97.4802 85.1102 97.3498 85.1102H84.009C83.8852 85.1102 83.7822 85.0149 83.7737 84.8913C83.7737 84.8818 83.7038 83.9664 83.3608 83.0689C82.9253 81.928 82.2724 81.3495 81.4211 81.3495C81.2076 81.3495 81.013 81.3853 80.8363 81.4495C81.0564 82.1073 81.1792 82.7962 81.1792 83.4228C81.1792 84.4798 80.8174 85.1102 80.2108 85.1102C79.5012 85.1102 79.0421 84.5138 79.0421 83.5918C79.0421 82.6698 79.4823 81.726 80.2439 81.2268C79.6978 79.8593 78.6518 78.5627 77.0164 78.5627C73.2087 78.5627 72.6041 84.8328 72.5984 84.896C72.5871 85.0187 72.4841 85.1112 72.3631 85.1112H72.3641ZM80.4083 81.6845C79.8026 82.1394 79.5154 82.9689 79.5154 83.5927C79.5154 84.0985 79.6987 84.6393 80.2117 84.6393C80.5131 84.6393 80.7078 84.1618 80.7078 83.4238C80.7078 82.9397 80.6114 82.3196 80.4083 81.6845Z" fill="#6699FF"/>
<path d="M86.9492 43.2689C85.8985 43.2689 85.0435 42.4148 85.0435 41.3654C85.0435 40.316 85.8985 39.4619 86.9492 39.4619C87.9998 39.4619 88.8549 40.316 88.8549 41.3654C88.8549 42.4148 87.9998 43.2689 86.9492 43.2689ZM86.9492 40.4056C86.4191 40.4056 85.9883 40.836 85.9883 41.3654C85.9883 41.8948 86.4191 42.3252 86.9492 42.3252C87.4792 42.3252 87.91 41.8948 87.91 41.3654C87.91 40.836 87.4792 40.4056 86.9492 40.4056Z" fill="black"/>
<path d="M86.9493 48.731C86.767 48.731 86.6187 48.5828 86.6187 48.4007V43.0432C86.6187 42.8611 86.767 42.7129 86.9493 42.7129C87.1317 42.7129 87.28 42.8611 87.28 43.0432V48.4007C87.28 48.5828 87.1317 48.731 86.9493 48.731Z" fill="black"/>
<path d="M88.4939 47.8254H86.9491C86.8187 47.8254 86.7129 47.7197 86.7129 47.5894C86.7129 47.4592 86.8187 47.3535 86.9491 47.3535H88.4939C88.6243 47.3535 88.7301 47.4592 88.7301 47.5894C88.7301 47.7197 88.6243 47.8254 88.4939 47.8254Z" fill="black"/>
<path d="M87.9525 46.8488H86.9501C86.8197 46.8488 86.7139 46.7431 86.7139 46.6129C86.7139 46.4826 86.8197 46.377 86.9501 46.377H87.9525C88.0829 46.377 88.1887 46.4826 88.1887 46.6129C88.1887 46.7431 88.0829 46.8488 87.9525 46.8488Z" fill="black"/>
<path d="M87.0758 41.0119C86.3795 41.0119 86.1934 39.4973 86.1934 38.6017C86.1934 37.7061 86.3795 36.1914 87.0758 36.1914C87.7722 36.1914 87.9583 37.7061 87.9583 38.6017C87.9583 39.4973 87.7722 41.0119 87.0758 41.0119ZM87.0758 36.667C86.9502 36.7473 86.6658 37.3937 86.6658 38.6017C86.6658 39.8096 86.9502 40.4561 87.0758 40.5363C87.2015 40.4561 87.4859 39.8096 87.4859 38.6017C87.4859 37.3937 87.2015 36.7473 87.0758 36.667Z" fill="black"/>
<path d="M106.735 38.2178C106.735 38.2178 96.0093 32.2299 94.8802 31.8788C93.7521 31.5277 89.8746 31.7155 89.2 32.0307C88.5254 32.346 86.0301 35.5584 86.8011 36.2171C87.7459 37.023 89.4995 34.0899 89.4995 34.0899C89.4995 34.0899 93.2967 33.4133 93.0491 35.3621C92.7137 38.0054 87.1809 34.6675 86.9154 36.6908C86.7037 38.3065 91.7576 39.4314 94.9908 40.7073C98.223 41.9832 105.514 45.8525 105.514 45.8525L106.734 38.2187L106.735 38.2178Z" fill="#FEB0A3"/>
<path d="M94.8804 31.8786C93.6105 31.3378 90.6287 30.5026 89.7699 30.5904C87.4513 30.8254 83.6115 31.1255 83.7939 32.2853C84.0064 33.6405 89.1708 32.4608 89.1708 32.4608L94.3399 32.3976L94.8804 31.8786Z" fill="#FEB0A3"/>
<path d="M147.96 114.976L101.627 120.962V0.660156L147.96 6.46592V114.976Z" fill="white"/>
<path fill-rule="evenodd" clip-rule="evenodd" d="M147.616 114.673V6.7695L101.971 1.04995V120.57L147.616 114.673ZM147.96 114.976V6.46592L101.627 0.660156V120.962L147.96 114.976Z" fill="black"/>
<path d="M50.7657 41.0176C50.7657 41.0176 59.4571 65.4448 63.4046 76.81C67.352 88.1752 75.1865 110.908 75.1865 110.908C75.1865 110.908 68.2704 111.908 64.6716 112.372C61.0728 112.837 54.8587 112.436 52.1338 112.552C52.1338 112.552 48.7155 97.5398 47.4248 93.1298C46.1352 88.7198 37.8916 64.1717 37.8916 64.1717L42.4589 41.0695L50.7667 41.0176H50.7657Z" fill="#6699FF"/>
<mask id="mask0_1017_5411" style="mask-type:luminance" maskUnits="userSpaceOnUse" x="37" y="41" width="39" height="72">
<path d="M50.7657 41.0176C50.7657 41.0176 59.4571 65.4448 63.4046 76.81C67.352 88.1752 75.1865 110.908 75.1865 110.908C75.1865 110.908 68.2704 111.908 64.6716 112.372C61.0728 112.837 54.8587 112.436 52.1338 112.552C52.1338 112.552 48.7155 97.5398 47.4248 93.1298C46.1352 88.7198 37.8916 64.1717 37.8916 64.1717L42.4589 41.0695L50.7667 41.0176H50.7657Z" fill="white"/>
</mask>
<g mask="url(#mask0_1017_5411)">
<path d="M55.7081 116.619C55.6297 116.39 47.7896 93.6759 44.4062 83.9037C41.0228 74.1315 31.8656 48.7048 31.7739 48.4491L31.8627 48.417C31.9544 48.6727 41.1116 74.0994 44.4959 83.8725C47.8793 93.6457 55.7194 116.359 55.7979 116.588L55.7081 116.619Z" fill="white"/>
<path d="M58.8082 116.619C58.7298 116.39 50.8897 93.6759 47.5063 83.9037C44.1229 74.1315 34.9657 48.7048 34.874 48.4491L34.9628 48.417C35.0545 48.6727 44.2117 74.0994 47.596 83.8725C50.9794 93.6457 58.8186 116.359 58.898 116.588L58.8082 116.619Z" fill="white"/>
<path d="M61.9078 116.619C61.8294 116.39 53.9893 93.6759 50.6059 83.9037C47.2225 74.1315 38.0653 48.7048 37.9736 48.4491L38.0624 48.417C38.1541 48.6727 47.3113 74.0994 50.6956 83.8725C54.079 93.6457 61.9192 116.359 61.9976 116.588L61.9078 116.619Z" fill="white"/>
<path d="M65.0079 116.619C64.9295 116.39 57.0894 93.6759 53.706 83.9037C50.3226 74.1315 41.1654 48.7048 41.0737 48.4491L41.1625 48.417C41.2542 48.6727 50.4114 74.0994 53.7957 83.8725C57.1791 93.6457 65.0183 116.359 65.0977 116.588L65.0079 116.619Z" fill="white"/>
<path d="M68.1085 116.619C68.0301 116.39 60.19 93.6759 56.8066 83.9037C53.4232 74.1315 44.266 48.7048 44.1743 48.4491L44.2631 48.417C44.3548 48.6727 53.512 74.0994 56.8963 83.8725C60.2797 93.6457 68.1198 116.359 68.1983 116.588L68.1085 116.619Z" fill="white"/>
<path d="M71.2091 116.619C71.1307 116.39 63.2905 93.6759 59.9071 83.9037C56.5237 74.1315 47.3665 48.7048 47.2749 48.4491L47.3637 48.417C47.4554 48.6727 56.6126 74.0994 59.9969 83.8725C63.3803 93.6457 71.2204 116.359 71.2988 116.588L71.2091 116.619Z" fill="white"/>
<path d="M74.3087 116.619C74.2303 116.391 66.3901 93.6763 63.0067 83.9041C59.6233 74.1319 47.6742 42.8306 47.5542 42.5154L47.6421 42.4814C47.7621 42.7966 59.7121 74.0989 63.0955 83.873C66.4789 93.6461 74.3181 116.36 74.3975 116.588L74.3077 116.619H74.3087Z" fill="white"/>
</g>
<g style="mix-blend-mode:multiply">
<path d="M47.0252 45.888L41.8759 44.0166L37.8916 64.1716C37.8916 64.1716 42.0384 76.5211 44.9107 85.2751C46.1909 77.848 47.0053 71.1816 47.2576 67.7681C48.1438 55.7848 47.0252 45.888 47.0252 45.888Z" fill="#0043AE"/>
</g>
<path d="M48.6756 41.0693C48.6756 41.0693 48.6974 52.6771 46.5753 64.1716C44.9597 72.9227 35.4132 106.271 28.8344 115.316C28.8344 115.316 20.7845 111.76 18.0748 109.209C15.366 106.657 12.4238 100.859 12.4238 100.859C12.4238 100.859 22.6411 78.5152 24.5761 73.4125C26.5111 68.3098 24.886 47.2026 24.886 47.2026L33.7616 41.0693H48.6747H48.6756Z" fill="#6699FF"/>
<mask id="mask1_1017_5411" style="mask-type:luminance" maskUnits="userSpaceOnUse" x="12" y="41" width="37" height="75">
<path d="M48.6756 41.0693C48.6756 41.0693 48.6974 52.6771 46.5753 64.1716C44.9597 72.9227 35.4132 106.271 28.8344 115.316C28.8344 115.316 20.7845 111.76 18.0748 109.209C15.366 106.657 12.4238 100.859 12.4238 100.859C12.4238 100.859 22.6411 78.5152 24.5761 73.4125C26.5111 68.3098 24.886 47.2026 24.886 47.2026L33.7616 41.0693H48.6747H48.6756Z" fill="white"/>
</mask>
<g mask="url(#mask1_1017_5411)">
<path d="M22.3035 115.089L22.2251 115.036C25.925 109.618 29.9254 99.3078 32.6295 91.6118C36.1565 81.5744 38.9106 71.9739 40.1975 66.8033C43.0537 55.3248 43.9796 38.1718 43.989 38L44.0835 38.0047C44.075 38.1765 43.1481 55.339 40.2901 66.8259C39.0032 71.9994 36.2472 81.6027 32.7192 91.6429C30.0132 99.3436 26.01 109.662 22.3045 115.089H22.3035Z" fill="white"/>
<path d="M25.6766 115.089L25.5981 115.036C29.2981 109.618 33.2984 99.3078 36.0025 91.6118C39.5295 81.5744 42.2837 71.9739 43.5705 66.8033C46.4267 55.3248 47.3526 38.1718 47.3621 38L47.4566 38.0047C47.4481 38.1765 46.5212 55.339 43.6631 66.8259C42.3763 71.9994 39.6202 81.6027 36.0923 91.6429C33.3863 99.3436 29.3831 109.662 25.6775 115.089H25.6766Z" fill="white"/>
<path d="M18.931 115.089L18.8525 115.036C22.5525 109.618 26.5528 99.3078 29.2569 91.6118C32.7839 81.5744 35.5381 71.9739 36.8249 66.8033C39.6811 55.3248 40.607 38.1718 40.6165 38L40.7109 38.0047C40.7024 38.1765 39.7756 55.339 36.9175 66.8259C35.6307 71.9994 32.8746 81.6027 29.3467 91.6429C26.6407 99.3436 22.6375 109.662 18.9319 115.089H18.931Z" fill="white"/>
<path d="M15.5594 115.089L15.481 115.036C19.1809 109.618 23.1812 99.3078 25.8853 91.6118C29.4123 81.5744 32.1665 71.9739 33.4533 66.8033C36.3095 55.3248 37.2354 38.1718 37.2449 38L37.3394 38.0047C37.3309 38.1765 36.404 55.339 33.5459 66.8259C32.2591 71.9994 29.503 81.6027 25.9751 91.6429C23.2691 99.3436 19.2659 109.662 15.5603 115.089H15.5594Z" fill="white"/>
<path d="M12.1873 115.089L12.1089 115.036C15.8088 109.618 19.8092 99.3078 22.5132 91.6118C26.0403 81.5744 28.7944 71.9739 30.0813 66.8033C32.9374 55.3248 33.8634 38.1718 33.8728 38L33.9673 38.0047C33.9588 38.1765 33.0319 55.339 30.1738 66.8259C28.887 71.9994 26.131 81.6027 22.603 91.6429C19.897 99.3436 15.8938 109.662 12.1883 115.089H12.1873Z" fill="white"/>
<path d="M8.81524 115.089L8.73682 115.036C12.4367 109.618 16.4371 99.3078 19.1412 91.6118C22.6682 81.5744 25.4223 71.9739 26.7092 66.8033C29.5654 55.3248 30.4913 38.1718 30.5007 38L30.5952 38.0047C30.5867 38.1765 29.6599 55.339 26.8018 66.8259C25.5149 71.9994 22.7589 81.6027 19.2309 91.6429C16.525 99.3436 12.5218 109.662 8.81618 115.089H8.81524Z" fill="white"/>
</g>
<path d="M96.0813 87.8506H77.2293C76.5286 87.8506 75.9604 88.4178 75.9604 89.1175C75.9604 89.8172 76.5286 90.3845 77.2293 90.3845H96.0813C96.7821 90.3845 97.3502 89.8172 97.3502 89.1175C97.3502 88.4178 96.7821 87.8506 96.0813 87.8506Z" fill="#6699FF"/>
<path d="M47.3177 59.8143C47.3063 59.8143 47.2959 59.8143 47.2846 59.8124C47.1551 59.7945 47.0654 59.6746 47.0833 59.5463C48.1557 51.9012 48.3796 44.9035 48.4259 42.2507C48.4278 42.1214 48.5336 42.0186 48.6621 42.0186C48.6631 42.0186 48.665 42.0186 48.6659 42.0186C48.7963 42.0204 48.9002 42.128 48.8983 42.2583C48.8511 44.9205 48.6262 51.9399 47.551 59.6114C47.535 59.7293 47.4329 59.8143 47.3177 59.8143Z" fill="white"/>
<path d="M18.7974 63.8259C18.7974 63.8259 18.4365 68.6191 18.5395 70.6292C18.6425 72.6393 18.9439 75.4478 20.5945 74.7778C20.5945 74.7778 20.6804 76.015 21.4287 77.0201C22.1855 78.0365 22.8346 76.7492 22.8346 76.7492C22.8346 76.7492 23.1521 77.5976 24.0346 77.4061C24.8603 77.2267 24.6534 76.2472 24.6534 76.2472C24.6534 76.2472 25.0011 76.8927 25.7891 76.4661C26.4079 76.1311 25.9828 73.064 25.9828 73.064C25.9828 73.064 26.835 73.9445 27.3112 73.4509C27.982 72.7554 27.0277 71.6343 26.7953 69.7525C26.5837 68.0387 26.6649 62.5283 26.6649 62.5283L18.7965 63.825L18.7974 63.8259Z" fill="#FEB0A3"/>
<path d="M20.409 74.0929C20.3117 74.0929 20.2295 74.0193 20.221 73.9202C20.1256 72.8349 20.0481 71.7308 19.9895 70.6389C19.9839 70.5351 20.0642 70.4464 20.1681 70.4407C20.2702 70.435 20.3609 70.5153 20.3665 70.6191C20.4242 71.7072 20.5016 72.8066 20.5971 73.8872C20.6065 73.991 20.529 74.0825 20.4251 74.092C20.4194 74.092 20.4138 74.092 20.4081 74.092L20.409 74.0929Z" fill="black"/>
<path d="M22.5678 76.4105C22.4734 76.4105 22.3921 76.3406 22.3808 76.2444C22.1597 74.4362 21.9887 72.5941 21.8725 70.7717C21.8658 70.6679 21.9452 70.5783 22.0491 70.5717C22.1512 70.5651 22.2428 70.6443 22.2494 70.7481C22.3657 72.5639 22.5357 74.3985 22.7559 76.1991C22.7681 76.3029 22.6944 76.3963 22.5915 76.4095C22.5839 76.4105 22.5763 76.4114 22.5678 76.4114V76.4105Z" fill="black"/>
<path d="M24.4736 75.9725C24.3791 75.9725 24.2979 75.9027 24.2866 75.8064C24.0825 74.1417 23.92 72.4468 23.8047 70.7669C23.7971 70.6631 23.8765 70.5725 23.9804 70.5659C24.0853 70.5584 24.1751 70.6376 24.1817 70.7415C24.2969 72.4147 24.4585 74.103 24.6616 75.7611C24.6739 75.8649 24.6002 75.9583 24.4972 75.9716C24.4897 75.9725 24.4812 75.9734 24.4736 75.9734V75.9725Z" fill="black"/>
<path d="M25.863 72.7767C25.7676 72.7767 25.6854 72.705 25.675 72.6078C25.5815 71.7349 25.4983 70.8468 25.4293 69.9692C25.4208 69.8653 25.4993 69.7747 25.6032 69.7663C25.7062 69.7578 25.7978 69.8361 25.8063 69.9399C25.8753 70.8147 25.9575 71.699 26.051 72.5682C26.0624 72.672 25.9868 72.7644 25.8829 72.7758C25.8762 72.7758 25.8696 72.7767 25.8621 72.7767H25.863Z" fill="black"/>
<path d="M47.9216 54.7835C47.8791 54.7835 47.8366 54.7722 47.7979 54.7476C47.7091 54.6929 45.621 53.3641 45.8223 50.549C46.0131 47.8774 46.2455 42.3 46.2474 42.2434C46.2531 42.1131 46.3627 42.0121 46.4931 42.0178C46.6235 42.0235 46.7246 42.1329 46.7189 42.2632C46.717 42.3189 46.4846 47.9038 46.2928 50.583C46.1123 53.1074 47.9679 54.2984 48.0473 54.3475C48.1578 54.4164 48.1919 54.5617 48.1229 54.6721C48.0785 54.7439 48.001 54.7835 47.9226 54.7835H47.9216Z" fill="white"/>
<path d="M51.2519 42.7385C51.2519 42.7385 50.6094 43.0962 48.6404 43.2972C43.9541 43.7757 32.2497 42.7385 32.2497 42.7385L29.7119 38.286L44.8054 38.0029L51.1206 40.2065L51.2519 42.7385Z" fill="black"/>
<path d="M54.3345 21.618C54.9714 25.3485 56.1231 31.3798 51.1609 41.0699C51.1609 41.0699 50.1745 41.5191 47.9221 41.5691C43.8329 41.6597 33.763 41.0699 33.763 41.0699L31.2857 43.802C31.2857 43.802 30.047 50.4155 29.5311 54.4537C29.0153 58.4919 28.7573 62.8726 28.7573 62.8726C28.7573 62.8726 25.8161 63.8003 23.5457 64.0579C21.2753 64.3156 18.54 64.0579 18.54 64.0579C18.54 64.0579 18.8499 56.1722 19.0559 53.3373C19.2619 50.5024 19.8373 44.3106 20.0877 42.896C20.6035 39.9884 29.6341 24.937 34.5368 23.5932C38.4124 22.5305 45.9578 22.2823 48.607 20.8262L54.3345 21.6189V21.618Z" fill="#46C1B5"/>
<path d="M34.5363 40.1765C34.4957 40.1765 34.4551 40.1633 34.4201 40.1368C34.3379 40.0727 34.3228 39.9537 34.387 39.8716C34.4324 39.8131 38.9628 33.9998 39.5656 31.7689C39.8311 30.7855 40.004 29.168 39.6913 27.5797C39.4617 26.4085 38.8834 24.8495 37.4388 24.0728C37.3472 24.0238 37.3122 23.9086 37.3623 23.8171C37.4114 23.7255 37.5267 23.6906 37.6183 23.7406C40.3318 25.2006 40.6039 29.3718 39.9303 31.868C39.3086 34.1716 34.8736 39.8632 34.6846 40.1047C34.6478 40.1529 34.5921 40.1774 34.5354 40.1774L34.5363 40.1765Z" fill="black"/>
<path d="M51.3228 40.9396C51.2944 40.9396 51.2652 40.933 51.2378 40.9198C51.1442 40.8726 51.1064 40.7594 51.1537 40.6669C52.2742 38.4369 53.1416 36.2484 53.7302 34.1637C53.7585 34.0637 53.8625 34.0052 53.9636 34.0335C54.0637 34.0618 54.1223 34.1666 54.0939 34.2666C53.4987 36.3739 52.6229 38.5851 51.491 40.8368C51.4579 40.9028 51.3908 40.9406 51.3218 40.9406L51.3228 40.9396Z" fill="black"/>
<path d="M50.1465 25.8345C50.1361 25.8345 50.1257 25.8345 50.1162 25.8317C50.0605 25.8223 50.0123 25.7892 49.9839 25.7411C49.9745 25.7251 49.0571 24.1613 48.7075 23.7131C48.3532 23.2582 47.2921 22.0181 47.2808 22.0059C47.2128 21.9266 47.2222 21.8077 47.3016 21.7397C47.381 21.6718 47.5 21.6812 47.568 21.7605C47.6115 21.8115 48.6461 23.0194 49.0061 23.4809C49.2971 23.8546 49.9301 24.9097 50.1927 25.3523C50.4658 25.1069 50.9977 24.6181 51.25 24.3038C51.6015 23.865 52.2175 22.9354 52.2241 22.926C52.2817 22.8392 52.3989 22.8156 52.4858 22.8722C52.5728 22.9298 52.5964 23.0468 52.5387 23.1336C52.5132 23.1723 51.9076 24.0868 51.5448 24.5388C51.1773 24.9975 50.3071 25.7553 50.2702 25.7874C50.2353 25.8176 50.1918 25.8336 50.1465 25.8336V25.8345Z" fill="black"/>
<path d="M53.9476 25.0347C53.94 25.0347 53.9325 25.0347 53.9249 25.0337C53.8626 25.0262 53.8078 24.9884 53.7794 24.9328L52.8034 23.0387C52.7552 22.9462 52.7921 22.832 52.8847 22.7848C52.9773 22.7367 53.0916 22.7735 53.1388 22.866L53.9863 24.5119L54.5598 23.8484C54.6279 23.7691 54.7469 23.7607 54.8263 23.8286C54.9057 23.8965 54.9142 24.0155 54.8461 24.0947L54.0903 24.9696C54.0544 25.0111 54.0015 25.0347 53.9476 25.0347Z" fill="black"/>
<path d="M48.9081 40.5887C48.8807 40.5887 48.8523 40.5831 48.8259 40.5699C48.7323 40.5246 48.6927 40.4113 48.738 40.3179C48.7616 40.2688 51.1435 35.3398 52.2329 31.5347C53.1711 28.259 52.9151 26.1998 52.745 24.8371C52.7157 24.605 52.6893 24.386 52.6704 24.1841C52.6609 24.0802 52.7374 23.9887 52.8414 23.9783C52.9453 23.9689 53.037 24.0453 53.0473 24.1491C53.0653 24.3454 53.0927 24.5615 53.121 24.7899C53.2949 26.1829 53.5566 28.2873 52.5976 31.6376C51.4988 35.4747 49.1037 40.4321 49.0791 40.4821C49.046 40.5491 48.9789 40.5887 48.909 40.5887H48.9081Z" fill="black"/>
<path d="M49.1918 37.6539C49.1673 37.6539 49.1418 37.6492 49.1172 37.6388C49.0218 37.5973 48.9774 37.4869 49.018 37.3906C49.0766 37.2548 49.1351 37.116 49.1947 36.9754C49.2353 36.8792 49.3458 36.8348 49.4422 36.8754C49.5386 36.916 49.583 37.0264 49.5424 37.1226C49.4819 37.2642 49.4233 37.4039 49.3647 37.5398C49.3336 37.6115 49.2646 37.6539 49.1909 37.6539H49.1918Z" fill="black"/>
<path d="M50.773 33.6366C50.7522 33.6366 50.7314 33.6328 50.7106 33.6262C50.6124 33.5922 50.5604 33.4846 50.5944 33.3855C50.6388 33.2591 50.6823 33.1317 50.7257 33.0052C50.7598 32.9061 50.8665 32.8533 50.9657 32.8873C51.0649 32.9203 51.1178 33.0279 51.0838 33.127C51.0404 33.2544 50.9969 33.3827 50.9515 33.5101C50.9241 33.5875 50.8514 33.6366 50.773 33.6366Z" fill="black"/>
<path d="M51.8695 29.4192C51.861 29.4192 51.8525 29.4192 51.844 29.4173C51.741 29.4031 51.6683 29.3078 51.6824 29.205C51.7013 29.0691 51.7174 28.9351 51.7325 28.8029C51.7438 28.6991 51.8374 28.6246 51.9413 28.6359C52.0452 28.6472 52.1199 28.7407 52.1085 28.8445C52.0934 28.9794 52.0764 29.1172 52.0575 29.2559C52.0443 29.3503 51.963 29.4192 51.8704 29.4192H51.8695Z" fill="black"/>
<path d="M51.9335 25.4133C51.8371 25.4133 51.7549 25.3397 51.7454 25.2425C51.7332 25.1132 51.7199 24.9877 51.7067 24.8669C51.6954 24.7631 51.77 24.6697 51.8739 24.6584C51.975 24.647 52.0705 24.7216 52.0827 24.8254C52.096 24.9481 52.1092 25.0745 52.1215 25.2057C52.1309 25.3095 52.0553 25.402 51.9514 25.4115C51.9457 25.4115 51.9391 25.4115 51.9335 25.4115V25.4133Z" fill="black"/>
<path d="M50.097 14.3766H49.6907C49.6907 14.3766 49.497 12.8109 48.5295 12.3079C47.562 11.8049 44.8145 11.4756 45.0072 9.22479C45.2009 6.97402 46.381 7.32131 46.8071 6.12279C47.2332 4.92426 46.2978 3.82955 47.5469 2.79806C48.4019 2.09311 48.761 3.20386 49.3033 3.08779C49.8447 2.97171 49.5934 1.87039 50.5609 1.77319C51.5284 1.67693 52.2587 2.83581 52.3815 4.03434C52.5043 5.23286 52.2445 6.16714 52.2445 6.16714L51.979 14.151L50.097 14.3747V14.3766Z" fill="black"/>
<path d="M53.7742 15.5169C53.8904 17.1863 54.3354 21.618 54.3354 21.618C54.3354 21.618 54.1805 22.5457 52.6716 22.4881C51.1618 22.4306 48.6079 20.8262 48.6079 20.8262C48.6079 20.8262 49.8079 17.3798 49.9241 15.9887C50.0403 14.5967 49.9052 12.5677 49.9052 12.5677C49.9052 12.5677 49.6444 13.6889 48.6571 13.5341C47.6697 13.3793 46.3064 12.4422 46.6248 11.3503C46.9441 10.2585 48.521 10.4415 49.3534 11.5051L50.1178 10.8445C50.1178 10.8445 49.6529 10.5001 49.5764 9.94892C49.4989 9.39779 49.9827 9.04012 50.0308 8.44086C50.079 7.84159 48.7629 7.67739 48.9084 6.64307C49.0539 5.60875 49.8664 5.69558 50.8245 6.09194C51.7825 6.4883 52.2464 6.16932 52.2464 6.16932C53.6202 8.10206 57.1812 13.9588 55.73 15.0214C54.2788 16.084 51.6465 15.3696 50.6214 13.5133" fill="#FEB0A3"/>
<path d="M50.8169 13.5332C51.4301 14.643 52.6177 15.3442 53.7836 15.5018L53.948 17.5912C53.948 17.5912 51.4584 16.3927 50.9548 15.6972L50.8159 13.5332H50.8169Z" fill="#FD8571"/>
<path d="M52.0899 11.8448C52.6028 11.8448 53.0186 11.4869 53.0186 11.0454C53.0186 10.604 52.6028 10.2461 52.0899 10.2461C51.577 10.2461 51.1611 10.604 51.1611 11.0454C51.1611 11.4869 51.577 11.8448 52.0899 11.8448Z" fill="#6699FF"/>
<path d="M53.4321 8.75195L54.7993 11.535L56.4896 11.2773L53.4321 8.75195Z" fill="#6699FF"/>
<path d="M54.7993 11.771C54.7105 11.771 54.6273 11.721 54.5877 11.6389L53.2205 8.85589C53.1714 8.75586 53.1988 8.636 53.2866 8.56711C53.3745 8.49822 53.4983 8.50011 53.5833 8.57089L56.6408 11.0963C56.7126 11.1557 56.7428 11.251 56.7182 11.3407C56.6937 11.4304 56.6181 11.4974 56.5264 11.5115L54.8361 11.7692C54.8239 11.771 54.8125 11.772 54.8002 11.772L54.7993 11.771ZM54.1275 9.63257L54.9344 11.2756L55.9321 11.1236L54.1275 9.63257Z" fill="#6699FF"/>
<path d="M51.7826 9.50316C51.6701 9.50316 51.553 9.489 51.432 9.45597C51.3564 9.43616 51.312 9.35783 51.3319 9.28233C51.3527 9.20683 51.4301 9.16248 51.5057 9.18229C51.8912 9.2861 52.2332 9.15587 52.3872 8.99072C52.4411 8.9341 52.5299 8.93127 52.5875 8.98411C52.6442 9.03791 52.6471 9.12756 52.5942 9.18418C52.4288 9.35971 52.134 9.50222 51.7835 9.50222L51.7826 9.50316Z" fill="black"/>
<path d="M54.5156 13.4031C54.3824 13.4031 54.2454 13.3947 54.1112 13.3777C54.0337 13.3682 53.9789 13.2974 53.9884 13.2191C53.9978 13.1417 54.0696 13.087 54.1471 13.0964C54.543 13.1465 54.9001 13.1087 55.0777 13.0492C55.1514 13.0247 55.2327 13.0643 55.2573 13.1389C55.2818 13.2135 55.2421 13.2937 55.1675 13.3182C55.0012 13.3739 54.7669 13.4031 54.5165 13.4031H54.5156Z" fill="black"/>
<path d="M52.145 6.06528C52.1262 6.06528 52.1073 6.0615 52.0893 6.05395C52.0175 6.02281 51.9835 5.93976 52.0147 5.86804C52.5664 4.57986 52.5579 3.04632 51.991 1.76569C51.9599 1.69397 51.991 1.61092 52.0638 1.57884C52.1356 1.54675 52.2187 1.57884 52.2509 1.6515C52.8489 3.00291 52.8584 4.62139 52.2754 5.9794C52.2528 6.03319 52.1998 6.06528 52.145 6.06528Z" fill="black"/>
<path d="M69.4194 51.9242C69.3155 51.9242 69.2305 51.8393 69.2305 51.7355C69.2305 51.693 69.2333 50.6747 69.4374 48.6023C69.6452 46.5035 70.5041 44.7935 70.5409 44.7217C70.5882 44.6283 70.7015 44.5915 70.7951 44.6387C70.8886 44.6859 70.9255 44.7991 70.8782 44.8926C70.8697 44.9095 70.0147 46.6149 69.8144 48.6401C69.6112 50.6917 69.6093 51.726 69.6093 51.7364C69.6093 51.8402 69.5243 51.9252 69.4204 51.9252L69.4194 51.9242Z" fill="black"/>
<path d="M70.4326 53.1651C70.3306 53.1651 70.2455 53.083 70.2436 52.9802L70.2276 52.1808C70.2257 52.077 70.3079 51.9902 70.4128 51.9883C70.5167 51.9864 70.6036 52.0685 70.6055 52.1733L70.6216 52.9726C70.6234 53.0764 70.5413 53.1632 70.4364 53.1651C70.4354 53.1651 70.4335 53.1651 70.4326 53.1651Z" fill="black"/>
<path d="M20.4093 60.7367C20.2836 60.7367 20.1797 60.6386 20.1731 60.5112C20.1674 60.381 20.2676 60.2705 20.3979 60.2649C20.4282 60.2639 23.4658 60.1224 24.8103 59.9827C26.4741 59.8091 28.1351 59.3551 28.1521 59.3504C28.2777 59.3155 28.4081 59.39 28.4421 59.5156C28.4771 59.6411 28.4025 59.7713 28.2768 59.8053C28.2598 59.81 26.561 60.2743 24.8584 60.4517C23.5007 60.5933 20.4499 60.7348 20.4197 60.7358C20.4159 60.7358 20.4121 60.7358 20.4083 60.7358L20.4093 60.7367Z" fill="black"/>
<path d="M21.0167 62.5148H19.83C19.6996 62.5148 19.5938 62.4091 19.5938 62.2789C19.5938 62.1487 19.6996 62.043 19.83 62.043H21.0167C21.147 62.043 21.2529 62.1487 21.2529 62.2789C21.2529 62.4091 21.147 62.5148 21.0167 62.5148Z" fill="black"/>
<path d="M109.258 57.011C110.348 57.011 111.232 55.8127 111.232 54.3346C111.232 52.8565 110.348 51.6582 109.258 51.6582C108.168 51.6582 107.285 52.8565 107.285 54.3346C107.285 55.8127 108.168 57.011 109.258 57.011Z" fill="#46C1B5"/>
<path d="M109.258 57.2465C108.039 57.2465 107.048 55.9404 107.048 54.3342C107.048 52.728 108.039 51.4219 109.258 51.4219C110.477 51.4219 111.468 52.728 111.468 54.3342C111.468 55.9404 110.477 57.2465 109.258 57.2465ZM109.258 51.8937C108.3 51.8937 107.521 52.9884 107.521 54.3342C107.521 55.6799 108.3 56.7746 109.258 56.7746C110.216 56.7746 110.996 55.6799 110.996 54.3342C110.996 52.9884 110.216 51.8937 109.258 51.8937Z" fill="#46C1B5"/>
<path d="M108.446 54.7462H104.782C104.573 54.7462 104.404 54.5773 104.404 54.3687C104.404 54.1601 104.573 53.9912 104.782 53.9912H108.446C108.655 53.9912 108.824 54.1601 108.824 54.3687C108.824 54.5773 108.655 54.7462 108.446 54.7462Z" fill="#46C1B5"/>
<path d="M105.182 64.7924C105.528 64.7924 105.808 64.5123 105.808 64.1667C105.808 63.8211 105.528 63.541 105.182 63.541C104.836 63.541 104.555 63.8211 104.555 64.1667C104.555 64.5123 104.836 64.7924 105.182 64.7924Z" fill="#46C1B5"/>
<path d="M105.181 64.8854C104.784 64.8854 104.46 64.5627 104.46 64.1654C104.46 63.7681 104.784 63.4453 105.181 63.4453C105.579 63.4453 105.902 63.7681 105.902 64.1654C105.902 64.5627 105.579 64.8854 105.181 64.8854ZM105.181 63.635C104.888 63.635 104.649 63.8728 104.649 64.1663C104.649 64.4598 104.888 64.6976 105.181 64.6976C105.475 64.6976 105.713 64.4598 105.713 64.1663C105.713 63.8728 105.475 63.635 105.181 63.635Z" fill="#46C1B5"/>
<path d="M104.498 66.8156L105.181 64.043L105.864 66.8156H104.498Z" fill="#46C1B5"/>
<path d="M105.865 66.9096H104.499C104.469 66.9096 104.442 66.8964 104.424 66.8738C104.406 66.8511 104.399 66.8209 104.407 66.7926L105.09 64.02C105.1 63.9775 105.138 63.9482 105.182 63.9482C105.225 63.9482 105.263 63.9775 105.273 64.02L105.956 66.7926C105.963 66.8209 105.956 66.8502 105.939 66.8738C105.921 66.8964 105.894 66.9096 105.865 66.9096ZM104.619 66.7209H105.744L105.181 64.438L104.618 66.7209H104.619Z" fill="#46C1B5"/>
</g>
<defs>
<clipPath id="clip0_1017_5411">
<rect width="147.92" height="123.496" fill="white" transform="translate(0.0400391 0.423828)"/>
</clipPath>
</defs>
</svg>
