<svg width="160" height="40" viewBox="0 0 160 40" fill="none" xmlns="http://www.w3.org/2000/svg">
<path fill-rule="evenodd" clip-rule="evenodd" d="M19.8263 4.7998C11.5563 17.8888 21.0533 35.6508 36.4758 34.7681L19.8263 4.7998Z" fill="#82A5F9"/>
<path fill-rule="evenodd" clip-rule="evenodd" d="M19.8214 4.7998C28.0914 17.8888 18.5944 35.6508 3.17189 34.7681L19.8214 4.7998Z" fill="#6ABEB5"/>
<path d="M18.7514 6.72566L19.7838 4.86741C19.7971 4.84616 19.8104 4.82493 19.8238 4.80371C19.8372 4.82493 19.8506 4.84616 19.8639 4.86741L20.8963 6.72566C24.048 13.1831 23.2571 20.4538 19.8238 25.9779C16.3906 20.4538 15.5997 13.1831 18.7514 6.72566Z" fill="#4263A8"/>
<path fill-rule="evenodd" clip-rule="evenodd" d="M52.3136 17.0427V18.4028C51.6625 17.3332 50.5039 16.7885 49.1467 16.7885C46.4502 16.7342 44.3696 19.0733 44.4057 21.9209C44.4057 24.803 46.4322 27.0516 49.1467 27.0516C50.5039 27.0516 51.6625 26.4897 52.3136 25.4201V26.7982H54.7924V17.0427H52.3136ZM52.3136 21.921C52.3136 23.7154 51.155 24.8945 49.5449 24.8945C47.8978 24.8945 46.7762 23.6068 46.7762 21.921C46.7762 21.0686 47.0291 20.361 47.5365 19.7991C48.0612 19.2372 48.7304 18.9467 49.5449 18.9467C51.155 18.9467 52.3136 20.1257 52.3136 21.921ZM66.8443 21.2858C66.8443 18.4391 65.2875 16.7886 62.7545 16.7886C61.3791 16.7886 60.2576 17.4419 59.6968 18.4391V17.0428H57.2351V26.7983H59.6968V21.7029C59.6968 20.0525 60.7461 18.9467 62.1756 18.9467C63.6051 18.9467 64.3655 19.7991 64.3655 21.4668V26.7983H66.8443V21.2858ZM78.8238 21.2858C78.8238 18.4391 77.2678 16.7886 74.734 16.7886C73.3586 16.7886 72.2371 17.4419 71.6763 18.4391V17.0428H69.2146V26.7983H71.6763V21.7029C71.6763 20.0525 72.7256 18.9467 74.1551 18.9467C75.5846 18.9467 76.3441 19.7991 76.3441 21.4668V26.7983H78.8238V21.2858ZM80.8864 14.2684C80.8864 15.1208 81.5384 15.737 82.4251 15.737C83.311 15.737 83.963 15.1208 83.963 14.2684C83.963 13.4522 83.2938 12.7998 82.4251 12.7998C81.5384 12.7998 80.8864 13.4522 80.8864 14.2684ZM81.1944 26.7983H83.6552V17.0428H81.1944V26.7983ZM95.6528 22.7725C95.6709 22.3554 95.6889 21.9934 95.6889 21.6848C95.6889 18.8019 93.5533 16.7886 90.6581 16.7886C87.7811 16.7886 85.6274 19.001 85.6274 21.921C85.6274 24.8401 87.8353 27.0517 90.9661 27.0517C92.848 27.0517 94.5484 26.2002 95.3999 24.9125L93.4991 23.7154C93.0105 24.4592 92.0335 24.9306 90.9661 24.9306C89.4643 24.9306 88.3419 24.1687 88.0348 22.7725H95.6528ZM88.0349 21.0323C88.3239 19.6542 89.3733 18.8561 90.6763 18.8561C92.179 18.8561 93.1922 19.7266 93.3186 21.0323H88.0349ZM106.872 21.4305C106.872 18.6208 105.425 16.9885 102.764 16.9885C101.046 16.9885 99.7428 17.9132 99.2181 19.1647V13.2893H98.0415V26.6896H99.2181V21.5762C99.2181 19.7085 100.648 18.0399 102.584 18.0399C104.7 18.0399 105.696 19.3095 105.696 21.5038V26.6896H106.872V21.4305ZM118.816 22.4286C118.834 22.1201 118.852 21.8477 118.852 21.6487C118.852 18.9105 116.825 16.9885 114.056 16.9885C111.342 16.9342 109.225 19.2191 109.279 21.9572C109.279 24.7669 111.378 26.9431 114.255 26.9431C116.047 26.9431 117.621 26.1812 118.472 24.9668L117.567 24.3136C116.898 25.3116 115.649 25.8916 114.255 25.8916C112.192 25.8916 110.618 24.4592 110.437 22.4286H118.816ZM110.437 21.4667C110.618 19.4724 112.102 18.0219 114.075 18.0219C115.142 18.0219 115.993 18.3304 116.662 18.9647C117.332 19.5999 117.676 20.4334 117.694 21.4667H110.437ZM128.986 17.2428V19.1277C128.334 17.7504 126.922 16.9885 125.239 16.9885C122.598 16.9342 120.534 19.2191 120.589 21.9572C120.534 24.6945 122.598 26.9974 125.239 26.9431C126.922 26.9431 128.334 26.1812 128.986 24.8031V26.6897H130.161V17.2428H128.986ZM128.986 21.9571C128.986 24.441 127.429 25.8915 125.402 25.8915C123.231 25.8915 121.729 24.1325 121.729 21.9571C121.729 19.799 123.231 18.0399 125.402 18.0399C127.429 18.0399 128.986 19.4542 128.986 21.9571ZM133.383 26.6888H134.559V13.2893H133.383V26.6888ZM143.877 25.3658C143.353 25.7097 142.756 25.8735 142.087 25.8735C140.766 25.8735 140.114 24.9125 140.114 22.9905V18.2942H144.005V17.2427H140.114V14.5589H138.938V17.2427H136.64V18.2942H138.938V23.0267C138.938 25.6382 139.969 26.9431 142.069 26.9431C142.919 26.9431 143.769 26.6716 144.258 26.3087L143.877 25.3658ZM155.242 21.4305C155.242 18.6208 153.795 16.9885 151.134 16.9885C149.416 16.9885 148.113 17.9132 147.588 19.1647V13.2893H146.412V26.6896H147.588V21.5762C147.588 19.7085 149.018 18.0399 150.954 18.0399C153.071 18.0399 154.067 19.3095 154.067 21.5038V26.6896H155.242V21.4305Z" fill="white"/>
</svg>
