<svg width="404" height="100" viewBox="0 0 404 100" fill="none" xmlns="http://www.w3.org/2000/svg">
<path fill-rule="evenodd" clip-rule="evenodd" d="M50.0065 12C29.1475 44.7224 53.1012 89.1275 92.0002 86.9209L50.0065 12Z" fill="#82A5F9"/>
<path fill-rule="evenodd" clip-rule="evenodd" d="M49.994 12C70.8529 44.7224 46.8993 89.1275 8.0003 86.9209L49.994 12Z" fill="#6ABEB5"/>
<path d="M47.2952 16.8149L49.8991 12.1692C49.9327 12.1161 49.9664 12.0631 50.0002 12.01C50.034 12.0631 50.0677 12.1161 50.1012 12.1692L52.7051 16.8149C60.6543 32.9584 58.6597 51.1351 50.0002 64.9454C41.3407 51.1351 39.346 32.9584 47.2952 16.8149Z" fill="#4263A8"/>
<path fill-rule="evenodd" clip-rule="evenodd" d="M131.947 42.6073V46.0074C130.304 43.3335 127.382 41.9717 123.959 41.9717C117.158 41.836 111.91 47.6837 112.001 54.8028C112.001 62.008 117.112 67.6295 123.959 67.6295C127.382 67.6295 130.304 66.2247 131.947 63.5507V66.996H138.199V42.6073H131.947ZM131.947 54.803C131.947 59.289 129.024 62.2366 124.963 62.2366C120.809 62.2366 117.98 59.0176 117.98 54.803C117.98 52.6721 118.618 50.9031 119.898 49.4982C121.221 48.0934 122.909 47.3673 124.963 47.3673C129.024 47.3673 131.947 50.3149 131.947 54.803ZM168.596 53.215C168.596 46.0981 164.67 41.9719 158.281 41.9719C154.812 41.9719 151.983 43.6052 150.569 46.0981V42.6075H144.36V66.9962H150.569V54.2578C150.569 50.1317 153.215 47.3672 156.821 47.3672C160.426 47.3672 162.344 49.4982 162.344 53.6675V66.9962H168.596V53.215ZM198.811 53.215C198.811 46.0981 194.887 41.9719 188.496 41.9719C185.027 41.9719 182.198 43.6052 180.784 46.0981V42.6075H174.575V66.9962H180.784V54.2578C180.784 50.1317 183.43 47.3672 187.036 47.3672C190.641 47.3672 192.557 49.4982 192.557 53.6675V66.9962H198.811V53.215ZM204.014 35.6716C204.014 37.8025 205.658 39.3431 207.895 39.3431C210.129 39.3431 211.773 37.8025 211.773 35.6716C211.773 33.6311 210.086 32 207.895 32C205.658 32 204.014 33.6311 204.014 35.6716ZM204.79 66.9962H210.997V42.6075H204.79V66.9962ZM241.258 56.9318C241.303 55.8889 241.349 54.984 241.349 54.2126C241.349 47.0052 235.962 41.9719 228.66 41.9719C221.403 41.9719 215.971 47.503 215.971 54.803C215.971 62.1008 221.54 67.6297 229.437 67.6297C234.183 67.6297 238.472 65.5009 240.62 62.2818L235.826 59.289C234.593 61.1485 232.129 62.3271 229.437 62.3271C225.649 62.3271 222.818 60.4223 222.043 56.9318H241.258ZM222.044 52.5813C222.773 49.1359 225.419 47.1407 228.706 47.1407C232.496 47.1407 235.051 49.3169 235.37 52.5813H222.044ZM269.556 53.5768C269.556 46.5526 265.905 42.4717 259.195 42.4717C254.86 42.4717 251.574 44.7836 250.25 47.9122V33.2238H247.283V66.7246H250.25V53.941C250.25 49.2718 253.856 45.1003 258.739 45.1003C264.078 45.1003 266.59 48.2742 266.59 53.76V66.7246H269.556V53.5768ZM299.68 56.0721C299.725 55.3007 299.771 54.6199 299.771 54.1221C299.771 47.2768 294.66 42.4718 287.674 42.4718C280.83 42.3361 275.489 48.0481 275.625 54.8935C275.625 61.9177 280.921 67.3583 288.178 67.3583C292.696 67.3583 296.666 65.4535 298.812 62.4176L296.53 60.7844C294.842 63.2795 291.692 64.7296 288.178 64.7296C282.973 64.7296 279.003 61.1485 278.548 56.0721H299.68ZM278.548 53.6673C279.003 48.6814 282.747 45.0551 287.722 45.0551C290.414 45.0551 292.56 45.8265 294.247 47.4123C295.937 49.0003 296.805 51.0839 296.851 53.6673H278.548ZM325.331 43.1075V47.8197C323.686 44.3766 320.126 42.4718 315.881 42.4718C309.219 42.3361 304.014 48.0481 304.153 54.8935C304.014 61.7367 309.219 67.494 315.881 67.3583C320.126 67.3583 323.686 65.4535 325.331 62.0082V66.7248H328.296V43.1075H325.331ZM325.331 54.8933C325.331 61.103 321.404 64.7293 316.293 64.7293C310.815 64.7293 307.027 60.3316 307.027 54.8933C307.027 49.498 310.815 45.1003 316.293 45.1003C321.404 45.1003 325.331 48.6361 325.331 54.8933ZM336.421 66.7224H339.388V33.2238H336.421V66.7224ZM362.891 63.4151C361.568 64.2748 360.062 64.6842 358.375 64.6842C355.042 64.6842 353.398 62.2817 353.398 57.4768V45.7361H363.212V43.1074H353.398V36.3977H350.432V43.1074H344.636V45.7361H350.432V57.5673C350.432 64.096 353.034 67.3581 358.329 67.3581C360.475 67.3581 362.618 66.6794 363.85 65.7723L362.891 63.4151ZM391.556 53.5768C391.556 46.5526 387.905 42.4717 381.195 42.4717C376.86 42.4717 373.574 44.7836 372.25 47.9122V33.2238H369.283V66.7246H372.25V53.941C372.25 49.2718 375.856 45.1003 380.739 45.1003C386.078 45.1003 388.59 48.2742 388.59 53.76V66.7246H391.556V53.5768Z" fill="#0C273A"/>
</svg>
