<svg width="500" height="500" viewBox="0 0 500 500" fill="none" xmlns="http://www.w3.org/2000/svg">
<g clip-path="url(#clip0_682_6485)">
<path d="M408.52 426.451L462.219 210.825L294.162 70L63.5323 148.802L37.5308 321.36L133.704 426.451H408.52Z" fill="#F7F9FD"/>
<path d="M350.582 99.4717H267.062C265.201 99.4717 263.693 100.98 263.693 102.84V102.994C263.693 104.855 265.201 106.363 267.062 106.363H350.582C352.442 106.363 353.95 104.855 353.95 102.994V102.84C353.95 100.98 352.442 99.4717 350.582 99.4717Z" fill="#BECEEF"/>
<path d="M350.582 107.024H267.062C264.84 107.024 263.03 105.216 263.03 102.991V102.838C263.03 100.616 264.837 98.8052 267.062 98.8052H350.582C352.806 98.8052 354.614 100.613 354.614 102.838V102.991C354.614 105.213 352.806 107.024 350.582 107.024ZM267.062 100.132C265.57 100.132 264.357 101.346 264.357 102.838V102.991C264.357 104.483 265.57 105.697 267.062 105.697H350.582C352.074 105.697 353.287 104.483 353.287 102.991V102.838C353.287 101.346 352.074 100.132 350.582 100.132H267.062Z" fill="#BECEEF"/>
<path d="M164.629 408.437H103.424C101.564 408.437 100.056 409.945 100.056 411.806V411.96C100.056 413.82 101.564 415.328 103.424 415.328H164.629C166.49 415.328 167.998 413.82 167.998 411.96V411.806C167.998 409.945 166.49 408.437 164.629 408.437Z" fill="#BECEEF"/>
<path d="M164.629 415.989H103.424C101.202 415.989 99.3921 414.181 99.3921 411.957V411.803C99.3921 409.581 101.2 407.771 103.424 407.771H164.629C166.854 407.771 168.661 409.578 168.661 411.803V411.957C168.661 414.179 166.854 415.989 164.629 415.989ZM103.424 409.098C101.932 409.098 100.719 410.311 100.719 411.803V411.957C100.719 413.449 101.932 414.662 103.424 414.662H164.629C166.121 414.662 167.334 413.449 167.334 411.957V411.803C167.334 410.311 166.121 409.098 164.629 409.098H103.424Z" fill="#BECEEF"/>
<path d="M238.252 429.336C239.942 429.336 241.312 427.966 241.312 426.276C241.312 424.585 239.942 423.215 238.252 423.215C236.562 423.215 235.191 424.585 235.191 426.276C235.191 427.966 236.562 429.336 238.252 429.336Z" fill="#BECEEF"/>
<path d="M238.252 430C236.2 430 234.528 428.33 234.528 426.276C234.528 424.221 236.197 422.551 238.252 422.551C240.306 422.551 241.976 424.221 241.976 426.276C241.976 428.33 240.306 430 238.252 430ZM238.252 423.881C236.93 423.881 235.855 424.956 235.855 426.278C235.855 427.6 236.93 428.675 238.252 428.675C239.574 428.675 240.649 427.6 240.649 426.278C240.649 424.956 239.574 423.881 238.252 423.881Z" fill="#BECEEF"/>
<path d="M70.3407 384.352C72.0309 384.352 73.4011 382.981 73.4011 381.291C73.4011 379.6 72.0309 378.23 70.3407 378.23C68.6505 378.23 67.2803 379.6 67.2803 381.291C67.2803 382.981 68.6505 384.352 70.3407 384.352Z" fill="#BECEEF"/>
<path d="M70.3407 385.012C68.2889 385.012 66.6167 383.343 66.6167 381.288C66.6167 379.233 68.2863 377.563 70.3407 377.563C72.3951 377.563 74.0647 379.233 74.0647 381.288C74.0647 383.343 72.3951 385.012 70.3407 385.012ZM70.3407 378.893C69.0188 378.893 67.9438 379.969 67.9438 381.291C67.9438 382.613 69.0188 383.688 70.3407 383.688C71.6625 383.688 72.7375 382.613 72.7375 381.291C72.7375 379.969 71.6625 378.893 70.3407 378.893Z" fill="#BECEEF"/>
<path d="M410.33 417.935C414.121 417.935 417.194 414.861 417.194 411.07C417.194 407.279 414.121 404.205 410.33 404.205C406.539 404.205 403.466 407.279 403.466 411.07C403.466 414.861 406.539 417.935 410.33 417.935Z" fill="#BECEEF"/>
<path d="M410.33 418.598C406.179 418.598 402.802 415.222 402.802 411.07C402.802 406.918 406.179 403.542 410.33 403.542C414.481 403.542 417.857 406.918 417.857 411.07C417.857 415.222 414.481 418.598 410.33 418.598ZM410.33 404.866C406.911 404.866 404.129 407.648 404.129 411.067C404.129 414.486 406.911 417.269 410.33 417.269C413.749 417.269 416.53 414.486 416.53 411.067C416.53 407.648 413.749 404.866 410.33 404.866Z" fill="#BECEEF"/>
<path d="M431.278 232.343C432.968 232.343 434.338 230.972 434.338 229.282C434.338 227.592 432.968 226.221 431.278 226.221C429.587 226.221 428.217 227.592 428.217 229.282C428.217 230.972 429.587 232.343 431.278 232.343Z" fill="#BECEEF"/>
<path d="M431.278 233.006C429.226 233.006 427.554 231.337 427.554 229.282C427.554 227.227 429.223 225.558 431.278 225.558C433.332 225.558 435.002 227.227 435.002 229.282C435.002 231.337 433.332 233.006 431.278 233.006ZM431.278 226.888C429.956 226.888 428.881 227.963 428.881 229.285C428.881 230.607 429.956 231.682 431.278 231.682C432.6 231.682 433.675 230.607 433.675 229.285C433.675 227.963 432.6 226.888 431.278 226.888Z" fill="#BECEEF"/>
<path d="M75.2115 264.414C76.0559 264.414 76.7404 263.729 76.7404 262.885C76.7404 262.04 76.0559 261.355 75.2115 261.355C74.3671 261.355 73.6826 262.04 73.6826 262.885C73.6826 263.729 74.3671 264.414 75.2115 264.414Z" fill="#BECEEF"/>
<path d="M75.2115 265.08C74.0011 265.08 73.019 264.095 73.019 262.887C73.019 261.679 74.0038 260.694 75.2115 260.694C76.4192 260.694 77.4039 261.679 77.4039 262.887C77.4039 264.095 76.4192 265.08 75.2115 265.08ZM75.2115 262.019C74.7337 262.019 74.3462 262.407 74.3462 262.884C74.3462 263.362 74.7337 263.75 75.2115 263.75C75.6893 263.75 76.0768 263.362 76.0768 262.884C76.0768 262.407 75.6893 262.019 75.2115 262.019Z" fill="#BECEEF"/>
<path d="M287.584 149.856C289.275 149.856 290.645 148.486 290.645 146.795C290.645 145.105 289.275 143.734 287.584 143.734C285.894 143.734 284.524 145.105 284.524 146.795C284.524 148.486 285.894 149.856 287.584 149.856Z" fill="#BECEEF"/>
<path d="M287.584 150.52C285.533 150.52 283.86 148.85 283.86 146.795C283.86 144.741 285.53 143.071 287.584 143.071C289.639 143.071 291.308 144.741 291.308 146.795C291.308 148.85 289.639 150.52 287.584 150.52ZM287.584 144.401C286.263 144.401 285.188 145.476 285.188 146.798C285.188 148.12 286.263 149.195 287.584 149.195C288.906 149.195 289.981 148.12 289.981 146.798C289.981 145.476 288.906 144.401 287.584 144.401Z" fill="#BECEEF"/>
<path d="M181.585 119.434C185.544 119.434 188.754 116.224 188.754 112.264C188.754 108.304 185.544 105.094 181.585 105.094C177.625 105.094 174.416 108.304 174.416 112.264C174.416 116.224 177.625 119.434 181.585 119.434Z" fill="#BECEEF"/>
<path d="M181.585 120.098C177.266 120.098 173.752 116.583 173.752 112.264C173.752 107.945 177.266 104.43 181.585 104.43C185.903 104.43 189.418 107.945 189.418 112.264C189.418 116.583 185.903 120.098 181.585 120.098ZM181.585 105.76C177.999 105.76 175.079 108.678 175.079 112.267C175.079 115.856 177.996 118.773 181.585 118.773C185.173 118.773 188.09 115.856 188.09 112.267C188.09 108.678 185.173 105.76 181.585 105.76Z" fill="#BECEEF"/>
<path d="M439.222 202.205H330.038V138.824C330.038 132.676 335.038 127.674 341.186 127.674H428.074C434.222 127.674 439.222 132.676 439.222 138.824V202.205ZM331.099 201.143H438.16V138.824C438.16 133.262 433.635 128.736 428.074 128.736H341.186C335.625 128.736 331.099 133.262 331.099 138.824V201.143Z" fill="#BECEEF"/>
<path d="M428.22 148.723H339.922C339.63 148.723 339.391 148.484 339.391 148.192C339.391 147.9 339.63 147.661 339.922 147.661H428.22C428.512 147.661 428.751 147.9 428.751 148.192C428.751 148.484 428.512 148.723 428.22 148.723Z" fill="#BECEEF"/>
<path d="M343.261 142.084C341.127 142.084 339.389 140.347 339.389 138.21C339.389 136.074 341.125 134.337 343.261 134.337C345.398 134.337 347.134 136.074 347.134 138.21C347.134 140.347 345.398 142.084 343.261 142.084ZM343.261 135.402C341.711 135.402 340.45 136.663 340.45 138.213C340.45 139.763 341.711 141.024 343.261 141.024C344.811 141.024 346.072 139.763 346.072 138.213C346.072 136.663 344.811 135.402 343.261 135.402Z" fill="#BECEEF"/>
<path d="M353.321 142.084C351.187 142.084 349.449 140.347 349.449 138.21C349.449 136.074 351.185 134.337 353.321 134.337C355.458 134.337 357.194 136.074 357.194 138.21C357.194 140.347 355.458 142.084 353.321 142.084ZM353.321 135.402C351.771 135.402 350.51 136.663 350.51 138.213C350.51 139.763 351.771 141.024 353.321 141.024C354.871 141.024 356.132 139.763 356.132 138.213C356.132 136.663 354.871 135.402 353.321 135.402Z" fill="#BECEEF"/>
<path d="M363.381 142.084C361.247 142.084 359.508 140.347 359.508 138.21C359.508 136.074 361.244 134.337 363.381 134.337C365.518 134.337 367.254 136.074 367.254 138.21C367.254 140.347 365.518 142.084 363.381 142.084ZM363.381 135.402C361.831 135.402 360.57 136.663 360.57 138.213C360.57 139.763 361.831 141.024 363.381 141.024C364.931 141.024 366.192 139.763 366.192 138.213C366.192 136.663 364.931 135.402 363.381 135.402Z" fill="#BECEEF"/>
<path d="M428.395 142.304C428.26 142.304 428.124 142.251 428.021 142.147L422.046 136.172C421.839 135.965 421.839 135.627 422.046 135.42C422.253 135.213 422.59 135.213 422.797 135.42L428.772 141.396C428.979 141.603 428.979 141.94 428.772 142.147C428.668 142.251 428.533 142.304 428.398 142.304H428.395Z" fill="#BECEEF"/>
<path d="M422.423 142.304C422.287 142.304 422.152 142.251 422.048 142.147C421.841 141.94 421.841 141.603 422.048 141.396L428.023 135.42C428.23 135.213 428.567 135.213 428.774 135.42C428.981 135.627 428.981 135.965 428.774 136.172L422.799 142.147C422.696 142.251 422.561 142.304 422.425 142.304H422.423Z" fill="#BECEEF"/>
<path d="M158.015 250.705H48.833V140.52C48.833 134.372 53.8337 129.371 59.9811 129.371H146.867C153.014 129.371 158.015 134.372 158.015 140.52V250.705ZM49.8921 249.643H156.953V140.52C156.953 134.959 152.428 130.432 146.867 130.432H59.9811C54.4203 130.432 49.8947 134.959 49.8947 140.52V249.643H49.8921Z" fill="#BECEEF"/>
<path d="M147.01 150.419H58.7149C58.423 150.419 58.1841 150.18 58.1841 149.888C58.1841 149.596 58.423 149.357 58.7149 149.357H147.01C147.302 149.357 147.541 149.596 147.541 149.888C147.541 150.18 147.302 150.419 147.01 150.419Z" fill="#BECEEF"/>
<path d="M62.0538 143.78C59.9197 143.78 58.1812 142.044 58.1812 139.907C58.1812 137.77 59.9171 136.034 62.0538 136.034C64.1905 136.034 65.9264 137.77 65.9264 139.907C65.9264 142.044 64.1905 143.78 62.0538 143.78ZM62.0538 137.098C60.5037 137.098 59.2429 138.359 59.2429 139.909C59.2429 141.46 60.5037 142.721 62.0538 142.721C63.6039 142.721 64.8647 141.46 64.8647 139.909C64.8647 138.359 63.6039 137.098 62.0538 137.098Z" fill="#BECEEF"/>
<path d="M72.1133 143.78C69.9793 143.78 68.2407 142.044 68.2407 139.907C68.2407 137.77 69.9766 136.034 72.1133 136.034C74.2501 136.034 75.986 137.77 75.986 139.907C75.986 142.044 74.2501 143.78 72.1133 143.78ZM72.1133 137.098C70.5632 137.098 69.3024 138.359 69.3024 139.909C69.3024 141.46 70.5632 142.721 72.1133 142.721C73.6635 142.721 74.9243 141.46 74.9243 139.909C74.9243 138.359 73.6635 137.098 72.1133 137.098Z" fill="#BECEEF"/>
<path d="M82.1734 143.78C80.0393 143.78 78.3008 142.044 78.3008 139.907C78.3008 137.77 80.0367 136.034 82.1734 136.034C84.3101 136.034 86.046 137.77 86.046 139.907C86.046 142.044 84.3101 143.78 82.1734 143.78ZM82.1734 137.098C80.6233 137.098 79.3625 138.359 79.3625 139.909C79.3625 141.46 80.6233 142.721 82.1734 142.721C83.7235 142.721 84.9843 141.46 84.9843 139.909C84.9843 138.359 83.7235 137.098 82.1734 137.098Z" fill="#BECEEF"/>
<path d="M147.188 144C147.053 144 146.917 143.947 146.814 143.844L140.839 137.868C140.632 137.661 140.632 137.324 140.839 137.117C141.046 136.91 141.383 136.91 141.59 137.117L147.565 143.092C147.772 143.299 147.772 143.636 147.565 143.844C147.461 143.947 147.326 144 147.191 144H147.188Z" fill="#BECEEF"/>
<path d="M141.216 144C141.08 144 140.945 143.947 140.841 143.844C140.634 143.636 140.634 143.299 140.841 143.092L146.816 137.117C147.023 136.91 147.36 136.91 147.567 137.117C147.774 137.324 147.774 137.661 147.567 137.868L141.592 143.844C141.489 143.947 141.354 144 141.218 144H141.216Z" fill="#BECEEF"/>
<path d="M135.292 165.067H382.911C388.772 165.067 393.528 169.824 393.528 175.685V388.819H124.674V175.685C124.674 169.824 129.431 165.067 135.292 165.067Z" fill="#BECEEF"/>
<path d="M394.195 389.485H124.011V175.685C124.011 169.466 129.072 164.403 135.292 164.403H382.911C389.13 164.403 394.192 169.466 394.192 175.685V389.483L394.195 389.485ZM125.341 388.158H392.867V175.685C392.867 170.196 388.403 165.731 382.914 165.731H135.292C129.802 165.731 125.338 170.196 125.338 175.685V388.155L125.341 388.158Z" fill="#BECEEF"/>
<path d="M135.292 170.342H376.291C382.152 170.342 386.909 175.099 386.909 180.96V388.819H124.674V180.96C124.674 175.099 129.431 170.342 135.292 170.342Z" fill="white"/>
<path d="M387.439 389.353H124.144V180.96C124.144 174.812 129.144 169.811 135.292 169.811H376.291C382.439 169.811 387.439 174.812 387.439 180.96V389.35V389.353ZM125.205 388.291H386.378V180.96C386.378 175.399 381.852 170.873 376.291 170.873H135.292C129.731 170.873 125.205 175.399 125.205 180.96V388.288V388.291Z" fill="#BECEEF"/>
<path d="M462.75 358.318H337.554V253.731C337.554 247.583 342.555 242.582 348.702 242.582H451.602C457.749 242.582 462.75 247.583 462.75 253.731V358.318ZM338.616 357.256H461.688V253.731C461.688 248.17 457.162 243.644 451.602 243.644H348.702C343.142 243.644 338.616 248.17 338.616 253.731V357.256Z" fill="#BECEEF"/>
<path d="M452.998 263.628H347.434C347.142 263.628 346.903 263.389 346.903 263.097C346.903 262.805 347.142 262.566 347.434 262.566H452.998C453.29 262.566 453.529 262.805 453.529 263.097C453.529 263.389 453.29 263.628 452.998 263.628Z" fill="#BECEEF"/>
<path d="M350.775 256.988C348.641 256.988 346.903 255.252 346.903 253.115C346.903 250.978 348.639 249.242 350.775 249.242C352.912 249.242 354.648 250.978 354.648 253.115C354.648 255.252 352.912 256.988 350.775 256.988ZM350.775 250.307C349.225 250.307 347.965 251.568 347.965 253.118C347.965 254.668 349.225 255.929 350.775 255.929C352.326 255.929 353.586 254.668 353.586 253.118C353.586 251.568 352.326 250.307 350.775 250.307Z" fill="#BECEEF"/>
<path d="M360.835 256.988C358.701 256.988 356.962 255.252 356.962 253.115C356.962 250.978 358.698 249.242 360.835 249.242C362.972 249.242 364.708 250.978 364.708 253.115C364.708 255.252 362.972 256.988 360.835 256.988ZM360.835 250.307C359.285 250.307 358.024 251.568 358.024 253.118C358.024 254.668 359.285 255.929 360.835 255.929C362.385 255.929 363.646 254.668 363.646 253.118C363.646 251.568 362.385 250.307 360.835 250.307Z" fill="#BECEEF"/>
<path d="M370.895 256.988C368.761 256.988 367.022 255.252 367.022 253.115C367.022 250.978 368.758 249.242 370.895 249.242C373.032 249.242 374.768 250.978 374.768 253.115C374.768 255.252 373.032 256.988 370.895 256.988ZM370.895 250.307C369.345 250.307 368.084 251.568 368.084 253.118C368.084 254.668 369.345 255.929 370.895 255.929C372.445 255.929 373.706 254.668 373.706 253.118C373.706 251.568 372.445 250.307 370.895 250.307Z" fill="#BECEEF"/>
<path d="M452.998 257.209C452.863 257.209 452.727 257.156 452.624 257.052L446.649 251.076C446.442 250.869 446.442 250.532 446.649 250.325C446.856 250.118 447.193 250.118 447.4 250.325L453.375 256.301C453.582 256.508 453.582 256.845 453.375 257.052C453.271 257.156 453.136 257.209 453.001 257.209H452.998Z" fill="#BECEEF"/>
<path d="M447.026 257.209C446.89 257.209 446.755 257.156 446.651 257.052C446.444 256.845 446.444 256.508 446.651 256.301L452.626 250.325C452.833 250.118 453.17 250.118 453.377 250.325C453.584 250.532 453.584 250.869 453.377 251.076L447.403 257.052C447.299 257.156 447.164 257.209 447.028 257.209H447.026Z" fill="#BECEEF"/>
<path d="M377.558 190.862H134.025C133.734 190.862 133.495 190.623 133.495 190.331C133.495 190.039 133.734 189.8 134.025 189.8H377.558C377.849 189.8 378.088 190.039 378.088 190.331C378.088 190.623 377.849 190.862 377.558 190.862Z" fill="#BECEEF"/>
<path d="M137.367 184.22C135.233 184.22 133.495 182.484 133.495 180.347C133.495 178.21 135.231 176.474 137.367 176.474C139.504 176.474 141.24 178.21 141.24 180.347C141.24 182.484 139.504 184.22 137.367 184.22ZM137.367 177.539C135.817 177.539 134.556 178.8 134.556 180.35C134.556 181.9 135.817 183.161 137.367 183.161C138.917 183.161 140.178 181.9 140.178 180.35C140.178 178.8 138.917 177.539 137.367 177.539Z" fill="#BECEEF"/>
<path d="M147.427 184.22C145.293 184.22 143.554 182.484 143.554 180.347C143.554 178.21 145.29 176.474 147.427 176.474C149.564 176.474 151.299 178.21 151.299 180.347C151.299 182.484 149.564 184.22 147.427 184.22ZM147.427 177.539C145.877 177.539 144.616 178.8 144.616 180.35C144.616 181.9 145.877 183.161 147.427 183.161C148.977 183.161 150.238 181.9 150.238 180.35C150.238 178.8 148.977 177.539 147.427 177.539Z" fill="#BECEEF"/>
<path d="M157.484 184.22C155.35 184.22 153.611 182.484 153.611 180.347C153.611 178.21 155.347 176.474 157.484 176.474C159.621 176.474 161.357 178.21 161.357 180.347C161.357 182.484 159.621 184.22 157.484 184.22ZM157.484 177.539C155.934 177.539 154.673 178.8 154.673 180.35C154.673 181.9 155.934 183.161 157.484 183.161C159.034 183.161 160.295 181.9 160.295 180.35C160.295 178.8 159.034 177.539 157.484 177.539Z" fill="#BECEEF"/>
<path d="M377.557 184.441C377.422 184.441 377.286 184.387 377.183 184.284L371.208 178.308C371.001 178.101 371.001 177.764 371.208 177.557C371.415 177.35 371.752 177.35 371.959 177.557L377.934 183.533C378.141 183.74 378.141 184.077 377.934 184.284C377.83 184.387 377.695 184.441 377.56 184.441H377.557Z" fill="#BECEEF"/>
<path d="M371.585 184.441C371.449 184.441 371.314 184.387 371.21 184.284C371.003 184.077 371.003 183.74 371.21 183.533L377.185 177.557C377.392 177.35 377.729 177.35 377.936 177.557C378.143 177.764 378.143 178.101 377.936 178.308L371.962 184.284C371.858 184.387 371.723 184.441 371.587 184.441H371.585Z" fill="#BECEEF"/>
<path d="M182.116 344.474H37V287.561C37 281.413 42.0007 276.412 48.1481 276.412H170.968C177.115 276.412 182.116 281.413 182.116 287.561V344.474ZM38.0617 343.412H181.054V287.561C181.054 282 176.529 277.474 170.968 277.474H48.1481C42.5873 277.474 38.0617 282 38.0617 287.561V343.412Z" fill="#BECEEF"/>
<path d="M173.07 297.463H46.8819C46.59 297.463 46.3511 297.224 46.3511 296.932C46.3511 296.64 46.59 296.401 46.8819 296.401H173.07C173.362 296.401 173.601 296.64 173.601 296.932C173.601 297.224 173.362 297.463 173.07 297.463Z" fill="#BECEEF"/>
<path d="M50.2213 290.821C48.0872 290.821 46.3486 289.085 46.3486 286.948C46.3486 284.811 48.0845 283.075 50.2213 283.075C52.358 283.075 54.0939 284.811 54.0939 286.948C54.0939 289.085 52.358 290.821 50.2213 290.821ZM50.2213 284.14C48.6711 284.14 47.4104 285.401 47.4104 286.951C47.4104 288.501 48.6711 289.762 50.2213 289.762C51.7714 289.762 53.0322 288.501 53.0322 286.951C53.0322 285.401 51.7714 284.14 50.2213 284.14Z" fill="#BECEEF"/>
<path d="M60.2808 290.821C58.1468 290.821 56.4082 289.085 56.4082 286.948C56.4082 284.811 58.1441 283.075 60.2808 283.075C62.4175 283.075 64.1535 284.811 64.1535 286.948C64.1535 289.085 62.4175 290.821 60.2808 290.821ZM60.2808 284.14C58.7307 284.14 57.4699 285.401 57.4699 286.951C57.4699 288.501 58.7307 289.762 60.2808 289.762C61.8309 289.762 63.0917 288.501 63.0917 286.951C63.0917 285.401 61.8309 284.14 60.2808 284.14Z" fill="#BECEEF"/>
<path d="M70.3409 290.821C68.2068 290.821 66.4683 289.085 66.4683 286.948C66.4683 284.811 68.2042 283.075 70.3409 283.075C72.4776 283.075 74.2135 284.811 74.2135 286.948C74.2135 289.085 72.4776 290.821 70.3409 290.821ZM70.3409 284.14C68.7908 284.14 67.53 285.401 67.53 286.951C67.53 288.501 68.7908 289.762 70.3409 289.762C71.891 289.762 73.1518 288.501 73.1518 286.951C73.1518 285.401 71.891 284.14 70.3409 284.14Z" fill="#BECEEF"/>
<path d="M264.784 262.645L258.533 246.694L258.78 246.596L264.919 262.266L267.231 260.978L267.361 261.209L264.784 262.645Z" fill="#FF2B4A"/>
<path d="M204.245 243.265L203.99 253.352L204.255 253.359L204.51 243.272L204.245 243.265Z" fill="#FF2B4A"/>
<path d="M295.035 240.161C297.206 243.901 298.799 247.265 298.799 247.265C298.799 247.265 312.336 213.551 314.106 209.657C315.877 205.762 325.692 201.029 329.236 199.747C332.901 198.42 337.244 197.968 335.519 201.518C334.722 203.155 329.857 205.677 329.857 205.677C329.857 205.677 338.794 205.499 340.474 204.528C342.154 203.554 351.091 195.946 352.862 195.059C354.632 194.175 357.661 194.395 357.021 197.05C357.021 197.05 359.896 195.988 360.957 197.228C362.019 198.467 361.069 200.591 360.14 201.608C360.14 201.608 361.268 201.807 361.645 202.914C362.022 204.021 360.695 207.206 358.016 209.882C358.016 209.882 358.991 211.719 357.464 213.909C355.938 216.099 352.243 219.635 348.705 220.931C345.167 222.226 333.841 225.101 332.867 225.101C331.893 225.101 325.57 261.225 324.286 268.947C323.017 276.571 318.369 306.377 300.219 306.383C295.489 306.383 289.35 302.727 285.267 295.406C275.003 277.001 266.422 254.554 266.422 254.554L295.041 240.166L295.035 240.161Z" fill="#FEB0A3"/>
<path d="M298.796 247.265C298.796 247.265 297.918 245.409 296.577 242.924L295.433 257.087L298.796 247.265Z" fill="#FD8571"/>
<path d="M172.757 243.283C167.23 233.673 158.766 218.988 157.248 216.591C154.957 212.98 144.661 208.967 140.895 208.866C137.128 208.765 133.829 208.874 134.917 211.486C135.849 213.726 141.099 214.823 141.099 214.823C141.099 214.823 132.223 215.882 130.423 215.152C128.624 214.419 118.723 208.117 116.847 207.485C114.973 206.853 112 207.491 113.003 210.031C113.003 210.031 110.009 209.378 109.128 210.75C108.247 212.123 109.484 214.095 110.543 214.977C110.543 214.977 109.452 215.33 109.234 216.476C109.014 217.623 110.768 220.596 113.789 222.877C113.789 222.877 113.077 224.831 114.893 226.787C116.706 228.746 120.855 231.738 124.539 232.532C128.223 233.325 139.838 234.607 140.802 234.475C141.386 234.392 146.323 247.427 150.859 258.937C152.186 262.303 163.599 296.638 171.209 303.452C178.819 310.267 193.872 319.916 204.484 286.731C215.095 253.545 206.511 245.847 206.511 245.847L184.393 245.669L179.793 254.549C179.793 254.549 174.23 245.839 172.757 243.28V243.283Z" fill="#FEB0A3"/>
<path d="M182.485 249.356L183.377 261.355L179.793 254.549L182.485 249.356Z" fill="#FD8571"/>
<path d="M277.475 290.121C282.252 297.259 291.455 357.848 290.746 388.819H198.729C198.729 388.819 195.722 316.194 204.569 291.772C213.416 267.349 277.475 290.121 277.475 290.121Z" fill="#6699FF"/>
<path d="M236.242 386.635C235.956 386.635 235.719 386.406 235.711 386.117L234.472 333.025C234.464 332.733 234.697 332.488 234.989 332.48C234.995 332.48 234.997 332.48 235.003 332.48C235.289 332.48 235.526 332.709 235.534 332.998L236.773 386.09C236.781 386.382 236.548 386.627 236.256 386.635C236.25 386.635 236.248 386.635 236.242 386.635Z" fill="#BECEEF"/>
<path d="M216.388 163.214C215.767 162.346 213.984 162.15 212.996 162.551C212.009 162.951 211.319 163.923 211.093 164.966C210.867 166.01 211.064 167.109 211.47 168.093C212.338 170.199 214.201 171.871 216.388 172.503" fill="#FD8571"/>
<path d="M250.841 212.311C257.655 212.606 270.783 212.242 275.704 213.904C282.783 216.293 296.702 243.163 296.702 243.163L268.803 260.36C268.803 260.36 277.358 279.701 277.326 279.866C277.209 280.455 277.474 290.121 277.474 290.121L204.569 291.772L203.979 255.55C203.979 255.55 182.626 249.062 179.44 248.117C179.44 248.117 189.163 220.875 199.454 217.719C209.583 214.61 226.273 211.778 226.273 211.778L250.844 212.309L250.841 212.311Z" fill="#46C1B5"/>
<path d="M234.066 255.789C235.761 255.789 237.134 254.415 237.134 252.72C237.134 251.025 235.761 249.651 234.066 249.651C232.371 249.651 230.998 251.025 230.998 252.72C230.998 254.415 232.371 255.789 234.066 255.789Z" fill="#E0EAFF"/>
<path d="M234.066 256.45C232.009 256.45 230.334 254.775 230.334 252.717C230.334 250.66 232.009 248.985 234.066 248.985C236.123 248.985 237.798 250.66 237.798 252.717C237.798 254.775 236.123 256.45 234.066 256.45ZM234.066 250.315C232.741 250.315 231.661 251.393 231.661 252.72C231.661 254.047 232.739 255.125 234.066 255.125C235.393 255.125 236.471 254.047 236.471 252.72C236.471 251.393 235.393 250.315 234.066 250.315Z" fill="#E0EAFF"/>
<path d="M238.987 156.296L243.457 211.778L250.844 212.309C250.844 212.309 246.95 224.963 232.707 224.963C218.464 224.963 216.221 213.607 216.221 213.607L222.554 212.359L226.276 179.835L234.833 154.881L238.992 156.296H238.987Z" fill="#FEB0A3"/>
<path d="M224.593 194.507C229.578 193.782 235.948 188.773 235.948 188.773V180.159L225.946 182.678L224.593 194.504V194.507Z" fill="#FD8571"/>
<path d="M234.119 251.148C233.838 251.148 233.586 250.97 233.493 250.702L220.378 212.954C220.258 212.609 220.442 212.229 220.787 212.109C221.132 211.99 221.511 212.173 221.631 212.518L234.077 248.337L245.044 212.117C245.15 211.767 245.522 211.568 245.872 211.674C246.223 211.78 246.422 212.152 246.316 212.502L234.756 250.676C234.674 250.952 234.422 251.14 234.135 251.146C234.13 251.146 234.127 251.146 234.122 251.146L234.119 251.148Z" fill="#E0EAFF"/>
<path d="M235.948 180.162C231.584 184.173 222.735 188.303 217.779 183.111C212.823 177.918 217.19 152.081 217.19 152.081L237.126 153.143L235.948 180.162Z" fill="#FEB0A3"/>
<path d="M240.237 167.348C240.237 167.348 240.216 167.348 240.205 167.348L240.311 167.361C240.285 167.358 240.261 167.35 240.237 167.34L240.332 167.38C240.309 167.369 240.287 167.356 240.266 167.34L240.346 167.401C240.322 167.382 240.303 167.364 240.285 167.34L240.346 167.419C240.327 167.395 240.314 167.372 240.303 167.348L240.343 167.443C240.332 167.419 240.327 167.395 240.322 167.369L240.335 167.475C240.332 167.449 240.332 167.425 240.335 167.398L240.322 167.504C240.325 167.483 240.332 167.462 240.34 167.443L240.301 167.539C240.311 167.518 240.322 167.496 240.338 167.478L240.277 167.557C240.293 167.536 240.311 167.52 240.332 167.502L240.253 167.563C240.274 167.547 240.295 167.534 240.319 167.523L240.224 167.563C240.25 167.552 240.277 167.544 240.306 167.539L240.2 167.552C240.224 167.549 240.245 167.549 240.269 167.552L240.163 167.539C240.184 167.541 240.205 167.547 240.224 167.555L240.128 167.515C240.147 167.523 240.165 167.534 240.181 167.544L240.102 167.483C240.12 167.496 240.133 167.512 240.147 167.528L240.086 167.449C240.099 167.467 240.112 167.488 240.123 167.512L240.083 167.417C240.094 167.441 240.099 167.467 240.104 167.494L240.091 167.387C240.094 167.414 240.094 167.441 240.091 167.467L240.104 167.361C240.102 167.385 240.094 167.409 240.086 167.43L240.125 167.334C240.117 167.353 240.107 167.369 240.096 167.385L240.157 167.305C240.144 167.321 240.131 167.334 240.115 167.348L240.194 167.287C240.179 167.297 240.163 167.308 240.144 167.316L240.24 167.276C240.218 167.284 240.2 167.289 240.179 167.292L240.285 167.279C240.261 167.281 240.237 167.279 240.213 167.279L240.319 167.292C240.29 167.289 240.263 167.281 240.24 167.271L240.335 167.311C240.314 167.3 240.293 167.289 240.274 167.276L240.354 167.337C240.338 167.324 240.322 167.308 240.309 167.292L240.37 167.372C240.359 167.358 240.351 167.342 240.343 167.329L240.383 167.425C240.383 167.425 240.375 167.403 240.372 167.395C240.346 167.3 240.277 167.207 240.189 167.157C240.144 167.127 240.094 167.111 240.04 167.109C239.987 167.098 239.934 167.098 239.881 167.117C239.786 167.149 239.693 167.207 239.642 167.3C239.592 167.393 239.573 167.502 239.603 167.608C239.632 167.714 239.677 167.783 239.746 167.863C239.756 167.876 239.767 167.887 239.78 167.9C239.818 167.932 239.855 167.964 239.897 167.987C239.953 168.019 240.019 168.049 240.083 168.062C240.131 168.072 240.181 168.078 240.232 168.08C240.282 168.083 240.338 168.072 240.386 168.064C240.449 168.054 240.516 168.027 240.571 167.995C240.662 167.942 240.723 167.876 240.781 167.791C240.792 167.778 240.797 167.764 240.805 167.749C240.826 167.703 240.85 167.656 240.861 167.608C240.874 167.544 240.887 167.472 240.879 167.406C240.874 167.356 240.869 167.305 240.858 167.257C240.847 167.21 240.821 167.157 240.802 167.114C240.794 167.098 240.789 167.085 240.778 167.072C240.752 167.029 240.72 166.989 240.685 166.952C240.624 166.888 240.555 166.849 240.478 166.817C240.447 166.803 240.417 166.79 240.383 166.782C240.332 166.772 240.277 166.764 240.224 166.764C240.171 166.764 240.123 166.774 240.072 166.782C240.054 166.785 240.035 166.79 240.017 166.798C239.969 166.817 239.921 166.835 239.876 166.859C239.831 166.883 239.794 166.918 239.754 166.949C239.738 166.963 239.725 166.973 239.714 166.989C239.682 167.026 239.648 167.066 239.624 167.109C239.6 167.151 239.579 167.202 239.563 167.249C239.547 167.297 239.541 167.353 239.536 167.403C239.534 167.427 239.534 167.449 239.536 167.472C239.541 167.526 239.547 167.587 239.565 167.637C239.605 167.751 239.65 167.828 239.73 167.918C239.746 167.937 239.762 167.953 239.78 167.966C239.82 167.998 239.863 168.035 239.91 168.059C240.017 168.112 240.115 168.141 240.234 168.144C240.335 168.147 240.447 168.096 240.516 168.027C240.555 167.99 240.582 167.948 240.598 167.9C240.622 167.852 240.635 167.802 240.632 167.746C240.627 167.642 240.595 167.536 240.516 167.464C240.436 167.393 240.343 167.35 240.234 167.348H240.237Z" fill="#FF2B4A"/>
<path d="M237.129 159.984L233.458 156.424C233.458 156.424 225.981 159.864 223.032 159.686C220.083 159.508 211.295 158.33 213.713 146.825C213.713 146.825 216.425 149.243 219.021 149.126C221.617 149.009 225.686 146.472 230.878 146.825C236.07 147.178 240.256 151.33 241.615 156.421C242.971 161.513 243.927 165.51 243.598 168.377C243.268 171.247 240.601 176.272 240.601 176.272L239.528 162.962L237.134 159.981L237.129 159.984Z" fill="black"/>
<path d="M223.029 166.296L225.272 172.506L220.022 174.085L223.029 166.296Z" fill="#6498FF"/>
<path d="M236.2 160.236C237.527 158.776 241.96 153.536 246.108 158.556C249.646 162.837 244.648 170.716 238.498 169.352C232.348 167.987 236.197 160.239 236.197 160.239L236.2 160.236Z" fill="#FEB0A3"/>
<path d="M229.118 167.555C229.608 167.555 230.005 166.991 230.005 166.296C230.005 165.601 229.608 165.038 229.118 165.038C228.629 165.038 228.232 165.601 228.232 166.296C228.232 166.991 228.629 167.555 229.118 167.555Z" fill="black"/>
<path d="M243.712 164.478C243.576 164.478 243.438 164.436 243.321 164.351C243.024 164.136 242.96 163.719 243.175 163.424C243.672 162.742 243.714 161.722 243.274 161C242.833 160.278 241.907 159.851 241.073 159.981C240.712 160.039 240.372 159.79 240.314 159.429C240.258 159.068 240.505 158.728 240.866 158.67C242.233 158.457 243.685 159.132 244.404 160.31C245.124 161.489 245.057 163.09 244.245 164.207C244.115 164.385 243.913 164.481 243.709 164.481L243.712 164.478Z" fill="black"/>
<path d="M225.155 177.844C225.089 177.844 225.023 177.833 224.956 177.812C224.606 177.703 224.412 177.329 224.524 176.978C224.858 175.917 225.514 174.942 226.374 174.234C227.234 173.525 228.314 173.066 229.421 172.938C229.782 172.896 230.114 173.158 230.156 173.522C230.199 173.886 229.936 174.215 229.572 174.257C228.717 174.356 227.881 174.709 227.218 175.258C226.554 175.805 226.047 176.559 225.79 177.379C225.7 177.663 225.439 177.844 225.158 177.844H225.155Z" fill="black"/>
<path d="M329.971 239.71C329.464 239.71 328.971 239.649 328.517 239.577C320.854 238.366 313.735 232.842 309.472 224.796C308.912 223.742 308.373 222.59 308.206 221.324C308.012 219.85 308.389 218.467 309.244 217.533C309.491 217.262 309.91 217.244 310.181 217.49C310.452 217.737 310.47 218.157 310.223 218.428C309.642 219.062 309.382 220.081 309.523 221.149C309.663 222.208 310.144 223.227 310.645 224.175C314.714 231.852 321.472 237.119 328.724 238.265C329.475 238.385 330.269 238.465 330.977 238.25C331.527 238.082 332.127 237.642 332.227 237.034C332.27 236.782 332.177 236.482 331.989 236.267C331.909 236.174 331.739 236.022 331.524 236.028C331.168 236.038 330.853 235.749 330.842 235.383C330.831 235.016 331.121 234.711 331.487 234.7C332.042 234.684 332.594 234.937 332.992 235.393C333.443 235.911 333.648 236.604 333.539 237.251C333.366 238.279 332.514 239.168 331.365 239.518C330.906 239.659 330.436 239.71 329.974 239.71H329.971Z" fill="#228279"/>
<path d="M344.912 215.744C344.581 215.744 344.294 215.494 344.254 215.157C344.212 214.793 344.472 214.464 344.838 214.422C347.869 214.071 350.64 212.282 353.18 210.405L353.231 210.368C353.73 209.999 354.248 209.617 354.861 209.357C355.646 209.025 356.451 208.975 357.125 209.216C357.47 209.341 357.648 209.72 357.526 210.066C357.401 210.411 357.021 210.591 356.676 210.466C356.19 210.291 355.654 210.461 355.378 210.581C354.908 210.78 354.476 211.098 354.019 211.438L353.969 211.475C351.28 213.463 348.331 215.356 344.989 215.744C344.963 215.746 344.936 215.749 344.912 215.749V215.744Z" fill="black"/>
<path d="M343.925 212.197C343.649 212.197 343.391 212.022 343.296 211.746C343.179 211.398 343.365 211.021 343.71 210.904C348.251 209.362 352.397 206.707 355.699 203.23L355.856 203.063C356.251 202.643 356.663 202.208 357.164 201.847C357.78 201.404 358.523 200.96 359.354 201.016C359.72 201.04 359.997 201.356 359.973 201.722C359.949 202.088 359.625 202.365 359.267 202.341C358.845 202.311 358.335 202.638 357.937 202.927C357.539 203.214 357.191 203.583 356.819 203.976L356.66 204.146C353.209 207.78 348.878 210.551 344.134 212.163C344.063 212.187 343.991 212.197 343.922 212.197H343.925Z" fill="black"/>
<path d="M342.542 208.423C342.226 208.423 341.948 208.197 341.889 207.876C341.825 207.515 342.064 207.17 342.425 207.106C343.925 206.835 345.472 205.994 347.02 204.6C347.877 203.83 348.679 202.954 349.457 202.107C349.929 201.59 350.42 201.056 350.922 200.544C351.994 199.453 353.658 197.908 355.737 197.117C356.082 196.987 356.464 197.159 356.594 197.499C356.724 197.841 356.554 198.224 356.212 198.356C354.797 198.895 353.459 199.859 351.872 201.473C351.386 201.969 350.903 202.495 350.439 203.002C349.642 203.873 348.817 204.773 347.912 205.585C346.176 207.146 344.411 208.096 342.664 208.409C342.624 208.417 342.585 208.42 342.545 208.42L342.542 208.423Z" fill="black"/>
<path d="M127.244 226.888C123.976 226.888 120.881 225.454 118.017 223.899L117.964 223.87C117.465 223.599 116.993 223.341 116.499 223.209C116.21 223.132 115.655 223.036 115.196 223.275C114.872 223.445 114.471 223.32 114.299 222.996C114.129 222.672 114.253 222.272 114.577 222.099C115.212 221.765 116.016 221.703 116.841 221.924C117.486 222.096 118.052 222.404 118.599 222.702L118.652 222.731C121.428 224.241 124.419 225.624 127.469 225.558C127.828 225.547 128.138 225.839 128.149 226.206C128.157 226.572 127.867 226.877 127.501 226.885C127.416 226.885 127.331 226.888 127.244 226.888Z" fill="black"/>
<path d="M127.974 223.235C127.931 223.235 127.891 223.233 127.849 223.225C122.928 222.285 118.256 220.137 114.336 217.016L114.153 216.87C113.733 216.532 113.335 216.214 112.902 215.986C112.467 215.757 111.918 215.505 111.504 215.59C111.145 215.664 110.792 215.433 110.718 215.075C110.644 214.717 110.875 214.364 111.233 214.292C112.053 214.122 112.847 214.459 113.518 214.812C114.065 215.099 114.53 215.473 114.981 215.834L115.161 215.978C118.912 218.967 123.387 221.021 128.096 221.921C128.457 221.99 128.693 222.338 128.624 222.696C128.563 223.015 128.284 223.235 127.974 223.235Z" fill="black"/>
<path d="M128.82 219.306C128.82 219.306 128.802 219.306 128.794 219.306C127.021 219.237 125.139 218.539 123.207 217.233C122.198 216.553 121.258 215.776 120.345 215.024C119.814 214.586 119.265 214.132 118.713 213.708C116.919 212.327 115.459 211.56 113.983 211.22C113.625 211.138 113.402 210.782 113.484 210.424C113.566 210.065 113.922 209.843 114.28 209.925C115.952 210.31 117.569 211.151 119.522 212.654C120.09 213.092 120.65 213.554 121.189 214C122.076 214.732 122.992 215.489 123.947 216.134C125.675 217.299 127.321 217.92 128.844 217.982C129.211 217.995 129.495 218.305 129.481 218.672C129.468 219.03 129.173 219.309 128.818 219.309L128.82 219.306Z" fill="black"/>
<path d="M218.767 168.019C219.14 168.019 219.444 167.59 219.444 167.061C219.444 166.532 219.14 166.103 218.767 166.103C218.393 166.103 218.09 166.532 218.09 167.061C218.09 167.59 218.393 168.019 218.767 168.019Z" fill="black"/>
</g>
<defs>
<clipPath id="clip0_682_6485">
<rect width="425.75" height="360" fill="white" transform="translate(37 70)"/>
</clipPath>
</defs>
</svg>
