<svg width="270" height="270" viewBox="0 0 270 270" fill="none" xmlns="http://www.w3.org/2000/svg">
<g clip-path="url(#clip0_828_7496)">
<path d="M40.4675 223.934L213.848 232.2L253.26 110.318L188.472 38.3398L36.6501 53.8432L11.3398 150.858L40.4675 223.934Z" fill="#F7F9FD"/>
<path d="M57.1653 105.362H18.7788C17.3752 105.362 16.2373 106.499 16.2373 107.901C16.2373 109.303 17.3752 110.44 18.7788 110.44H57.1653C58.5689 110.44 59.7068 109.303 59.7068 107.901C59.7068 106.499 58.5689 105.362 57.1653 105.362Z" fill="#6699FF"/>
<path d="M57.1649 110.806H18.7784C17.1736 110.806 15.8682 109.502 15.8682 107.899C15.8682 106.296 17.1736 104.992 18.7784 104.992H57.1649C58.7697 104.992 60.0751 106.296 60.0751 107.899C60.0751 109.502 58.7697 110.806 57.1649 110.806ZM18.7784 105.729C17.5807 105.729 16.6057 106.703 16.6057 107.899C16.6057 109.096 17.5807 110.07 18.7784 110.07H57.1649C58.3626 110.07 59.3376 109.096 59.3376 107.899C59.3376 106.703 58.3626 105.729 57.1649 105.729H18.7784Z" fill="#6699FF"/>
<path d="M244.988 165.58H190.64C189.237 165.58 188.099 166.717 188.099 168.119C188.099 169.521 189.237 170.658 190.64 170.658H244.988C246.392 170.658 247.53 169.521 247.53 168.119C247.53 166.717 246.392 165.58 244.988 165.58Z" fill="#6699FF"/>
<path d="M244.988 171.026H190.64C189.035 171.026 187.729 169.722 187.729 168.119C187.729 166.516 189.035 165.212 190.64 165.212H244.988C246.592 165.212 247.898 166.516 247.898 168.119C247.898 169.722 246.592 171.026 244.988 171.026ZM190.64 165.949C189.442 165.949 188.467 166.923 188.467 168.119C188.467 169.315 189.442 170.289 190.64 170.289H244.988C246.185 170.289 247.16 169.315 247.16 168.119C247.16 166.923 246.185 165.949 244.988 165.949H190.64Z" fill="#6699FF"/>
<path d="M75.9403 80.3683H43.9909C43.6428 80.3683 43.3537 80.1001 43.3286 79.7524C43.3242 79.6861 42.7976 73.0777 38.9728 73.0777C38.6601 73.0777 38.368 73.1205 38.0981 73.1986C38.4905 74.4348 38.7103 75.7181 38.7103 76.891C38.7103 80.1178 37.1157 80.3683 36.6275 80.3683C35.1495 80.3683 34.1568 79.1026 34.1568 77.2195C34.1568 75.4455 34.9946 73.5787 36.4534 72.5503C36.2204 71.9948 35.9386 71.4408 35.6009 70.9044C34.6731 69.4325 33.024 67.6776 30.4367 67.6776C23.2533 67.6776 22.0895 79.6448 22.0792 79.7656C22.0467 80.1296 21.7237 80.3963 21.3593 80.3668C20.995 80.3344 20.7251 80.0117 20.7575 79.6478C20.7693 79.5137 21.0643 76.3414 22.355 73.1146C24.125 68.6899 26.9202 66.3516 30.4382 66.3516C33.6302 66.3516 35.6186 68.4438 36.7248 70.1987C37.0685 70.7438 37.3753 71.3376 37.6394 71.9579C38.0539 71.8253 38.4993 71.7531 38.9728 71.7531C43.246 71.7531 44.3361 77.1724 44.5853 79.0436H75.9388C76.3061 79.0436 76.6026 79.3398 76.6026 79.7067C76.6026 80.0736 76.3061 80.3697 75.9388 80.3697L75.9403 80.3683ZM36.9166 73.8616C35.9475 74.7265 35.4843 76.1395 35.4843 77.2181C35.4843 77.6454 35.5669 79.0407 36.6275 79.0407C37.0656 79.0407 37.3827 78.136 37.3827 76.8895C37.3827 76.0659 37.247 74.9976 36.9166 73.8601V73.8616Z" fill="#6699FF"/>
<path d="M214.812 205.264C213.388 205.264 212.229 204.798 211.462 203.92C210.773 203.13 210.409 202.018 210.409 200.702C210.409 198.34 211.577 195.495 213.456 193.274C213.936 192.709 214.444 192.199 214.977 191.748C213.767 190.823 212.267 190.235 210.491 190.235C206.833 190.235 204.478 193.115 203.231 196.182C204.966 197.365 205.964 199.567 205.964 201.657C205.964 202.625 205.743 203.471 205.323 204.101C204.824 204.851 204.057 205.264 203.16 205.264C202.61 205.264 200.815 204.975 200.815 201.268C200.815 199.853 201.086 198.305 201.572 196.815C201.209 196.696 200.814 196.631 200.383 196.631C195.741 196.631 195.11 204.568 195.104 204.648C195.079 204.994 194.79 205.264 194.441 205.264H156.608C156.241 205.264 155.944 204.968 155.944 204.601C155.944 204.234 156.241 203.938 156.608 203.938H193.846C193.952 203.117 194.21 201.592 194.795 200.049C195.974 196.946 197.906 195.305 200.383 195.305C200.971 195.305 201.523 195.401 202.031 195.576C202.351 194.81 202.727 194.076 203.149 193.406C204.442 191.353 206.767 188.907 210.49 188.907C212.555 188.907 214.481 189.612 216.071 190.924C217.687 189.859 219.47 189.293 221.292 189.293C225.245 189.293 228.407 191.969 230.434 197.032C231.918 200.739 232.278 204.384 232.291 204.537C232.325 204.901 232.058 205.225 231.694 205.259C231.329 205.292 231.005 205.026 230.969 204.663C230.956 204.523 229.533 190.619 221.29 190.619C219.828 190.619 218.389 191.051 217.06 191.867C217.219 192.041 217.374 192.224 217.523 192.411C219.058 194.347 219.974 196.931 219.974 199.324C219.974 200.976 219.548 202.401 218.741 203.447C217.824 204.635 216.465 205.264 214.81 205.264H214.812ZM215.97 192.647C215.443 193.077 214.942 193.572 214.47 194.131C212.784 196.121 211.736 198.639 211.736 200.702C211.736 201.692 211.987 202.504 212.463 203.049C212.978 203.639 213.769 203.939 214.812 203.939C216.057 203.939 217.026 203.502 217.692 202.64C218.318 201.828 218.65 200.683 218.65 199.327C218.65 197.163 217.735 194.525 215.971 192.65L215.97 192.647ZM202.77 197.48C202.346 198.865 202.143 200.211 202.143 201.268C202.143 202.865 202.551 203.938 203.16 203.938C204.565 203.938 204.635 202.037 204.635 201.657C204.635 200.304 204.034 198.518 202.77 197.48Z" fill="#6699FF"/>
<path d="M243.536 124.423C244.071 124.423 244.505 123.99 244.505 123.455C244.505 122.921 244.071 122.487 243.536 122.487C243 122.487 242.566 122.921 242.566 123.455C242.566 123.99 243 124.423 243.536 124.423Z" fill="#6699FF"/>
<path d="M243.535 124.792C242.798 124.792 242.197 124.192 242.197 123.456C242.197 122.719 242.798 122.119 243.535 122.119C244.273 122.119 244.873 122.719 244.873 123.456C244.873 124.192 244.273 124.792 243.535 124.792ZM243.535 122.857C243.205 122.857 242.935 123.125 242.935 123.457C242.935 123.789 243.203 124.057 243.535 124.057C243.867 124.057 244.135 123.789 244.135 123.457C244.135 123.125 243.867 122.857 243.535 122.857Z" fill="#6699FF"/>
<path d="M97.8734 61.1382C98.4086 61.1382 98.8425 60.7048 98.8425 60.1702C98.8425 59.6356 98.4086 59.2021 97.8734 59.2021C97.3382 59.2021 96.9043 59.6356 96.9043 60.1702C96.9043 60.7048 97.3382 61.1382 97.8734 61.1382Z" fill="#6699FF"/>
<path d="M97.873 61.5068C97.1355 61.5068 96.5352 60.9071 96.5352 60.1704C96.5352 59.4337 97.1355 58.834 97.873 58.834C98.6105 58.834 99.2109 59.4337 99.2109 60.1704C99.2109 60.9071 98.6105 61.5068 97.873 61.5068ZM97.873 59.5722C97.5426 59.5722 97.2727 59.8403 97.2727 60.1719C97.2727 60.5034 97.5411 60.7715 97.873 60.7715C98.2049 60.7715 98.4733 60.5034 98.4733 60.1719C98.4733 59.8403 98.2049 59.5722 97.873 59.5722Z" fill="#6699FF"/>
<path d="M28.0042 146.336C29.6294 146.336 30.9469 145.02 30.9469 143.397C30.9469 141.773 29.6294 140.457 28.0042 140.457C26.379 140.457 25.0615 141.773 25.0615 143.397C25.0615 145.02 26.379 146.336 28.0042 146.336Z" fill="#6699FF"/>
<path d="M28.0039 146.705C26.1777 146.705 24.6924 145.221 24.6924 143.397C24.6924 141.573 26.1777 140.089 28.0039 140.089C29.83 140.089 31.3153 141.573 31.3153 143.397C31.3153 145.221 29.83 146.705 28.0039 146.705ZM28.0039 140.826C26.5849 140.826 25.4299 141.979 25.4299 143.397C25.4299 144.814 26.5849 145.968 28.0039 145.968C29.4228 145.968 30.5778 144.814 30.5778 143.397C30.5778 141.979 29.4228 140.826 28.0039 140.826Z" fill="#6699FF"/>
<path d="M174.382 146.336C176.007 146.336 177.325 145.02 177.325 143.397C177.325 141.773 176.007 140.457 174.382 140.457C172.757 140.457 171.439 141.773 171.439 143.397C171.439 145.02 172.757 146.336 174.382 146.336Z" fill="#6699FF"/>
<path d="M174.382 146.705C172.556 146.705 171.07 145.221 171.07 143.397C171.07 141.573 172.556 140.089 174.382 140.089C176.208 140.089 177.693 141.573 177.693 143.397C177.693 145.221 176.208 146.705 174.382 146.705ZM174.382 140.826C172.963 140.826 171.808 141.979 171.808 143.397C171.808 144.814 172.963 145.968 174.382 145.968C175.801 145.968 176.956 144.814 176.956 143.397C176.956 141.979 175.801 140.826 174.382 140.826Z" fill="#6699FF"/>
<path d="M232.27 225.16C234.878 225.16 236.993 223.048 236.993 220.443C236.993 217.837 234.878 215.725 232.27 215.725C229.661 215.725 227.547 217.837 227.547 220.443C227.547 223.048 229.661 225.16 232.27 225.16Z" fill="#6699FF"/>
<path d="M232.27 225.53C229.461 225.53 227.178 223.248 227.178 220.444C227.178 217.64 229.463 215.357 232.27 215.357C235.077 215.357 237.361 217.64 237.361 220.444C237.361 223.248 235.077 225.53 232.27 225.53ZM232.27 216.093C229.868 216.093 227.915 218.043 227.915 220.442C227.915 222.841 229.868 224.792 232.27 224.792C234.671 224.792 236.624 222.841 236.624 220.442C236.624 218.043 234.671 216.093 232.27 216.093Z" fill="#6699FF"/>
<path d="M110.222 174.244H101.542C101.533 174.244 101.525 174.237 101.525 174.228V150.541C101.525 137.274 90.7267 126.358 77.4484 126.593C64.6022 126.82 54.2209 137.33 54.2209 150.217V172.613C54.2209 172.622 54.2135 172.629 54.2047 172.629H45.524C45.5152 172.629 45.5078 172.622 45.5078 172.613V150.597C45.5078 132.456 60.2936 117.573 78.4514 117.893C96.0309 118.202 110.237 132.584 110.237 150.217V174.229C110.237 174.238 110.23 174.245 110.221 174.245L110.222 174.244Z" fill="#0043AE"/>
<path d="M110.919 161.827H44.8281C39.9924 161.827 36.0723 165.743 36.0723 170.573V222.151C36.0723 226.981 39.9924 230.897 44.8281 230.897H110.919C115.755 230.897 119.675 226.981 119.675 222.151V170.573C119.675 165.743 115.755 161.827 110.919 161.827Z" fill="#6699FF"/>
<path d="M77.8735 197.147C82.1577 197.147 85.6307 193.678 85.6307 189.398C85.6307 185.119 82.1577 181.649 77.8735 181.649C73.5892 181.649 70.1162 185.119 70.1162 189.398C70.1162 193.678 73.5892 197.147 77.8735 197.147Z" fill="black"/>
<path d="M80.3601 188.779C80.3601 187.407 79.247 186.295 77.8739 186.295C76.5008 186.295 75.3877 187.407 75.3877 188.779V208.591C75.3877 209.963 76.5008 211.075 77.8739 211.075C79.247 211.075 80.3601 209.963 80.3601 208.591V188.779Z" fill="black"/>
<path d="M228.477 58.2266C228.477 58.2266 229.2 74.7333 225.216 87.1322C221.232 99.5296 210.607 115.625 210.607 115.625L190.681 90.3074L228.477 58.2266Z" fill="#FD8571"/>
<path d="M156.403 105.142C149.566 112.2 137.585 135.835 126.324 129.241C126.324 129.241 121.756 132.568 117.847 127.97L109.457 103.094L131.429 63.8877L151.968 65.3729L162.187 83.7082L156.405 105.142H156.403Z" fill="#FD8571"/>
<path d="M210.607 115.624C190.574 116.916 167.306 114.903 156.938 112.692C146.57 110.48 128.941 113.798 114.976 115.488C102.124 117.043 96.6512 103.646 111.505 98.5145C126.359 93.3825 139.095 96.0155 151.647 81.1855L143.367 67.0112C143.367 67.0112 121.87 80.8275 117.647 94.7263C113.424 108.627 97.0996 118.832 97.0996 118.832L98.8357 105.466C99.3977 101.143 100.606 96.9291 102.417 92.9626C105.661 85.8563 111.052 74.5757 114.619 69.8947C120.011 62.8134 140.076 43.0842 149.633 39.9561C159.189 36.8266 228.479 58.2281 228.479 58.2281C228.479 58.2281 220.981 66.4689 213.373 86.0979C206.157 104.716 210.607 115.625 210.607 115.625V115.624Z" fill="#FEB0A3"/>
<path d="M126.946 128.731C126.804 128.731 126.663 128.687 126.542 128.594C126.251 128.372 126.196 127.955 126.419 127.664C130.347 122.555 133.743 117.013 136.511 111.193C136.669 110.862 137.065 110.722 137.396 110.879C137.727 111.037 137.868 111.432 137.711 111.763C134.902 117.666 131.456 123.288 127.472 128.472C127.341 128.641 127.145 128.731 126.946 128.731Z" fill="black"/>
<path d="M134.709 91.9725C134.562 91.9725 134.413 91.9239 134.289 91.8222C134.005 91.5894 133.964 91.1724 134.196 90.8895C137.895 86.3779 142.04 82.1949 146.518 78.4568C146.8 78.2225 147.219 78.2593 147.453 78.5408C147.688 78.8222 147.651 79.2392 147.369 79.4749C142.955 83.1599 138.867 87.2841 135.222 91.7309C135.091 91.8915 134.901 91.974 134.709 91.974V91.9725Z" fill="black"/>
<path d="M109.494 172.889C110.132 172.745 110.854 172.176 111.533 171.482C111.803 171.206 112.065 170.912 112.313 170.616C113.293 169.446 114.035 168.27 114.035 168.27V164.155L113.095 162.245V158.426L114.035 157.744V156.544L113.095 155.622V153.354C113.095 153.354 114.768 153.116 113.095 148.819V145.538C113.095 145.538 113.65 145.199 114.035 144.43V140.967C113.83 140.403 113.526 139.78 113.095 139.095L114.035 137.9V135.961L113.095 134.559V133.278L114.035 132.566V128.545C114.577 128.356 115.107 128.137 115.619 127.886C120.526 125.504 123.908 120.478 123.908 114.661C123.908 106.545 117.321 99.9648 109.196 99.9648C101.072 99.9648 94.4844 106.545 94.4844 114.661C94.4844 121.085 98.6101 126.545 104.358 128.543V168.149C104.358 168.149 105.012 169.211 105.901 170.334C106.124 170.616 106.363 170.9 106.609 171.174C107.332 171.976 108.127 172.674 108.826 172.868C108.953 172.904 109.077 172.923 109.196 172.923C109.294 172.923 109.393 172.911 109.494 172.888V172.889ZM105.873 106.256C105.873 104.423 107.36 102.938 109.195 102.938C111.03 102.938 112.517 104.423 112.517 106.256C112.517 108.089 111.03 109.575 109.195 109.575C107.36 109.575 105.873 108.089 105.873 106.256Z" fill="#46C1B5"/>
<path d="M109.719 99.6655C101.593 99.6655 95.0068 106.246 95.0068 114.361C95.0068 117.196 95.8093 119.843 97.2017 122.088C98.9644 124.93 101.67 127.129 104.881 128.246V167.851C104.881 167.851 105.534 168.914 106.424 170.036C106.646 170.318 106.884 170.602 107.132 170.876C107.854 171.678 108.649 172.376 109.349 172.571C109.476 172.606 109.599 172.625 109.719 172.625C109.816 172.625 109.915 172.613 110.017 172.59C110.654 172.445 111.377 171.877 112.055 171.183C112.325 170.907 112.588 170.611 112.836 170.316C113.815 169.146 114.557 167.971 114.557 167.971V163.855L113.617 161.946V158.127L114.557 157.443V156.244L113.617 155.321V153.054C113.617 153.054 115.29 152.815 113.617 148.518V145.237C113.617 145.237 114.172 144.898 114.557 144.129V140.667C114.352 140.102 114.048 139.479 113.617 138.794L114.557 137.599V135.66L113.617 134.259V132.977L114.557 132.265V128.244C115.1 128.055 115.629 127.834 116.141 127.585C121.049 125.203 124.431 120.177 124.431 114.36V114.339C124.419 106.233 117.838 99.6641 109.719 99.6641V99.6655ZM109.719 102.636C111.554 102.636 113.041 104.121 113.041 105.954C113.041 107.787 111.552 109.272 109.719 109.272C107.885 109.272 106.397 107.786 106.397 105.954C106.397 104.123 107.885 102.636 109.719 102.636Z" fill="#46C1B5"/>
<path d="M109.349 172.569C108.648 172.375 107.855 171.677 107.132 170.875C106.886 170.602 106.648 170.317 106.424 170.035C106.43 148.249 107.083 130.639 107.887 130.639C108.691 130.639 109.35 148.411 109.35 170.334C109.35 171.084 109.35 171.83 109.347 172.569H109.349Z" fill="#46C1B5"/>
<path d="M110.043 165.088C110.043 167.652 110.034 170.16 110.016 172.588C109.914 172.611 109.814 172.623 109.718 172.623C109.706 172.623 109.693 172.623 109.681 172.623C109.67 172.623 109.659 172.623 109.647 172.622C109.63 172.622 109.612 172.619 109.593 172.617C109.583 172.617 109.572 172.614 109.562 172.614C109.488 172.605 109.413 172.589 109.336 172.567C109.314 172.561 109.292 172.554 109.27 172.547C109.259 172.544 109.248 172.539 109.236 172.536C109.226 172.532 109.214 172.529 109.202 172.524C109.18 172.517 109.158 172.508 109.136 172.499C109.113 172.491 109.091 172.48 109.068 172.471C109.049 172.463 109.031 172.455 109.013 172.446C108.995 172.438 108.976 172.429 108.959 172.42C108.951 172.417 108.945 172.412 108.938 172.41C108.931 172.407 108.925 172.402 108.917 172.399C108.905 172.393 108.894 172.387 108.882 172.382C108.87 172.376 108.858 172.37 108.846 172.362C108.829 172.354 108.811 172.343 108.793 172.333C108.774 172.323 108.756 172.311 108.737 172.3C108.715 172.287 108.695 172.274 108.672 172.261C108.667 172.258 108.661 172.253 108.655 172.25C108.147 171.926 107.621 171.428 107.127 170.88C107.116 168.991 107.11 167.06 107.11 165.094C107.11 148.403 107.489 134.12 108.028 128.251H109.119C109.658 134.12 110.037 148.403 110.037 165.094L110.043 165.088Z" fill="#46C1B5"/>
<path d="M110.043 165.088C110.043 167.652 110.034 170.16 110.016 172.588C109.914 172.611 109.814 172.623 109.718 172.623C109.706 172.623 109.693 172.623 109.681 172.623C109.67 172.623 109.659 172.623 109.647 172.622C109.63 172.622 109.612 172.619 109.593 172.617C109.583 172.617 109.572 172.614 109.562 172.614C109.488 172.605 109.413 172.589 109.336 172.567C109.314 172.561 109.292 172.554 109.27 172.547C109.26 172.544 109.248 172.539 109.236 172.536C109.226 172.532 109.214 172.529 109.202 172.524C109.18 172.517 109.158 172.508 109.136 172.499C109.114 172.491 109.091 172.48 109.068 172.471C109.049 172.463 109.031 172.455 109.013 172.446C108.996 172.438 108.976 172.429 108.959 172.42C108.951 172.417 108.945 172.412 108.938 172.41C108.92 172.401 108.901 172.39 108.883 172.382C108.872 172.376 108.86 172.37 108.848 172.362C108.83 172.354 108.813 172.343 108.795 172.333C108.792 172.331 108.789 172.33 108.786 172.328C108.743 172.303 108.701 172.278 108.656 172.25V128.251H109.122C109.661 134.12 110.04 148.403 110.04 165.094L110.043 165.088Z" fill="#228279"/>
<path d="M113.616 132.978V134.26L114.555 135.661V137.6L113.616 138.795C114.046 139.48 114.35 140.104 114.555 140.668V144.131C114.17 144.898 113.616 145.239 113.616 145.239V148.52C115.288 152.816 113.616 153.055 113.616 153.055V155.323L114.555 156.245V157.444L113.616 158.127V161.946L114.555 163.855V167.971C114.555 167.971 113.813 169.146 112.834 170.316V128.247H114.555V132.268L113.616 132.98V132.978Z" fill="#46C1B5"/>
<path d="M112.835 128.245V170.314C112.587 170.611 112.325 170.905 112.055 171.181V128.245H112.835Z" fill="#46C1B5"/>
<path d="M109.719 99.666C101.593 99.666 95.0068 106.246 95.0068 114.362C95.0068 117.197 95.8093 119.843 97.2017 122.089C101.052 118.507 110.009 112.307 124.432 114.341C124.421 106.235 117.839 99.666 109.72 99.666H109.719ZM109.719 109.274C107.884 109.274 106.397 107.788 106.397 105.956C106.397 104.125 107.885 102.638 109.719 102.638C111.552 102.638 113.041 104.123 113.041 105.956C113.041 107.789 111.552 109.274 109.719 109.274Z" fill="#46C1B5"/>
<path d="M210.607 115.624C190.575 116.916 167.306 114.903 156.938 112.692C146.57 110.48 127.871 114.323 114.976 115.488C103.918 116.487 97.842 103.213 111.505 98.5145C126.366 93.4032 139.096 96.0155 151.647 81.1855L143.368 67.0112C143.368 67.0112 109.225 76.9759 114.618 69.8947C120.01 62.8134 140.075 43.0842 149.632 39.9561C159.187 36.8266 228.478 58.2281 228.478 58.2281C228.478 58.2281 220.98 66.4689 213.372 86.0979C206.156 104.716 210.606 115.625 210.606 115.625L210.607 115.624Z" fill="#FEB0A3"/>
<path d="M109.031 111.25L108.361 104.573C108.28 103.764 108.872 103.041 109.682 102.96L113.307 102.598C114.927 102.435 116.374 103.617 116.537 105.236L116.912 108.98C117.074 110.599 115.891 112.044 114.271 112.206L110.645 112.569C109.835 112.65 109.112 112.059 109.031 111.25Z" fill="black"/>
<path d="M110.502 112.948C109.567 112.948 108.764 112.238 108.668 111.289L107.999 104.613C107.897 103.602 108.637 102.697 109.649 102.597L113.275 102.235C114.157 102.146 115.021 102.407 115.707 102.967C116.393 103.527 116.819 104.321 116.908 105.202L117.283 108.946C117.465 110.764 116.132 112.392 114.31 112.575L110.685 112.938C110.623 112.944 110.561 112.946 110.5 112.946L110.502 112.948ZM113.611 102.955C113.524 102.955 113.437 102.96 113.349 102.968L109.723 103.331C109.117 103.391 108.671 103.935 108.732 104.541L109.401 111.217C109.462 111.824 110.005 112.266 110.612 112.207L114.238 111.844C115.654 111.703 116.691 110.436 116.549 109.021L116.175 105.277C116.105 104.592 115.775 103.975 115.241 103.539C114.775 103.159 114.206 102.955 113.611 102.955Z" fill="black"/>
</g>
<defs>
<clipPath id="clip0_828_7496">
<rect width="241.92" height="193.86" fill="white" transform="translate(11.3398 38.3398)"/>
</clipPath>
</defs>
</svg>
