<svg width="270" height="270" viewBox="0 0 270 270" fill="none" xmlns="http://www.w3.org/2000/svg">
<g clip-path="url(#clip0_933_18893)">
<path d="M238.311 229.738L259.74 108.635L161.016 35.64L12.4022 74.8146L10.2598 194.05L70.9037 234.36L238.311 229.738Z" fill="#F7F9FD"/>
<path d="M81.21 96.9698H60.8165C60.0353 96.9698 59.4787 97.6014 59.5754 98.3809L61.6726 115.428L64.4792 112.312H82.9641C83.8077 112.312 84.4064 111.63 84.3035 110.789L82.7739 98.3591C82.6788 97.5905 81.9787 96.9682 81.2084 96.9682L81.21 96.9698Z" fill="white"/>
<path d="M71.6035 102.852C68.9403 102.852 66.2755 102.835 63.6264 102.799C63.4112 102.796 63.2397 102.621 63.2412 102.406C63.2443 102.193 63.4174 102.022 63.631 102.022H63.6357C68.9746 102.093 74.3821 102.092 79.7053 102.02H79.71C79.9236 102.02 80.0967 102.191 80.0998 102.404C80.1029 102.619 79.9299 102.796 79.7147 102.798C77.025 102.834 74.3135 102.852 71.6019 102.852H71.6035Z" fill="#231F20"/>
<path d="M72.0896 106.697C69.4248 106.697 66.7523 106.68 64.1 106.644C63.8848 106.641 63.7133 106.465 63.7149 106.25C63.718 106.036 63.8988 105.864 64.1093 105.866C68.3614 105.922 72.6665 105.934 76.9077 105.9H76.9108C77.1244 105.9 77.299 106.073 77.3006 106.286C77.3022 106.501 77.1291 106.677 76.9139 106.678C75.3126 106.691 73.7019 106.697 72.088 106.697H72.0896Z" fill="#231F20"/>
<path d="M89.3885 100.089H109.782C110.563 100.089 111.274 100.721 111.371 101.5L113.468 118.548L109.894 115.431H91.4092C90.5657 115.431 89.7985 114.75 89.6956 113.908L88.166 101.479C88.0709 100.71 88.6182 100.088 89.3885 100.088V100.089Z" fill="white"/>
<path d="M100.345 105.972C97.6319 105.972 94.9172 105.953 92.2182 105.917C92.003 105.914 91.8315 105.738 91.833 105.524C91.8361 105.309 92.0061 105.138 92.2275 105.139C97.5679 105.211 102.975 105.213 108.297 105.141H108.302C108.515 105.141 108.689 105.312 108.692 105.525C108.695 105.74 108.522 105.917 108.306 105.919C105.667 105.955 103.005 105.972 100.343 105.972H100.345Z" fill="#231F20"/>
<path d="M100.805 109.816C99.1913 109.816 97.5791 109.81 95.9746 109.798C95.7594 109.796 95.5863 109.62 95.5879 109.406C95.5895 109.192 95.7641 109.02 95.9777 109.02H95.9808C100.23 109.054 104.533 109.043 108.771 108.986H108.776C108.99 108.986 109.163 109.157 109.166 109.37C109.169 109.585 108.996 109.762 108.781 109.763C106.138 109.799 103.468 109.816 100.804 109.816H100.805Z" fill="#231F20"/>
<path d="M66.5209 92.3816H88.9336L86.9752 76.4731H64.5625L66.5209 92.3816Z" fill="#46C1B5"/>
<path d="M83.7851 81.9497C83.7851 81.9497 83.782 81.9497 83.7789 81.9497C81.6178 81.9201 78.9982 81.8906 76.3787 81.8594C73.7592 81.8299 71.1396 81.8003 68.9769 81.7692C68.7618 81.7661 68.5902 81.5903 68.5918 81.3756C68.5949 81.1609 68.7774 80.9882 68.9863 80.9928C71.149 81.0224 73.767 81.0519 76.3865 81.0831C79.006 81.1126 81.6256 81.1422 83.7883 81.1733C84.0034 81.1764 84.175 81.3522 84.1734 81.5669C84.1703 81.7801 83.9972 81.9512 83.7836 81.9512L83.7851 81.9497Z" fill="white"/>
<path d="M84.1377 84.8077C84.1377 84.8077 84.1346 84.8077 84.1314 84.8077C81.9688 84.7782 79.3508 84.7486 76.7312 84.7175C74.1117 84.6879 71.4922 84.6584 69.3295 84.6273C69.1143 84.6241 68.9428 84.4483 68.9443 84.2336C68.9475 84.0189 69.1268 83.8431 69.3388 83.8509C71.5015 83.8805 74.1195 83.91 76.739 83.9411C79.3586 83.9707 81.9781 84.0003 84.1408 84.0314C84.356 84.0345 84.5275 84.2103 84.5259 84.425C84.5228 84.6382 84.3497 84.8093 84.1361 84.8093L84.1377 84.8077Z" fill="white"/>
<path d="M80.2382 87.8619H80.2335L77.14 87.8261C74.5111 87.7966 71.8822 87.767 69.7133 87.7359C69.4981 87.7328 69.3266 87.5569 69.3281 87.3422C69.3313 87.1275 69.5121 86.9579 69.7226 86.9579C71.8915 86.9875 74.5204 87.0186 77.1478 87.0482L80.2413 87.084C80.4565 87.0871 80.6296 87.2629 80.6265 87.4776C80.6233 87.6907 80.4503 87.8619 80.2366 87.8619H80.2382Z" fill="white"/>
<path d="M31.1414 154.467H51.2807L45.8483 110.32H25.709L31.1414 154.467Z" fill="#46C1B5"/>
<path d="M30.0323 116.485C33.3988 116.531 36.7652 116.578 40.1316 116.625C41.089 116.639 42.0479 116.651 43.0053 116.665C43.3062 116.67 43.3062 116.203 43.0053 116.198C39.6389 116.152 36.2725 116.105 32.906 116.058C31.9487 116.044 30.9897 116.032 30.0323 116.018C29.7314 116.013 29.7314 116.48 30.0323 116.485Z" fill="#231F20"/>
<path d="M34.003 123.565C36.4667 123.6 38.9287 123.66 41.3923 123.705C42.2203 123.721 43.0498 123.733 43.8778 123.746C44.1787 123.75 44.1787 123.284 43.8778 123.279C41.4142 123.245 38.9521 123.184 36.4885 123.139C35.6605 123.123 34.831 123.111 34.003 123.099C33.7021 123.094 33.7021 123.561 34.003 123.565Z" fill="#231F20"/>
<path d="M34.9493 131.253C38.2394 131.298 41.5294 131.343 44.8194 131.39C45.1203 131.394 45.1203 130.928 44.8194 130.923C41.5294 130.878 38.2394 130.833 34.9493 130.786C34.6484 130.781 34.6484 131.248 34.9493 131.253Z" fill="#231F20"/>
<path d="M35.1378 132.798C37.0728 132.824 39.0079 132.851 40.9413 132.879C41.2423 132.883 41.2423 132.417 40.9413 132.412C39.0063 132.385 37.0713 132.359 35.1378 132.331C34.8369 132.326 34.8369 132.793 35.1378 132.798Z" fill="#231F20"/>
<path d="M35.8956 138.94L45.7657 139.077C46.0666 139.082 46.0666 138.615 45.7657 138.61L35.8956 138.473C35.5947 138.469 35.5947 138.936 35.8956 138.94Z" fill="#231F20"/>
<path d="M30.5862 122.828C30.9245 123.248 31.2941 123.64 31.6901 124.006C31.8024 124.108 31.9754 124.09 32.0581 123.959C32.5539 123.156 33.0279 122.341 33.4801 121.512C33.6236 121.247 33.2197 121.012 33.0763 121.277C32.6241 122.104 32.1501 122.921 31.6542 123.724L32.0222 123.677C31.6262 123.312 31.2566 122.918 30.9183 122.5C30.8388 122.402 30.6704 122.417 30.5877 122.5C30.491 122.596 30.5082 122.731 30.5877 122.829L30.5862 122.828Z" fill="#231F20"/>
<path d="M32.4983 138.374C32.8366 138.794 33.2062 139.186 33.6022 139.552C33.7145 139.654 33.8876 139.636 33.9702 139.505C34.466 138.702 34.94 137.887 35.3922 137.058C35.5357 136.793 35.1318 136.558 34.9884 136.823C34.5362 137.65 34.0622 138.467 33.5663 139.27L33.9343 139.223C33.5383 138.858 33.1687 138.464 32.8304 138.046C32.7509 137.948 32.5825 137.963 32.4998 138.046C32.4031 138.142 32.4203 138.277 32.4998 138.375L32.4983 138.374Z" fill="#231F20"/>
<path d="M33.2789 130.686C32.9437 131.396 32.6084 132.104 32.2732 132.813C32.2186 132.927 32.242 133.065 32.3574 133.132C32.4587 133.191 32.6225 133.163 32.677 133.048C33.0123 132.339 33.3475 131.631 33.6828 130.921C33.7373 130.808 33.7139 130.669 33.5986 130.602C33.4972 130.543 33.3335 130.571 33.2789 130.686Z" fill="#231F20"/>
<path d="M31.9276 131.03L33.7192 132.986C33.805 133.079 33.964 133.072 34.0498 132.986C34.1433 132.893 34.1355 132.749 34.0498 132.656C33.4526 132.004 32.8554 131.352 32.2582 130.7C32.1724 130.607 32.0134 130.615 31.9276 130.7C31.8341 130.794 31.8419 130.937 31.9276 131.03Z" fill="#231F20"/>
<path d="M157.863 100.873C157.863 100.873 161.229 96.5279 158.74 87.0419C156.252 77.5559 152.761 76.2801 144.671 78.8333C136.582 81.3864 135.994 78.2467 135.994 78.2467C135.994 78.2467 136.47 84.355 140.798 87.1664C145.127 89.9778 155.145 91.4403 155.145 91.4403L157.863 100.873Z" fill="black"/>
<path d="M157.861 101.107C157.847 101.107 157.832 101.107 157.818 101.102C157.732 101.085 157.662 101.021 157.637 100.937L154.961 91.6472C154.375 91.557 152.142 91.196 149.541 90.583C145.473 89.6246 142.489 88.5402 140.671 87.3609C136.297 84.5199 135.781 78.519 135.76 78.2639C135.751 78.1409 135.84 78.0305 135.963 78.0149C136.086 77.9994 136.202 78.0818 136.224 78.2032C136.227 78.2203 136.336 78.7042 137.014 79.0993C137.981 79.6626 140.083 80.036 144.6 78.6092C149.069 77.1997 151.867 77.0892 153.957 78.239C156.151 79.4463 157.696 82.1426 158.965 86.9812C161.454 96.4688 158.186 100.833 158.045 101.015C158 101.073 157.931 101.105 157.86 101.105L157.861 101.107ZM136.37 79.2129C136.708 81.0333 137.777 84.9244 140.925 86.9703C145.161 89.7211 155.078 91.1945 155.178 91.2085C155.268 91.2225 155.343 91.2863 155.368 91.3749L157.941 100.307C158.669 99.011 160.512 94.7216 158.513 87.101C157.278 82.3977 155.805 79.7901 153.731 78.6497C151.763 77.5668 149.075 77.6882 144.74 79.0558C140.028 80.5432 137.794 80.1106 136.749 79.4867C136.602 79.3996 136.478 79.3063 136.37 79.2145V79.2129Z" fill="black"/>
<path d="M141.923 87.2255C141.913 87.2255 141.902 87.2255 141.893 87.2255C140.332 87.1073 138.006 85.6992 136.925 84.786C135.809 83.8431 134.914 82.6871 134.047 81.57C133.914 81.4004 133.946 81.1562 134.117 81.0239C134.287 80.8917 134.532 80.9228 134.664 81.0939C135.506 82.1799 136.376 83.3017 137.431 84.1932C138.447 85.052 140.643 86.3511 141.952 86.4507C142.168 86.4663 142.328 86.6545 142.311 86.8677C142.295 87.0715 142.124 87.2271 141.923 87.2271V87.2255Z" fill="black"/>
<path d="M140.607 86.6872C140.554 86.6872 140.499 86.6763 140.448 86.653C137.842 85.4954 135.928 83.0357 135.449 80.2305C135.413 80.0189 135.555 79.8182 135.767 79.7824C135.977 79.7466 136.18 79.8882 136.216 80.0998C136.645 82.6125 138.43 84.9058 140.764 85.942C140.961 86.0291 141.05 86.2594 140.962 86.4554C140.897 86.6001 140.755 86.6857 140.605 86.6857L140.607 86.6872Z" fill="black"/>
<path d="M160.249 117.154L157.185 96.2509C157.185 96.2509 158.361 98.0448 160.573 97.424C162.786 96.8032 164.099 90.457 161.541 88.6631C158.983 86.8692 156.426 89.5592 156.426 89.5592L153.315 83.8337C153.315 83.8337 146.194 86.8692 140.939 86.2484C140.939 86.2484 139.971 92.3193 139.902 96.044C139.834 99.7687 139.901 105.426 145.157 105.426L145.225 119.498L156.15 120.601L160.25 117.152L160.249 117.154Z" fill="#FEB0A3"/>
<path d="M153.867 100.873C153.867 100.873 150.341 105.426 145.155 105.426L145.182 110.737C145.182 110.737 149.891 109.323 153.867 105.701V100.872V100.873Z" fill="#FD8571"/>
<path d="M160.686 94.3513C160.602 94.3513 160.516 94.3233 160.444 94.2673C160.276 94.1335 160.246 93.8892 160.38 93.7212C160.806 93.1828 161.026 92.5372 160.984 91.9506C160.939 91.3189 160.578 90.7479 160.067 90.4974C159.545 90.2407 158.871 90.3652 158.534 90.7791C158.399 90.9455 158.154 90.9704 157.985 90.8351C157.818 90.6997 157.794 90.4539 157.929 90.2874C158.495 89.5935 159.562 89.3819 160.412 89.7989C161.166 90.1692 161.696 90.9907 161.762 91.8946C161.82 92.685 161.547 93.5049 160.993 94.2035C160.917 94.2999 160.803 94.3513 160.688 94.3513H160.686Z" fill="#231F20"/>
<path d="M145.127 89.9778L142.819 96.5622L146.919 95.4529L145.127 89.9778Z" fill="#6699FF"/>
<path d="M142.819 96.7177C142.777 96.7177 142.735 96.7006 142.705 96.6679C142.666 96.6259 142.654 96.5653 142.673 96.5108L144.98 89.9249C145.002 89.8627 145.061 89.8207 145.127 89.8207H145.128C145.195 89.8207 145.255 89.8642 145.275 89.928L147.067 95.403C147.081 95.4435 147.076 95.4871 147.056 95.526C147.035 95.5649 147.001 95.5913 146.959 95.6022L142.86 96.7115C142.846 96.7146 142.833 96.7162 142.819 96.7162V96.7177ZM145.122 90.4632L143.064 96.335L146.719 95.3455L145.122 90.4632Z" fill="#6699FF"/>
<path d="M149.149 90.9051C149.445 90.9051 149.685 90.6195 149.685 90.2672C149.685 89.9149 149.445 89.6293 149.149 89.6293C148.852 89.6293 148.612 89.9149 148.612 90.2672C148.612 90.6195 148.852 90.9051 149.149 90.9051Z" fill="black"/>
<path d="M142.371 91.4418C142.619 91.4418 142.82 91.2022 142.82 90.9066C142.82 90.611 142.619 90.3714 142.371 90.3714C142.123 90.3714 141.922 90.611 141.922 90.9066C141.922 91.2022 142.123 91.4418 142.371 91.4418Z" fill="black"/>
<path d="M150.696 94.4944C151.69 94.368 152.429 93.7369 152.345 93.0848C152.262 92.4328 151.389 92.0066 150.394 92.133C149.4 92.2594 148.661 92.8905 148.744 93.5426C148.828 94.1946 149.701 94.6208 150.696 94.4944Z" fill="#6699FF"/>
<path d="M140.315 93.7056C140.215 93.7056 140.12 93.7118 140.025 93.7227C139.96 94.5442 139.914 95.3376 139.9 96.0471C139.9 96.0502 139.9 96.0518 139.9 96.0549C140.034 96.0751 140.172 96.0876 140.315 96.0876C141.318 96.0876 142.13 95.5555 142.13 94.8973C142.13 94.2392 141.318 93.7071 140.315 93.7071V93.7056Z" fill="#6699FF"/>
<path d="M147.886 99.3331C147.676 99.3331 147.501 99.1651 147.496 98.9535C147.492 98.7388 147.661 98.5614 147.877 98.5552C148.284 98.5459 148.691 98.3825 148.99 98.1071C149.291 97.8317 149.487 97.4412 149.531 97.0367C149.554 96.8235 149.748 96.6679 149.96 96.6913C150.173 96.7146 150.329 96.906 150.306 97.1191C150.242 97.7088 149.955 98.2767 149.517 98.6781C149.079 99.0795 148.488 99.3175 147.894 99.33C147.891 99.33 147.888 99.33 147.884 99.33L147.886 99.3331Z" fill="#231F20"/>
<path d="M69.585 204.104V206.196C69.585 206.405 69.6052 206.91 70.2009 206.91H151.722C152.542 206.91 153.872 206.247 154.692 205.429L164.412 196.495V192.41" fill="black"/>
<path d="M164.208 192.41H83.994C83.2533 192.41 81.9607 193.009 81.1078 193.749L70.3131 203.112C69.4602 203.851 69.3698 204.452 70.112 204.452H150.326C151.067 204.452 152.359 203.853 153.212 203.112L164.007 193.749C164.86 193.01 164.95 192.41 164.208 192.41Z" fill="black"/>
<path d="M150.326 204.841H70.9045C70.6893 204.841 70.5146 204.667 70.5146 204.452C70.5146 204.237 70.6893 204.063 70.9045 204.063H150.326C150.905 204.063 152.099 203.564 152.957 202.818L162.51 194.532C162.673 194.392 162.919 194.407 163.061 194.571C163.203 194.733 163.186 194.978 163.022 195.12L153.468 203.406C152.541 204.211 151.161 204.841 150.326 204.841Z" fill="white"/>
<path d="M209.33 160.512L181.435 189.273L116.665 189.614L117.161 184.358L132.788 126.272C135.71 125.322 141.99 123.495 144.914 122.545C145.011 121.132 144.791 119.189 144.886 117.776C149.935 119.413 155.992 119.477 160.946 116.802C160.956 118.17 161.171 120.583 161.186 121.975C169.394 123.782 176.904 125.407 184.488 128.211C192.127 131.035 196.968 131.88 201.427 138.682C204.652 143.6 207.523 152.826 209.331 160.513" fill="#46C1B5"/>
<path d="M43.0826 197.737C43.0748 197.802 43.067 197.869 43.0608 197.935C42.3996 204.984 55.2073 204.53 62.0665 203.624C67.5129 202.904 71.266 199.662 72.7037 196.954L70.2666 187.296L57.0254 186.986L45.1283 192.41L43.0842 197.737H43.0826Z" fill="black"/>
<path d="M52.9287 186.789C51.4568 187.1 47.5883 188.109 46.7775 188.741C45.4552 189.771 42.4802 193.854 41.6959 195.956C40.9708 197.899 43.0321 198.398 45.2089 196.575" fill="#FEB0A3"/>
<path d="M61.3232 183.319C59.3414 183.916 53.1855 185.825 51.7354 186.927C50 188.246 46.4698 192.45 45.4968 194.471C43.9688 197.645 46.9844 197.77 48.8851 196.12C50.9371 194.341 52.6444 191.957 54.0088 191.008C54.6044 190.593 56.2603 190.266 57.935 190.028L68.0701 188.404L68.9682 181.377L61.3232 183.317V183.319Z" fill="#FEB0A3"/>
<path d="M45.1265 195.91C45.1015 195.91 45.0766 195.907 45.0501 195.903C44.8396 195.861 44.7008 195.657 44.7429 195.445C44.8115 195.098 44.9471 194.714 45.1452 194.302C45.9591 192.612 48.4227 189.563 50.2127 187.773C50.3655 187.621 50.6119 187.621 50.7647 187.773C50.9175 187.926 50.9175 188.172 50.7647 188.324C49.0199 190.068 46.628 193.021 45.8484 194.639C45.6784 194.993 45.5646 195.315 45.5085 195.596C45.4726 195.781 45.3089 195.91 45.1265 195.91Z" fill="#231F20"/>
<path d="M63.9802 184.305C60.762 186.621 55.7302 192.114 54.4626 195.461C53.0577 199.171 56.6112 198.677 58.4293 196.863C59.8358 195.459 62.644 191.503 64.6273 191.008C66.6107 190.513 68.5941 192.575 68.5941 192.575C68.5941 192.575 65.7017 194.389 63.3877 195.626C61.0738 196.863 59.8342 199.996 64.6273 199.254C69.4205 198.512 72.4766 196.863 78.5093 194.801C79.3747 194.506 115.053 184.357 115.053 184.357" fill="#FEB0A3"/>
<path d="M58.6871 189.662C58.5951 189.662 58.5031 189.629 58.4282 189.564C58.2676 189.421 58.252 189.177 58.3939 189.015C60.1871 186.992 62.1891 185.114 63.7515 183.99C63.9261 183.864 64.1694 183.904 64.2957 184.078C64.422 184.253 64.3814 184.495 64.2068 184.621C62.6881 185.713 60.7344 187.548 58.9771 189.53C58.9007 189.617 58.7931 189.661 58.6855 189.661L58.6871 189.662Z" fill="#231F20"/>
<path d="M105.781 184.357H138.566C141.561 184.357 143.648 181.866 143.227 178.793L135.968 125.796C135.547 122.724 132.778 120.233 129.783 120.233H56.0193C53.024 120.233 50.9377 122.724 51.3587 125.796L58.617 178.793C59.038 181.866 61.8072 184.357 64.8025 184.357H84.8342" fill="#6699FF"/>
<path d="M95.793 212.077H108.189C112.037 212.077 111.456 209.493 106.622 208.609C105.005 208.314 103.482 207.979 101.922 207.679" fill="#0143AE"/>
<path d="M105.229 166.672H91.9431C90.9124 166.672 90.0034 167.398 89.7118 168.458L84.0283 184.357H106.477L107.529 169.531C107.738 168.025 106.65 166.672 105.228 166.672H105.229ZM101.154 175.7C100.826 178.023 98.6743 179.906 96.3464 179.906C94.0184 179.906 92.3968 178.023 92.7243 175.7C93.0517 173.377 95.2035 171.495 97.5314 171.495C99.8594 171.495 101.481 173.377 101.154 175.7Z" fill="#0143AE"/>
<path d="M91.944 166.672H105.23C106.652 166.672 107.741 168.025 107.532 169.531L101.905 209.952C101.735 211.173 100.755 212.077 99.6031 212.077H80.8001C79.2455 212.077 78.1275 210.476 78.5688 208.878L89.7128 168.458C90.0043 167.398 90.9134 166.672 91.944 166.672Z" fill="#6699FF"/>
<path d="M99.617 178.568C101.443 176.869 101.724 174.209 100.245 172.625C98.7661 171.042 96.0867 171.135 94.2606 172.834C92.4345 174.533 92.1532 177.193 93.6323 178.776C95.1115 180.36 97.7909 180.266 99.617 178.568Z" fill="#0143AE"/>
<path d="M240.365 190.003H228.28C228.065 190.003 227.891 189.829 227.891 189.614C227.891 189.399 228.065 189.225 228.28 189.225H240.365C240.58 189.225 240.754 189.399 240.754 189.614C240.754 189.829 240.58 190.003 240.365 190.003Z" fill="#231F20"/>
<path d="M136.313 190.003H106.612C106.397 190.003 106.223 189.829 106.223 189.614C106.223 189.399 106.397 189.225 106.612 189.225H136.313C136.528 189.225 136.703 189.399 136.703 189.614C136.703 189.829 136.528 190.003 136.313 190.003Z" fill="#231F20"/>
<path d="M43.0354 190.003H33.0656C32.8504 190.003 32.6758 189.829 32.6758 189.614C32.6758 189.399 32.8504 189.225 33.0656 189.225H43.0354C43.2506 189.225 43.4252 189.399 43.4252 189.614C43.4252 189.829 43.2506 190.003 43.0354 190.003Z" fill="#231F20"/>
<path d="M53.5544 203.651C53.4687 203.651 53.3813 203.623 53.3096 203.564C51.1937 201.857 50.188 199.923 50.3985 197.97C50.6324 195.795 52.3382 193.726 55.4661 191.822C55.65 191.71 55.8902 191.767 56.0024 191.951C56.1147 192.134 56.057 192.374 55.873 192.486C52.9619 194.258 51.3808 196.131 51.175 198.053C51.0487 199.223 51.4026 201.023 53.8023 202.958C53.9692 203.094 53.9957 203.338 53.86 203.506C53.7836 203.601 53.6698 203.651 53.556 203.651H53.5544Z" fill="white"/>
<path d="M178.037 160.927L181.687 177.382L186.914 176.136L183.46 168.352L180.728 169.039L178.037 160.927Z" fill="#228279"/>
<path d="M210.845 167.999C210.502 165.892 209.986 163.303 209.329 160.512L182.576 168.619L184.486 174.348C184.486 174.348 161.763 179.625 156.226 181.026C150.689 182.428 143.088 183.829 137.882 188.446C133.994 191.893 131.312 194.465 131.312 196.278C131.312 196.676 131.473 197.196 131.991 197.276C131.365 198.143 130.94 198.972 131.002 199.576C131.049 200.027 131.514 200.197 132.159 200.205C131.994 200.564 131.921 200.903 131.974 201.203C132.262 202.853 135.362 201.698 135.362 201.698C135.362 201.698 135.398 201.684 135.427 201.673C134.843 203.014 136.877 203.59 138.75 202.79C140.978 201.837 150.235 197.885 152.345 197.36C153.351 197.129 154.361 196.917 155.375 196.727C166.798 194.588 177.998 194.754 189.6 194.093C203.981 193.273 208.502 189.373 210.898 183.49C212.802 178.818 211.706 173.293 210.845 167.997V167.999Z" fill="#FEB0A3"/>
<path d="M136.049 201.427C136.011 201.427 135.974 201.423 135.936 201.41C135.731 201.348 135.614 201.132 135.676 200.925C135.812 200.475 136.17 200.004 136.738 199.523C139.186 197.454 146.708 193.851 147.026 193.698C147.219 193.605 147.453 193.687 147.545 193.882C147.639 194.076 147.556 194.308 147.361 194.4C147.283 194.437 139.612 198.112 137.24 200.117C136.677 200.594 136.484 200.942 136.42 201.151C136.368 201.319 136.214 201.427 136.047 201.427H136.049Z" fill="#231F20"/>
<path d="M132.786 199.926C132.737 199.926 132.687 199.917 132.639 199.898C132.439 199.817 132.344 199.59 132.425 199.391C133.207 197.474 136.403 195.126 137.365 194.453C139.09 193.244 144.51 189.922 144.739 189.78C144.921 189.668 145.161 189.726 145.275 189.908C145.387 190.092 145.33 190.331 145.147 190.443C145.091 190.477 139.518 193.893 137.813 195.089C135.923 196.415 133.704 198.317 133.147 199.683C133.087 199.834 132.94 199.926 132.786 199.926Z" fill="#231F20"/>
<path d="M132.666 196.884C132.586 196.884 132.506 196.861 132.438 196.811C132.263 196.685 132.223 196.443 132.349 196.268C133.487 194.691 135.268 193.004 135.853 192.449C139.571 188.923 142.798 187.335 142.933 187.269C143.127 187.176 143.36 187.255 143.454 187.448C143.549 187.641 143.468 187.875 143.275 187.968C143.242 187.983 140.016 189.575 136.391 193.012C135.818 193.553 134.078 195.204 132.984 196.721C132.907 196.827 132.789 196.883 132.667 196.883L132.666 196.884Z" fill="#231F20"/>
<path d="M219.566 186.032H192.544C188.985 186.032 186.1 188.911 186.1 192.463V192.464C186.1 196.016 188.985 198.895 192.544 198.895H219.566C223.125 198.895 226.01 196.016 226.01 192.464V192.463C226.01 188.911 223.125 186.032 219.566 186.032Z" fill="black"/>
<path d="M214.696 174.312C217.108 169.424 221.937 165.803 223.461 160.557C223.578 160.156 223.673 159.726 223.568 159.322C223.464 158.916 223.096 158.55 222.677 158.584C222.134 158.628 221.859 159.242 221.686 159.757C220.302 163.897 218.145 167.179 215.474 170.634" fill="white"/>
<path d="M197.315 176.105C198.382 173.541 199.609 171.023 199.648 168.279C199.652 167.957 199.635 167.619 199.475 167.341C199.314 167.06 198.966 166.864 198.662 166.975C198.268 167.118 198.19 167.63 198.168 168.047C198.049 170.247 197.608 172.24 196.958 174.228" fill="white"/>
<path d="M205.478 176.61C208.323 171.79 212.996 167.938 214.559 162.556C214.69 162.107 214.797 161.627 214.679 161.173C214.562 160.72 214.15 160.31 213.682 160.349C213.074 160.398 212.769 161.084 212.575 161.662C211.027 166.293 208.615 169.965 205.626 173.83" fill="white"/>
<path d="M217.308 159.44C216.24 158.079 214.824 156.621 214.021 155.824C212.791 154.601 211.575 153.217 211.271 151.51C211.166 150.923 211.33 150.128 211.924 150.058C212.484 149.993 212.83 150.629 213.043 151.15C214.041 153.581 215.535 155.734 217.581 158.023" fill="white"/>
<path d="M197.88 179.345C196.352 178.49 194.432 177.676 193.364 177.247C191.755 176.598 190.093 175.793 189.15 174.34C188.825 173.839 188.666 173.044 189.186 172.749C189.675 172.47 190.243 172.923 190.643 173.32C192.51 175.171 194.822 176.649 197.598 177.964" fill="white"/>
<path d="M205.881 165.215C204.799 163.795 203.276 162.228 202.432 161.388C201.202 160.165 199.986 158.78 199.682 157.074C199.577 156.487 199.741 155.692 200.335 155.622C200.895 155.557 201.241 156.193 201.455 156.714C202.453 159.144 203.946 161.298 205.992 163.586" fill="white"/>
<path d="M217.385 197.132L216.454 200.527H195.658L194.726 197.132" fill="black"/>
<path d="M205.188 186.236C204.972 186.236 204.798 186.062 204.798 185.847C204.798 171.317 206.911 145.257 208.334 134.78C208.364 134.567 208.557 134.419 208.772 134.447C208.986 134.476 209.136 134.672 209.106 134.884C207.686 145.341 205.577 171.348 205.577 185.847C205.577 186.062 205.403 186.236 205.188 186.236Z" fill="#231F20"/>
<path d="M213.182 186.421C213.171 186.421 213.158 186.421 213.147 186.421C212.932 186.403 212.775 186.213 212.794 186C213.846 174.149 216.257 162.791 218.383 152.77C218.906 150.312 219.398 147.989 219.865 145.7C219.908 145.49 220.113 145.353 220.325 145.397C220.535 145.439 220.672 145.644 220.629 145.856C220.163 148.148 219.668 150.472 219.147 152.932C217.025 162.931 214.619 174.264 213.572 186.07C213.553 186.272 213.383 186.425 213.183 186.425L213.182 186.421Z" fill="#231F20"/>
<path d="M199.238 186.421C199.051 186.421 198.887 186.288 198.854 186.098C197.212 176.441 195.385 169.198 191.616 157.397C191.551 157.192 191.665 156.974 191.869 156.909C192.073 156.843 192.293 156.957 192.358 157.161C196.14 169.001 197.973 176.27 199.621 185.969C199.657 186.18 199.514 186.381 199.302 186.417C199.28 186.42 199.258 186.423 199.236 186.423L199.238 186.421Z" fill="#231F20"/>
<path d="M209.616 136.107C207.688 136.552 205.525 135.228 205.048 133.311C204.571 131.394 205.862 129.215 207.775 128.707C209.688 128.2 211.893 129.453 212.432 131.352C212.972 133.252 211.754 135.474 209.858 136.043" fill="#6699FF"/>
<path d="M207.826 130.369C207.365 129.005 206.749 127.486 206.287 126.123C206.788 126.381 207.567 126.802 207.567 126.802C207.567 126.802 207.912 125.933 208.049 125.227C208.163 125.604 208.607 126.154 208.852 126.462C209.17 126.097 209.488 125.731 209.805 125.365C209.945 125.8 210.085 126.232 210.226 126.666C210.623 126.218 211.086 125.826 211.595 125.509C211.469 126.092 211.341 126.675 211.214 127.259C211.587 126.862 212.022 126.521 212.498 126.255C211.863 127.553 211.23 128.849 210.595 130.147" fill="#6699FF"/>
<path d="M221.288 146.355C219.627 146.474 218.002 145.092 217.857 143.437C217.712 141.781 219.07 140.138 220.726 139.967C222.382 139.794 224.051 141.123 224.25 142.772C224.45 144.421 223.146 146.108 221.497 146.334" fill="#6699FF"/>
<path d="M220.516 141.423C220.662 139.636 220.757 137.699 220.901 137.111C220.982 137.431 221.334 137.91 221.529 138.179C221.81 137.884 222.09 137.59 222.373 137.294C222.474 137.663 222.575 138.033 222.677 138.402C223.028 138.039 223.431 137.728 223.871 137.482C223.742 137.968 223.614 138.453 223.484 138.939C223.813 138.62 224.191 138.351 224.601 138.144C224.019 139.209 223.436 140.275 222.855 141.341" fill="#6699FF"/>
<path d="M193.342 158.082C191.957 159.006 189.862 158.608 188.912 157.242C187.964 155.876 188.327 153.777 189.681 152.809C191.034 151.84 193.142 152.169 194.136 153.503C195.129 154.838 194.833 156.946 193.512 157.959" fill="#6699FF"/>
<path d="M190.224 154.18C189.463 152.554 188.585 150.824 188.417 150.243C188.648 150.481 189.19 150.724 189.493 150.861C189.591 150.466 189.688 150.071 189.786 149.675C190.057 149.946 190.329 150.217 190.6 150.488C190.725 149.999 190.921 149.529 191.18 149.098C191.309 149.584 191.439 150.069 191.567 150.555C191.693 150.114 191.888 149.694 192.142 149.313C192.165 150.527 192.189 151.74 192.212 152.954" fill="#6699FF"/>
<path d="M185.426 177.051L184.486 174.348C184.486 174.348 181.214 175.107 176.852 176.126L185.426 177.049V177.051Z" fill="#FD8571"/>
<path d="M29.1739 105.947H55.2773L53.138 88.5714L38.888 78.8318L27.0361 88.5714L29.1739 105.947Z" fill="#0043AE"/>
<path d="M31.963 99.4265H50.8814L48.7748 82.3076H29.8564L31.963 99.4265Z" fill="white"/>
<path d="M29.1739 105.947H55.2773L53.138 88.5714L41.1941 97.5672L27.0361 88.5714L29.1739 105.947Z" fill="#6699FF"/>
<path d="M46.599 86.3076H46.5927C44.5922 86.2796 42.1691 86.2531 39.7461 86.2251C37.323 86.1971 34.8984 86.1707 32.8978 86.1427C32.6827 86.1396 32.5111 85.9637 32.5127 85.749C32.5158 85.5359 32.6889 85.3647 32.9025 85.3647H32.9088C34.9093 85.3928 37.3323 85.4192 39.7554 85.4472C42.1785 85.4752 44.6031 85.5017 46.6036 85.5297C46.8188 85.5328 46.9903 85.7086 46.9888 85.9233C46.9857 86.1364 46.8126 86.3076 46.599 86.3076Z" fill="#231F20"/>
<path d="M46.9232 88.9525H46.917C44.9211 88.9245 42.5027 88.8981 40.0843 88.8701C37.655 88.8421 35.2257 88.8141 33.2221 88.7876C33.0069 88.7845 32.8354 88.6087 32.8369 88.394C32.84 88.1793 33.024 88.0035 33.2314 88.0112C35.2351 88.0392 37.6644 88.0672 40.0921 88.0937C42.5105 88.1217 44.9289 88.1482 46.9263 88.1762C47.1415 88.1793 47.313 88.3551 47.3114 88.5698C47.3083 88.7829 47.1352 88.9541 46.9216 88.9541L46.9232 88.9525Z" fill="#231F20"/>
<path d="M43.3156 91.778H43.311L40.4419 91.7453C38.0126 91.7173 35.5817 91.6893 33.5766 91.6628C33.3614 91.6597 33.1899 91.4839 33.1914 91.2692C33.193 91.0545 33.3738 90.8771 33.5859 90.8865C35.5911 90.9145 38.0204 90.9425 40.4497 90.9689L43.3187 91.0016C43.5339 91.0047 43.707 91.1805 43.7039 91.3952C43.7008 91.6084 43.5277 91.7795 43.3141 91.7795L43.3156 91.778Z" fill="#231F20"/>
<path d="M112.291 98.8897C112.205 98.8897 112.118 98.8617 112.046 98.8025C111.879 98.6672 111.852 98.4229 111.988 98.2549L117.591 91.3423C117.726 91.1758 117.971 91.1494 118.139 91.2847C118.306 91.4201 118.333 91.6643 118.197 91.8324L112.595 98.745C112.518 98.8399 112.404 98.8897 112.291 98.8897Z" fill="#231F20"/>
<path d="M90.24 77.0192C90.0903 77.0192 89.9469 76.9321 89.8829 76.7874C89.7956 76.5913 89.886 76.3611 90.0825 76.2739L94.8226 74.1875C95.0191 74.1004 95.2499 74.1907 95.3372 74.3867C95.4245 74.5827 95.3341 74.813 95.1376 74.9001L90.3975 76.9865C90.346 77.0083 90.293 77.0192 90.24 77.0192Z" fill="#231F20"/>
<path d="M91.1803 79.4961C90.9776 79.4961 90.8077 79.3405 90.7921 79.1367C90.7765 78.922 90.9371 78.7353 91.1507 78.7197L93.9246 78.5097C94.1382 78.4926 94.3269 78.6544 94.3425 78.8675C94.3581 79.0822 94.1975 79.2689 93.9838 79.2845L91.2099 79.4945C91.2006 79.4945 91.1897 79.4945 91.1803 79.4945V79.4961Z" fill="#231F20"/>
<path d="M22.7772 110.19C22.7679 110.19 22.7601 110.19 22.7507 110.19L18.5517 109.908C18.3365 109.894 18.1743 109.709 18.1883 109.494C18.2024 109.28 18.3879 109.118 18.6031 109.132L22.8022 109.413C23.0173 109.427 23.1795 109.613 23.1655 109.827C23.1514 110.033 22.9799 110.19 22.7772 110.19Z" fill="#231F20"/>
<path d="M18.4694 116.108C18.3431 116.108 18.22 116.048 18.1451 115.935C18.025 115.757 18.0734 115.515 18.2527 115.396L22.9445 112.262C23.1238 112.142 23.3655 112.191 23.4855 112.37C23.6056 112.548 23.5573 112.79 23.3779 112.909L18.6862 116.043C18.6191 116.088 18.5443 116.108 18.4694 116.108Z" fill="#231F20"/>
<path d="M114.256 100.971C114.092 100.971 113.938 100.867 113.885 100.702C113.818 100.498 113.93 100.279 114.136 100.212L120.917 98.02C121.121 97.9531 121.341 98.0651 121.408 98.2705C121.475 98.4743 121.363 98.6937 121.157 98.7606L114.376 100.953C114.335 100.965 114.295 100.971 114.256 100.971Z" fill="#231F20"/>
<path d="M236.554 97.2841C235.52 97.2841 234.68 96.9496 234.126 96.3148C233.627 95.7438 233.364 94.9363 233.364 93.9779C233.364 91.8417 234.702 89.0568 236.857 87.2847C235.915 86.527 234.731 86.04 233.317 86.04C230.493 86.04 228.689 88.2804 227.751 90.6375C229.063 91.4901 229.82 93.1331 229.82 94.692C229.82 96.251 229.037 97.2841 227.827 97.2841C226.795 97.2841 226.177 96.2074 226.177 94.4027C226.177 93.3245 226.391 92.1389 226.771 91.0047C226.463 90.8911 226.121 90.8258 225.745 90.8258C222.168 90.8258 221.69 96.8609 221.685 96.9231C221.671 97.1269 221.501 97.2841 221.297 97.2841H192.962C192.747 97.2841 192.572 97.1098 192.572 96.8951C192.572 96.6804 192.747 96.5062 192.962 96.5062H220.943C221.111 95.0826 221.972 90.0479 225.745 90.0479C226.212 90.0479 226.643 90.1303 227.039 90.2797C227.286 89.6776 227.577 89.1019 227.908 88.5776C228.862 87.0653 230.576 85.2621 233.315 85.2621C235.006 85.2621 236.403 85.8735 237.493 86.807C238.631 86.0353 239.956 85.5499 241.405 85.5499C244.318 85.5499 246.652 87.5289 248.152 91.2723C249.257 94.0308 249.525 96.7442 249.536 96.8578C249.557 97.0709 249.399 97.2607 249.186 97.281C248.972 97.3027 248.782 97.1441 248.76 96.9309C248.75 96.8251 247.675 86.3278 241.405 86.3278C240.246 86.3278 239.107 86.6826 238.062 87.3516C239.545 88.9339 240.312 91.1369 240.312 92.9464C240.312 94.1584 240 95.2024 239.411 95.9647C238.745 96.8267 237.756 97.2825 236.551 97.2825L236.554 97.2841ZM237.43 87.8074C237.003 88.1482 236.596 88.5434 236.216 88.993C234.937 90.5006 234.143 92.4112 234.143 93.9779C234.143 94.7449 234.34 95.3766 234.714 95.8045C235.121 96.2697 235.74 96.5062 236.554 96.5062C237.522 96.5062 238.275 96.1654 238.796 95.4917C239.28 94.8663 239.535 93.9872 239.535 92.9479C239.535 91.277 238.817 89.2357 237.43 87.8074ZM227.481 91.389C227.128 92.489 226.958 93.5641 226.958 94.4011C226.958 95.68 227.3 96.5046 227.828 96.5046C228.209 96.5046 228.496 96.349 228.709 96.0301C228.923 95.708 229.042 95.2319 229.042 94.6905C229.042 93.6092 228.538 92.17 227.482 91.3874L227.481 91.389Z" fill="#6699FF"/>
<path d="M215.73 65.8996H180.029C178.937 65.8996 178.051 66.7835 178.051 67.874V67.9642C178.051 69.0546 178.937 69.9386 180.029 69.9386H215.73C216.823 69.9386 217.709 69.0546 217.709 67.9642V67.874C217.709 66.7835 216.823 65.8996 215.73 65.8996Z" fill="#6699FF"/>
<path d="M215.73 70.326H180.028C178.721 70.326 177.659 69.2665 177.659 67.9627V67.8724C177.659 66.5686 178.721 65.5091 180.028 65.5091H215.73C217.036 65.5091 218.098 66.5686 218.098 67.8724V67.9627C218.098 69.2649 217.036 70.326 215.73 70.326ZM180.028 66.287C179.151 66.287 178.439 66.998 178.439 67.8724V67.9627C178.439 68.837 179.151 69.5481 180.028 69.5481H215.73C216.606 69.5481 217.319 68.837 217.319 67.9627V67.8724C217.319 66.998 216.606 66.287 215.73 66.287H180.028Z" fill="#6699FF"/>
<path d="M236.912 221.185C235.908 221.185 235.309 220.141 235.309 218.392C235.309 217.355 235.513 216.216 235.878 215.127C235.585 215.019 235.262 214.96 234.908 214.96C231.473 214.96 231.012 220.765 231.009 220.824C230.995 221.028 230.825 221.185 230.62 221.185H195.205C194.99 221.185 194.815 221.011 194.815 220.796C194.815 220.581 194.99 220.407 195.205 220.407H230.268C230.337 219.844 230.519 218.702 230.959 217.546C231.796 215.346 233.162 214.182 234.908 214.182C235.354 214.182 235.768 214.26 236.148 214.402C236.383 213.824 236.664 213.274 236.981 212.771C237.902 211.31 239.557 209.569 242.204 209.569C245.132 209.569 247.465 211.528 248.948 215.232C250.041 217.963 250.292 220.648 250.301 220.76C250.32 220.974 250.163 221.163 249.947 221.182C249.738 221.202 249.544 221.044 249.525 220.829C249.515 220.725 248.508 210.346 242.203 210.346C239.493 210.346 237.759 212.494 236.853 214.758C238.116 215.584 238.846 217.17 238.846 218.671C238.846 220.172 238.086 221.184 236.91 221.184L236.912 221.185ZM236.585 215.513C236.249 216.564 236.089 217.593 236.089 218.394C236.089 219.617 236.412 220.409 236.912 220.409C237.274 220.409 237.547 220.261 237.749 219.958C237.955 219.65 238.067 219.194 238.067 218.674C238.067 217.641 237.589 216.266 236.585 215.513Z" fill="#6699FF"/>
<path d="M234.892 67.5099C237.746 67.5099 240.06 65.2008 240.06 62.3523C240.06 59.5038 237.746 57.1947 234.892 57.1947C232.037 57.1947 229.723 59.5038 229.723 62.3523C229.723 65.2008 232.037 67.5099 234.892 67.5099Z" fill="#6699FF"/>
<path d="M234.892 67.8989C231.826 67.8989 229.333 65.4111 229.333 62.3523C229.333 59.2935 231.826 56.8057 234.892 56.8057C237.957 56.8057 240.45 59.2935 240.45 62.3523C240.45 65.4111 237.957 67.8989 234.892 67.8989ZM234.892 57.5836C232.257 57.5836 230.113 59.7229 230.113 62.3523C230.113 64.9817 232.257 67.121 234.892 67.121C237.527 67.121 239.671 64.9817 239.671 62.3523C239.671 59.7229 237.527 57.5836 234.892 57.5836Z" fill="#6699FF"/>
<path d="M20.8138 208.304C22.946 208.304 24.6745 206.58 24.6745 204.452C24.6745 202.325 22.946 200.6 20.8138 200.6C18.6816 200.6 16.9531 202.325 16.9531 204.452C16.9531 206.58 18.6816 208.304 20.8138 208.304Z" fill="#6699FF"/>
<path d="M20.814 208.693C18.4704 208.693 16.5635 206.79 16.5635 204.452C16.5635 202.114 18.4704 200.211 20.814 200.211C23.1575 200.211 25.0645 202.114 25.0645 204.452C25.0645 206.79 23.1575 208.693 20.814 208.693ZM20.814 200.989C18.8992 200.989 17.3431 202.543 17.3431 204.452C17.3431 206.361 18.9008 207.915 20.814 207.915C22.7272 207.915 24.2849 206.361 24.2849 204.452C24.2849 202.543 22.7272 200.989 20.814 200.989Z" fill="#6699FF"/>
<path d="M41.5472 58.6587C43.6794 58.6587 45.4079 56.934 45.4079 54.8064C45.4079 52.6789 43.6794 50.9542 41.5472 50.9542C39.415 50.9542 37.6865 52.6789 37.6865 54.8064C37.6865 56.934 39.415 58.6587 41.5472 58.6587Z" fill="#6699FF"/>
<path d="M41.5474 59.0492C39.2038 59.0492 37.2969 57.1464 37.2969 54.808C37.2969 52.4696 39.2038 50.5668 41.5474 50.5668C43.8909 50.5668 45.7979 52.4696 45.7979 54.808C45.7979 57.1464 43.8909 59.0492 41.5474 59.0492ZM41.5474 51.3447C39.6326 51.3447 38.0765 52.899 38.0765 54.808C38.0765 56.717 39.6342 58.2713 41.5474 58.2713C43.4606 58.2713 45.0183 56.717 45.0183 54.808C45.0183 52.899 43.4606 51.3447 41.5474 51.3447Z" fill="#6699FF"/>
<path d="M61.3324 48.8771C61.8654 48.8771 62.2975 48.4459 62.2975 47.9141C62.2975 47.3822 61.8654 46.951 61.3324 46.951C60.7993 46.951 60.3672 47.3822 60.3672 47.9141C60.3672 48.4459 60.7993 48.8771 61.3324 48.8771Z" fill="#6699FF"/>
<path d="M61.3325 49.2661C60.5856 49.2661 59.9775 48.6593 59.9775 47.914C59.9775 47.1688 60.5856 46.562 61.3325 46.562C62.0794 46.562 62.6875 47.1688 62.6875 47.914C62.6875 48.6593 62.0794 49.2661 61.3325 49.2661ZM61.3325 47.3399C61.016 47.3399 60.7572 47.5982 60.7572 47.914C60.7572 48.2299 61.016 48.4881 61.3325 48.4881C61.6491 48.4881 61.9079 48.2299 61.9079 47.914C61.9079 47.5982 61.6491 47.3399 61.3325 47.3399Z" fill="#6699FF"/>
<path d="M39.7494 222.724C40.2824 222.724 40.7145 222.293 40.7145 221.761C40.7145 221.229 40.2824 220.798 39.7494 220.798C39.2163 220.798 38.7842 221.229 38.7842 221.761C38.7842 222.293 39.2163 222.724 39.7494 222.724Z" fill="#6699FF"/>
<path d="M39.7495 223.113C39.0026 223.113 38.3945 222.506 38.3945 221.761C38.3945 221.016 39.0026 220.409 39.7495 220.409C40.4964 220.409 41.1045 221.016 41.1045 221.761C41.1045 222.506 40.4964 223.113 39.7495 223.113ZM39.7495 221.187C39.4314 221.187 39.1742 221.445 39.1742 221.761C39.1742 222.077 39.433 222.335 39.7495 222.335C40.066 222.335 40.3249 222.077 40.3249 221.761C40.3249 221.445 40.066 221.187 39.7495 221.187Z" fill="#6699FF"/>
<path d="M241.632 165.503C242.165 165.503 242.597 165.072 242.597 164.54C242.597 164.008 242.165 163.577 241.632 163.577C241.099 163.577 240.667 164.008 240.667 164.54C240.667 165.072 241.099 165.503 241.632 165.503Z" fill="black"/>
<path d="M241.632 165.894C240.885 165.894 240.277 165.287 240.277 164.542C240.277 163.796 240.885 163.19 241.632 163.19C242.379 163.19 242.987 163.796 242.987 164.542C242.987 165.287 242.379 165.894 241.632 165.894ZM241.632 163.967C241.314 163.967 241.057 164.226 241.057 164.542C241.057 164.857 241.316 165.116 241.632 165.116C241.949 165.116 242.208 164.857 242.208 164.542C242.208 164.226 241.949 163.967 241.632 163.967Z" fill="black"/>
</g>
<defs>
<clipPath id="clip0_933_18893">
<rect width="249.48" height="198.72" fill="white" transform="translate(10.2598 35.64)"/>
</clipPath>
</defs>
</svg>
