<svg width="284" height="239" viewBox="0 0 284 239" fill="none" xmlns="http://www.w3.org/2000/svg">
<g clip-path="url(#clip0_0_2523)">
<path d="M57.7548 4.39746L259.553 33.4169L284 185.245L224.543 234.602L44.2668 227.409L0 106.876L57.7548 4.39746Z" fill="#134B67"/>
<rect x="7.08984" y="140.221" width="57.4281" height="6.2236" rx="3.1014" fill="#6699FF" stroke="#6699FF" stroke-width="0.9"/>
<rect x="233.261" y="205.543" width="47.6763" height="6.2236" rx="3.1014" fill="#6699FF" stroke="#6699FF" stroke-width="0.9"/>
<path d="M281.356 103.769C281.356 103.769 280.132 90.0615 271.629 90.0615C263.688 90.0615 261.616 103.771 264.951 103.771C268.287 103.771 267.269 95.8968 262.424 95.8968C257.58 95.8968 257.01 103.771 257.01 103.771H232.53" stroke="#46C1B5" stroke-width="1.62" stroke-linecap="round" stroke-linejoin="round"/>
<path d="M9.94678 208.538C9.94678 208.538 11.3817 193.38 20.6299 193.38C29.8782 193.38 35.3001 208.538 27.3279 208.538C19.3557 208.538 22.1461 192.98 31.7932 192.98C40.8014 192.98 43.1532 208.538 39.3738 208.538C35.5943 208.538 36.744 199.603 42.2453 199.603C47.7467 199.603 48.382 208.538 48.382 208.538H87.476" stroke="#46C1B5" stroke-width="1.62" stroke-linecap="round" stroke-linejoin="round"/>
<ellipse cx="264.823" cy="175.556" rx="1.18582" ry="1.18657" fill="black" stroke="black" stroke-width="0.9"/>
<ellipse cx="87.4707" cy="109.522" rx="2.90768" ry="2.90953" fill="#6699FF" stroke="#6699FF" stroke-width="0.9"/>
<ellipse cx="75.8544" cy="175.556" rx="5.81537" ry="5.81905" fill="#6699FF" stroke="#6699FF" stroke-width="0.9"/>
<ellipse cx="53.3022" cy="221.252" rx="2.2128" ry="2.2142" fill="black" stroke="black" stroke-width="0.9"/>
<ellipse cx="277.336" cy="75.7002" rx="3.60076" ry="3.60304" fill="#6699FF" stroke="#6699FF" stroke-width="0.9"/>
<path d="M215.936 229.939C215.936 229.939 201.71 236.605 187.305 238.408C172.9 240.21 157.055 237.324 157.055 237.324L179.203 200.748L215.936 229.939Z" fill="#FD8571"/>
<path d="M157.054 237.326C156.332 212.101 148.257 182.101 139.049 152.823C130.501 125.646 152.914 134.626 152.914 134.626C152.914 134.626 145.088 122.382 149.665 114.987C154.914 106.52 164.79 112.458 164.79 112.458C164.79 112.458 163.11 99.5451 169.653 96.9029C177.569 93.7044 183.337 98.7649 186.577 107.773C189.817 116.782 193.239 109.038 193.06 102.908C192.882 96.7783 192.714 65.9727 193.06 57.1448C193.407 48.3169 204.938 45.2521 207.279 57.1448C209.62 69.0376 211.42 132.095 220.063 144.349C220.063 144.349 228.978 119.529 237.509 116.202C242.231 114.36 247.617 116.666 246.552 122.207C245.592 127.172 243.845 136.739 242.424 146.247C237.731 177.624 221.144 192.095 218.803 205.968C216.463 219.84 215.916 229.932 215.916 229.932C215.916 229.932 204.299 226.954 185.572 228.395C166.844 229.836 157.054 237.326 157.054 237.326Z" fill="#FEB0A3"/>
<path d="M188.902 147.608C189.124 147.79 189.449 147.768 189.644 147.557C190.341 146.835 191.902 145.22 192.779 144.461C193.626 143.728 195.331 142.655 196.174 142.155C196.302 142.08 196.393 141.957 196.427 141.813C196.461 141.669 196.435 141.517 196.355 141.393C194.986 139.451 189.476 132.26 185.164 135.697C180.143 139.701 187.133 146.112 188.902 147.608Z" fill="black"/>
<path d="M172.864 157.441C173.045 157.61 173.326 157.61 173.508 157.441C174.151 156.847 175.587 155.532 176.396 154.913C177.167 154.321 178.701 153.488 179.464 153.091C179.579 153.033 179.665 152.93 179.702 152.806C179.738 152.683 179.721 152.549 179.655 152.439C178.573 150.685 174.167 144.167 170.256 146.921C165.677 150.134 171.402 156.052 172.864 157.441Z" fill="black"/>
<path d="M159.083 165.688C159.24 165.813 159.467 165.794 159.601 165.644C160.083 165.13 161.162 163.988 161.767 163.448C162.372 162.908 163.538 162.166 164.113 161.801C164.205 161.748 164.269 161.659 164.291 161.556C164.313 161.453 164.291 161.345 164.229 161.259C163.251 159.912 159.327 154.927 156.342 157.376C152.876 160.232 157.831 164.651 159.083 165.688Z" fill="black"/>
<path d="M218.995 148.861C205.852 153.365 188.747 171.922 187.844 191.922" stroke="black" stroke-width="1.62" stroke-linecap="round" stroke-linejoin="round"/>
<path d="M150.932 135.948C151.172 140.873 159.928 151.814 165.817 159.851C169.788 165.256 161.137 171.021 154.921 165.858C150.434 162.123 138.932 145.327 138.932 145.327" stroke="black" stroke-width="1.62" stroke-linecap="round" stroke-linejoin="round"/>
<path d="M165.716 115.455C167.855 121.761 171.7 134.987 178.302 145.196C184.904 155.406 179.385 159.491 175.414 159.731C171.443 159.972 165.263 156.367 154.914 138.35" stroke="black" stroke-width="1.62" stroke-linecap="round" stroke-linejoin="round"/>
<path d="M187.845 113.246C188.983 119.852 193.185 130.663 197.266 139.433C201.347 148.203 191.449 153.531 185.744 148.321C180.282 143.334 175.42 137.6 168.501 123.82" stroke="black" stroke-width="1.62" stroke-linecap="round" stroke-linejoin="round"/>
<path d="M190.49 179.302C186.225 175.827 179.143 172.103 174.1 171.021" stroke="black" stroke-width="1.62" stroke-linecap="round" stroke-linejoin="round"/>
<path d="M244.545 122.896C244.545 122.896 244.162 124.373 244.092 124.758C243.75 126.638 243.467 128.528 243.244 130.427C243.112 131.545 243.009 132.724 243.467 133.752C243.659 134.172 243.933 134.55 244.272 134.862C245.032 130.419 245.758 126.452 246.307 123.562C245.518 123.293 244.545 122.896 244.545 122.896Z" fill="black"/>
<rect x="28.6943" y="3.14795" width="212.243" height="83.121" rx="5.2038" fill="white"/>
<rect x="28.6943" y="3.14795" width="212.243" height="83.121" rx="5.2038" stroke="black" stroke-width="1.62" stroke-linecap="round" stroke-linejoin="round"/>
<path d="M239.843 0H33.905C32.5208 -8.28604e-08 31.1933 0.550343 30.2147 1.52991C29.2361 2.50947 28.6865 3.83798 28.687 5.22306V8.36917C28.687 5.48556 31.0232 3.14792 33.905 3.14792H235.719C237.103 3.14792 238.43 3.69802 239.409 4.67719C240.387 5.65637 240.937 6.98441 240.937 8.36917V81.0459C240.938 82.431 240.388 83.7595 239.409 84.739C238.431 85.7186 237.103 86.269 235.719 86.269H239.843C242.725 86.267 245.059 83.9291 245.059 81.0459V5.22306C245.059 2.33985 242.725 0.00199392 239.843 0Z" fill="black" stroke="black" stroke-width="1.62"/>
<path d="M48.7085 57.3993C57.3106 54.1484 62.3986 42.5483 59.1769 33.2201C59.0404 32.7948 58.8033 32.4088 58.4856 32.0949C56.9569 30.6501 55.0076 32.5157 54.1033 34.282C51.2155 39.9132 50.5892 46.8611 52.4049 53.0016C52.8489 54.5042 53.4554 55.9942 54.4787 57.1121C55.6248 58.3637 57.2095 59.0428 58.8105 59.3661C65.707 60.7621 73.1269 55.0316 74.208 47.4787C74.3885 46.1585 74.3596 44.6451 73.4861 43.7023C71.9032 41.9884 69.1128 43.6283 68.0533 45.7684C65.9543 50.0126 67.4974 55.8389 71.1903 58.4937C74.8831 61.1486 80.1678 60.5508 83.505 57.3848C85.5807 55.4145 86.8676 52.5934 87.2664 49.6189C87.7068 46.3482 83.6025 44.8979 82.2001 47.8309C81.0215 50.2907 80.9818 53.4495 82.7614 55.4939C85.9922 59.2071 92.9158 56.5775 93.3381 51.4863C92.3436 52.8788 93.071 55.2664 94.6268 55.7504C96.1826 56.2344 97.9514 54.6668 97.8413 52.8968C102.628 60.121 112.008 62.8698 119.681 59.8085C127.353 56.7473 132.652 48.1379 132.033 39.2577C131.743 35.1038 129.454 30.3882 125.635 30.2509C122.446 30.1372 119.926 33.3898 119.02 36.7256C116.549 45.8334 123.193 56.6931 131.835 57.8562C143.927 59.4817 145.749 54.4247 146.355 51.1269C147.799 43.2562 141.624 40.1553 140.625 47.7045C139.854 53.5253 143.009 57.7605 145.662 58.8441C149.201 60.2889 153.123 58.3222 156.217 55.9545" stroke="black" stroke-width="1.62" stroke-linecap="round" stroke-linejoin="round"/>
<path d="M187.44 63.84C189.32 67.4 193.48 69.72 198.44 69.72C204.8 69.72 209.4 66 209.4 60.72C209.4 55.88 205.52 52.48 199.64 52.48H199.12L208.52 43.56V39.88H188.84V43.72H203.08L193.92 52.56L195.56 55.68H197.8C202.56 55.68 205.08 57.4 205.08 60.76C205.08 63.8 202.32 65.84 198.48 65.84C195 65.84 192.36 64.24 191.08 61.8L187.44 63.84Z" fill="#46C1B5"/>
</g>
<defs>
<clipPath id="clip0_0_2523">
<rect width="284" height="239" fill="white"/>
</clipPath>
</defs>
</svg>
