<svg width="270" height="204" viewBox="0 0 270 204" fill="none" xmlns="http://www.w3.org/2000/svg">
<g clip-path="url(#clip0_78_16003)">
<path d="M65.7285 40.8669L231.237 64.6677L251.287 189.192L202.523 229.673L54.6661 223.773L18.3599 124.916L65.7285 40.8669Z" fill="#134B67"/>
<rect x="24.1748" y="152.264" width="47.1007" height="5.1044" rx="2.54367" fill="#6699FF" stroke="#6699FF" stroke-width="0.738151"/>
<path d="M249.119 122.368C249.119 122.368 248.115 111.125 241.141 111.125C234.628 111.125 232.929 122.37 235.664 122.37C238.4 122.37 237.565 115.911 233.592 115.911C229.619 115.911 229.151 122.37 229.151 122.37H209.073" stroke="#46C1B5" stroke-width="1.32867" stroke-linecap="round" stroke-linejoin="round"/>
<path d="M26.5176 208.296C26.5176 208.296 27.6944 195.864 35.2796 195.864C42.8647 195.864 47.3116 208.296 40.773 208.296C34.2345 208.296 36.523 195.536 44.4353 195.536C51.8236 195.536 53.7524 208.296 50.6526 208.296C47.5529 208.296 48.4958 200.968 53.0078 200.968C57.5198 200.968 58.0409 208.296 58.0409 208.296H90.1045" stroke="#46C1B5" stroke-width="1.32867" stroke-linecap="round" stroke-linejoin="round"/>
<ellipse cx="235.559" cy="181.245" rx="0.972567" ry="0.973183" fill="black" stroke="black" stroke-width="0.738151"/>
<ellipse cx="90.1006" cy="127.086" rx="2.38479" ry="2.3863" fill="#6699FF" stroke="#6699FF" stroke-width="0.738151"/>
<ellipse cx="80.5733" cy="181.245" rx="4.76957" ry="4.7726" fill="#6699FF" stroke="#6699FF" stroke-width="0.738151"/>
<ellipse cx="245.822" cy="99.3467" rx="2.95323" ry="2.9551" fill="#6699FF" stroke="#6699FF" stroke-width="0.738151"/>
<path d="M195.463 225.849C195.463 225.849 183.795 231.316 171.981 232.794C160.167 234.273 147.171 231.906 147.171 231.906L165.336 201.907L195.463 225.849Z" fill="#FD8571"/>
<path d="M147.17 231.907C146.578 211.218 139.955 186.613 132.403 162.601C125.392 140.311 143.775 147.676 143.775 147.676C143.775 147.676 137.356 137.634 141.11 131.568C145.415 124.624 153.515 129.495 153.515 129.495C153.515 129.495 152.137 118.904 157.503 116.737C163.996 114.113 168.727 118.264 171.384 125.652C174.041 133.041 176.848 126.689 176.701 121.662C176.555 116.634 176.417 91.3687 176.701 84.1283C176.986 76.888 186.443 74.3743 188.363 84.1283C190.283 93.8824 191.759 145.6 198.848 155.651C198.848 155.651 206.16 135.294 213.157 132.565C217.03 131.054 221.447 132.946 220.573 137.49C219.786 141.562 218.353 149.409 217.188 157.207C213.339 182.941 199.735 194.81 197.815 206.188C195.895 217.565 195.447 225.843 195.447 225.843C195.447 225.843 185.919 223.4 170.559 224.582C155.2 225.764 147.17 231.907 147.17 231.907Z" fill="#FEB0A3"/>
<path d="M173.291 158.323C173.473 158.472 173.74 158.454 173.899 158.281C174.471 157.689 175.751 156.364 176.471 155.742C177.165 155.141 178.564 154.261 179.255 153.851C179.36 153.789 179.435 153.688 179.463 153.57C179.491 153.452 179.469 153.327 179.403 153.226C178.281 151.633 173.762 145.735 170.225 148.554C166.107 151.838 171.84 157.096 173.291 158.323Z" fill="black"/>
<path d="M160.137 166.388C160.286 166.527 160.516 166.527 160.665 166.388C161.192 165.901 162.371 164.823 163.034 164.315C163.666 163.829 164.924 163.146 165.55 162.82C165.645 162.773 165.715 162.688 165.745 162.587C165.775 162.485 165.761 162.376 165.707 162.285C164.819 160.847 161.206 155.501 157.998 157.76C154.242 160.395 158.938 165.249 160.137 166.388Z" fill="black"/>
<path d="M148.835 173.152C148.963 173.254 149.149 173.239 149.259 173.116C149.655 172.694 150.54 171.758 151.036 171.315C151.532 170.872 152.488 170.263 152.96 169.964C153.035 169.921 153.088 169.848 153.106 169.763C153.124 169.678 153.105 169.59 153.055 169.52C152.253 168.415 149.034 164.326 146.586 166.335C143.744 168.677 147.807 172.302 148.835 173.152Z" fill="black"/>
<path d="M197.972 159.351C187.192 163.045 173.163 178.265 172.423 194.668" stroke="black" stroke-width="1.32867" stroke-linecap="round" stroke-linejoin="round"/>
<path d="M142.149 148.76C142.346 152.799 149.527 161.773 154.357 168.364C157.614 172.798 150.519 177.526 145.421 173.291C141.741 170.228 132.307 156.452 132.307 156.452" stroke="black" stroke-width="1.32867" stroke-linecap="round" stroke-linejoin="round"/>
<path d="M154.275 131.952C156.029 137.125 159.182 147.972 164.597 156.345C170.012 164.719 165.486 168.07 162.229 168.267C158.972 168.464 153.904 165.507 145.416 150.73" stroke="black" stroke-width="1.32867" stroke-linecap="round" stroke-linejoin="round"/>
<path d="M172.424 130.14C173.358 135.559 176.804 144.426 180.151 151.619C183.498 158.812 175.38 163.181 170.701 158.908C166.221 154.818 162.233 150.115 156.559 138.813" stroke="black" stroke-width="1.32867" stroke-linecap="round" stroke-linejoin="round"/>
<path d="M174.594 184.317C171.096 181.467 165.287 178.413 161.151 177.526" stroke="black" stroke-width="1.32867" stroke-linecap="round" stroke-linejoin="round"/>
<path d="M218.928 138.055C218.928 138.055 218.614 139.266 218.556 139.582C218.276 141.124 218.044 142.674 217.86 144.232C217.752 145.148 217.668 146.116 218.044 146.958C218.201 147.303 218.425 147.613 218.704 147.869C219.327 144.226 219.922 140.971 220.372 138.601C219.725 138.381 218.928 138.055 218.928 138.055Z" fill="black"/>
<rect x="41.894" y="39.8418" width="174.075" height="68.1732" rx="4.26799" fill="white"/>
<rect x="41.894" y="39.8418" width="174.075" height="68.1732" rx="4.26799" stroke="black" stroke-width="1.32867" stroke-linecap="round" stroke-linejoin="round"/>
<path d="M215.071 37.26H46.1673C45.032 37.26 43.9433 37.7114 43.1406 38.5148C42.338 39.3182 41.8873 40.4078 41.8877 41.5438V44.1241C41.8877 41.7591 43.8037 39.8418 46.1673 39.8418H211.689C212.824 39.8418 213.912 40.293 214.715 41.0961C215.517 41.8992 215.968 42.9884 215.968 44.1241V103.731C215.969 104.867 215.518 105.957 214.715 106.76C213.913 107.564 212.824 108.015 211.689 108.015H215.071C217.434 108.013 219.349 106.096 219.349 103.731V41.5438C219.349 39.1791 217.434 37.2616 215.071 37.26Z" fill="black" stroke="black" stroke-width="1.32867"/>
<path d="M58.3086 84.3372C65.3638 81.6709 69.5368 72.1568 66.8944 64.5062C66.7825 64.1573 66.588 63.8408 66.3275 63.5833C65.0736 62.3983 63.4749 63.9285 62.7333 65.3771C60.3648 69.9957 59.8511 75.6941 61.3403 80.7303C61.7044 81.9627 62.2018 83.1848 63.0412 84.1017C63.9812 85.1282 65.2809 85.6851 66.5939 85.9503C72.2502 87.0953 78.3358 82.3952 79.2225 76.2006C79.3705 75.1179 79.3468 73.8766 78.6304 73.1034C77.3321 71.6976 75.0436 73.0426 74.1746 74.7979C72.453 78.2788 73.7187 83.0574 76.7474 85.2348C79.7761 87.4122 84.1105 86.922 86.8476 84.3253C88.5499 82.7093 89.6054 80.3956 89.9326 77.9559C90.2938 75.2734 86.9275 74.0839 85.7773 76.4895C84.8107 78.507 84.7781 81.0977 86.2377 82.7744C88.8875 85.8199 94.5659 83.6632 94.9123 79.4875C94.0967 80.6296 94.6933 82.5878 95.9693 82.9848C97.2453 83.3818 98.696 82.096 98.6057 80.6444C102.532 86.5694 110.225 88.8239 116.518 86.3132C122.81 83.8024 127.157 76.7413 126.649 69.458C126.41 66.0511 124.533 62.1836 121.401 62.071C118.785 61.9777 116.719 64.6454 115.976 67.3813C113.949 74.8512 119.398 83.758 126.486 84.7119C136.404 86.0451 137.898 81.8975 138.395 79.1928C139.579 72.7375 134.515 70.1942 133.695 76.3858C133.063 81.1599 135.651 84.6334 137.827 85.5222C140.73 86.7072 143.946 85.0941 146.484 83.1522" stroke="black" stroke-width="1.32867" stroke-linecap="round" stroke-linejoin="round"/>
<path d="M172.092 89.633C173.634 92.5528 177.045 94.4556 181.114 94.4556C186.33 94.4556 190.103 91.4046 190.103 87.0741C190.103 83.1045 186.92 80.3159 182.098 80.3159H181.671L189.381 73V69.9818H173.24V73.1313H184.919L177.406 80.3815L178.751 82.9405H180.589C184.493 82.9405 186.559 84.3511 186.559 87.1069C186.559 89.6002 184.296 91.2734 181.146 91.2734C178.292 91.2734 176.127 89.9611 175.077 87.9599L172.092 89.633Z" fill="#46C1B5"/>
</g>
<defs>
<clipPath id="clip0_78_16003">
<rect width="232.928" height="196.02" fill="white" transform="translate(18.3599 37.26)"/>
</clipPath>
</defs>
</svg>
