<svg width="156" height="124" viewBox="0 0 156 124" fill="none" xmlns="http://www.w3.org/2000/svg">
<g clip-path="url(#clip0_1017_5761)">
<path d="M32.186 119.278L136.82 123.92L155.744 46.2767L114.103 0.423828L16.5234 10.3001L0.255859 72.102L32.186 119.278Z" fill="#F7F9FD"/>
<path d="M25.705 29.3262H5.09637C4.19423 29.3262 3.46289 30.0502 3.46289 30.9434C3.46289 31.8366 4.19423 32.5607 5.09637 32.5607H25.705C26.6071 32.5607 27.3385 31.8366 27.3385 30.9434C27.3385 30.0502 26.6071 29.3262 25.705 29.3262Z" fill="#6699FF"/>
<path d="M25.7047 32.7956H5.0951C4.06363 32.7956 3.22461 31.9649 3.22461 30.9437C3.22461 29.9225 4.06363 29.0918 5.0951 29.0918H25.7047C26.7361 29.0918 27.5752 29.9225 27.5752 30.9437C27.5752 31.9649 26.7361 32.7956 25.7047 32.7956ZM5.0951 29.5611C4.32529 29.5611 3.69863 30.1815 3.69863 30.9437C3.69863 31.7059 4.32529 32.3263 5.0951 32.3263H25.7047C26.4745 32.3263 27.1011 31.7059 27.1011 30.9437C27.1011 30.1815 26.4745 29.5611 25.7047 29.5611H5.0951Z" fill="#6699FF"/>
<path d="M50.4288 119.18C51.898 119.18 53.089 118 53.089 116.546C53.089 115.091 51.898 113.912 50.4288 113.912C48.9596 113.912 47.7686 115.091 47.7686 116.546C47.7686 118 48.9596 119.18 50.4288 119.18Z" fill="#6699FF"/>
<path d="M50.4285 119.415C48.831 119.415 47.5312 118.128 47.5312 116.546C47.5312 114.965 48.831 113.678 50.4285 113.678C52.0259 113.678 53.3257 114.965 53.3257 116.546C53.3257 118.128 52.0259 119.415 50.4285 119.415ZM50.4285 114.148C49.0927 114.148 48.0053 115.224 48.0053 116.547C48.0053 117.871 49.0917 118.946 50.4285 118.946C51.7652 118.946 52.8517 117.871 52.8517 116.547C52.8517 115.224 51.7652 114.148 50.4285 114.148Z" fill="#6699FF"/>
<path d="M36.1126 20.5063H15.5779C15.3542 20.5063 15.1684 20.3354 15.1522 20.1139C15.1494 20.0717 14.811 15.8619 12.3527 15.8619C12.1517 15.8619 11.964 15.8892 11.7905 15.9389C12.0427 16.7264 12.1839 17.543 12.1839 18.2902C12.1839 20.3458 11.1591 20.5053 10.8453 20.5053C9.89534 20.5053 9.2573 19.699 9.2573 18.4995C9.2573 17.3694 9.79579 16.1801 10.7334 15.525C10.5836 15.1711 10.4025 14.8182 10.1854 14.4765C9.58912 13.5388 8.5292 12.4209 6.86633 12.4209C2.24935 12.4209 1.50134 20.0445 1.4947 20.1214C1.47385 20.3533 1.26528 20.5241 1.03206 20.5044C0.79789 20.4837 0.624398 20.2782 0.645255 20.0463C0.652839 19.9609 0.842448 17.9401 1.67199 15.8845C2.80964 13.0658 4.60619 11.5762 6.86633 11.5762C8.9179 11.5762 10.1959 12.909 10.9069 14.0269C11.1278 14.3742 11.325 14.7525 11.4947 15.1476C11.7611 15.0632 12.0474 15.0172 12.3517 15.0172C15.0992 15.0172 15.7988 18.4694 15.959 19.6615H36.1107C36.3468 19.6615 36.5373 19.8502 36.5373 20.0839C36.5373 20.3176 36.3468 20.5063 36.1107 20.5063H36.1126ZM11.0311 16.3613C10.4082 16.9123 10.1105 17.8124 10.1105 18.4995C10.1105 18.7717 10.1636 19.6606 10.8453 19.6606C10.8917 19.6606 11.0169 19.6606 11.143 19.3968C11.2643 19.1443 11.3307 18.751 11.3307 18.2902C11.3307 17.7655 11.2435 17.085 11.0311 16.3603V16.3613Z" fill="#6699FF"/>
<path d="M146.157 110.114C145.365 110.114 144.719 109.856 144.289 109.369C143.905 108.931 143.702 108.318 143.702 107.595C143.702 106.31 144.342 104.762 145.371 103.557C145.615 103.271 145.872 103.013 146.141 102.781C145.507 102.319 144.728 102.029 143.813 102.029C141.878 102.029 140.625 103.527 139.953 105.138C140.886 105.794 141.423 106.982 141.423 108.109C141.423 109.308 140.784 110.115 139.835 110.115C139.521 110.115 138.496 109.955 138.496 107.9C138.496 107.152 138.637 106.336 138.889 105.548C138.716 105.499 138.529 105.471 138.327 105.471C135.87 105.471 135.531 109.681 135.528 109.723C135.511 109.944 135.326 110.116 135.102 110.116H114.567C114.331 110.116 114.141 109.927 114.141 109.693C114.141 109.46 114.331 109.271 114.567 109.271H134.72C134.782 108.815 134.925 108.022 135.232 107.222C135.882 105.525 136.952 104.628 138.326 104.628C138.631 104.628 138.918 104.674 139.183 104.758C139.353 104.363 139.55 103.984 139.771 103.637C140.482 102.519 141.76 101.187 143.812 101.187C144.932 101.187 145.978 101.56 146.845 102.256C147.721 101.692 148.687 101.394 149.674 101.394C151.85 101.394 153.587 102.848 154.698 105.598C155.508 107.601 155.703 109.571 155.711 109.654C155.732 109.886 155.561 110.092 155.327 110.114C155.092 110.135 154.884 109.965 154.861 109.734C154.853 109.659 154.087 102.238 149.674 102.238C148.818 102.238 148.082 102.504 147.481 102.859C147.55 102.935 147.616 103.014 147.682 103.096C148.523 104.148 149.027 105.554 149.027 106.856C149.027 107.759 148.791 108.54 148.343 109.113C147.832 109.769 147.077 110.116 146.157 110.116V110.114ZM146.781 103.352C146.464 103.614 146.209 103.881 146.022 104.101C145.116 105.161 144.554 106.499 144.554 107.594C144.554 108.11 144.685 108.532 144.932 108.813C145.199 109.115 145.61 109.269 146.157 109.269C146.811 109.269 147.319 109.042 147.668 108.595C147.999 108.17 148.174 107.568 148.174 106.853C148.174 105.721 147.699 104.344 146.782 103.352H146.781ZM139.654 105.975C139.447 106.679 139.347 107.36 139.347 107.899C139.347 108.693 139.552 109.269 139.833 109.269C140.514 109.269 140.567 108.38 140.567 108.108C140.567 107.424 140.273 106.527 139.654 105.976V105.975Z" fill="#6699FF"/>
<path d="M71.5223 109.31C71.8663 109.31 72.1451 109.033 72.1451 108.693C72.1451 108.352 71.8663 108.076 71.5223 108.076C71.1783 108.076 70.8994 108.352 70.8994 108.693C70.8994 109.033 71.1783 109.31 71.5223 109.31Z" fill="#6699FF"/>
<path d="M71.522 109.543C71.048 109.543 70.6621 109.161 70.6621 108.692C70.6621 108.223 71.048 107.841 71.522 107.841C71.996 107.841 72.3819 108.223 72.3819 108.692C72.3819 109.161 71.996 109.543 71.522 109.543ZM71.522 108.311C71.3096 108.311 71.1361 108.482 71.1361 108.693C71.1361 108.904 71.3087 109.075 71.522 109.075C71.7353 109.075 71.9078 108.904 71.9078 108.693C71.9078 108.482 71.7353 108.311 71.522 108.311Z" fill="#6699FF"/>
<path d="M149.493 55.2617C149.837 55.2617 150.116 54.9856 150.116 54.645C150.116 54.3044 149.837 54.0283 149.493 54.0283C149.149 54.0283 148.87 54.3044 148.87 54.645C148.87 54.9856 149.149 55.2617 149.493 55.2617Z" fill="black"/>
<path d="M149.493 55.4966C149.019 55.4966 148.633 55.1146 148.633 54.6453C148.633 54.176 149.019 53.7939 149.493 53.7939C149.967 53.7939 150.353 54.176 150.353 54.6453C150.353 55.1146 149.967 55.4966 149.493 55.4966ZM149.493 54.2642C149.28 54.2642 149.107 54.435 149.107 54.6462C149.107 54.8574 149.279 55.0282 149.493 55.0282C149.706 55.0282 149.879 54.8574 149.879 54.6462C149.879 54.435 149.706 54.2642 149.493 54.2642Z" fill="black"/>
<path d="M102.723 8.92814C104.007 8.92814 105.049 7.8973 105.049 6.62569C105.049 5.35408 104.007 4.32324 102.723 4.32324C101.439 4.32324 100.397 5.35408 100.397 6.62569C100.397 7.8973 101.439 8.92814 102.723 8.92814Z" fill="#6699FF"/>
<path d="M102.723 9.16308C101.31 9.16308 100.16 8.02547 100.16 6.62597C100.16 5.22648 101.309 4.08887 102.723 4.08887C104.136 4.08887 105.285 5.22648 105.285 6.62597C105.285 8.02547 104.136 9.16308 102.723 9.16308ZM102.723 4.55912C101.571 4.55912 100.634 5.48648 100.634 6.62691C100.634 7.76734 101.571 8.69471 102.723 8.69471C103.875 8.69471 104.811 7.76734 104.811 6.62691C104.811 5.48648 103.875 4.55912 102.723 4.55912Z" fill="#6699FF"/>
<path d="M10.9656 69.2207C12.0101 69.2207 12.8569 68.3823 12.8569 67.3481C12.8569 66.314 12.0101 65.4756 10.9656 65.4756C9.92101 65.4756 9.07422 66.314 9.07422 67.3481C9.07422 68.3823 9.92101 69.2207 10.9656 69.2207Z" fill="#6699FF"/>
<path d="M10.9653 69.4557C9.7916 69.4557 8.83691 68.5105 8.83691 67.3484C8.83691 66.1864 9.7916 65.2412 10.9653 65.2412C12.139 65.2412 13.0936 66.1864 13.0936 67.3484C13.0936 68.5105 12.139 69.4557 10.9653 69.4557ZM10.9653 65.7096C10.0533 65.7096 9.31094 66.4445 9.31094 67.3475C9.31094 68.2505 10.0533 68.9854 10.9653 68.9854C11.8773 68.9854 12.6196 68.2505 12.6196 67.3475C12.6196 66.4445 11.8773 65.7096 10.9653 65.7096Z" fill="#6699FF"/>
<path d="M100.531 44.1829C100.127 40.1628 92.8105 39.9638 89.7673 40.205C86.724 40.4462 52.5271 47.7985 52.5271 47.7985L40.8396 50.0887L42.4996 41.0488H29.7105C28.5036 44.0449 27.3821 46.995 26.7166 48.6423C25.2556 52.2588 22.6381 69.9773 20.9942 73.9552C19.3502 77.9331 3.46289 91.9928 3.46289 91.9928L26.1079 119.278C26.1079 119.278 45.2224 98.9067 48.0229 98.0629C50.8235 97.219 86.3012 50.2671 90.9277 50.1469C95.5541 50.0268 101.001 48.8413 100.531 44.182V44.1829Z" fill="#FEB0A3"/>
<path d="M26.1079 119.278C26.1079 119.278 16.7687 116.084 10.5865 108.671C4.4043 101.257 3.46289 92.0205 3.46289 92.0205C3.46289 92.0205 12.6788 94.476 18.8601 101.89C25.0423 109.304 26.1079 119.278 26.1079 119.278Z" fill="#FD8571"/>
<path d="M90.1996 93.9286V15.8208C90.1996 13.2114 88.0636 11.0967 85.428 11.0967H50.5039C47.8684 11.0967 45.7324 13.2114 45.7324 15.8208V94.0806C45.7324 96.6975 47.8816 98.816 50.5248 98.8047L85.4489 98.6527C88.0759 98.6414 90.1996 96.5295 90.1996 93.9286Z" fill="black"/>
<path d="M50.5027 99.0397C49.1688 99.0397 47.9154 98.5272 46.9693 97.5951C46.0184 96.6574 45.4941 95.41 45.4941 94.0809V15.8211C45.4941 13.0868 47.741 10.8623 50.5027 10.8623H85.4268C88.1884 10.8623 90.4353 13.0868 90.4353 15.8211V93.9289C90.4353 96.6509 88.1988 98.8754 85.4486 98.8876L50.5245 99.0397H50.5017H50.5027ZM50.5027 11.3316C48.0027 11.3316 45.9682 13.3459 45.9682 15.8211V94.0809C45.9682 95.2842 46.4422 96.4134 47.303 97.2619C48.1591 98.1057 49.2949 98.5694 50.5017 98.5694C50.5084 98.5694 50.515 98.5694 50.5226 98.5694L85.4467 98.4174C87.9362 98.4061 89.9613 96.3928 89.9613 93.9279V15.8211C89.9613 13.3459 87.9268 11.3316 85.4268 11.3316H50.5027Z" fill="black"/>
<path d="M88.2366 91.4918V16.5237C88.2366 14.593 86.6552 13.0273 84.7051 13.0273H79.7383V13.1343C79.7383 15.326 77.9437 16.0432 75.73 16.0432H60.2019C57.9882 16.0432 56.1936 15.326 56.1936 13.1343V13.0273H51.2268C49.2767 13.0273 47.6953 14.593 47.6953 16.5237V91.4918C47.6953 93.4226 49.2767 94.9882 51.2268 94.9882H84.7042C86.6543 94.9882 88.2356 93.4226 88.2356 91.4918H88.2366Z" fill="white"/>
<path d="M84.7049 95.2231H51.2275C49.1494 95.2231 47.459 93.5495 47.459 91.4921V16.524C47.459 14.4665 49.1494 12.793 51.2275 12.793H56.4313V13.1346C56.4313 14.9086 57.6998 15.8088 60.2026 15.8088H75.7307C78.2325 15.8088 79.502 14.9096 79.502 13.1346V12.793H84.7058C86.7839 12.793 88.4743 14.4665 88.4743 16.524V91.4921C88.4743 93.5495 86.7839 95.2231 84.7058 95.2231H84.7049ZM51.2275 13.2613C49.411 13.2613 47.933 14.7247 47.933 16.5231V91.4921C47.933 93.2905 49.411 94.7538 51.2275 94.7538H84.7049C86.5213 94.7538 87.9993 93.2905 87.9993 91.4921V16.524C87.9993 14.7256 86.5213 13.2623 84.7049 13.2623H79.9732C79.9134 15.2362 78.4487 16.2771 75.7307 16.2771H60.2026C57.4836 16.2771 56.0198 15.2353 55.9601 13.2623H51.2284L51.2275 13.2613Z" fill="white"/>
<path d="M71.6351 12.9766H64.5171C64.3836 12.9766 64.2754 13.0837 64.2754 13.2159V13.2863C64.2754 13.4185 64.3836 13.5257 64.5171 13.5257H71.6351C71.7686 13.5257 71.8768 13.4185 71.8768 13.2863V13.2159C71.8768 13.0837 71.7686 12.9766 71.6351 12.9766Z" fill="white"/>
<path d="M43.6396 56.96C43.6396 56.96 49.9707 63.7106 49.1184 73.2329C48.3126 82.24 44.5526 85.8894 44.5526 85.8894" fill="#FEB0A3"/>
<path d="M42.7873 39.4819C42.7873 39.4819 45.4656 36.1066 47.9011 29.5981C50.3357 23.0888 45.9529 19.3521 43.8833 21.4011C41.8137 23.4501 35.7263 29.3569 33.7781 32.2498C32.7181 33.8248 31.1529 37.4704 29.7109 41.0494H42.5001L42.7883 39.4828L42.7873 39.4819Z" fill="#FEB0A3"/>
<path d="M44.8792 21.5333C44.8792 21.5333 44.7341 21.3015 44.5066 20.9805C44.2838 21.0734 44.0743 21.2123 43.8837 21.401C42.9707 22.3049 41.2747 23.9606 39.498 25.7759C39.7265 26.0369 39.8962 26.2302 39.8962 26.2302C40.1987 26.5456 40.7447 26.5174 41.1145 26.1692L44.7578 22.7357C45.1275 22.3865 45.1285 21.9332 44.8801 21.5333H44.8792Z" fill="black"/>
<path d="M79.5645 55.2119H76.6256C76.6256 55.2119 76.6199 55.2091 76.6199 55.2063V47.2561C76.6199 42.8042 72.9633 39.1398 68.4667 39.2187C64.117 39.2947 60.6017 42.822 60.6017 47.1463V54.6628C60.6017 54.6628 60.5988 54.6684 60.596 54.6684H57.6571C57.6571 54.6684 57.6514 54.6656 57.6514 54.6628V47.274C57.6514 41.1851 62.658 36.1907 68.8061 36.2986C74.7589 36.4028 79.5683 41.2292 79.5683 47.1472V55.2063C79.5683 55.2063 79.5654 55.2119 79.5626 55.2119H79.5645Z" fill="#0043AE"/>
<path d="M79.1337 51.0439H58.0871C56.0817 51.0439 54.4561 52.6535 54.4561 54.6389V70.6293C54.4561 72.6147 56.0817 74.2243 58.0871 74.2243H79.1337C81.139 74.2243 82.7647 72.6147 82.7647 70.6293V54.6389C82.7647 52.6535 81.139 51.0439 79.1337 51.0439Z" fill="#6699FF"/>
<path d="M68.6104 62.8982C70.0613 62.8982 71.2375 61.7337 71.2375 60.2972C71.2375 58.8608 70.0613 57.6963 68.6104 57.6963C67.1596 57.6963 65.9834 58.8608 65.9834 60.2972C65.9834 61.7337 67.1596 62.8982 68.6104 62.8982Z" fill="black"/>
<path d="M69.4523 60.0894C69.4523 59.629 69.0754 59.2559 68.6104 59.2559C68.1455 59.2559 67.7686 59.629 67.7686 60.0894V66.7386C67.7686 67.1989 68.1455 67.5721 68.6104 67.5721C69.0754 67.5721 69.4523 67.1989 69.4523 66.7386V60.0894Z" fill="black"/>
<path d="M96.6248 53.1786C98.3891 56.5549 96.0863 60.1188 90.7687 61.7849C85.4511 63.451 83.2754 63.2219 82.1377 60.9186C80.2122 57.0204 82.7587 54.4542 86.7973 51.9885C90.836 49.5227 94.4708 49.0562 96.6248 53.1786Z" fill="#FEB0A3"/>
<path d="M83.875 56.0984L87.1259 54.0156C88.1024 53.3905 89.4116 53.7631 89.9037 54.8059L91.0157 57.1656C91.4063 57.9945 91.0773 58.981 90.2658 59.4174L86.7685 61.2975C85.9076 61.7602 84.8307 61.3848 84.4533 60.4903L83.3328 57.8358C83.0654 57.2032 83.2939 56.472 83.876 56.0994L83.875 56.0984Z" fill="black"/>
<path d="M97.0081 63.7348C98.597 66.7759 96.5227 69.9851 91.7332 71.4859C86.9437 72.9868 84.9831 72.7803 83.9592 70.7059C82.2252 67.1945 84.5186 64.8836 88.1562 62.6628C91.7939 60.4421 95.0675 60.0215 97.0081 63.7348Z" fill="#FEB0A3"/>
<path d="M85.7153 66.2422L88.1897 64.6569C89.2079 64.0046 90.5731 64.3931 91.086 65.481L91.8473 67.0964C92.2597 67.9721 91.9127 69.014 91.0557 69.4749L88.3954 70.9044C87.4787 71.3972 86.3315 70.9973 85.9296 70.0437L85.1237 68.1354C84.8327 67.4456 85.082 66.6477 85.7163 66.2413L85.7153 66.2422Z" fill="black"/>
<path d="M96.7419 73.6C98.1536 76.3024 96.3106 79.1539 92.0558 80.4867C87.8 81.8196 86.0584 81.6366 85.1483 79.7931C83.6077 76.6731 85.6451 74.6203 88.8779 72.6464C92.1098 70.6734 95.0184 70.2998 96.7429 73.5991L96.7419 73.6Z" fill="#FEB0A3"/>
<path d="M86.4982 76.1615L88.7347 74.7291C89.4457 74.273 90.4004 74.5452 90.7587 75.3054L91.5115 76.902C91.7969 77.5075 91.557 78.2283 90.9635 78.5475L88.5574 79.8399C87.9269 80.1788 87.1391 79.9038 86.8632 79.2486L86.0991 77.4389C85.9028 76.9734 86.0707 76.4355 86.4982 76.1615Z" fill="black"/>
<path d="M133.221 66.2725H113.28C111.292 66.2725 109.681 67.8681 109.681 69.8364V89.5786C109.681 91.5469 111.292 93.1425 113.28 93.1425H133.221C135.209 93.1425 136.82 91.5469 136.82 89.5786V69.8364C136.82 67.8681 135.209 66.2725 133.221 66.2725Z" fill="#46C1B5"/>
<path d="M137.659 14.9229H101.109C99.1205 14.9229 97.5088 16.5185 97.5088 18.4868V48.1906C97.5088 50.1589 99.1205 51.7546 101.109 51.7546H110.362C110.138 55.0219 108.771 58.2179 106.486 60.5927C109.535 59.5545 112.195 57.4332 113.869 54.7056C114.437 53.7801 114.89 52.787 115.222 51.7555H137.659C139.648 51.7555 141.259 50.1598 141.259 48.1915V18.4868C141.259 16.5185 139.648 14.9229 137.659 14.9229Z" fill="#46C1B5"/>
<path d="M115.112 74.7956C110.729 75.5841 106.001 74.1827 102.775 71.1406C103.824 74.1592 105.967 76.793 108.722 78.4506C111.477 80.1083 114.825 80.7775 118.014 80.3082" fill="#46C1B5"/>
<path d="M108.892 42.625H102.892C102.656 42.625 102.466 42.4364 102.466 42.2027C102.466 41.9689 102.656 41.7803 102.892 41.7803H108.892C109.128 41.7803 109.318 41.9689 109.318 42.2027C109.318 42.4364 109.128 42.625 108.892 42.625Z" fill="white"/>
<path d="M117.887 42.625H111.888C111.651 42.625 111.461 42.4364 111.461 42.2027C111.461 41.9689 111.651 41.7803 111.888 41.7803H117.887C118.123 41.7803 118.313 41.9689 118.313 42.2027C118.313 42.4364 118.123 42.625 117.887 42.625Z" fill="white"/>
<path d="M126.882 42.625H120.883C120.647 42.625 120.456 42.4364 120.456 42.2027C120.456 41.9689 120.647 41.7803 120.883 41.7803H126.882C127.118 41.7803 127.309 41.9689 127.309 42.2027C127.309 42.4364 127.118 42.625 126.882 42.625Z" fill="white"/>
<path d="M135.877 42.625H129.878C129.642 42.625 129.451 42.4364 129.451 42.2027C129.451 41.9689 129.642 41.7803 129.878 41.7803H135.877C136.113 41.7803 136.304 41.9689 136.304 42.2027C136.304 42.4364 136.113 42.625 135.877 42.625Z" fill="white"/>
<path d="M116.347 30.3701C116.153 30.3701 115.963 30.342 115.78 30.2847C115.255 30.1195 114.882 29.7412 114.619 29.3498C114.375 29.4709 114.119 29.5638 113.858 29.6248C112.246 29.9975 110.523 29.0307 110.167 27.5533C110.112 27.3261 110.254 27.099 110.484 27.0446C110.713 26.9911 110.943 27.1309 110.998 27.3581C111.243 28.3802 112.514 29.0682 113.663 28.8026C113.858 28.7576 114.046 28.689 114.229 28.6008C114.179 28.4788 114.141 28.3737 114.115 28.2986C113.555 26.7254 113.295 25.0134 113.359 23.3464C113.382 22.7663 113.451 22.1571 113.798 21.6343C114.166 21.0805 114.95 20.6581 115.676 20.9641C116.303 21.2279 116.554 21.8746 116.703 22.4087C117.152 24.0166 117.2 25.3832 116.848 26.5865C116.575 27.5214 116.03 28.3305 115.335 28.8899C115.543 29.2025 115.776 29.3977 116.038 29.4803C116.588 29.653 117.208 29.3104 117.605 28.9312C117.688 28.8524 117.767 28.7688 117.841 28.6815C117.731 28.4675 117.641 28.2188 117.572 27.9325C117.378 27.1272 117.352 26.2702 117.498 25.4545C117.529 25.2837 117.622 24.7646 118.082 24.5675C118.311 24.4699 118.56 24.4802 118.784 24.5976C119.172 24.7994 119.387 25.2574 119.452 25.5869C119.66 26.6287 119.443 27.7513 118.892 28.6665C118.911 28.6806 118.93 28.6937 118.949 28.7059C119.289 28.919 119.764 28.8007 120.115 28.5379C120.055 28.415 120.006 28.2854 119.967 28.1503C119.77 27.4585 119.861 26.7545 119.989 26.0975C120.13 25.3757 120.526 24.9552 121.044 24.9786C121.289 24.989 121.507 25.0988 121.659 25.2875C121.933 25.6282 121.95 26.1735 121.875 26.5706C121.757 27.1976 121.613 27.9616 121.198 28.598C121.342 28.7313 121.516 28.8289 121.713 28.8542C122.279 28.9274 122.825 28.4234 123.184 27.986C123.233 27.9259 123.282 27.864 123.33 27.802C123.181 27.4407 123.087 27.0906 123.021 26.8108C122.751 25.6657 122.678 24.4924 122.803 23.3238C122.851 22.8705 122.943 22.3486 123.252 21.9178C123.64 21.379 124.3 21.1368 124.857 21.3302C125.499 21.5527 125.851 22.2472 125.823 23.2366C125.777 24.8923 125.247 26.518 124.316 27.8884C124.382 28.0029 124.452 28.108 124.529 28.2047C124.879 28.6487 125.362 28.9134 125.824 28.9134C125.829 28.9134 125.833 28.9134 125.837 28.9134C126.628 28.9049 127.291 28.17 127.85 27.4829C127.998 27.3008 128.266 27.2726 128.45 27.4191C128.634 27.5655 128.663 27.8311 128.515 28.0132C127.833 28.8505 127.009 29.7459 125.847 29.7581C125.839 29.7581 125.832 29.7581 125.825 29.7581C125.102 29.7581 124.367 29.3733 123.857 28.7247C123.827 28.6872 123.798 28.6487 123.771 28.6093C123.08 29.4137 122.331 29.7872 121.601 29.6915C121.243 29.6446 120.906 29.4765 120.625 29.2222C119.924 29.7544 119.051 29.7685 118.494 29.4193C118.457 29.3958 118.421 29.3714 118.386 29.3451C118.325 29.4118 118.262 29.4756 118.197 29.5385C117.63 30.0791 116.969 30.3701 116.346 30.3701H116.347ZM115.171 21.7075C114.926 21.7075 114.654 21.884 114.511 22.0989C114.279 22.4481 114.23 22.9202 114.212 23.3783C114.152 24.9392 114.396 26.5433 114.92 28.017C114.93 28.047 114.94 28.0761 114.952 28.1052C115.441 27.6603 115.825 27.0502 116.029 26.3509C116.335 25.3015 116.287 24.086 115.881 22.633C115.782 22.282 115.633 21.8633 115.342 21.7404C115.288 21.7179 115.23 21.7066 115.171 21.7066V21.7075ZM118.411 25.3597C118.395 25.3879 118.365 25.4555 118.339 25.6019C118.213 26.304 118.236 27.0427 118.403 27.7363C118.404 27.741 118.405 27.7457 118.406 27.7495C118.665 27.1187 118.748 26.4138 118.615 25.7502C118.578 25.5653 118.475 25.4123 118.41 25.3607L118.411 25.3597ZM121.005 25.8319C120.959 25.875 120.874 26.0205 120.828 26.2589C120.739 26.716 120.669 27.1947 120.731 27.6415C120.881 27.2482 120.963 26.8155 121.038 26.4157C121.09 26.1378 121.049 25.9079 121.005 25.8319ZM124.464 22.1102C124.274 22.1102 124.066 22.2472 123.95 22.4096C123.755 22.6799 123.692 23.0526 123.654 23.414C123.539 24.4887 123.607 25.5681 123.854 26.6212C123.878 26.7217 123.902 26.8184 123.928 26.9113C124.573 25.7877 124.938 24.5121 124.974 23.215C124.986 22.7607 124.889 22.2369 124.578 22.1299C124.541 22.1168 124.503 22.1111 124.464 22.1111V22.1102Z" fill="white"/>
<path d="M123.249 85.3297C119.14 85.3297 115.308 83.3163 112.999 79.9438C112.901 79.8002 112.901 79.6125 112.999 79.4698C115.308 76.0973 119.14 74.084 123.249 74.084C127.358 74.084 131.191 76.0973 133.5 79.4698C133.597 79.6134 133.597 79.8012 133.5 79.9438C131.19 83.3163 127.358 85.3297 123.249 85.3297ZM113.871 79.7064C116.037 82.7043 119.52 84.4849 123.249 84.4849C126.979 84.4849 130.462 82.7043 132.627 79.7064C130.462 76.7084 126.979 74.9278 123.249 74.9278C119.52 74.9278 116.037 76.7084 113.871 79.7064Z" fill="white"/>
<path d="M123.25 83.7395C121.004 83.7395 119.177 81.9308 119.177 79.7071C119.177 77.4835 121.004 75.6748 123.25 75.6748C125.495 75.6748 127.322 77.4835 127.322 79.7071C127.322 81.9308 125.495 83.7395 123.25 83.7395ZM123.25 76.5196C121.474 76.5196 120.03 77.9491 120.03 79.7071C120.03 81.4652 121.474 82.8947 123.25 82.8947C125.025 82.8947 126.469 81.4643 126.469 79.7071C126.469 77.95 125.024 76.5196 123.25 76.5196Z" fill="white"/>
</g>
<defs>
<clipPath id="clip0_1017_5761">
<rect width="155.488" height="123.496" fill="white" transform="translate(0.255859 0.423828)"/>
</clipPath>
</defs>
</svg>
