<svg width="16" height="16" viewBox="0 0 16 16" fill="none" xmlns="http://www.w3.org/2000/svg">
<g opacity="0.5">
<path d="M1.33325 15.1667C1.05992 15.1667 0.833252 14.9401 0.833252 14.6667C0.833252 14.3934 1.05992 14.1667 1.33325 14.1667H14.6666C14.9399 14.1667 15.1666 14.3934 15.1666 14.6667C15.1666 14.9401 14.9399 15.1667 14.6666 15.1667H1.33325Z" fill="#0C273A"/>
<path fill-rule="evenodd" clip-rule="evenodd" d="M2 15.1666C1.72667 15.1666 1.5 14.9399 1.5 14.6666V3.99992C1.5 1.98659 2.65333 0.833252 4.66667 0.833252H11.3333C13.3467 0.833252 14.5 1.98659 14.5 3.99992V14.6666C14.5 14.9399 14.2733 15.1666 14 15.1666H2ZM13.5 14.1666V3.99992C13.5 2.51992 12.8133 1.83325 11.3333 1.83325H4.66667C3.18667 1.83325 2.5 2.51992 2.5 3.99992V14.1666H13.5Z" fill="#0C273A"/>
<path fill-rule="evenodd" clip-rule="evenodd" d="M6 15.1667C5.72667 15.1667 5.5 14.94 5.5 14.6667V10.6267C5.5 10.0067 6.00667 9.5 6.62667 9.5H9.38C10 9.5 10.5067 10.0067 10.5067 10.6267V14.6667C10.5 14.94 10.2733 15.1667 10 15.1667H6ZM9.5 14.1667V10.6267C9.5 10.56 9.44667 10.5 9.37333 10.5H6.62C6.55333 10.5 6.49334 10.5533 6.49334 10.6267V14.1667H6.5H9.5Z" fill="#0C273A"/>
<path d="M7.5 7.33333V4C7.5 3.72667 7.72667 3.5 8 3.5C8.27333 3.5 8.5 3.72667 8.5 4V7.33333C8.5 7.60667 8.27333 7.83333 8 7.83333C7.72667 7.83333 7.5 7.60667 7.5 7.33333Z" fill="#0C273A"/>
<path d="M6.33325 6.16675C6.05992 6.16675 5.83325 5.94008 5.83325 5.66675C5.83325 5.39341 6.05992 5.16675 6.33325 5.16675H9.66659C9.93992 5.16675 10.1666 5.39341 10.1666 5.66675C10.1666 5.94008 9.93992 6.16675 9.66659 6.16675H6.33325Z" fill="#0C273A"/>
</g>
</svg>
