<svg width="16" height="16" viewBox="0 0 16 16" fill="none" xmlns="http://www.w3.org/2000/svg">
<path d="M7.99967 1.33331C4.32634 1.33331 1.33301 4.32665 1.33301 7.99998C1.33301 11.6733 4.32634 14.6666 7.99967 14.6666C11.673 14.6666 14.6663 11.6733 14.6663 7.99998C14.6663 4.32665 11.673 1.33331 7.99967 1.33331ZM10.2397 9.53331C10.433 9.72665 10.433 10.0466 10.2397 10.24C10.1397 10.34 10.013 10.3866 9.88634 10.3866C9.75968 10.3866 9.63301 10.34 9.53301 10.24L7.99967 8.70665L6.46634 10.24C6.36634 10.34 6.23967 10.3866 6.11301 10.3866C5.98634 10.3866 5.85967 10.34 5.75968 10.24C5.56634 10.0466 5.56634 9.72665 5.75968 9.53331L7.29301 7.99998L5.75968 6.46665C5.56634 6.27331 5.56634 5.95331 5.75968 5.75998C5.95301 5.56665 6.27301 5.56665 6.46634 5.75998L7.99967 7.29331L9.53301 5.75998C9.72634 5.56665 10.0463 5.56665 10.2397 5.75998C10.433 5.95331 10.433 6.27331 10.2397 6.46665L8.70634 7.99998L10.2397 9.53331Z" fill="#C34343"/>
</svg>
