<svg width="32" height="32" viewBox="0 0 32 32" fill="none" xmlns="http://www.w3.org/2000/svg">
<path fill-rule="evenodd" clip-rule="evenodd" d="M2.66675 16.0001C2.66675 23.3467 8.65341 29.3334 16.0001 29.3334C23.3467 29.3334 29.3334 23.3467 29.3334 16.0001C29.3334 8.65341 23.3467 2.66675 16.0001 2.66675C8.65341 2.66675 2.66675 8.65341 2.66675 16.0001ZM14.8134 20.4934C14.6267 20.6801 14.3734 20.7867 14.1067 20.7867C13.8401 20.7867 13.5867 20.6801 13.4001 20.4934L9.62675 16.7201C9.24008 16.3334 9.24008 15.6934 9.62675 15.3067C10.0134 14.9201 10.6534 14.9201 11.0401 15.3067L14.1067 18.3734L20.9601 11.5201C21.3467 11.1334 21.9867 11.1334 22.3734 11.5201C22.7601 11.9067 22.7601 12.5334 22.3734 12.9334L14.8134 20.4934Z" fill="#46C1B5"/>
</svg>
