<svg width="36" height="36" viewBox="0 0 36 36" fill="none" xmlns="http://www.w3.org/2000/svg">
<rect width="36" height="36" rx="8" fill="white" fill-opacity="0.25"/>
<path d="M20.7935 11.333H15.2068C12.7802 11.333 11.3335 12.7797 11.3335 15.2063V20.7863C11.3335 23.2197 12.7802 24.6663 15.2068 24.6663H20.7868C23.2135 24.6663 24.6602 23.2197 24.6602 20.793V15.2063C24.6668 12.7797 23.2202 11.333 20.7935 11.333ZM22.3535 18.353L19.4935 21.213C19.3935 21.313 19.2668 21.3597 19.1402 21.3597C19.0135 21.3597 18.8868 21.313 18.7868 21.213C18.5935 21.0197 18.5935 20.6997 18.7868 20.5063L20.7935 18.4997H14.0002C13.7268 18.4997 13.5002 18.273 13.5002 17.9997C13.5002 17.7263 13.7268 17.4997 14.0002 17.4997H20.7935L18.7868 15.493C18.5935 15.2997 18.5935 14.9797 18.7868 14.7863C18.9802 14.593 19.3002 14.593 19.4935 14.7863L22.3535 17.6463C22.4468 17.7397 22.5002 17.8663 22.5002 17.9997C22.5002 18.133 22.4468 18.2597 22.3535 18.353Z" fill="white"/>
</svg>
