<svg width="16" height="16" viewBox="0 0 16 16" fill="none" xmlns="http://www.w3.org/2000/svg">
<g opacity="0.5">
<path d="M5.3335 3.83331C5.06016 3.83331 4.8335 3.60665 4.8335 3.33331V1.33331C4.8335 1.05998 5.06016 0.833313 5.3335 0.833313C5.60683 0.833313 5.8335 1.05998 5.8335 1.33331V3.33331C5.8335 3.60665 5.60683 3.83331 5.3335 3.83331Z" fill="#0C273A"/>
<path d="M10.6665 3.83331C10.3932 3.83331 10.1665 3.60665 10.1665 3.33331V1.33331C10.1665 1.05998 10.3932 0.833313 10.6665 0.833313C10.9398 0.833313 11.1665 1.05998 11.1665 1.33331V3.33331C11.1665 3.60665 10.9398 3.83331 10.6665 3.83331Z" fill="#0C273A"/>
<path d="M5.66667 9.66667C5.58 9.66667 5.49333 9.64668 5.41333 9.61335C5.32667 9.58001 5.26 9.53333 5.19333 9.47333C5.07333 9.34667 5 9.18 5 9C5 8.91334 5.02 8.82667 5.05333 8.74667C5.08667 8.66667 5.13333 8.59334 5.19333 8.52668C5.26 8.46668 5.32667 8.42 5.41333 8.38666C5.65333 8.28666 5.95333 8.34001 6.14 8.52668C6.26 8.65334 6.33333 8.82667 6.33333 9C6.33333 9.04 6.32667 9.08668 6.32 9.13335C6.31333 9.17335 6.3 9.21334 6.28 9.25334C6.26667 9.29334 6.24667 9.33334 6.22 9.37334C6.2 9.40667 6.16667 9.44 6.14 9.47333C6.01333 9.59333 5.84 9.66667 5.66667 9.66667Z" fill="#0C273A"/>
<path d="M8.00016 9.66664C7.9135 9.66664 7.82683 9.64665 7.74683 9.61332C7.66016 9.57999 7.5935 9.5333 7.52683 9.4733C7.40683 9.34664 7.3335 9.17998 7.3335 8.99998C7.3335 8.91331 7.3535 8.82664 7.38683 8.74664C7.42016 8.66664 7.46683 8.59332 7.52683 8.52665C7.5935 8.46665 7.66016 8.41997 7.74683 8.38663C7.98683 8.27997 8.28683 8.33998 8.4735 8.52665C8.5935 8.65332 8.66683 8.82664 8.66683 8.99998C8.66683 9.03998 8.66016 9.08665 8.6535 9.13332C8.64683 9.17332 8.6335 9.21331 8.6135 9.25331C8.60016 9.29331 8.58016 9.33331 8.5535 9.37331C8.5335 9.40664 8.50016 9.43997 8.4735 9.4733C8.34683 9.5933 8.1735 9.66664 8.00016 9.66664Z" fill="#0C273A"/>
<path d="M10.3332 9.66664C10.2465 9.66664 10.1598 9.64665 10.0798 9.61332C9.99317 9.57999 9.9265 9.5333 9.85984 9.4733C9.83317 9.43997 9.8065 9.40664 9.77984 9.37331C9.75317 9.33331 9.73317 9.29331 9.71984 9.25331C9.69984 9.21331 9.6865 9.17332 9.67984 9.13332C9.67317 9.08665 9.6665 9.03998 9.6665 8.99998C9.6665 8.82664 9.73984 8.65332 9.85984 8.52665C9.9265 8.46665 9.99317 8.41997 10.0798 8.38663C10.3265 8.27997 10.6198 8.33998 10.8065 8.52665C10.9265 8.65332 10.9998 8.82664 10.9998 8.99998C10.9998 9.03998 10.9932 9.08665 10.9865 9.13332C10.9798 9.17332 10.9665 9.21331 10.9465 9.25331C10.9332 9.29331 10.9132 9.33331 10.8865 9.37331C10.8665 9.40664 10.8332 9.43997 10.8065 9.4733C10.6798 9.5933 10.5065 9.66664 10.3332 9.66664Z" fill="#0C273A"/>
<path d="M5.66667 12C5.58 12 5.49333 11.98 5.41333 11.9467C5.33333 11.9133 5.26 11.8666 5.19333 11.8066C5.07333 11.68 5 11.5066 5 11.3333C5 11.2466 5.02 11.16 5.05333 11.08C5.08667 10.9933 5.13333 10.92 5.19333 10.86C5.44 10.6133 5.89333 10.6133 6.14 10.86C6.26 10.9867 6.33333 11.16 6.33333 11.3333C6.33333 11.5066 6.26 11.68 6.14 11.8066C6.01333 11.9266 5.84 12 5.66667 12Z" fill="#0C273A"/>
<path d="M8.00016 12C7.82683 12 7.6535 11.9266 7.52683 11.8066C7.40683 11.68 7.3335 11.5066 7.3335 11.3333C7.3335 11.2466 7.3535 11.16 7.38683 11.08C7.42016 10.9933 7.46683 10.92 7.52683 10.86C7.7735 10.6133 8.22683 10.6133 8.4735 10.86C8.5335 10.92 8.58016 10.9933 8.6135 11.08C8.64683 11.16 8.66683 11.2466 8.66683 11.3333C8.66683 11.5066 8.5935 11.68 8.4735 11.8066C8.34683 11.9266 8.1735 12 8.00016 12Z" fill="#0C273A"/>
<path d="M10.3332 12C10.1598 12 9.9865 11.9267 9.85984 11.8067C9.79984 11.7467 9.75317 11.6733 9.71984 11.5867C9.68651 11.5067 9.6665 11.42 9.6665 11.3333C9.6665 11.2467 9.68651 11.16 9.71984 11.08C9.75317 10.9933 9.79984 10.92 9.85984 10.86C10.0132 10.7067 10.2465 10.6333 10.4598 10.68C10.5065 10.6867 10.5465 10.7 10.5865 10.72C10.6265 10.7333 10.6665 10.7533 10.7065 10.78C10.7398 10.8 10.7732 10.8333 10.8065 10.86C10.9265 10.9867 10.9998 11.16 10.9998 11.3333C10.9998 11.5067 10.9265 11.68 10.8065 11.8067C10.6798 11.9267 10.5065 12 10.3332 12Z" fill="#0C273A"/>
<path d="M13.6668 6.56H2.3335C2.06016 6.56 1.8335 6.33333 1.8335 6.06C1.8335 5.78666 2.06016 5.56 2.3335 5.56H13.6668C13.9402 5.56 14.1668 5.78666 14.1668 6.06C14.1668 6.33333 13.9402 6.56 13.6668 6.56Z" fill="#0C273A"/>
<path d="M10.6667 15.1666H5.33333C2.9 15.1666 1.5 13.7666 1.5 11.3333V5.66665C1.5 3.23331 2.9 1.83331 5.33333 1.83331H10.6667C13.1 1.83331 14.5 3.23331 14.5 5.66665V11.3333C14.5 13.7666 13.1 15.1666 10.6667 15.1666ZM5.33333 2.83331C3.42667 2.83331 2.5 3.75998 2.5 5.66665V11.3333C2.5 13.24 3.42667 14.1666 5.33333 14.1666H10.6667C12.5733 14.1666 13.5 13.24 13.5 11.3333V5.66665C13.5 3.75998 12.5733 2.83331 10.6667 2.83331H5.33333Z" fill="#0C273A"/>
</g>
</svg>
