<svg width="16" height="16" viewBox="0 0 16 16" fill="none" xmlns="http://www.w3.org/2000/svg">
<path d="M7.99992 1.33301C4.32659 1.33301 1.33325 4.32634 1.33325 7.99967C1.33325 11.673 4.32659 14.6663 7.99992 14.6663C11.6733 14.6663 14.6666 11.673 14.6666 7.99967C14.6666 4.32634 11.6733 1.33301 7.99992 1.33301ZM10.2399 9.53301C10.4333 9.72634 10.4333 10.0463 10.2399 10.2397C10.1399 10.3397 10.0133 10.3863 9.88659 10.3863C9.75992 10.3863 9.63325 10.3397 9.53325 10.2397L7.99992 8.70634L6.46659 10.2397C6.36659 10.3397 6.23992 10.3863 6.11325 10.3863C5.98659 10.3863 5.85992 10.3397 5.75992 10.2397C5.56659 10.0463 5.56659 9.72634 5.75992 9.53301L7.29325 7.99967L5.75992 6.46634C5.56659 6.27301 5.56659 5.95301 5.75992 5.75968C5.95325 5.56634 6.27325 5.56634 6.46659 5.75968L7.99992 7.29301L9.53325 5.75968C9.72659 5.56634 10.0466 5.56634 10.2399 5.75968C10.4333 5.95301 10.4333 6.27301 10.2399 6.46634L8.70659 7.99967L10.2399 9.53301Z" fill="#C34343"/>
</svg>
