<svg width="24" height="24" viewBox="0 0 24 24" fill="none" xmlns="http://www.w3.org/2000/svg">
<mask id="mask0_637_1058" style="mask-type:alpha" maskUnits="userSpaceOnUse" x="1" y="1" width="22" height="20">
<path fill-rule="evenodd" clip-rule="evenodd" d="M12.6701 19.4383C12.2367 19.2842 11.7633 19.2842 11.3299 19.4383L7.69615 20.7305C6.37212 21.2013 4.98817 20.1958 5.02681 18.7911L5.13284 14.9359C5.14549 14.476 4.99922 14.0259 4.7187 13.6613L2.36688 10.6047C1.50996 9.49092 2.03858 7.86399 3.38648 7.46666L7.08577 6.37617C7.52702 6.2461 7.90994 5.96789 8.17 5.58843L10.3503 2.40717C11.1447 1.24803 12.8553 1.24803 13.6497 2.40717L15.83 5.58843C16.0901 5.96789 16.473 6.2461 16.9142 6.37617L20.6135 7.46666C21.9614 7.86399 22.49 9.49092 21.6331 10.6047L19.2813 13.6613C19.0008 14.0259 18.8545 14.476 18.8672 14.9359L18.9732 18.7911C19.0118 20.1958 17.6279 21.2013 16.3039 20.7305L12.6701 19.4383Z" fill="#D8D8D8"/>
</mask>
<g mask="url(#mask0_637_1058)">
<path fill-rule="evenodd" clip-rule="evenodd" d="M12.6701 19.4383C12.2367 19.2842 11.7633 19.2842 11.3299 19.4383L7.69615 20.7305C6.37212 21.2013 4.98817 20.1958 5.02681 18.7911L5.13284 14.9359C5.14549 14.476 4.99922 14.0259 4.7187 13.6613L2.36688 10.6047C1.50996 9.49092 2.03858 7.86399 3.38648 7.46666L7.08577 6.37617C7.52702 6.2461 7.90994 5.96789 8.17 5.58843L10.3503 2.40717C11.1447 1.24803 12.8553 1.24803 13.6497 2.40717L15.83 5.58843C16.0901 5.96789 16.473 6.2461 16.9142 6.37617L20.6135 7.46666C21.9614 7.86399 22.49 9.49092 21.6331 10.6047L19.2813 13.6613C19.0008 14.0259 18.8545 14.476 18.8672 14.9359L18.9732 18.7911C19.0118 20.1958 17.6279 21.2013 16.3039 20.7305L12.6701 19.4383Z" fill="#D8D8D8"/>
<rect x="1" y="1" width="11" height="23" fill="#522483"/>
</g>
</svg>
