<svg width="16" height="16" viewBox="0 0 16 16" fill="none" xmlns="http://www.w3.org/2000/svg">
<path d="M1.33325 15.1665C1.05992 15.1665 0.833252 14.9398 0.833252 14.6665C0.833252 14.3932 1.05992 14.1665 1.33325 14.1665H14.6666C14.9399 14.1665 15.1666 14.3932 15.1666 14.6665C15.1666 14.9398 14.9399 15.1665 14.6666 15.1665H1.33325Z" fill="#0C273A"/>
<path fill-rule="evenodd" clip-rule="evenodd" d="M2 15.1668C1.72667 15.1668 1.5 14.9402 1.5 14.6668V4.00016C1.5 1.98683 2.65333 0.833496 4.66667 0.833496H11.3333C13.3467 0.833496 14.5 1.98683 14.5 4.00016V14.6668C14.5 14.9402 14.2733 15.1668 14 15.1668H2ZM13.5 14.1668V4.00016C13.5 2.52016 12.8133 1.8335 11.3333 1.8335H4.66667C3.18667 1.8335 2.5 2.52016 2.5 4.00016V14.1668H13.5Z" fill="#0C273A"/>
<path fill-rule="evenodd" clip-rule="evenodd" d="M6 15.1667C5.72667 15.1667 5.5 14.94 5.5 14.6667V10.6267C5.5 10.0067 6.00667 9.5 6.62667 9.5H9.38C10 9.5 10.5067 10.0067 10.5067 10.6267V14.6667C10.5 14.94 10.2733 15.1667 10 15.1667H6ZM9.5 14.1667V10.6267C9.5 10.56 9.44667 10.5 9.37333 10.5H6.62C6.55333 10.5 6.49334 10.5533 6.49334 10.6267V14.1667H6.5H9.5Z" fill="#0C273A"/>
<path d="M7.5 7.33333V4C7.5 3.72667 7.72667 3.5 8 3.5C8.27333 3.5 8.5 3.72667 8.5 4V7.33333C8.5 7.60667 8.27333 7.83333 8 7.83333C7.72667 7.83333 7.5 7.60667 7.5 7.33333Z" fill="#0C273A"/>
<path d="M6.33325 6.1665C6.05992 6.1665 5.83325 5.93984 5.83325 5.6665C5.83325 5.39317 6.05992 5.1665 6.33325 5.1665H9.66659C9.93992 5.1665 10.1666 5.39317 10.1666 5.6665C10.1666 5.93984 9.93992 6.1665 9.66659 6.1665H6.33325Z" fill="#0C273A"/>
</svg>
