<svg width="16" height="16" viewBox="0 0 16 16" fill="none" xmlns="http://www.w3.org/2000/svg">
<path d="M8.83333 8.00016C9.29357 8.00016 9.66667 7.62707 9.66667 7.16683C9.66667 6.70659 9.29357 6.3335 8.83333 6.3335C8.3731 6.3335 8 6.70659 8 7.16683C8 7.62707 8.3731 8.00016 8.83333 8.00016Z" fill="#6ABEB5"/>
<path d="M10.7933 1.3335H5.20659C2.77992 1.3335 1.33325 2.78016 1.33325 5.20683V10.7868C1.33325 13.2202 2.77992 14.6668 5.20659 14.6668H10.7866C13.2133 14.6668 14.6599 13.2202 14.6599 10.7935V5.20683C14.6666 2.78016 13.2199 1.3335 10.7933 1.3335ZM10.5933 8.98016C9.90659 9.66016 8.92659 9.8735 8.05992 9.60016L7.35325 10.3002C7.29325 10.3602 7.18659 10.3602 7.11992 10.3002L6.47325 9.6535C6.37992 9.56016 6.21992 9.56016 6.11992 9.6535C6.01992 9.74683 6.02659 9.90683 6.11992 10.0068L6.76659 10.6535C6.83325 10.7202 6.83325 10.8268 6.76659 10.8868L6.49325 11.1602C6.37992 11.2802 6.15992 11.3535 5.99992 11.3335L5.27325 11.2335C5.03325 11.2002 4.81325 10.9735 4.77325 10.7335L4.67325 10.0068C4.64659 9.84683 4.72659 9.62683 4.83325 9.5135L6.39992 7.94683C6.13325 7.08016 6.33992 6.10016 7.02659 5.4135C8.00659 4.4335 9.60659 4.4335 10.5933 5.4135C11.5799 6.3935 11.5799 7.9935 10.5933 8.98016Z" fill="#6ABEB5"/>
</svg>
