<svg width="12" height="12" viewBox="0 0 12 12" fill="none" xmlns="http://www.w3.org/2000/svg">
<path d="M3.09007 11.375C3.04007 11.375 2.98507 11.37 2.94007 11.365L1.85507 11.215C1.33507 11.145 0.865068 10.68 0.785068 10.15L0.635068 9.05496C0.585068 8.70496 0.735068 8.24996 0.985068 7.99496L3.18007 5.79996C2.82507 4.37996 3.23507 2.87996 4.28007 1.84496C5.90007 0.229962 8.53507 0.224962 10.1601 1.84496C10.9451 2.62996 11.3751 3.67496 11.3751 4.78496C11.3751 5.89496 10.9451 6.93996 10.1601 7.72496C9.11007 8.76496 7.61507 9.17496 6.20507 8.81496L4.00507 11.01C3.79507 11.23 3.42007 11.375 3.09007 11.375ZM7.21507 1.37996C6.34007 1.37996 5.47007 1.70996 4.80507 2.37496C3.90507 3.26996 3.58007 4.57996 3.95507 5.79996C3.99507 5.93496 3.96007 6.07496 3.86007 6.17496L1.51007 8.52496C1.42507 8.60996 1.35507 8.82996 1.37007 8.94496L1.52007 10.04C1.55007 10.23 1.75507 10.445 1.94507 10.47L3.03507 10.62C3.15507 10.64 3.37507 10.57 3.46007 10.485L5.82007 8.12996C5.92007 8.02996 6.06507 7.99996 6.19507 8.03996C7.40007 8.41996 8.71507 8.09496 9.61507 7.19496C10.2551 6.55496 10.6101 5.69496 10.6101 4.78496C10.6101 3.86996 10.2551 3.01496 9.61507 2.37496C8.96507 1.71496 8.09007 1.37996 7.21507 1.37996Z" fill="#82A5F9"/>
<path d="M4.59504 10.2698C4.50004 10.2698 4.40504 10.2348 4.33004 10.1598L3.18004 9.00984C3.03504 8.86484 3.03504 8.62484 3.18004 8.47984C3.32504 8.33484 3.56504 8.33484 3.71004 8.47984L4.86004 9.62984C5.00504 9.77484 5.00504 10.0148 4.86004 10.1598C4.78504 10.2348 4.69004 10.2698 4.59504 10.2698Z" fill="#82A5F9"/>
<path d="M7.25 5.875C6.63 5.875 6.125 5.37 6.125 4.75C6.125 4.13 6.63 3.625 7.25 3.625C7.87 3.625 8.375 4.13 8.375 4.75C8.375 5.37 7.87 5.875 7.25 5.875ZM7.25 4.375C7.045 4.375 6.875 4.545 6.875 4.75C6.875 4.955 7.045 5.125 7.25 5.125C7.455 5.125 7.625 4.955 7.625 4.75C7.625 4.545 7.455 4.375 7.25 4.375Z" fill="#82A5F9"/>
</svg>
