<svg width="16" height="16" viewBox="0 0 16 16" fill="none" xmlns="http://www.w3.org/2000/svg">
<path fill-rule="evenodd" clip-rule="evenodd" d="M0.833252 7.99992C0.833252 4.04659 4.04659 0.833252 7.99992 0.833252C11.9533 0.833252 15.1666 4.04659 15.1666 7.99992C15.1666 11.9533 11.9533 15.1666 7.99992 15.1666C4.04659 15.1666 0.833252 11.9533 0.833252 7.99992ZM1.83325 7.99992C1.83325 11.3999 4.59992 14.1666 7.99992 14.1666C11.3999 14.1666 14.1666 11.3999 14.1666 7.99992C14.1666 4.59992 11.3999 1.83325 7.99992 1.83325C4.59992 1.83325 1.83325 4.59992 1.83325 7.99992Z" fill="#0C273A"/>
<path d="M5.33349 14.5C5.06016 14.5 4.83349 14.2733 4.83349 14C4.83349 13.7267 5.04682 13.5067 5.32016 13.5C4.27349 9.92667 4.27349 6.07333 5.32016 2.5C5.04682 2.49333 4.83349 2.27333 4.83349 2C4.83349 1.72667 5.06016 1.5 5.33349 1.5H6.00016C6.16016 1.5 6.31349 1.58 6.40682 1.70667C6.50016 1.84 6.52682 2.00667 6.47349 2.16C5.22016 5.92667 5.22016 10.0733 6.47349 13.8467C6.52682 14 6.50016 14.1667 6.40682 14.3C6.31349 14.42 6.16016 14.5 6.00016 14.5H5.33349Z" fill="#0C273A"/>
<path d="M9.84035 14.4734C9.58035 14.3867 9.43368 14.1 9.52701 13.84C10.7803 10.0734 10.7803 5.92671 9.52701 2.15337C9.44035 1.89337 9.58035 1.60671 9.84035 1.52004C10.107 1.43337 10.387 1.57337 10.4737 1.83337C11.8003 5.80671 11.8003 10.18 10.4737 14.1467C10.407 14.3667 10.207 14.5 10.0003 14.5C9.94701 14.5 9.89368 14.4934 9.84035 14.4734Z" fill="#0C273A"/>
<path d="M2.5 10.6798C2.49333 10.9465 2.27333 11.1665 2 11.1665C1.72667 11.1665 1.5 10.9398 1.5 10.6665V9.99978C1.5 9.83978 1.58 9.68645 1.70667 9.59312C1.84 9.49978 2.00667 9.47312 2.16 9.52645C5.92667 10.7798 10.08 10.7798 13.8467 9.52645C14 9.47312 14.1667 9.49978 14.3 9.59312C14.4333 9.68645 14.5067 9.83978 14.5067 9.99978V10.6665C14.5067 10.9398 14.28 11.1665 14.0067 11.1665C13.7333 11.1665 13.5133 10.9531 13.5067 10.6798C11.7133 11.2065 9.86 11.4665 8 11.4665C6.14 11.4665 4.28667 11.2065 2.5 10.6798Z" fill="#0C273A"/>
<path d="M13.8398 6.47316C10.0731 5.21983 5.91977 5.21983 2.15311 6.47316C1.88644 6.55983 1.60644 6.41983 1.51977 6.15983C1.43977 5.89316 1.57977 5.61316 1.83977 5.52649C5.81311 4.19983 10.1864 4.19983 14.1531 5.52649C14.4131 5.61316 14.5598 5.89983 14.4664 6.15983C14.4064 6.36649 14.2064 6.49983 13.9998 6.49983C13.9464 6.49983 13.8931 6.49316 13.8398 6.47316Z" fill="#0C273A"/>
</svg>
