<svg width="16" height="16" viewBox="0 0 16 16" fill="none" xmlns="http://www.w3.org/2000/svg">
<g opacity="0.5">
<path fill-rule="evenodd" clip-rule="evenodd" d="M5.42065 6.86655C5.42065 5.43988 6.58065 4.29321 8.00065 4.29321C9.42065 4.29321 10.5807 5.44655 10.5807 6.87321C10.5807 8.29988 9.42065 9.44655 8.00065 9.44655C6.58065 9.44655 5.42065 8.29321 5.42065 6.86655ZM6.42065 6.87321C6.42065 7.74655 7.12732 8.45321 8.00065 8.45321C8.87399 8.45321 9.58065 7.74655 9.58065 6.87321C9.58065 5.99988 8.86732 5.29321 8.00065 5.29321C7.13399 5.29321 6.42065 5.99988 6.42065 6.87321Z" fill="#0C273A"/>
<path fill-rule="evenodd" clip-rule="evenodd" d="M5.24654 14.0599C3.27987 12.1666 1.10654 9.14659 1.92654 5.55325C2.66654 2.29325 5.51321 0.833252 7.99987 0.833252C7.99987 0.833252 7.99987 0.833252 8.00654 0.833252C10.4932 0.833252 13.3399 2.29325 14.0799 5.55992C14.8932 9.15325 12.7199 12.1666 10.7532 14.0599C9.97987 14.7999 8.98654 15.1733 7.99987 15.1733C7.01321 15.1733 6.01987 14.7999 5.24654 14.0599ZM2.90654 5.77325C2.18654 8.91325 4.15987 11.6199 5.94654 13.3333C7.09987 14.4466 8.90654 14.4466 10.0599 13.3333C11.8399 11.6199 13.8132 8.91325 13.1065 5.77325C12.4399 2.86659 9.93987 1.83325 7.99987 1.83325C6.05987 1.83325 3.56654 2.86659 2.90654 5.77325Z" fill="#0C273A"/>
</g>
</svg>
