<svg width="16" height="16" viewBox="0 0 16 16" fill="none" xmlns="http://www.w3.org/2000/svg">
<g opacity="0.5">
<path d="M11.3334 14.1663H4.66671C2.23337 14.1663 0.833374 12.7663 0.833374 10.333V5.66634C0.833374 3.23301 2.23337 1.83301 4.66671 1.83301H11.3334C13.7667 1.83301 15.1667 3.23301 15.1667 5.66634V10.333C15.1667 12.7663 13.7667 14.1663 11.3334 14.1663ZM4.66671 2.83301C2.76004 2.83301 1.83337 3.75967 1.83337 5.66634V10.333C1.83337 12.2397 2.76004 13.1663 4.66671 13.1663H11.3334C13.24 13.1663 14.1667 12.2397 14.1667 10.333V5.66634C14.1667 3.75967 13.24 2.83301 11.3334 2.83301H4.66671Z" fill="#0C273A"/>
<path d="M7.99981 8.57998C7.43981 8.57998 6.87315 8.40665 6.43981 8.05331L4.35314 6.38665C4.13981 6.21331 4.09981 5.89998 4.27315 5.68665C4.44648 5.47331 4.75982 5.43332 4.97315 5.60665L7.05981 7.27332C7.56648 7.67998 8.42647 7.67998 8.93314 7.27332L11.0198 5.60665C11.2331 5.43332 11.5531 5.46665 11.7198 5.68665C11.8931 5.89998 11.8598 6.21998 11.6398 6.38665L9.55315 8.05331C9.12648 8.40665 8.55981 8.57998 7.99981 8.57998Z" fill="#0C273A"/>
</g>
</svg>
