<svg width="16" height="16" viewBox="0 0 16 16" fill="none" xmlns="http://www.w3.org/2000/svg">
<g opacity="0.5">
<path d="M12 7.16634C11.7267 7.16634 11.5 6.93967 11.5 6.66634V5.33301C11.5 3.23301 10.9067 1.83301 8 1.83301C5.09333 1.83301 4.5 3.23301 4.5 5.33301V6.66634C4.5 6.93967 4.27333 7.16634 4 7.16634C3.72667 7.16634 3.5 6.93967 3.5 6.66634V5.33301C3.5 3.39967 3.96667 0.833008 8 0.833008C12.0333 0.833008 12.5 3.39967 12.5 5.33301V6.66634C12.5 6.93967 12.2733 7.16634 12 7.16634Z" fill="#0C273A"/>
<path d="M11.3334 15.167H4.66671C1.72671 15.167 0.833374 14.2737 0.833374 11.3337V10.0003C0.833374 7.06033 1.72671 6.16699 4.66671 6.16699H11.3334C14.2734 6.16699 15.1667 7.06033 15.1667 10.0003V11.3337C15.1667 14.2737 14.2734 15.167 11.3334 15.167ZM4.66671 7.16699C2.28004 7.16699 1.83337 7.62033 1.83337 10.0003V11.3337C1.83337 13.7137 2.28004 14.167 4.66671 14.167H11.3334C13.72 14.167 14.1667 13.7137 14.1667 11.3337V10.0003C14.1667 7.62033 13.72 7.16699 11.3334 7.16699H4.66671Z" fill="#0C273A"/>
<path d="M5.33329 11.3336C5.24663 11.3336 5.15996 11.3136 5.07996 11.2802C4.99329 11.2469 4.92663 11.2002 4.85997 11.1402C4.73997 11.0136 4.66663 10.8469 4.66663 10.6669C4.66663 10.5802 4.68662 10.4936 4.71995 10.4136C4.75328 10.3269 4.79997 10.2602 4.85997 10.1936C4.92663 10.1336 4.99329 10.0869 5.07996 10.0536C5.31996 9.9469 5.61995 10.0069 5.80662 10.1936C5.86662 10.2602 5.9133 10.3336 5.94664 10.4136C5.97997 10.4936 5.99996 10.5802 5.99996 10.6669C5.99996 10.8402 5.92662 11.0136 5.80662 11.1402C5.67995 11.2602 5.50663 11.3336 5.33329 11.3336Z" fill="#0C273A"/>
<path d="M8.00004 11.3329C7.82671 11.3329 7.65338 11.2596 7.52671 11.1396C7.40671 11.0129 7.33337 10.8463 7.33337 10.6663C7.33337 10.5796 7.3467 10.4929 7.3867 10.4129C7.42003 10.3329 7.46671 10.2596 7.52671 10.193C7.68005 10.0396 7.91338 9.96628 8.12671 10.0129C8.17338 10.0196 8.21338 10.0329 8.25338 10.0529C8.29338 10.0663 8.33337 10.0863 8.37337 10.113C8.40671 10.133 8.44004 10.1663 8.47337 10.193C8.53337 10.2596 8.58005 10.3329 8.61338 10.4129C8.64672 10.4929 8.66671 10.5796 8.66671 10.6663C8.66671 10.8463 8.59337 11.0129 8.47337 11.1396C8.44004 11.1663 8.40671 11.1929 8.37337 11.2196C8.33337 11.2463 8.29338 11.2663 8.25338 11.2796C8.21338 11.2996 8.17338 11.313 8.12671 11.3196C8.08671 11.3263 8.04004 11.3329 8.00004 11.3329Z" fill="#0C273A"/>
<path d="M10.6667 11.3329C10.4867 11.3329 10.32 11.2596 10.1933 11.1396C10.1333 11.0729 10.0867 10.9996 10.0533 10.9196C10.02 10.8396 10 10.7529 10 10.6663C10 10.4929 10.0733 10.3196 10.1933 10.193C10.2267 10.1663 10.26 10.1396 10.2933 10.113C10.3333 10.0863 10.3733 10.0663 10.4133 10.0529C10.4533 10.0329 10.4933 10.0196 10.5333 10.0129C10.7533 9.96628 10.98 10.0396 11.14 10.193C11.26 10.3196 11.3333 10.4863 11.3333 10.6663C11.3333 10.7529 11.3133 10.8396 11.28 10.9196C11.2467 11.0063 11.2 11.0729 11.14 11.1396C11.0133 11.2596 10.84 11.3329 10.6667 11.3329Z" fill="#0C273A"/>
</g>
</svg>
