<svg width="16" height="16" viewBox="0 0 16 16" fill="none" xmlns="http://www.w3.org/2000/svg">
<g opacity="0.5">
<path d="M8.07982 9.01999C8.06649 9.01999 8.04649 9.01999 8.03316 9.01999C8.01316 9.01999 7.98649 9.01999 7.96649 9.01999C6.45316 8.97332 5.31982 7.79332 5.31982 6.33999C5.31982 4.85999 6.52649 3.65332 8.00649 3.65332C9.48649 3.65332 10.6932 4.85999 10.6932 6.33999C10.6865 7.79999 9.54649 8.97332 8.09982 9.01999C8.08649 9.01999 8.08649 9.01999 8.07982 9.01999ZM7.99982 4.64665C7.06649 4.64665 6.31316 5.40665 6.31316 6.33332C6.31316 7.24665 7.02649 7.98665 7.93316 8.01999C7.95316 8.01332 8.01982 8.01332 8.08649 8.01999C8.97982 7.97332 9.67982 7.23999 9.68649 6.33332C9.68649 5.40665 8.93316 4.64665 7.99982 4.64665Z" fill="#0C273A"/>
<path d="M8.00022 15.1667C6.20688 15.1667 4.49355 14.5 3.16688 13.2867C3.04688 13.18 2.99355 13.02 3.00688 12.8667C3.09355 12.0734 3.58688 11.3334 4.40688 10.7867C6.39355 9.46669 9.61355 9.46669 11.5935 10.7867C12.4135 11.34 12.9069 12.0734 12.9935 12.8667C13.0135 13.0267 12.9535 13.18 12.8335 13.2867C11.5069 14.5 9.79355 15.1667 8.00022 15.1667ZM4.05355 12.7334C5.16022 13.66 6.55355 14.1667 8.00022 14.1667C9.44688 14.1667 10.8402 13.66 11.9469 12.7334C11.8269 12.3267 11.5069 11.9334 11.0335 11.6134C9.39355 10.52 6.61355 10.52 4.96022 11.6134C4.48688 11.9334 4.17355 12.3267 4.05355 12.7334Z" fill="#0C273A"/>
<path d="M8.00016 15.1666C4.04683 15.1666 0.833496 11.9533 0.833496 7.99998C0.833496 4.04665 4.04683 0.833313 8.00016 0.833313C11.9535 0.833313 15.1668 4.04665 15.1668 7.99998C15.1668 11.9533 11.9535 15.1666 8.00016 15.1666ZM8.00016 1.83331C4.60016 1.83331 1.8335 4.59998 1.8335 7.99998C1.8335 11.4 4.60016 14.1666 8.00016 14.1666C11.4002 14.1666 14.1668 11.4 14.1668 7.99998C14.1668 4.59998 11.4002 1.83331 8.00016 1.83331Z" fill="#0C273A"/>
</g>
</svg>
