<svg width="16" height="16" viewBox="0 0 16 16" fill="none" xmlns="http://www.w3.org/2000/svg">
<path d="M11.9998 5.27318C11.9798 5.27318 11.9665 5.27318 11.9465 5.27318H11.9131C10.6531 5.23318 9.71313 4.25985 9.71313 3.05984C9.71313 1.83318 10.7131 0.839844 11.9331 0.839844C13.1531 0.839844 14.1531 1.83984 14.1531 3.05984C14.1465 4.26651 13.2065 5.23985 12.0065 5.27985C12.0065 5.27318 12.0065 5.27318 11.9998 5.27318ZM11.9331 1.83318C11.2598 1.83318 10.7131 2.37985 10.7131 3.05318C10.7131 3.71318 11.2265 4.24652 11.8865 4.27318C11.8931 4.26652 11.9465 4.26652 12.0065 4.27318C12.6531 4.23985 13.1531 3.70652 13.1598 3.05318C13.1598 2.37985 12.6131 1.83318 11.9331 1.83318Z" fill="#0C273A"/>
<path d="M12.0067 10.1866C11.7467 10.1866 11.4867 10.1666 11.2267 10.1199C10.9534 10.0733 10.7734 9.81327 10.8201 9.53994C10.8667 9.2666 11.1267 9.0866 11.4001 9.13327C12.2201 9.27327 13.0867 9.11994 13.6667 8.73327C13.9801 8.52661 14.1467 8.2666 14.1467 8.0066C14.1467 7.7466 13.9734 7.49327 13.6667 7.2866C13.0867 6.89993 12.2067 6.7466 11.3801 6.89327C11.1067 6.9466 10.8467 6.75993 10.8001 6.4866C10.7534 6.21327 10.9334 5.95327 11.2068 5.9066C12.2934 5.71327 13.4201 5.91993 14.2201 6.45327C14.8067 6.8466 15.1467 7.4066 15.1467 8.0066C15.1467 8.59993 14.8134 9.16661 14.2201 9.56661C13.6134 9.96661 12.8267 10.1866 12.0067 10.1866Z" fill="#0C273A"/>
<path d="M3.98007 5.2735C3.9734 5.2735 3.96674 5.2735 3.96674 5.2735C2.76674 5.2335 1.82674 4.26016 1.82007 3.06016C1.82007 1.83349 2.82007 0.833496 4.04007 0.833496C5.26007 0.833496 6.26007 1.8335 6.26007 3.0535C6.26007 4.26016 5.32007 5.2335 4.12007 5.2735L3.98007 4.7735L4.02674 5.2735C4.0134 5.2735 3.9934 5.2735 3.98007 5.2735ZM4.04674 4.2735C4.08674 4.2735 4.12007 4.27349 4.16007 4.28016C4.7534 4.25349 5.2734 3.72016 5.2734 3.06016C5.2734 2.38683 4.72674 1.84016 4.0534 1.84016C3.38007 1.84016 2.8334 2.38683 2.8334 3.06016C2.8334 3.71349 3.34007 4.24016 3.98674 4.28016C3.9934 4.27349 4.02007 4.2735 4.04674 4.2735Z" fill="#0C273A"/>
<path d="M3.97325 10.1866C3.15325 10.1866 2.36658 9.96661 1.75992 9.56661C1.17325 9.17327 0.833252 8.6066 0.833252 8.0066C0.833252 7.41327 1.17325 6.8466 1.75992 6.45327C2.55992 5.91993 3.68658 5.71327 4.77325 5.9066C5.04659 5.95327 5.22659 6.21327 5.17992 6.4866C5.13325 6.75993 4.87325 6.9466 4.59992 6.89327C3.77325 6.7466 2.89992 6.89993 2.31325 7.2866C1.99992 7.49327 1.83325 7.7466 1.83325 8.0066C1.83325 8.2666 2.00659 8.52661 2.31325 8.73327C2.89325 9.11994 3.75992 9.27327 4.57992 9.13327C4.85325 9.0866 5.11325 9.27327 5.15992 9.53994C5.20659 9.81327 5.02659 10.0733 4.75325 10.1199C4.49325 10.1666 4.23325 10.1866 3.97325 10.1866Z" fill="#0C273A"/>
<path d="M7.9998 10.2532C7.9798 10.2532 7.96647 10.2532 7.94647 10.2532H7.91313C6.65313 10.2132 5.71313 9.23983 5.71313 8.03983C5.71313 6.81316 6.71314 5.81982 7.93314 5.81982C9.15314 5.81982 10.1531 6.81983 10.1531 8.03983C10.1465 9.24649 9.20647 10.2198 8.00647 10.2598C8.00647 10.2532 8.00647 10.2532 7.9998 10.2532ZM7.93314 6.81316C7.2598 6.81316 6.71313 7.35983 6.71313 8.03316C6.71313 8.69316 7.22647 9.2265 7.88647 9.25316C7.89314 9.2465 7.94647 9.2465 8.00647 9.25316C8.65313 9.21983 9.15314 8.6865 9.1598 8.03316C9.1598 7.3665 8.61314 6.81316 7.93314 6.81316Z" fill="#0C273A"/>
<path d="M7.99994 15.1735C7.19994 15.1735 6.39994 14.9668 5.77994 14.5468C5.19327 14.1535 4.85327 13.5935 4.85327 12.9935C4.85327 12.4002 5.1866 11.8268 5.77994 11.4335C7.0266 10.6068 8.97994 10.6068 10.2199 11.4335C10.8066 11.8268 11.1466 12.3868 11.1466 12.9868C11.1466 13.5801 10.8133 14.1535 10.2199 14.5468C9.59994 14.9602 8.79994 15.1735 7.99994 15.1735ZM6.33327 12.2735C6.01994 12.4801 5.85327 12.7401 5.85327 13.0001C5.85327 13.2601 6.02661 13.5135 6.33327 13.7201C7.23327 14.3268 8.75994 14.3268 9.65994 13.7201C9.97327 13.5135 10.1399 13.2535 10.1399 12.9935C10.1399 12.7335 9.96661 12.4801 9.65994 12.2735C8.76661 11.6668 7.23994 11.6735 6.33327 12.2735Z" fill="#0C273A"/>
</svg>
