<svg width="16" height="16" viewBox="0 0 16 16" fill="none" xmlns="http://www.w3.org/2000/svg">
<g opacity="0.5">
<path d="M11.6335 15.1666C10.8802 15.1666 10.0868 14.9866 9.26683 14.64C8.46683 14.3 7.66016 13.8333 6.8735 13.2666C6.0935 12.6933 5.34016 12.0533 4.62683 11.3533C3.92016 10.64 3.28016 9.88665 2.7135 9.11331C2.14016 8.31331 1.68016 7.51331 1.3535 6.73998C1.00683 5.91331 0.833496 5.11331 0.833496 4.35998C0.833496 3.83998 0.926829 3.34665 1.10683 2.88665C1.2935 2.41331 1.5935 1.97331 2.00016 1.59331C2.5135 1.08665 3.10016 0.833313 3.72683 0.833313C3.98683 0.833313 4.2535 0.893313 4.48016 0.99998C4.74016 1.11998 4.96016 1.29998 5.12016 1.53998L6.66683 3.71998C6.80683 3.91331 6.9135 4.09998 6.98683 4.28665C7.0735 4.48665 7.12016 4.68665 7.12016 4.87998C7.12016 5.13331 7.04683 5.37998 6.90683 5.61331C6.80683 5.79331 6.6535 5.98665 6.46016 6.17998L6.00683 6.65331C6.0135 6.67331 6.02016 6.68665 6.02683 6.69998C6.10683 6.83998 6.26683 7.07998 6.5735 7.43998C6.90016 7.81331 7.20683 8.15331 7.5135 8.46665C7.90683 8.85331 8.2335 9.15998 8.54016 9.41331C8.92016 9.73331 9.16683 9.89331 9.3135 9.96665L9.30016 9.99998L9.78683 9.51998C9.9935 9.31331 10.1935 9.15998 10.3868 9.05998C10.7535 8.83331 11.2202 8.79331 11.6868 8.98665C11.8602 9.05998 12.0468 9.15998 12.2468 9.29998L14.4602 10.8733C14.7068 11.04 14.8868 11.2533 14.9935 11.5066C15.0935 11.76 15.1402 11.9933 15.1402 12.2266C15.1402 12.5466 15.0668 12.8666 14.9268 13.1666C14.7868 13.4666 14.6135 13.7266 14.3935 13.9666C14.0135 14.3866 13.6002 14.6866 13.1202 14.88C12.6602 15.0666 12.1602 15.1666 11.6335 15.1666ZM3.72683 1.83331C3.36016 1.83331 3.02016 1.99331 2.6935 2.31331C2.38683 2.59998 2.1735 2.91331 2.04016 3.25331C1.90016 3.59998 1.8335 3.96665 1.8335 4.35998C1.8335 4.97998 1.98016 5.65331 2.2735 6.34665C2.5735 7.05331 2.9935 7.78665 3.52683 8.51998C4.06016 9.25331 4.66683 9.96665 5.3335 10.64C6.00016 11.3 6.72016 11.9133 7.46016 12.4533C8.18016 12.98 8.92016 13.4066 9.6535 13.7133C10.7935 14.2 11.8602 14.3133 12.7402 13.9466C13.0802 13.8066 13.3802 13.5933 13.6535 13.2866C13.8068 13.12 13.9268 12.94 14.0268 12.7266C14.1068 12.56 14.1468 12.3866 14.1468 12.2133C14.1468 12.1066 14.1268 12 14.0735 11.88C14.0535 11.84 14.0135 11.7666 13.8868 11.68L11.6735 10.1066C11.5402 10.0133 11.4202 9.94665 11.3068 9.89998C11.1602 9.83998 11.1002 9.77998 10.8735 9.91998C10.7402 9.98665 10.6202 10.0866 10.4868 10.22L9.98016 10.72C9.72016 10.9733 9.32016 11.0333 9.0135 10.92L8.8335 10.84C8.56016 10.6933 8.24016 10.4666 7.88683 10.1666C7.56683 9.89331 7.22016 9.57331 6.80016 9.15998C6.4735 8.82665 6.14683 8.47331 5.80683 8.07998C5.4935 7.71331 5.26683 7.39998 5.12683 7.13998L5.04683 6.93998C5.00683 6.78665 4.9935 6.69998 4.9935 6.60665C4.9935 6.36665 5.08016 6.15331 5.24683 5.98665L5.74683 5.46665C5.88016 5.33331 5.98016 5.20665 6.04683 5.09331C6.10016 5.00665 6.12016 4.93331 6.12016 4.86665C6.12016 4.81331 6.10016 4.73331 6.06683 4.65331C6.02016 4.54665 5.94683 4.42665 5.8535 4.29998L4.30683 2.11331C4.24016 2.01998 4.16016 1.95331 4.06016 1.90665C3.9535 1.85998 3.84016 1.83331 3.72683 1.83331ZM9.30016 10.0066L9.1935 10.46L9.3735 9.99331C9.34016 9.98665 9.3135 9.99331 9.30016 10.0066Z" fill="#0C273A"/>
</g>
</svg>
