<svg width="36" height="36" viewBox="0 0 36 36" fill="none" xmlns="http://www.w3.org/2000/svg">
<rect width="36" height="36" rx="8" fill="#0C273A" fill-opacity="0.1"/>
<path d="M20.7933 11.333H15.2066C12.7799 11.333 11.3333 12.7797 11.3333 15.2063V20.7863C11.3333 23.2197 12.7799 24.6663 15.2066 24.6663H20.7866C23.2133 24.6663 24.6599 23.2197 24.6599 20.793V15.2063C24.6666 12.7797 23.2199 11.333 20.7933 11.333ZM22.3533 18.353L19.4933 21.213C19.3933 21.313 19.2666 21.3597 19.1399 21.3597C19.0133 21.3597 18.8866 21.313 18.7866 21.213C18.5933 21.0197 18.5933 20.6997 18.7866 20.5063L20.7933 18.4997H13.9999C13.7266 18.4997 13.4999 18.273 13.4999 17.9997C13.4999 17.7263 13.7266 17.4997 13.9999 17.4997H20.7933L18.7866 15.493C18.5933 15.2997 18.5933 14.9797 18.7866 14.7863C18.9799 14.593 19.2999 14.593 19.4933 14.7863L22.3533 17.6463C22.4466 17.7397 22.4999 17.8663 22.4999 17.9997C22.4999 18.133 22.4466 18.2597 22.3533 18.353Z" fill="#0C273A"/>
</svg>
