<svg width="300" height="281" viewBox="0 0 300 281" fill="none" xmlns="http://www.w3.org/2000/svg">
<path d="M282.483 107.314L275.473 208.924L41.1475 219.885L19.3145 179.032L110.153 50.9548L282.483 107.314Z" fill="#134B67"/>
<rect x="137.024" y="33.6" width="125.995" height="224.709" rx="14.1967" fill="black" stroke="black" stroke-width="1.37751"/>
<rect x="137.024" y="38.9971" width="117.419" height="219.311" rx="14.1967" fill="white" stroke="black" stroke-width="1.37751"/>
<path d="M256.954 85.8774H257.995C258.595 85.8778 259.172 85.64 259.596 85.2162C260.021 84.7924 260.26 84.2174 260.26 83.6179V71.0743C260.26 70.4747 260.021 69.8998 259.596 69.476C259.172 69.0522 258.595 68.8143 257.995 68.8148H256.954" stroke="white" stroke-width="1.37751" stroke-linecap="round" stroke-linejoin="round"/>
<path d="M260.26 116.371V109.575C260.26 108.975 260.021 108.4 259.596 107.976C259.172 107.552 258.596 107.314 257.995 107.314H256.954" stroke="white" stroke-width="1.37751" stroke-linecap="round" stroke-linejoin="round"/>
<path d="M256.954 119.052H257.995C258.596 119.052 259.172 118.813 259.596 118.389C260.021 117.965 260.26 117.39 260.26 116.791V111.049" stroke="white" stroke-width="1.37751" stroke-linecap="round" stroke-linejoin="round"/>
<path d="M260.26 129.276V122.478C260.26 121.879 260.021 121.304 259.596 120.88C259.172 120.456 258.595 120.218 257.995 120.219H256.954" stroke="white" stroke-width="1.37751" stroke-linecap="round" stroke-linejoin="round"/>
<path d="M256.954 131.957H257.995C259.246 131.957 260.26 130.945 260.26 129.696V123.955" stroke="white" stroke-width="1.37751" stroke-linecap="round" stroke-linejoin="round"/>
<rect x="150.575" y="75.3784" width="89.0448" height="19.03" stroke="black" stroke-width="1.37751" stroke-linecap="round" stroke-linejoin="round"/>
<rect x="150.575" y="114.86" width="89.0448" height="19.03" stroke="black" stroke-width="1.37751" stroke-linecap="round" stroke-linejoin="round"/>
<rect x="150.575" y="154.339" width="89.0448" height="19.03" stroke="black" stroke-width="1.37751" stroke-linecap="round" stroke-linejoin="round"/>
<path d="M142.608 168.192L150.899 178.576L137.024 182.774L142.608 168.192Z" fill="#0061FA"/>
<path d="M153.017 240.372V266.4H159.299V256.048H163.1V266.4H190.706C194.356 266.4 197.351 262.171 189.537 257.505C181.723 252.84 174.349 251.017 174.349 251.017V240.664L153.017 240.372Z" fill="#231F20"/>
<path d="M173.238 251.669C171.727 252.563 170.327 253.63 169.064 254.848" stroke="white" stroke-width="1.37751" stroke-linecap="round" stroke-linejoin="round"/>
<path d="M172.901 248.344C171.243 248.921 169.658 249.688 168.177 250.63" stroke="white" stroke-width="1.37751" stroke-linecap="round" stroke-linejoin="round"/>
<path d="M176.501 253.266C175.258 254.503 174.163 255.882 173.238 257.372" stroke="white" stroke-width="1.37751" stroke-linecap="round" stroke-linejoin="round"/>
<path d="M67.2151 223.915H41.1421V230.187H51.5115V233.983H41.1421V261.546C41.1421 265.192 45.3771 268.181 50.0502 260.381C54.7233 252.58 56.5499 245.214 56.5499 245.214H66.9292L67.2151 223.915Z" fill="#231F20"/>
<path d="M55.8938 244.107C55 242.599 53.9326 241.2 52.7134 239.94" stroke="white" stroke-width="1.37751" stroke-linecap="round" stroke-linejoin="round"/>
<path d="M59.2313 243.77C58.6547 242.114 57.8864 240.531 56.9419 239.053" stroke="white" stroke-width="1.37751" stroke-linecap="round" stroke-linejoin="round"/>
<path d="M54.3036 247.365C53.0643 246.123 51.6841 245.029 50.1909 244.107" stroke="white" stroke-width="1.37751" stroke-linecap="round" stroke-linejoin="round"/>
<path d="M139.556 181.316C139.556 181.316 158.837 173.437 167.742 171.205C176.647 168.974 181.029 170.453 182.979 171.205C188.578 173.369 193.709 180.283 193.393 187.08C193.028 195.074 195.729 195.583 195.947 199.349C196.166 203.116 194.05 203.408 194.05 207.126C194.05 210.845 196.126 214.058 195.964 217.625C195.802 221.192 194.341 221.124 194.341 224.26C194.341 227.396 196.385 231.04 196.385 234.029C196.385 237.018 195.875 236.873 195.875 238.04C195.875 239.207 197.992 240.956 197.774 244.747L151.332 243.726L152.655 211.211L135.64 215.951C135.64 215.951 143.471 228.102 145.79 235.904C148.109 243.706 148.858 254.592 139.9 259.55C132.554 263.611 118.988 261.737 115.849 262.246C112.71 262.754 108.473 264.87 105.552 264.721C102.631 264.573 98.5416 262.607 94.5992 262.681C90.6567 262.756 86.42 265.817 83.0611 265.67C79.7022 265.524 78.1698 263.338 75.3217 263.338C72.4735 263.338 66.2664 265.235 64.1489 265.154V223.823L90.5823 224.915L83.1289 193.346L125.554 169.959L139.556 181.316Z" fill="#6699FF"/>
<path d="M147.754 212.573L152.652 211.208L152.096 224.958L156.667 210.043L147.754 212.573Z" fill="#3764AD"/>
<path d="M135.637 215.948L139.981 214.738L130.308 208.922C132.216 211.161 133.996 213.507 135.637 215.948Z" fill="#3764AD"/>
<path d="M93.4307 225.135L88.6617 216.772L90.5825 224.915L88.3179 224.821L93.4307 225.135Z" fill="#0061FA"/>
<path d="M160.694 139.589C159.905 141.013 158.151 141.591 156.668 140.915C155.185 140.239 154.474 138.537 155.035 137.009C154.165 138.385 152.38 138.861 150.939 138.1C149.559 137.369 148.909 135.75 149.399 134.269C148.492 135.511 146.814 135.906 145.448 135.199C144.081 134.492 143.436 132.896 143.929 131.44L95.0309 229.408C93.4109 232.401 93.5535 236.038 95.4029 238.895C97.2523 241.753 100.515 243.377 103.913 243.132C107.312 242.887 110.307 240.813 111.726 237.719L160.866 139.259V139.201C160.817 139.334 160.76 139.463 160.694 139.589Z" fill="black"/>
<path d="M144.507 131.029C144.507 131.029 143.077 134.038 145.709 135.108C147.109 135.675 148.459 135.666 149.325 134.482C148.841 135.867 149.172 137.879 150.507 138.585C151.904 139.325 154.07 138.354 154.899 137.04C154.357 138.44 154.997 139.876 156.356 140.596C157.06 140.968 157.883 141.046 158.645 140.813C159.407 140.579 160.044 140.053 160.417 139.349C160.481 139.228 160.536 139.103 160.583 138.975L160.169 136.152L158.3 123.368L147.324 129.475L144.514 131.038" fill="white"/>
<path d="M144.507 131.029C144.507 131.029 143.077 134.038 145.709 135.108C147.109 135.675 148.459 135.666 149.325 134.482C148.841 135.867 149.172 137.879 150.507 138.585C151.904 139.325 154.07 138.354 154.899 137.04C154.357 138.44 154.997 139.876 156.356 140.596C157.06 140.968 157.883 141.046 158.645 140.813C159.407 140.579 160.044 140.053 160.417 139.349C160.481 139.228 160.536 139.103 160.583 138.975L160.169 136.152L158.3 123.368L147.324 129.475L144.514 131.038" stroke="black" stroke-width="1.37751" stroke-linecap="round" stroke-linejoin="round"/>
<path d="M158.917 127.591L158.298 123.368L154.562 125.442C155.427 126.99 157.16 127.844 158.917 127.588V127.591Z" fill="black"/>
<path d="M108.838 146.612C105.863 140.194 97.7498 141.394 92.2502 139.788C86.8267 138.206 85.782 124.52 77.9682 123.663C71.5578 122.96 67.7277 128.894 66.2681 138.227C64.8085 147.561 51.8108 150.111 46.9906 155.328C42.1704 160.545 39.1024 176.139 51.2984 182.845C63.4943 189.55 80.3601 185.104 80.3601 185.104L108.838 146.612Z" fill="black"/>
<path d="M98.0591 195.152C98.0591 195.152 108.174 190.681 109.69 189.433C111.759 187.732 113.492 185.837 115.191 184.233C116.89 182.628 119.353 184.086 118.527 186.03C117.7 187.974 114.968 191.336 115.484 192.812C116.189 194.829 122.426 194.926 125.34 194.391C128.255 193.857 129.159 193.47 130.648 193.071C132.862 192.487 133.349 194.141 133.009 195.476C133.009 195.476 134.396 195.598 134.468 196.885C134.541 198.173 133.227 198.976 133.227 198.976C133.533 199.596 133.586 200.311 133.374 200.969C133.009 202.038 131.225 202.792 131.225 202.792C131.457 203.295 131.448 203.876 131.2 204.372C130.519 205.879 126.868 207.141 123.849 207.386C120.831 207.63 112.921 208.871 110.316 210.205C107.711 211.538 104.58 213.709 104.58 213.709L98.6674 202.022L98.0591 195.152Z" fill="#FEB0A3"/>
<path d="M122.205 202.271C125.793 201.95 129.288 200.959 132.509 199.349" stroke="#231F20" stroke-width="1.37751" stroke-linecap="round" stroke-linejoin="round"/>
<path d="M122.456 205.001C125.143 204.78 127.786 204.183 130.307 203.228" stroke="#231F20" stroke-width="1.37751" stroke-linecap="round" stroke-linejoin="round"/>
<path d="M121.975 198.892C125.523 198.542 128.974 197.534 132.152 195.921" stroke="#231F20" stroke-width="1.37751" stroke-linecap="round" stroke-linejoin="round"/>
<path d="M131.347 156.756C131.347 156.756 118.817 148.361 113.164 146.902C107.511 145.443 93.4484 151.01 93.4484 151.01L78.9664 157.815C78.9664 157.815 67.8911 163.235 64.8727 168.484C61.8543 173.732 59.4029 190.843 58.6822 202.022C57.9615 213.2 56.8886 222.818 63.8065 227.589C70.7244 232.361 79.1895 228.756 90.3871 222.143C101.585 215.529 104.796 213.586 104.796 213.586C104.796 213.586 102.071 208.921 100.994 204.547C99.9184 200.173 98.9563 194.728 98.9563 194.728L83.8279 201.825L84.2114 194.826L122.097 175.185L131.347 156.756Z" fill="#46C1B5"/>
<path d="M84.0926 197.285L84.076 197.306L83.9058 200.419L84.0926 197.285Z" fill="#0043AE"/>
<path d="M83.9059 200.419L84.0761 197.306L78.6807 204.114L83.8315 201.78L83.9059 200.419Z" fill="#228279"/>
<path d="M84.2412 194.814L87.8415 192.964L84.9603 182.773L84.2412 194.814Z" fill="#228279"/>
<path d="M120.674 175.931L122.097 175.193L122.489 174.412L118.915 169.177L120.674 175.931Z" fill="#228279"/>
<mask id="mask0_691_7865" style="mask-type:luminance" maskUnits="userSpaceOnUse" x="58" y="146" width="74" height="84">
<path fill-rule="evenodd" clip-rule="evenodd" d="M131.347 156.756C131.347 156.756 118.817 148.361 113.164 146.902C107.511 145.443 93.4484 151.01 93.4484 151.01L78.9664 157.815C78.9664 157.815 67.8911 163.235 64.8727 168.484C61.8543 173.732 59.4029 190.843 58.6822 202.022C57.9615 213.2 56.8886 222.818 63.8065 227.589C70.7244 232.361 79.1895 228.756 90.3871 222.143C101.585 215.529 104.796 213.586 104.796 213.586C104.796 213.586 102.071 208.921 100.994 204.547C99.9184 200.173 98.9563 194.728 98.9563 194.728L83.8279 201.825L84.2114 194.826L122.097 175.185L131.347 156.756Z" fill="white"/>
</mask>
<g mask="url(#mask0_691_7865)">
<path d="M67.2148 163.308C67.2148 163.308 75.3146 167.609 75.2485 171.255C75.1824 174.901 69.6993 176.207 63.5649 168.779" stroke="white" stroke-width="1.37751" stroke-linecap="round" stroke-linejoin="round"/>
<path d="M70.0532 160.893C70.0532 160.893 81.6144 165.424 81.7532 171.986C81.8921 178.549 76.3429 181.099 71.5244 179.413C66.7058 177.728 59.8408 169.402 59.8408 169.402" stroke="white" stroke-width="1.37751" stroke-linecap="round" stroke-linejoin="round"/>
<path d="M73.5689 158.632C73.5689 158.632 81.753 160.245 85.0326 165.715C88.3387 171.227 87.4427 183.54 75.2484 185.4C64.5931 187.019 58.6885 181.317 58.6885 181.317" stroke="white" stroke-width="1.37751" stroke-linecap="round" stroke-linejoin="round"/>
<path d="M59.2309 186.553C59.2309 186.553 62.4691 189.555 66.4132 189.628C73.5394 189.76 78.6803 191.597 71.9624 195.913C64.9321 200.431 54.3032 198.631 54.3032 198.631" stroke="white" stroke-width="1.37751" stroke-linecap="round" stroke-linejoin="round"/>
<path fill-rule="evenodd" clip-rule="evenodd" d="M85.4162 184.385C88.8347 182.505 88.428 179.268 90.5406 180.077C92.5242 180.829 89.3355 184.718 87.218 186.553C85.1005 188.389 78.457 192.69 78.2372 189.445C78.0173 186.2 83.6806 185.339 85.4162 184.385Z" stroke="white" stroke-width="1.37751" stroke-linecap="round" stroke-linejoin="round"/>
<path d="M84.7036 152.954C87.8807 154.631 91.4595 159.297 91.605 163.308C91.7504 167.319 90.1437 174.754 92.4811 175.701C94.8184 176.649 99.4237 169.123 98.6881 158.632C97.9526 148.142 97.1541 146.699 97.1541 146.699" stroke="white" stroke-width="1.37751" stroke-linecap="round" stroke-linejoin="round"/>
<path d="M105.406 145.517C105.551 149.313 105.771 163.854 102.558 173.369C99.989 180.98 84.3531 203.753 58.1577 203.228" stroke="white" stroke-width="1.37751" stroke-linecap="round" stroke-linejoin="round"/>
<path d="M54.604 208.378C57.7547 208.962 67.6083 208.295 75.7957 203.639C83.9831 198.983 91.6647 197.004 88.0627 203.639C84.4608 210.274 67.7703 216.265 58.6688 219.066" stroke="white" stroke-width="1.37751" stroke-linecap="round" stroke-linejoin="round"/>
<path d="M102.579 197.404C100.972 199.483 91.7354 208.924 82.6934 214.636C76.0433 218.835 65.5367 222.96 59.2305 224.419" stroke="white" stroke-width="1.37751" stroke-linecap="round" stroke-linejoin="round"/>
<path d="M63.5649 230.761C67.1355 229.74 77.971 224.985 84.9814 219.885C91.9919 214.785 99.771 210.781 98.766 217.818" stroke="white" stroke-width="1.37751" stroke-linecap="round" stroke-linejoin="round"/>
<path d="M112.438 144.273C112.218 147.5 109.881 156.175 113.242 158.289C116.602 160.403 118.425 148.082 118.425 144.801" stroke="white" stroke-width="1.37751" stroke-linecap="round" stroke-linejoin="round"/>
<path fill-rule="evenodd" clip-rule="evenodd" d="M106.887 174.183C109.881 169.96 110.901 160.757 113.898 164.853C116.746 168.745 110.904 183.703 107.91 185.286C104.917 186.869 99.2898 184.9 106.887 174.183Z" stroke="white" stroke-width="1.37751" stroke-linecap="round" stroke-linejoin="round"/>
<path d="M123.974 148.228C123.244 150.489 119.521 166.431 117.402 173.369C115.283 180.308 113.97 182.434 113.97 182.434" stroke="white" stroke-width="1.37751" stroke-linecap="round" stroke-linejoin="round"/>
<path d="M129.013 150.561C128.352 152.821 124.054 164.217 123.974 167.55C123.895 170.882 126.494 171.559 126.494 171.559" stroke="white" stroke-width="1.37751" stroke-linecap="round" stroke-linejoin="round"/>
</g>
<path d="M81.5534 125.322C81.5534 125.322 85.8116 129.041 87.2233 130.912C88.635 132.784 90.6764 136.557 89.4995 138.47C88.9269 139.454 87.9029 140.092 86.7654 140.171L93.4585 151.01C93.4585 151.01 92.6551 156.503 89.1011 158.01C85.5471 159.517 78.9764 157.815 78.9764 157.815L76.2985 137.91C75.6329 138.515 74.7223 138.775 73.8371 138.612C72.3759 138.321 69.8699 136.547 70.0633 134.433C70.2567 132.318 71.8172 131.929 72.7908 131.929C73.538 131.925 74.2742 132.109 74.9314 132.464L75.0058 129.717C75.0058 129.717 78.7284 129.305 79.9946 128.397C81.2608 127.489 81.5534 125.322 81.5534 125.322Z" fill="#FEB0A3"/>
<path d="M86.7653 140.172C85.7176 140.203 84.6689 140.175 83.6245 140.086C81.9947 139.94 79.2192 139.247 79.2192 139.247L79.9003 142.528C81.528 143.409 83.316 143.954 85.1585 144.133C88.2745 144.448 89.2117 144.133 89.2117 144.133L86.7653 140.172Z" fill="#FD8571"/>
<path d="M83.8281 129.331L86.8961 133.415L89.5244 131.81L83.8281 129.331Z" fill="#6699FF"/>
<ellipse cx="1.87843" cy="1.51434" rx="1.87843" ry="1.51434" transform="matrix(0.797057 -0.603905 0.603903 0.797058 79.3472 134.146)" fill="#6699FF"/>
<path d="M86.0002 136.301C85.453 136.885 84.3207 137.291 83.0991 136.961" stroke="black" stroke-width="1.37751" stroke-linecap="round" stroke-linejoin="round"/>
<path d="M81.0264 130.592L81.3471 130.972" stroke="black" stroke-width="1.37751" stroke-linecap="round" stroke-linejoin="round"/>
<path d="M72.4554 133.523C72.4554 133.523 71.3793 133.634 71.5248 134.873C71.6173 135.664 72.5281 136.321 73.5695 136.689" stroke="black" stroke-width="1.37751" stroke-linecap="round" stroke-linejoin="round"/>
<path d="M40.1009 169.84C40.1009 169.84 39.0298 163.133 43.1259 157.592C47.2221 152.052 57.4874 148.35 61.3819 142.913C65.2764 137.476 67.8038 129.683 70.3379 126.775C73.1993 123.495 77.4095 124.04 77.4095 124.04" stroke="black" stroke-width="1.37751" stroke-linecap="round" stroke-linejoin="round"/>
<path d="M159.613 168.192C159.613 168.192 156.984 160.269 157.032 157.937C157.08 155.605 157.956 152.542 158.322 151.277C158.687 150.013 157.032 148.506 155.523 149.916C154.014 151.325 152.797 154.486 152.797 154.486C152.797 154.486 151.301 151.551 150.187 150.165C149.073 148.779 147.083 146.369 145.623 146.739C144.817 146.89 144.286 147.665 144.436 148.47C144.436 148.47 142.648 146.684 141.461 147.924C140.274 149.163 141.626 151.533 141.626 151.533C140.841 151.579 140.165 152.104 139.928 152.854C139.454 154.174 140.532 156.207 140.532 156.207C140.532 156.207 139.338 156.155 138.907 157.282C138.378 158.668 139.148 160.111 141.682 164.864C143.963 169.155 145.387 175.802 145.716 178.517C145.721 178.551 145.728 178.585 145.737 178.618C145.9 178.388 146.168 178.258 146.45 178.271C146.648 178.271 146.828 178.271 147 178.271C146.988 178.005 147.089 177.746 147.278 177.558C147.431 177.292 147.712 177.125 148.019 177.116C148.326 177.107 148.616 177.257 148.785 177.513C149.226 177.174 149.723 176.912 150.253 176.741C151.141 176.465 152.043 176.246 152.898 175.853C153.677 175.497 154.435 175.11 155.23 174.788C155.447 174.686 155.701 174.695 155.91 174.813C158.075 173.552 159.725 172.503 159.725 172.503L159.613 168.192Z" fill="#FEB0A3"/>
<path d="M150.572 157.363C149.187 154.429 147.383 151.711 145.216 149.294" stroke="#231F20" stroke-width="1.37751" stroke-linecap="round" stroke-linejoin="round"/>
<path d="M147.927 160.728C146.5 157.649 144.612 154.803 142.329 152.289" stroke="#231F20" stroke-width="1.37751" stroke-linecap="round" stroke-linejoin="round"/>
<path d="M145.643 164.854C144.502 162.019 142.977 159.354 141.112 156.932" stroke="#231F20" stroke-width="1.37751" stroke-linecap="round" stroke-linejoin="round"/>
<path d="M161.208 173.176L159.613 168.192L145.22 178.35L145.449 178.971C149.833 177.258 155.94 174.937 161.208 173.176Z" fill="#0061FA"/>
<path d="M96.7897 225.877L95.0309 229.408C93.4109 232.401 93.5535 236.038 95.4029 238.895C97.2523 241.753 100.515 243.377 103.913 243.132C107.312 242.887 110.307 240.813 111.726 237.719L113.285 234.597L96.7897 225.877Z" fill="#FEB0A3"/>
<path d="M114.415 235.267L95.3047 225.135" stroke="#231F20" stroke-width="1.37751" stroke-linecap="round" stroke-linejoin="round"/>
<rect x="30.1943" y="88.7211" width="37.021" height="5.68755" rx="2.84377" fill="#6699FF" stroke="#6699FF" stroke-width="1.37751"/>
<path d="M22.4629 83.3206C22.4629 83.3206 23.7853 69.4681 32.2471 69.4681C40.7089 69.4681 45.6746 83.3206 38.3732 83.3206C31.0718 83.3206 33.6257 69.1083 42.4644 69.1083C50.7163 69.1083 52.8702 83.3256 49.4071 83.3256C45.944 83.3256 46.997 75.1606 52.0354 75.1606C57.0738 75.1606 57.6556 83.3256 57.6556 83.3256H93.46" stroke="#6699FF" stroke-width="1.37751" stroke-linecap="round" stroke-linejoin="round"/>
<path d="M220.804 216.032C220.804 216.032 222.077 201.815 230.912 201.815C239.162 201.815 241.316 216.032 237.855 216.032C234.393 216.032 235.446 207.868 240.485 207.868C245.523 207.868 246.105 216.032 246.105 216.032H281.909" stroke="black" stroke-width="1.37751" stroke-linecap="round" stroke-linejoin="round"/>
<ellipse cx="126.218" cy="58.6823" rx="4.75408" ry="4.74678" fill="#6699FF" stroke="#6699FF" stroke-width="1.37751"/>
<ellipse cx="104.458" cy="131.373" rx="2.19025" ry="2.18688" fill="#6699FF" stroke="#6699FF" stroke-width="1.37751"/>
<ellipse cx="21.5044" cy="136.682" rx="3.5044" ry="3.49902" fill="#6699FF" stroke="#6699FF" stroke-width="1.37751"/>
<ellipse cx="270.768" cy="105.011" rx="4.7045" ry="4.69726" fill="#6699FF" stroke="#6699FF" stroke-width="1.37751"/>
<path d="M154.84 69.1001C154.509 70.0095 155.316 71.0625 156.553 71.315C157.895 71.589 159.335 70.9618 160.085 70.0986C160.836 69.2354 161.049 68.189 161.242 67.1756C161.389 66.423 161.322 65.4129 160.321 65.2132C159.738 65.1172 159.146 65.337 158.768 65.7909C158.455 66.187 158.396 66.6623 158.343 67.1113C158.23 68.0768 158.128 69.0919 158.654 69.9815C159.179 70.8711 160.559 71.5709 161.814 71.2622C162.495 71.0972 163.029 70.6384 163.146 70.1184C163.264 69.5985 162.96 69.0374 162.383 68.7221C162.093 69.2883 161.978 69.9319 162.287 70.4915C162.596 71.051 163.418 71.4817 164.228 71.3712C165.038 71.2606 165.59 70.4865 165.117 69.993C164.556 70.5855 165.152 71.5527 166.129 71.6435C167.105 71.7343 167.988 70.8892 167.631 70.2158C167.114 70.6037 167.567 71.3959 168.307 71.3976C169.048 71.3992 169.502 70.6086 168.988 70.2175C168.378 70.5245 168.492 71.2919 169.101 71.6006C169.709 71.9092 170.573 71.8151 171.18 71.5049" stroke="black" stroke-width="1.37751" stroke-linecap="round" stroke-linejoin="round"/>
<path d="M154.939 111.202C156.167 110.12 156.886 108.574 156.923 106.939C156.952 106.514 156.862 106.09 156.662 105.714C156.442 105.354 156.001 105.097 155.596 105.191C154.951 105.341 154.757 106.16 154.769 106.82C154.787 107.81 154.991 108.827 155.572 109.626C156.154 110.425 157.171 110.96 158.143 110.765C159.115 110.57 159.887 109.515 159.598 108.57C159.03 108.726 158.681 109.296 158.801 109.872C158.921 110.448 159.468 110.832 160.052 110.75C160.635 110.667 161.054 110.147 161.009 109.56C160.838 109.859 160.889 110.236 161.133 110.48C161.377 110.724 161.754 110.775 162.054 110.605C162.354 110.435 162.504 110.086 162.419 109.751C162.198 109.916 162.254 110.303 162.5 110.44C162.754 110.561 163.056 110.513 163.259 110.317C163.453 110.122 163.593 109.88 163.664 109.614C163.675 110.229 164.074 110.769 164.659 110.961C165.244 111.153 165.886 110.955 166.261 110.468" stroke="black" stroke-width="1.37751" stroke-linecap="round" stroke-linejoin="round"/>
<path d="M154.762 88.6154C155.589 89.3152 156.876 89.2756 157.799 88.7161C158.721 88.1566 159.306 87.1448 159.591 86.1017C159.875 85.0586 159.893 83.9561 159.908 82.8833C159.908 82.4063 159.918 81.9095 159.711 81.4788C159.505 81.048 159.02 80.7113 158.554 80.8351C158.04 80.9721 157.815 81.5629 157.7 82.0812C157.409 83.3851 157.324 84.7649 157.7 86.0423C158.075 87.3198 158.939 88.5065 160.166 89.0446C161.392 89.5826 162.976 89.3647 163.864 88.3695C164.174 88.0483 164.351 87.6221 164.36 87.1762C164.346 86.7339 164.052 86.2849 163.619 86.1859C163.085 86.0687 162.543 86.5523 162.485 87.097C162.427 87.6416 162.756 88.1698 163.204 88.485C163.823 88.9171 164.622 88.9955 165.313 88.6919C166.004 88.3883 166.486 87.7468 166.585 86.9996C165.991 87.4948 166.254 88.6501 167.006 88.8399C167.758 89.0297 168.543 88.1549 168.266 87.432C167.809 87.7077 167.879 88.4768 168.32 88.7772C168.762 89.0776 169.39 88.9653 169.808 88.6385C170.226 88.3117 170.489 87.8133 170.696 87.3264C171.285 85.9305 171.584 84.4295 171.575 82.9147C171.575 82.2842 171.36 81.4821 170.732 81.4078C170.033 81.3253 169.672 82.2066 169.55 82.8932C169.312 84.2516 169.072 85.6561 169.4 86.9963C169.727 88.3365 170.777 89.6024 172.152 89.7295C173.57 89.8599 174.946 88.556 174.888 87.1349C174.127 87.5789 174.17 88.8993 174.957 89.2938C175.744 89.6882 176.828 88.9323 176.731 88.0592C176.714 88.6451 177.118 89.1815 177.625 89.4737C178.133 89.7658 178.733 89.8549 179.318 89.9011C180.709 90.0054 182.108 89.8941 183.465 89.5711" stroke="black" stroke-width="1.37751" stroke-linecap="round" stroke-linejoin="round"/>
</svg>
