<svg width="385" height="339" viewBox="0 0 385 339" fill="none" xmlns="http://www.w3.org/2000/svg">
<path d="M385 108.024L374.822 255.551L34.6072 271.465L2.90796 212.151L134.795 26.1973L385 108.024Z" fill="#134B67"/>
<rect x="173.81" y="1" width="182.93" height="326.253" rx="12.3672" fill="black" stroke="black" stroke-width="1.2"/>
<rect x="173.81" y="8.83594" width="170.479" height="318.415" rx="12.3672" fill="white" stroke="black" stroke-width="1.2"/>
<path d="M347.934 76.901H349.446C350.318 76.9017 351.154 76.5563 351.771 75.941C352.388 75.3257 352.734 74.4909 352.734 73.6205V55.4085C352.734 54.538 352.388 53.7032 351.771 53.0879C351.154 52.4726 350.318 52.1273 349.446 52.1279H347.934" stroke="white" stroke-width="1.2" stroke-linecap="round" stroke-linejoin="round"/>
<path d="M352.734 121.175V111.307C352.734 110.436 352.388 109.601 351.771 108.985C351.155 108.37 350.318 108.024 349.446 108.024H347.934" stroke="white" stroke-width="1.2" stroke-linecap="round" stroke-linejoin="round"/>
<path d="M347.934 125.067H349.446C350.318 125.067 351.155 124.721 351.771 124.105C352.388 123.489 352.734 122.654 352.734 121.784V113.447" stroke="white" stroke-width="1.2" stroke-linecap="round" stroke-linejoin="round"/>
<path d="M352.734 139.912V130.041C352.734 129.171 352.388 128.336 351.771 127.721C351.154 127.105 350.318 126.76 349.446 126.761H347.934" stroke="white" stroke-width="1.2" stroke-linecap="round" stroke-linejoin="round"/>
<path d="M347.934 143.803H349.446C351.262 143.803 352.734 142.334 352.734 140.52V132.186" stroke="white" stroke-width="1.2" stroke-linecap="round" stroke-linejoin="round"/>
<rect x="193.485" y="61.6577" width="129.283" height="27.6295" stroke="black" stroke-width="1.2" stroke-linecap="round" stroke-linejoin="round"/>
<rect x="193.485" y="118.98" width="129.283" height="27.6295" stroke="black" stroke-width="1.2" stroke-linecap="round" stroke-linejoin="round"/>
<rect x="193.485" y="176.3" width="129.283" height="27.6295" stroke="black" stroke-width="1.2" stroke-linecap="round" stroke-linejoin="round"/>
<path d="M181.917 196.412L193.955 211.49L173.81 217.584L181.917 196.412Z" fill="#0061FA"/>
<path d="M197.03 301.21V339H206.15V323.97H211.67V339H251.75C257.049 339 261.398 332.86 250.053 326.086C238.708 319.312 228.002 316.666 228.002 316.666V301.634L197.03 301.21Z" fill="#231F20"/>
<path d="M226.389 317.613C224.196 318.911 222.162 320.46 220.329 322.228" stroke="white" stroke-width="1.2" stroke-linecap="round" stroke-linejoin="round"/>
<path d="M225.899 312.784C223.492 313.622 221.19 314.736 219.04 316.103" stroke="white" stroke-width="1.2" stroke-linecap="round" stroke-linejoin="round"/>
<path d="M231.126 319.93C229.321 321.728 227.731 323.728 226.389 325.892" stroke="white" stroke-width="1.2" stroke-linecap="round" stroke-linejoin="round"/>
<path d="M72.4553 277.316H34.6001V286.422H49.6553V291.934H34.6001V331.952C34.6001 337.246 40.7489 341.586 47.5337 330.261C54.3185 318.936 56.9705 308.241 56.9705 308.241H72.0401L72.4553 277.316Z" fill="#231F20"/>
<path d="M56.0175 306.633C54.7198 304.443 53.1701 302.413 51.3999 300.583" stroke="white" stroke-width="1.2" stroke-linecap="round" stroke-linejoin="round"/>
<path d="M60.8633 306.144C60.0262 303.74 58.9106 301.441 57.5393 299.295" stroke="white" stroke-width="1.2" stroke-linecap="round" stroke-linejoin="round"/>
<path d="M53.7087 311.363C51.9094 309.56 49.9054 307.972 47.7375 306.633" stroke="white" stroke-width="1.2" stroke-linecap="round" stroke-linejoin="round"/>
<path d="M177.486 215.468C177.486 215.468 205.48 204.028 218.409 200.788C231.338 197.548 237.7 199.695 240.532 200.788C248.661 203.929 256.11 213.967 255.652 223.835C255.122 235.443 259.043 236.181 259.36 241.65C259.677 247.118 256.605 247.542 256.605 252.941C256.605 258.34 259.619 263.006 259.384 268.184C259.149 273.362 257.027 273.264 257.027 277.817C257.027 282.37 259.996 287.661 259.996 292.001C259.996 296.341 259.254 296.13 259.254 297.824C259.254 299.518 262.329 302.058 262.012 307.563L194.584 306.079L196.504 258.872L171.801 265.754C171.801 265.754 183.17 283.396 186.537 294.723C189.904 306.051 190.991 321.857 177.986 329.055C167.32 334.95 147.623 332.23 143.066 332.968C138.508 333.706 132.357 336.779 128.116 336.563C123.875 336.347 117.938 333.493 112.214 333.601C106.49 333.709 100.338 338.154 95.4616 337.941C90.5848 337.727 88.36 334.555 84.2248 334.555C80.0896 334.555 71.0776 337.308 68.0032 337.191V277.182L106.382 278.769L95.56 232.934L157.156 198.979L177.486 215.468Z" fill="#6699FF"/>
<path d="M189.388 260.849L196.499 258.867L195.693 278.831L202.329 257.175L189.388 260.849Z" fill="#3764AD"/>
<path d="M171.796 265.749L178.103 263.993L164.058 255.548C166.83 258.799 169.413 262.205 171.796 265.749Z" fill="#3764AD"/>
<path d="M110.517 279.087L103.593 266.945L106.382 278.769L103.094 278.632L110.517 279.087Z" fill="#0061FA"/>
<path d="M208.175 154.884C207.03 156.952 204.483 157.792 202.33 156.81C200.177 155.828 199.144 153.357 199.96 151.138C198.697 153.137 196.105 153.827 194.013 152.722C192.009 151.66 191.064 149.311 191.776 147.161C190.46 148.963 188.023 149.537 186.039 148.511C184.056 147.485 183.119 145.166 183.834 143.053L112.84 285.291C110.488 289.637 110.695 294.917 113.38 299.066C116.065 303.215 120.802 305.573 125.736 305.218C130.671 304.862 135.019 301.85 137.08 297.359L208.425 154.405V154.321C208.355 154.514 208.271 154.702 208.175 154.884Z" fill="black"/>
<path d="M184.674 142.457C184.674 142.457 182.598 146.825 186.419 148.378C188.452 149.202 190.413 149.188 191.67 147.47C190.967 149.48 191.447 152.401 193.386 153.427C195.414 154.501 198.558 153.092 199.763 151.184C198.976 153.216 199.905 155.301 201.878 156.346C202.9 156.887 204.095 157 205.201 156.661C206.307 156.322 207.233 155.557 207.774 154.537C207.866 154.361 207.946 154.179 208.014 153.993L207.414 149.895L204.7 131.333L188.764 140.199L184.684 142.469" fill="white"/>
<path d="M184.674 142.457C184.674 142.457 182.598 146.825 186.419 148.378C188.452 149.202 190.413 149.188 191.67 147.47C190.967 149.48 191.447 152.401 193.386 153.427C195.414 154.501 198.558 153.092 199.763 151.184C198.976 153.216 199.905 155.301 201.878 156.346C202.9 156.887 204.095 157 205.201 156.661C206.307 156.322 207.233 155.557 207.774 154.537C207.866 154.361 207.946 154.179 208.014 153.993L207.414 149.895L204.7 131.333L188.764 140.199L184.684 142.469" stroke="black" stroke-width="1.2" stroke-linecap="round" stroke-linejoin="round"/>
<path d="M205.595 137.465L204.698 131.333L199.274 134.345C200.529 136.593 203.045 137.832 205.595 137.46V137.465Z" fill="black"/>
<path d="M132.887 165.08C128.567 155.763 116.788 157.506 108.803 155.174C100.929 152.876 99.412 133.006 88.0672 131.762C78.76 130.741 73.1992 139.356 71.08 152.907C68.9608 166.458 50.0896 170.161 43.0912 177.735C36.0928 185.31 31.6384 207.95 49.3456 217.687C67.0528 227.423 91.54 220.967 91.54 220.967L132.887 165.08Z" fill="black"/>
<path d="M117.237 235.556C117.237 235.556 131.922 229.065 134.123 227.253C137.128 224.782 139.643 222.031 142.11 219.702C144.578 217.373 148.154 219.489 146.954 222.312C145.754 225.135 141.786 230.016 142.535 232.158C143.56 235.086 152.615 235.228 156.846 234.451C161.078 233.675 162.39 233.114 164.553 232.534C167.766 231.686 168.474 234.087 167.98 236.026C167.98 236.026 169.994 236.203 170.099 238.072C170.205 239.941 168.297 241.108 168.297 241.108C168.742 242.008 168.818 243.046 168.51 244.001C167.98 245.554 165.39 246.649 165.39 246.649C165.727 247.379 165.714 248.223 165.354 248.942C164.366 251.13 159.064 252.963 154.682 253.318C150.299 253.672 138.815 255.474 135.033 257.41C131.25 259.347 126.705 262.498 126.705 262.498L118.12 245.53L117.237 235.556Z" fill="#FEB0A3"/>
<path d="M152.294 245.891C157.503 245.426 162.578 243.987 167.255 241.65" stroke="#231F20" stroke-width="1.2" stroke-linecap="round" stroke-linejoin="round"/>
<path d="M152.658 249.855C156.56 249.535 160.398 248.668 164.058 247.281" stroke="#231F20" stroke-width="1.2" stroke-linecap="round" stroke-linejoin="round"/>
<path d="M151.96 240.986C157.111 240.478 162.122 239.015 166.737 236.673" stroke="#231F20" stroke-width="1.2" stroke-linecap="round" stroke-linejoin="round"/>
<path d="M165.568 179.808C165.568 179.808 147.376 167.621 139.168 165.502C130.96 163.384 110.543 171.467 110.543 171.467L89.5168 181.347C89.5168 181.347 73.4368 189.216 69.0544 196.837C64.672 204.457 61.1128 229.299 60.0664 245.53C59.02 261.76 57.4624 275.723 67.5064 282.651C77.5504 289.579 89.8408 284.345 106.098 274.743C122.356 265.141 127.019 262.321 127.019 262.321C127.019 262.321 123.062 255.546 121.499 249.196C119.937 242.846 118.54 234.94 118.54 234.94L96.5752 245.244L97.132 235.082L152.138 206.566L165.568 179.808Z" fill="#46C1B5"/>
<path d="M96.9592 238.652L96.9352 238.683L96.688 243.202L96.9592 238.652Z" fill="#0043AE"/>
<path d="M96.688 243.203L96.9352 238.683L89.1016 248.568L96.58 245.18L96.688 243.203Z" fill="#228279"/>
<path d="M97.1753 235.065L102.402 232.378L98.2193 217.583L97.1753 235.065Z" fill="#228279"/>
<path d="M150.071 207.648L152.138 206.577L152.706 205.444L147.518 197.843L150.071 207.648Z" fill="#228279"/>
<mask id="mask0_2_3088" style="mask-type:luminance" maskUnits="userSpaceOnUse" x="59" y="165" width="107" height="121">
<path fill-rule="evenodd" clip-rule="evenodd" d="M165.568 179.808C165.568 179.808 147.376 167.621 139.168 165.502C130.96 163.384 110.543 171.467 110.543 171.467L89.5168 181.347C89.5168 181.347 73.4368 189.216 69.0544 196.837C64.672 204.457 61.1128 229.299 60.0664 245.53C59.02 261.76 57.4624 275.723 67.5064 282.651C77.5504 289.579 89.8408 284.345 106.098 274.743C122.356 265.141 127.019 262.321 127.019 262.321C127.019 262.321 123.062 255.546 121.499 249.196C119.937 242.846 118.54 234.94 118.54 234.94L96.5752 245.244L97.132 235.082L152.138 206.566L165.568 179.808Z" fill="white"/>
</mask>
<g mask="url(#mask0_2_3088)">
<path d="M72.4552 189.322C72.4552 189.322 84.2152 195.567 84.1192 200.86C84.0232 206.153 76.0624 208.049 67.156 197.266" stroke="white" stroke-width="1.2" stroke-linecap="round" stroke-linejoin="round"/>
<path d="M76.576 185.816C76.576 185.816 93.3616 192.394 93.5632 201.922C93.7648 211.449 85.708 215.152 78.712 212.705C71.716 210.258 61.7488 198.169 61.7488 198.169" stroke="white" stroke-width="1.2" stroke-linecap="round" stroke-linejoin="round"/>
<path d="M81.6807 182.533C81.6807 182.533 93.5631 184.874 98.3247 192.816C103.125 200.819 101.824 218.696 84.1191 221.397C68.6487 223.747 60.0759 215.468 60.0759 215.468" stroke="white" stroke-width="1.2" stroke-linecap="round" stroke-linejoin="round"/>
<path d="M60.8631 223.071C60.8631 223.071 65.5647 227.43 71.2911 227.536C81.6375 227.727 89.1015 230.394 79.3479 236.661C69.1407 243.219 53.7087 240.608 53.7087 240.608" stroke="white" stroke-width="1.2" stroke-linecap="round" stroke-linejoin="round"/>
<path fill-rule="evenodd" clip-rule="evenodd" d="M98.8815 219.923C103.845 217.193 103.254 212.494 106.321 213.668C109.201 214.761 104.572 220.407 101.497 223.071C98.4231 225.736 88.7775 231.981 88.4583 227.27C88.1391 222.559 96.3615 221.308 98.8815 219.923Z" stroke="white" stroke-width="1.2" stroke-linecap="round" stroke-linejoin="round"/>
<path d="M97.8472 174.29C102.46 176.724 107.656 183.499 107.867 189.322C108.078 195.145 105.746 205.94 109.139 207.316C112.533 208.691 119.219 197.764 118.151 182.533C117.083 167.302 115.924 165.208 115.924 165.208" stroke="white" stroke-width="1.2" stroke-linecap="round" stroke-linejoin="round"/>
<path d="M127.905 163.492C128.116 169.003 128.435 190.115 123.769 203.929C120.04 214.979 97.3382 248.043 59.3054 247.281" stroke="white" stroke-width="1.2" stroke-linecap="round" stroke-linejoin="round"/>
<path d="M54.1455 254.758C58.7199 255.606 73.0263 254.638 84.9135 247.878C96.8007 241.118 107.954 238.245 102.724 247.878C97.4943 257.511 73.2615 266.21 60.0471 270.276" stroke="white" stroke-width="1.2" stroke-linecap="round" stroke-linejoin="round"/>
<path d="M123.801 238.825C121.468 241.844 108.057 255.551 94.9286 263.845C85.2734 269.941 70.019 275.929 60.863 278.048" stroke="white" stroke-width="1.2" stroke-linecap="round" stroke-linejoin="round"/>
<path d="M67.156 287.257C72.34 285.773 88.072 278.87 98.2504 271.465C108.429 264.06 119.723 258.247 118.264 268.465" stroke="white" stroke-width="1.2" stroke-linecap="round" stroke-linejoin="round"/>
<path d="M138.114 161.685C137.795 166.37 134.401 178.965 139.281 182.035C144.16 185.104 146.807 167.216 146.807 162.452" stroke="white" stroke-width="1.2" stroke-linecap="round" stroke-linejoin="round"/>
<path fill-rule="evenodd" clip-rule="evenodd" d="M130.055 205.111C134.401 198.979 135.882 185.617 140.233 191.565C144.369 197.215 135.887 218.933 131.541 221.231C127.194 223.529 119.025 220.671 130.055 205.111Z" stroke="white" stroke-width="1.2" stroke-linecap="round" stroke-linejoin="round"/>
<path d="M154.864 167.427C153.803 170.71 148.398 193.856 145.322 203.93C142.245 214.004 140.339 217.09 140.339 217.09" stroke="white" stroke-width="1.2" stroke-linecap="round" stroke-linejoin="round"/>
<path d="M162.179 170.815C161.219 174.095 154.979 190.642 154.864 195.48C154.749 200.318 158.522 201.301 158.522 201.301" stroke="white" stroke-width="1.2" stroke-linecap="round" stroke-linejoin="round"/>
</g>
<path d="M93.2727 134.17C93.2727 134.17 99.4551 139.569 101.505 142.287C103.554 145.004 106.518 150.482 104.809 153.259C103.978 154.689 102.491 155.614 100.84 155.73L110.557 171.467C110.557 171.467 109.391 179.442 104.231 181.629C99.0711 183.817 89.5311 181.347 89.5311 181.347L85.6431 152.447C84.6768 153.326 83.3546 153.702 82.0695 153.466C79.9479 153.044 76.3095 150.468 76.5903 147.398C76.8711 144.328 79.1367 143.763 80.5503 143.763C81.6352 143.757 82.704 144.024 83.6583 144.539L83.7663 140.552C83.7663 140.552 89.1711 139.953 91.0095 138.635C92.8479 137.317 93.2727 134.17 93.2727 134.17Z" fill="#FEB0A3"/>
<path d="M100.84 155.73C99.3189 155.776 97.7964 155.735 96.28 155.606C93.9136 155.395 89.884 154.388 89.884 154.388L90.8728 159.152C93.2361 160.43 95.8321 161.222 98.5072 161.481C103.031 161.939 104.392 161.481 104.392 161.481L100.84 155.73Z" fill="#FD8571"/>
<path d="M96.5752 139.991L101.03 145.92L104.846 143.59L96.5752 139.991Z" fill="#6699FF"/>
<ellipse cx="93.5707" cy="147.087" rx="2.72727" ry="2.19865" transform="rotate(-37.15 93.5707 147.087)" fill="#6699FF"/>
<path d="M99.7288 150.11C98.9344 150.959 97.2904 151.548 95.5168 151.069" stroke="black" stroke-width="1.2" stroke-linecap="round" stroke-linejoin="round"/>
<path d="M92.5073 141.822L92.9729 142.373" stroke="black" stroke-width="1.2" stroke-linecap="round" stroke-linejoin="round"/>
<path d="M80.0632 146.078C80.0632 146.078 78.5008 146.238 78.712 148.038C78.8464 149.186 80.1688 150.139 81.6808 150.674" stroke="black" stroke-width="1.2" stroke-linecap="round" stroke-linejoin="round"/>
<path d="M33.0879 198.806C33.0879 198.806 31.5327 189.068 37.4799 181.023C43.4271 172.979 58.3311 167.604 63.9855 159.71C69.6399 151.817 73.3095 140.501 76.9887 136.279C81.1431 131.518 87.2559 132.308 87.2559 132.308" stroke="black" stroke-width="1.2" stroke-linecap="round" stroke-linejoin="round"/>
<path d="M206.606 196.412C206.606 196.412 202.79 184.91 202.859 181.524C202.929 178.138 204.201 173.69 204.731 171.855C205.262 170.019 202.859 167.831 200.668 169.878C198.477 171.924 196.711 176.513 196.711 176.513C196.711 176.513 194.539 172.252 192.921 170.24C191.303 168.227 188.414 164.728 186.295 165.265C185.124 165.485 184.354 166.61 184.571 167.779C184.571 167.779 181.975 165.186 180.251 166.985C178.528 168.785 180.491 172.226 180.491 172.226C179.351 172.293 178.37 173.055 178.027 174.143C177.338 176.06 178.903 179.012 178.903 179.012C178.903 179.012 177.17 178.936 176.543 180.572C175.775 182.585 176.894 184.68 180.573 191.581C183.885 197.811 185.951 207.461 186.429 211.403C186.436 211.453 186.447 211.502 186.46 211.55C186.697 211.217 187.086 211.027 187.495 211.046C187.783 211.046 188.044 211.046 188.294 211.046C188.277 210.66 188.423 210.284 188.697 210.011C188.92 209.625 189.327 209.382 189.773 209.369C190.219 209.356 190.64 209.574 190.886 209.946C191.526 209.453 192.247 209.074 193.017 208.825C194.306 208.425 195.616 208.106 196.857 207.536C197.987 207.018 199.089 206.457 200.243 205.99C200.558 205.841 200.926 205.854 201.23 206.026C204.374 204.195 206.769 202.671 206.769 202.671L206.606 196.412Z" fill="#FEB0A3"/>
<path d="M193.48 180.69C191.469 176.43 188.849 172.484 185.704 168.975" stroke="#231F20" stroke-width="1.2" stroke-linecap="round" stroke-linejoin="round"/>
<path d="M189.64 185.576C187.567 181.105 184.826 176.974 181.511 173.324" stroke="#231F20" stroke-width="1.2" stroke-linecap="round" stroke-linejoin="round"/>
<path d="M186.323 191.567C184.667 187.451 182.453 183.581 179.745 180.064" stroke="#231F20" stroke-width="1.2" stroke-linecap="round" stroke-linejoin="round"/>
<path d="M208.922 203.649L206.606 196.412L185.709 211.161L186.042 212.062C192.407 209.575 201.273 206.206 208.922 203.649Z" fill="#0061FA"/>
<path d="M115.394 280.166L112.84 285.291C110.488 289.637 110.695 294.917 113.38 299.066C116.065 303.215 120.802 305.573 125.736 305.218C130.671 304.862 135.019 301.85 137.08 297.359L139.343 292.825L115.394 280.166Z" fill="#FEB0A3"/>
<path d="M140.985 293.798L113.238 279.087" stroke="#231F20" stroke-width="1.2" stroke-linecap="round" stroke-linejoin="round"/>
<rect x="18.7048" y="81.0298" width="53.7504" height="8.2577" rx="4.12885" fill="#6699FF" stroke="#6699FF" stroke-width="1.2"/>
<path d="M7.47998 73.1889C7.47998 73.1889 9.39998 53.0766 21.6856 53.0766C33.9712 53.0766 41.1808 73.1889 30.58 73.1889C19.9792 73.1889 23.6872 52.5542 36.52 52.5542C48.5008 52.5542 51.628 73.196 46.6 73.196C41.572 73.196 43.1008 61.3415 50.416 61.3415C57.7312 61.3415 58.576 73.196 58.576 73.196H110.56" stroke="#6699FF" stroke-width="1.2" stroke-linecap="round" stroke-linejoin="round"/>
<path d="M295.449 265.872C295.449 265.872 297.297 245.23 310.125 245.23C322.103 245.23 325.23 265.872 320.205 265.872C315.179 265.872 316.708 254.017 324.023 254.017C331.338 254.017 332.183 265.872 332.183 265.872H384.167" stroke="black" stroke-width="1.2" stroke-linecap="round" stroke-linejoin="round"/>
<ellipse cx="158.121" cy="37.4167" rx="6.9024" ry="6.8918" fill="#6699FF" stroke="#6699FF" stroke-width="1.2"/>
<ellipse cx="126.527" cy="142.955" rx="3.18" ry="3.17512" fill="#6699FF" stroke="#6699FF" stroke-width="1.2"/>
<ellipse cx="6.088" cy="150.664" rx="5.088" ry="5.08018" fill="#6699FF" stroke="#6699FF" stroke-width="1.2"/>
<ellipse cx="367.991" cy="104.681" rx="6.8304" ry="6.81991" fill="#6699FF" stroke="#6699FF" stroke-width="1.2"/>
<path d="M199.677 52.5422C199.197 53.8626 200.368 55.3914 202.163 55.7581C204.112 56.1559 206.202 55.2453 207.292 53.992C208.382 52.7387 208.691 51.2195 208.972 49.7481C209.186 48.6554 209.087 47.1889 207.635 46.8989C206.788 46.7595 205.929 47.0786 205.379 47.7376C204.926 48.3127 204.839 49.0029 204.762 49.6547C204.599 51.0565 204.45 52.5302 205.214 53.8219C205.977 55.1135 207.981 56.1295 209.802 55.6814C210.791 55.4418 211.566 54.7756 211.737 54.0207C211.907 53.2659 211.466 52.4512 210.628 51.9935C210.208 52.8154 210.04 53.75 210.489 54.5623C210.938 55.3747 212.13 56.0001 213.306 55.8395C214.482 55.679 215.284 54.5551 214.598 53.8386C213.784 54.6989 214.648 56.1031 216.066 56.2349C217.485 56.3667 218.766 55.1398 218.248 54.1621C217.497 54.7253 218.154 55.8755 219.23 55.8779C220.305 55.8803 220.965 54.7325 220.218 54.1645C219.333 54.6102 219.498 55.7245 220.382 56.1726C221.265 56.6207 222.52 56.4842 223.401 56.0337" stroke="black" stroke-width="1.2" stroke-linecap="round" stroke-linejoin="round"/>
<path d="M199.821 113.67C201.604 112.098 202.648 109.854 202.701 107.48C202.743 106.864 202.612 106.248 202.322 105.702C202.003 105.18 201.362 104.806 200.774 104.942C199.838 105.16 199.557 106.349 199.574 107.308C199.6 108.745 199.895 110.221 200.74 111.381C201.585 112.541 203.061 113.318 204.472 113.035C205.883 112.752 207.004 111.221 206.584 109.848C205.759 110.075 205.253 110.903 205.428 111.739C205.602 112.575 206.397 113.133 207.244 113.013C208.091 112.893 208.699 112.137 208.634 111.285C208.386 111.72 208.459 112.267 208.813 112.621C209.167 112.976 209.715 113.05 210.151 112.803C210.587 112.556 210.804 112.049 210.681 111.563C210.359 111.803 210.441 112.364 210.799 112.563C211.167 112.739 211.606 112.669 211.9 112.385C212.182 112.102 212.385 111.75 212.488 111.365C212.504 112.257 213.084 113.041 213.933 113.32C214.782 113.599 215.715 113.312 216.259 112.603" stroke="black" stroke-width="1.2" stroke-linecap="round" stroke-linejoin="round"/>
<path d="M199.564 80.8763C200.764 81.8924 202.634 81.8349 203.973 81.0225C205.312 80.2102 206.162 78.7412 206.574 77.2268C206.987 75.7123 207.014 74.1116 207.035 72.5539C207.035 71.8614 207.05 71.1401 206.75 70.5147C206.45 69.8892 205.746 69.4004 205.07 69.5801C204.323 69.779 203.997 70.6369 203.829 71.3893C203.406 73.2824 203.284 75.2857 203.829 77.1405C204.374 78.9952 205.629 80.7182 207.41 81.4994C209.19 82.2806 211.49 81.9643 212.778 80.5193C213.228 80.0529 213.485 79.4342 213.498 78.7868C213.479 78.1445 213.052 77.4927 212.423 77.349C211.648 77.1788 210.861 77.881 210.777 78.6717C210.693 79.4625 211.17 80.2293 211.821 80.687C212.719 81.3143 213.879 81.4281 214.882 80.9874C215.885 80.5466 216.585 79.6152 216.729 78.5304C215.867 79.2492 216.249 80.9267 217.341 81.2022C218.433 81.4778 219.573 80.2078 219.17 79.1582C218.507 79.5584 218.608 80.6751 219.249 81.1112C219.89 81.5473 220.802 81.3844 221.409 80.9099C222.016 80.4354 222.398 79.7117 222.698 79.0048C223.553 76.9781 223.988 74.7989 223.974 72.5995C223.974 71.6841 223.662 70.5195 222.75 70.4116C221.735 70.2918 221.212 71.5715 221.034 72.5683C220.689 74.5405 220.341 76.5798 220.816 78.5256C221.291 80.4714 222.815 82.3093 224.812 82.4939C226.871 82.6832 228.868 80.7901 228.784 78.7269C227.68 79.3715 227.742 81.2885 228.885 81.8612C230.027 82.4339 231.602 81.3364 231.46 80.0688C231.436 80.9195 232.022 81.6983 232.758 82.1224C233.495 82.5466 234.366 82.676 235.216 82.7431C237.236 82.8945 239.267 82.7328 241.238 82.2638" stroke="black" stroke-width="1.2" stroke-linecap="round" stroke-linejoin="round"/>
</svg>
