<svg width="16" height="16" viewBox="0 0 16 16" fill="none" xmlns="http://www.w3.org/2000/svg">
<path d="M7.66659 14.4999C3.89992 14.4999 0.833252 11.4333 0.833252 7.66659C0.833252 3.89992 3.89992 0.833252 7.66659 0.833252C11.4333 0.833252 14.4999 3.89992 14.4999 7.66659C14.4999 11.4333 11.4333 14.4999 7.66659 14.4999ZM7.66659 1.83325C4.44659 1.83325 1.83325 4.45325 1.83325 7.66659C1.83325 10.8799 4.44659 13.4999 7.66659 13.4999C10.8866 13.4999 13.4999 10.8799 13.4999 7.66659C13.4999 4.45325 10.8866 1.83325 7.66659 1.83325Z" fill="#0C273A"/>
<path d="M14.6666 15.1666C14.54 15.1666 14.4133 15.12 14.3133 15.02L12.98 13.6866C12.7866 13.4933 12.7866 13.1733 12.98 12.98C13.1733 12.7866 13.4933 12.7866 13.6866 12.98L15.02 14.3133C15.2133 14.5066 15.2133 14.8266 15.02 15.02C14.92 15.12 14.7933 15.1666 14.6666 15.1666Z" fill="#0C273A"/>
</svg>
