<svg width="25" height="24" viewBox="0 0 25 24" fill="none" xmlns="http://www.w3.org/2000/svg">
<path fill-rule="evenodd" clip-rule="evenodd" d="M1.75 11.5C1.75 5.85 6.35 1.25 12 1.25C17.65 1.25 22.25 5.85 22.25 11.5C22.25 17.15 17.65 21.75 12 21.75C6.35 21.75 1.75 17.15 1.75 11.5ZM3.25 11.5C3.25 16.32 7.17 20.25 12 20.25C16.83 20.25 20.75 16.32 20.75 11.5C20.75 6.68 16.83 2.75 12 2.75C7.17 2.75 3.25 6.68 3.25 11.5Z" fill="#7F939D"/>
<path d="M21.9704 22.5299L19.9704 20.5299C19.6804 20.2399 19.6804 19.7599 19.9704 19.4699C20.2604 19.1799 20.7404 19.1799 21.0304 19.4699L23.0304 21.4699C23.3204 21.7599 23.3204 22.2399 23.0304 22.5299C22.8804 22.6799 22.6904 22.7499 22.5004 22.7499C22.3104 22.7499 22.1204 22.6799 21.9704 22.5299Z" fill="#7F939D"/>
</svg>
