<svg width="16" height="16" viewBox="0 0 16 16" fill="none" xmlns="http://www.w3.org/2000/svg">
<path fill-rule="evenodd" clip-rule="evenodd" d="M5.20634 1.33334C2.77967 1.33334 1.33301 2.78001 1.33301 5.20668V10.7867C1.33301 13.22 2.77967 14.6667 5.20634 14.6667H10.7863C13.213 14.6667 14.6597 13.22 14.6597 10.7933V5.20668C14.6663 2.78001 13.2197 1.33334 10.793 1.33334H5.20634ZM10.2397 10.24C10.1397 10.34 10.013 10.3867 9.88634 10.3867C9.75967 10.3867 9.63301 10.34 9.53301 10.24L7.99967 8.70668L6.46634 10.24C6.36634 10.34 6.23967 10.3867 6.11301 10.3867C5.98634 10.3867 5.85967 10.34 5.75967 10.24C5.56634 10.0467 5.56634 9.72668 5.75967 9.53334L7.29301 8.00001L5.75967 6.46668C5.56634 6.27334 5.56634 5.95334 5.75967 5.76001C5.95301 5.56668 6.27301 5.56668 6.46634 5.76001L7.99967 7.29334L9.53301 5.76001C9.72634 5.56668 10.0463 5.56668 10.2397 5.76001C10.433 5.95334 10.433 6.27334 10.2397 6.46668L8.70634 8.00001L10.2397 9.53334C10.433 9.72668 10.433 10.0467 10.2397 10.24Z" fill="#0C273A"/>
</svg>
