<svg width="16" height="16" viewBox="0 0 16 16" fill="none" xmlns="http://www.w3.org/2000/svg">
<g opacity="0.5">
<path d="M12 7.16665C11.7267 7.16665 11.5 6.93998 11.5 6.66665V5.33331C11.5 3.23331 10.9067 1.83331 8 1.83331C5.09333 1.83331 4.5 3.23331 4.5 5.33331V6.66665C4.5 6.93998 4.27333 7.16665 4 7.16665C3.72667 7.16665 3.5 6.93998 3.5 6.66665V5.33331C3.5 3.39998 3.96667 0.833313 8 0.833313C12.0333 0.833313 12.5 3.39998 12.5 5.33331V6.66665C12.5 6.93998 12.2733 7.16665 12 7.16665Z" fill="#0C273A"/>
<path d="M11.3335 15.1667H4.66683C1.72683 15.1667 0.833496 14.2734 0.833496 11.3334V10C0.833496 7.06002 1.72683 6.16669 4.66683 6.16669H11.3335C14.2735 6.16669 15.1668 7.06002 15.1668 10V11.3334C15.1668 14.2734 14.2735 15.1667 11.3335 15.1667ZM4.66683 7.16669C2.28016 7.16669 1.8335 7.62002 1.8335 10V11.3334C1.8335 13.7134 2.28016 14.1667 4.66683 14.1667H11.3335C13.7202 14.1667 14.1668 13.7134 14.1668 11.3334V10C14.1668 7.62002 13.7202 7.16669 11.3335 7.16669H4.66683Z" fill="#0C273A"/>
<path d="M5.33317 11.3333C5.2465 11.3333 5.15983 11.3133 5.07983 11.28C4.99317 11.2467 4.92651 11.2 4.85984 11.14C4.73984 11.0133 4.6665 10.8467 4.6665 10.6667C4.6665 10.58 4.68649 10.4933 4.71983 10.4133C4.75316 10.3267 4.79984 10.26 4.85984 10.1933C4.92651 10.1333 4.99317 10.0867 5.07983 10.0533C5.31983 9.94665 5.61983 10.0067 5.8065 10.1933C5.8665 10.26 5.91318 10.3333 5.94651 10.4133C5.97985 10.4933 5.99984 10.58 5.99984 10.6667C5.99984 10.84 5.9265 11.0133 5.8065 11.14C5.67983 11.26 5.5065 11.3333 5.33317 11.3333Z" fill="#0C273A"/>
<path d="M8.00016 11.3334C7.82683 11.3334 7.6535 11.26 7.52684 11.14C7.40684 11.0134 7.3335 10.8467 7.3335 10.6667C7.3335 10.58 7.34682 10.4934 7.38682 10.4134C7.42015 10.3334 7.46684 10.26 7.52684 10.1934C7.68017 10.04 7.9135 9.9667 8.12683 10.0134C8.1735 10.02 8.2135 10.0334 8.2535 10.0534C8.2935 10.0667 8.33349 10.0867 8.37349 10.1134C8.40683 10.1334 8.44016 10.1667 8.47349 10.1934C8.53349 10.26 8.58017 10.3334 8.61351 10.4134C8.64684 10.4934 8.66683 10.58 8.66683 10.6667C8.66683 10.8467 8.59349 11.0134 8.47349 11.14C8.44016 11.1667 8.40683 11.1934 8.37349 11.22C8.33349 11.2467 8.2935 11.2667 8.2535 11.2801C8.2135 11.3001 8.1735 11.3134 8.12683 11.3201C8.08683 11.3267 8.04016 11.3334 8.00016 11.3334Z" fill="#0C273A"/>
<path d="M10.6667 11.3334C10.4867 11.3334 10.32 11.26 10.1933 11.14C10.1333 11.0734 10.0867 11 10.0533 10.92C10.02 10.84 10 10.7534 10 10.6667C10 10.4934 10.0733 10.32 10.1933 10.1934C10.2267 10.1667 10.26 10.1401 10.2933 10.1134C10.3333 10.0867 10.3733 10.0667 10.4133 10.0534C10.4533 10.0334 10.4933 10.02 10.5333 10.0134C10.7533 9.9667 10.98 10.04 11.14 10.1934C11.26 10.32 11.3333 10.4867 11.3333 10.6667C11.3333 10.7534 11.3133 10.84 11.28 10.92C11.2467 11.0067 11.2 11.0734 11.14 11.14C11.0133 11.26 10.84 11.3334 10.6667 11.3334Z" fill="#0C273A"/>
</g>
</svg>
