<svg width="16" height="16" viewBox="0 0 16 16" fill="none" xmlns="http://www.w3.org/2000/svg">
<path fill-rule="evenodd" clip-rule="evenodd" d="M8.53345 14.832C8.1884 14.7043 7.8116 14.7043 7.46655 14.832L4.57377 15.9027C3.51973 16.2928 2.41799 15.4597 2.44875 14.2958L2.53316 11.1014C2.54322 10.7204 2.42679 10.3474 2.20346 10.0453L0.331218 7.51263C-0.350968 6.58982 0.0698613 5.24177 1.1429 4.91254L4.08785 4.00898C4.43913 3.90121 4.74397 3.67069 4.951 3.35627L6.68667 0.720336C7.31909 -0.240112 8.68091 -0.240112 9.31333 0.720337L11.049 3.35627C11.256 3.67069 11.5609 3.90121 11.9121 4.00898L14.8571 4.91254C15.9301 5.24177 16.351 6.58982 15.6688 7.51263L13.7965 10.0453C13.5732 10.3474 13.4568 10.7204 13.4668 11.1014L13.5513 14.2958C13.582 15.4597 12.4803 16.2928 11.4262 15.9027L8.53345 14.832Z" fill="#522483"/>
<path d="M8 14.7363V0C7.50144 0 7.00288 0.240112 6.68667 0.720336L4.951 3.35627C4.74397 3.67069 4.43913 3.90121 4.08785 4.00898L1.1429 4.91254C0.0698613 5.24177 -0.350968 6.58982 0.331217 7.51263L2.20346 10.0453C2.42679 10.3474 2.54322 10.7204 2.53316 11.1014L2.44875 14.2958C2.41799 15.4597 3.51973 16.2928 4.57377 15.9027L7.46655 14.832C7.63907 14.7682 7.81954 14.7363 8 14.7363Z" fill="#522483"/>
</svg>
