<svg width="22" height="20" viewBox="0 0 22 20" fill="none" xmlns="http://www.w3.org/2000/svg">
<path fill-rule="evenodd" clip-rule="evenodd" d="M11.6701 18.4383C11.2367 18.2842 10.7633 18.2842 10.3299 18.4383L6.69615 19.7305C5.37212 20.2013 3.98817 19.1958 4.02681 17.7911L4.13284 13.9359C4.14549 13.476 3.99922 13.0259 3.7187 12.6613L1.36688 9.60465C0.509956 8.49092 1.03858 6.86399 2.38648 6.46666L6.08577 5.37617C6.52702 5.2461 6.90994 4.96789 7.17 4.58843L9.35026 1.40717C10.1447 0.248028 11.8553 0.248028 12.6497 1.40717L14.83 4.58843C15.0901 4.96789 15.473 5.2461 15.9142 5.37617L19.6135 6.46666C20.9614 6.86399 21.49 8.49092 20.6331 9.60465L18.2813 12.6613C18.0008 13.0259 17.8545 13.476 17.8672 13.9359L17.9732 17.7911C18.0118 19.1958 16.6279 20.2013 15.3039 19.7305L11.6701 18.4383Z" fill="#522483"/>
</svg>
