<svg width="12" height="12" viewBox="0 0 12 12" fill="none" xmlns="http://www.w3.org/2000/svg">
<path fill-rule="evenodd" clip-rule="evenodd" d="M6.40009 11.124C6.1413 11.0282 5.8587 11.0282 5.59991 11.124L3.43033 11.927C2.6398 12.2196 1.81349 11.5948 1.83656 10.7218L1.89987 8.32605C1.90742 8.04028 1.82009 7.76054 1.6526 7.53397L0.248413 5.63448C-0.263226 4.94236 0.052396 3.93133 0.857178 3.68441L3.06589 3.00674C3.32935 2.92591 3.55797 2.75302 3.71325 2.5172L5.015 0.540252C5.48931 -0.180084 6.51069 -0.180084 6.985 0.540253L8.28675 2.5172C8.44203 2.75302 8.67065 2.92591 8.93411 3.00674L11.1428 3.68441C11.9476 3.93133 12.2632 4.94236 11.7516 5.63448L10.3474 7.53397C10.1799 7.76054 10.0926 8.04028 10.1001 8.32605L10.1634 10.7218C10.1865 11.5948 9.3602 12.2196 8.56967 11.927L6.40009 11.124Z" fill="white"/>
</svg>
